<svg width="9" height="37" viewBox="0 0 9 37" fill="none" xmlns="http://www.w3.org/2000/svg">
<mask id="path-1-outside-1_137_104" maskUnits="userSpaceOnUse" x="-0.5" y="-1" width="11" height="39" fill="black">
<rect fill="white" x="-0.5" y="-1" width="11" height="39"/>
<path d="M0.70125 32.4844C0.70125 31.8906 0.802813 31.3438 1.00594 30.8438C1.20906 30.3438 1.49031 29.9141 1.84969 29.5547C2.22469 29.1797 2.66219 28.8906 3.16219 28.6875C3.66219 28.4844 4.20906 28.3828 4.80281 28.3828C5.39656 28.3828 5.94344 28.4844 6.44344 28.6875C6.94344 28.8906 7.37313 29.1797 7.7325 29.5547C8.1075 29.9141 8.39656 30.3438 8.59969 30.8438C8.80281 31.3438 8.90438 31.8906 8.90438 32.4844C8.90438 33.0938 8.80281 33.6484 8.59969 34.1484C8.39656 34.6484 8.1075 35.0859 7.7325 35.4609C7.37313 35.8203 6.94344 36.0938 6.44344 36.2812C5.94344 36.4844 5.39656 36.5859 4.80281 36.5859C4.20906 36.5859 3.66219 36.4844 3.16219 36.2812C2.66219 36.0938 2.22469 35.8203 1.84969 35.4609C1.49031 35.0859 1.20906 34.6484 1.00594 34.1484C0.802813 33.6484 0.70125 33.0938 0.70125 32.4844ZM1.75594 24.2812C1.70906 22.5781 1.67781 20.8672 1.66219 19.1484C1.64656 17.4297 1.6075 15.625 1.545 13.7344C1.49813 11.8281 1.42 9.80469 1.31063 7.66406C1.20125 5.50781 1.03719 3.15625 0.818438 0.609375H8.67C8.43563 3.15625 8.26375 5.50781 8.15438 7.66406C8.045 9.80469 7.95906 11.8281 7.89656 13.7344C7.84969 15.625 7.81844 17.4297 7.80281 19.1484C7.78719 20.8672 7.76375 22.5781 7.7325 24.2812H1.75594Z"/>
</mask>
<path d="M0.70125 32.4844C0.70125 31.8906 0.802813 31.3438 1.00594 30.8438C1.20906 30.3438 1.49031 29.9141 1.84969 29.5547C2.22469 29.1797 2.66219 28.8906 3.16219 28.6875C3.66219 28.4844 4.20906 28.3828 4.80281 28.3828C5.39656 28.3828 5.94344 28.4844 6.44344 28.6875C6.94344 28.8906 7.37313 29.1797 7.7325 29.5547C8.1075 29.9141 8.39656 30.3438 8.59969 30.8438C8.80281 31.3438 8.90438 31.8906 8.90438 32.4844C8.90438 33.0938 8.80281 33.6484 8.59969 34.1484C8.39656 34.6484 8.1075 35.0859 7.7325 35.4609C7.37313 35.8203 6.94344 36.0938 6.44344 36.2812C5.94344 36.4844 5.39656 36.5859 4.80281 36.5859C4.20906 36.5859 3.66219 36.4844 3.16219 36.2812C2.66219 36.0938 2.22469 35.8203 1.84969 35.4609C1.49031 35.0859 1.20906 34.6484 1.00594 34.1484C0.802813 33.6484 0.70125 33.0938 0.70125 32.4844ZM1.75594 24.2812C1.70906 22.5781 1.67781 20.8672 1.66219 19.1484C1.64656 17.4297 1.6075 15.625 1.545 13.7344C1.49813 11.8281 1.42 9.80469 1.31063 7.66406C1.20125 5.50781 1.03719 3.15625 0.818438 0.609375H8.67C8.43563 3.15625 8.26375 5.50781 8.15438 7.66406C8.045 9.80469 7.95906 11.8281 7.89656 13.7344C7.84969 15.625 7.81844 17.4297 7.80281 19.1484C7.78719 20.8672 7.76375 22.5781 7.7325 24.2812H1.75594Z" fill="white"/>
<path d="M7.7325 29.5547L7.01051 30.2466L7.02523 30.262L7.04059 30.2767L7.7325 29.5547ZM6.44344 36.2812L6.09231 35.3449L6.07962 35.3497L6.06706 35.3548L6.44344 36.2812ZM3.16219 36.2812L3.53856 35.3548L3.526 35.3497L3.51331 35.3449L3.16219 36.2812ZM1.84969 35.4609L1.1277 36.1528L1.14242 36.1682L1.15778 36.1829L1.84969 35.4609ZM1.75594 24.2812L0.756315 24.3088L0.783081 25.2812H1.75594V24.2812ZM1.545 13.7344L0.545267 13.759L0.545546 13.7674L1.545 13.7344ZM1.31063 7.66406L0.311909 7.71472L0.311928 7.71509L1.31063 7.66406ZM0.818438 0.609375V-0.390625H-0.271133L-0.177895 0.694949L0.818438 0.609375ZM8.67 0.609375L9.66579 0.701013L9.76625 -0.390625H8.67V0.609375ZM8.15438 7.66406L9.15307 7.71509L9.15309 7.71472L8.15438 7.66406ZM7.89656 13.7344L6.89707 13.7016L6.89687 13.7096L7.89656 13.7344ZM7.7325 24.2812V25.2812H8.71432L8.73233 24.2996L7.7325 24.2812ZM1.70125 32.4844C1.70125 32.0067 1.78249 31.5891 1.9324 31.2201L0.0794716 30.4674C-0.176868 31.0984 -0.29875 31.7746 -0.29875 32.4844H1.70125ZM1.9324 31.2201C2.0884 30.8361 2.29766 30.5209 2.5568 30.2618L1.14258 28.8476C0.682968 29.3072 0.329729 29.8514 0.0794716 30.4674L1.9324 31.2201ZM2.5568 30.2618C2.83562 29.983 3.16011 29.7677 3.53856 29.614L2.78581 27.761C2.16426 28.0135 1.61376 28.3764 1.14258 28.8476L2.5568 30.2618ZM3.53856 29.614C3.90758 29.4641 4.32513 29.3828 4.80281 29.3828V27.3828C4.093 27.3828 3.4168 27.5047 2.78581 27.761L3.53856 29.614ZM4.80281 29.3828C5.2805 29.3828 5.69805 29.4641 6.06706 29.614L6.81981 27.761C6.18883 27.5047 5.51263 27.3828 4.80281 27.3828V29.3828ZM6.06706 29.614C6.44185 29.7662 6.75237 29.9772 7.01051 30.2466L8.45449 28.8628C7.99388 28.3822 7.44503 28.015 6.81981 27.761L6.06706 29.614ZM7.04059 30.2767C7.30996 30.5348 7.52096 30.8453 7.67322 31.2201L9.52615 30.4674C9.27216 29.8422 8.90504 29.2933 8.42441 28.8327L7.04059 30.2767ZM7.67322 31.2201C7.82313 31.5891 7.90438 32.0067 7.90438 32.4844H9.90438C9.90438 31.7746 9.78249 31.0984 9.52615 30.4674L7.67322 31.2201ZM7.90438 32.4844C7.90438 32.9813 7.82191 33.4061 7.67322 33.7721L9.52615 34.5248C9.78372 33.8908 9.90438 33.2062 9.90438 32.4844H7.90438ZM7.67322 33.7721C7.51948 34.1505 7.30422 34.475 7.02539 34.7538L8.43961 36.168C8.91078 35.6969 9.27365 35.1464 9.52615 34.5248L7.67322 33.7721ZM7.02539 34.7538C6.77206 35.0072 6.46558 35.2049 6.09231 35.3449L6.79456 37.2176C7.4213 36.9826 7.97419 36.6335 8.43961 36.168L7.02539 34.7538ZM6.06706 35.3548C5.69805 35.5047 5.2805 35.5859 4.80281 35.5859V37.5859C5.51263 37.5859 6.18883 37.4641 6.81981 37.2077L6.06706 35.3548ZM4.80281 35.5859C4.32513 35.5859 3.90758 35.5047 3.53856 35.3548L2.78581 37.2077C3.4168 37.4641 4.093 37.5859 4.80281 37.5859V35.5859ZM3.51331 35.3449C3.13661 35.2037 2.81592 35.0019 2.54159 34.7389L1.15778 36.1829C1.63345 36.6388 2.18777 36.9838 2.81106 37.2176L3.51331 35.3449ZM2.57168 34.769C2.30321 34.4889 2.08982 34.1596 1.9324 33.7721L0.0794716 34.5248C0.3283 35.1373 0.677418 35.683 1.1277 36.1528L2.57168 34.769ZM1.9324 33.7721C1.78372 33.4061 1.70125 32.9813 1.70125 32.4844H-0.29875C-0.29875 33.2062 -0.178091 33.8908 0.0794716 34.5248L1.9324 33.7721ZM2.75556 24.2537C2.70885 22.5568 2.67772 20.852 2.66215 19.1393L0.66223 19.1575C0.67791 20.8824 0.70927 22.5994 0.756315 24.3088L2.75556 24.2537ZM2.66215 19.1393C2.64644 17.4119 2.60719 15.5992 2.54445 13.7013L0.545546 13.7674C0.607807 15.6508 0.646683 17.4475 0.66223 19.1575L2.66215 19.1393ZM2.5447 13.7098C2.49758 11.7937 2.41909 9.76141 2.30932 7.61303L0.311928 7.71509C0.420906 9.84797 0.498669 11.8625 0.545301 13.759L2.5447 13.7098ZM2.30934 7.6134C2.19928 5.44362 2.03434 3.08026 1.81477 0.523801L-0.177895 0.694949C0.0400333 3.23224 0.20322 5.572 0.311909 7.71472L2.30934 7.6134ZM0.818438 1.60938H8.67V-0.390625H0.818438V1.60938ZM7.67421 0.517737C7.4388 3.07585 7.26584 5.44126 7.15566 7.6134L9.15309 7.71472C9.26166 5.57436 9.43245 3.23665 9.66579 0.701013L7.67421 0.517737ZM7.15568 7.61303C7.04603 9.75901 6.95982 11.7886 6.8971 13.7016L8.89602 13.7671C8.9583 11.8677 9.04397 9.85036 9.15307 7.71509L7.15568 7.61303ZM6.89687 13.7096C6.84988 15.6049 6.81853 17.4149 6.80285 19.1393L8.80277 19.1575C8.81834 17.4445 8.8495 15.6451 8.89626 13.7592L6.89687 13.7096ZM6.80285 19.1393C6.78726 20.855 6.76386 22.5629 6.73267 24.2629L8.73233 24.2996C8.76364 22.5934 8.78712 20.8793 8.80277 19.1575L6.80285 19.1393ZM7.7325 23.2812H1.75594V25.2812H7.7325V23.2812Z" fill="black" fill-opacity="0.1" mask="url(#path-1-outside-1_137_104)"/>
</svg>
