<svg width="64" height="64" viewBox="0 0 64 64" fill="none" xmlns="http://www.w3.org/2000/svg">
<g clip-path="url(#clip0_758_246)">
<path d="M32.0007 16C29.891 16 27.8287 16.6256 26.0746 17.7977C24.3205 18.9697 22.9533 20.6356 22.1459 22.5847C21.3386 24.5338 21.1274 26.6785 21.5389 28.7476C21.9505 30.8168 22.9664 32.7174 24.4582 34.2091C25.9499 35.7009 27.8506 36.7168 29.9197 37.1284C31.9888 37.54 34.1335 37.3287 36.0826 36.5214C38.0317 35.714 39.6976 34.3469 40.8697 32.5927C42.0417 30.8386 42.6673 28.7763 42.6673 26.6667C42.6673 23.8377 41.5435 21.1246 39.5431 19.1242C37.5427 17.1238 34.8296 16 32.0007 16ZM32.0007 32C30.9458 32 29.9147 31.6872 29.0376 31.1012C28.1606 30.5151 27.477 29.6822 27.0733 28.7076C26.6696 27.7331 26.564 26.6607 26.7698 25.6262C26.9756 24.5916 27.4835 23.6413 28.2294 22.8954C28.9753 22.1496 29.9256 21.6416 30.9602 21.4358C31.9947 21.23 33.0671 21.3356 34.0416 21.7393C35.0162 22.143 35.8491 22.8266 36.4352 23.7036C37.0212 24.5807 37.334 25.6118 37.334 26.6667C37.334 28.0812 36.7721 29.4377 35.7719 30.4379C34.7717 31.4381 33.4151 32 32.0007 32Z" fill="#FFB800"/>
<path d="M32.0008 64C29.7554 64.0115 27.5398 63.4849 25.5397 62.4642C23.5396 61.4435 21.8131 59.9584 20.5048 58.1334C10.3422 44.1147 5.1875 33.576 5.1875 26.808C5.1875 19.6967 8.01247 12.8766 13.0409 7.84813C18.0694 2.81966 24.8895 -0.00531006 32.0008 -0.00531006C39.1122 -0.00531006 45.9323 2.81966 50.9607 7.84813C55.9892 12.8766 58.8142 19.6967 58.8142 26.808C58.8142 33.576 53.6595 44.1147 43.4968 58.1334C42.1886 59.9584 40.4621 61.4435 38.462 62.4642C36.4619 63.4849 34.2463 64.0115 32.0008 64ZM32.0008 5.81602C26.4339 5.82238 21.0969 8.03663 17.1605 11.973C13.2241 15.9094 11.0099 21.2465 11.0035 26.8134C11.0035 32.1734 16.0515 42.0854 25.2142 54.7227C25.992 55.7941 27.0125 56.6661 28.1921 57.2674C29.3717 57.8687 30.6768 58.1822 32.0008 58.1822C33.3248 58.1822 34.63 57.8687 35.8096 57.2674C36.9892 56.6661 38.0097 55.7941 38.7875 54.7227C47.9502 42.0854 52.9982 32.1734 52.9982 26.8134C52.9918 21.2465 50.7776 15.9094 46.8412 11.973C42.9048 8.03663 37.5677 5.82238 32.0008 5.81602Z" fill="#FFB800"/>
</g>
<defs>
<clipPath id="clip0_758_246">
<rect width="64" height="64" fill="white"/>
</clipPath>
</defs>
</svg>
