<svg width="50" height="50" viewBox="0 0 50 50" fill="none" xmlns="http://www.w3.org/2000/svg">
<path d="M25.2778 8.33333C15.916 8.33333 8.33333 15.916 8.33333 25.2778C8.33333 34.6396 15.916 42.2222 25.2778 42.2222C34.6396 42.2222 42.2222 34.6396 42.2222 25.2778C42.2222 15.916 34.6396 8.33333 25.2778 8.33333ZM25.2778 12.5906C25.2778 12.5789 25.2873 12.5694 25.299 12.5695C25.8106 12.5709 26.3108 12.6232 26.8018 12.7097C27.9399 12.9104 27.9633 14.1675 27.5656 15.2525C27.505 15.4177 27.4864 15.5821 27.5229 15.7465C27.6924 16.509 30.4458 16.2972 30.4458 17.8646C30.4458 19.0083 28.6667 19.3472 29.8951 20.6604C31.3778 22.1431 27.6076 24.8542 27.5229 26.8028C27.3958 30.3188 30.6576 30.8694 33.5806 30.8694C33.8941 30.8694 34.1669 30.8958 34.4029 30.9447C36.0011 31.2761 35.2625 33.4907 34.07 34.6052C31.7703 36.7543 28.6223 38.0285 25.2354 38.0285C22.756 38.0285 21.1591 34.847 19.8401 32.7475C19.3758 32.0084 18.8101 31.3345 18.2251 30.8372C17.8137 30.4875 17.3877 30.1287 16.8861 29.929C16.4855 29.7695 16.0201 29.6942 15.5446 29.6426C14.1299 29.4891 12.9977 28.54 12.7043 27.1476C12.6632 26.9529 12.6278 26.7562 12.5994 26.5568C12.5243 26.029 12.6718 25.3625 13.2049 25.3625C14.0097 25.3625 15.1111 26.9722 15.7042 26.8028C16.4667 26.6333 12.5694 21.2535 14.391 20.1944C15.2382 19.6861 16.9326 21.8465 16.3819 19.5167C15.8736 17.3563 17.9069 18.3306 19.1778 17.7799C20.2792 17.3139 21.084 16.0431 19.7285 15.2806C19.1671 14.9998 19.318 14.1613 19.8826 13.887C21.5165 13.0934 23.3305 12.6153 25.2566 12.6118C25.2683 12.6118 25.2778 12.6023 25.2778 12.5906ZM32.5593 18.1589C34.0079 17.4089 35.7748 17.9891 36.5324 19.4338C36.6612 19.6795 36.7844 19.9298 36.9029 20.1846C36.9189 20.2189 36.9271 20.2564 36.9271 20.2943C36.9271 20.3399 36.9158 20.3851 36.8905 20.4231C36.7163 20.685 36.4293 20.8617 35.9951 21.2958C34.809 22.4819 34.6396 20.4062 34.1313 19.9826C33.5806 19.4743 31.5896 20.0674 31.3354 19.4319C31.1824 19.0384 31.7514 18.5772 32.5593 18.1589Z" fill="black" fill-opacity="0.4"/>
</svg>
