<svg width="272" height="184" viewBox="0 0 272 184" fill="none" xmlns="http://www.w3.org/2000/svg">
<g clip-path="url(#clip0_343_143)">
<path d="M18.3049 138.654C17.0134 138.654 15.7191 138.707 14.4552 138.815L14.2712 138.83C5.88757 139.572 -0.244699 143.873 0.00750414 148.835L0.0562607 149.732C0.0884133 150.299 0.122671 150.909 0.150868 151.586C0.16614 151.919 0.621289 152.176 1.18763 152.176H207.406C221.945 152.087 236.432 151.976 250.461 151.845C253.092 151.851 255.721 151.714 258.338 151.437C262.237 150.975 264.943 150.06 266.611 148.64H266.612C268.687 146.878 268.752 144.66 268.627 142.154C268.371 137.093 268.118 131.776 267.865 126.476C267.641 121.805 267.419 117.146 267.196 112.685C267.059 110.038 266.753 107.702 264.397 105.916C261.842 103.985 257.184 103.006 250.551 103.006C250.471 103.006 250.391 103.006 250.31 103.007C229.522 103.081 208.925 110.23 199.056 120.798C197.92 122.015 196.861 123.318 195.837 124.578C194.323 126.44 192.759 128.364 190.892 130.085C189.881 131.03 188.788 131.882 187.626 132.632C187.546 132.688 187.454 132.747 187.357 132.803C187.135 132.948 186.903 133.087 186.677 133.212C185.353 133.976 183.958 134.611 182.512 135.106L182.366 135.155C182.256 135.194 182.137 135.233 182.018 135.269C181.182 135.538 180.314 135.77 179.445 135.957C175.683 136.787 171.406 136.985 166.732 136.548C162.44 136.135 158.203 135.271 154.091 133.971C149.763 132.603 145.712 130.897 141.794 129.247C140.073 128.522 138.293 127.773 136.516 127.063C136.182 126.929 135.853 126.799 135.519 126.668C133.348 125.822 131.38 125.123 129.502 124.531C124.849 123.06 120.033 122.167 115.162 121.874C109.992 121.591 105.436 122.125 101.624 123.458C100.573 123.824 99.5496 124.265 98.5617 124.778C94.0462 127.123 91.2625 130.585 88.5707 133.933C85.2222 138.097 81.7596 142.403 74.9224 144.636C67.0328 147.214 55.5167 146.143 47.3692 144.28C44.8076 143.694 42.2492 143.02 39.7748 142.369C38.7755 142.105 37.7755 141.844 36.7747 141.584C34.8082 141.076 33.1988 140.687 31.7098 140.358L31.2388 140.254C30.9769 140.197 30.7147 140.14 30.4477 140.086C28.6791 139.714 27.0322 139.422 25.4104 139.192L25.0267 139.136C24.2575 139.035 23.5383 138.95 22.8325 138.879L22.5508 138.851C21.1685 138.72 19.7381 138.654 18.3049 138.654Z" fill="#F2F2F2"/>
<path d="M231.547 144.192C237.35 138.962 245.98 136.332 253.22 139.265C245.794 143.389 240.065 150.008 237.048 157.951C235.895 161.018 234.933 164.55 232.098 166.192C230.334 167.214 228.139 167.264 226.162 166.77C224.184 166.277 222.371 165.288 220.583 164.309L220.074 164.298C222.358 156.826 225.744 149.423 231.547 144.192Z" fill="#E6E6E6"/>
<path d="M253.178 139.424C246.766 140.253 240.779 143.081 236.065 147.508C235.034 148.443 234.156 149.535 233.464 150.743C232.829 151.942 232.525 153.289 232.586 154.645C232.617 155.91 232.796 157.201 232.519 158.452C232.368 159.09 232.084 159.689 231.685 160.21C231.286 160.73 230.782 161.161 230.205 161.473C228.788 162.287 227.163 162.544 225.566 162.74C223.792 162.957 221.945 163.155 220.41 164.151C220.224 164.271 220.047 163.975 220.233 163.855C222.905 162.123 226.286 162.753 229.159 161.598C230.499 161.058 231.686 160.112 232.105 158.68C232.473 157.429 232.29 156.098 232.247 154.817C232.168 153.495 232.414 152.174 232.963 150.969C233.591 149.73 234.426 148.606 235.43 147.646C237.658 145.45 240.218 143.617 243.015 142.215C246.198 140.598 249.634 139.538 253.175 139.079C253.394 139.051 253.396 139.396 253.178 139.424Z" fill="white"/>
<path d="M237.499 145.993C236.864 145.101 236.566 144.013 236.659 142.922C236.753 141.831 237.23 140.808 238.008 140.037C238.165 139.882 238.414 140.12 238.256 140.276C237.531 140.992 237.086 141.945 237.002 142.961C236.917 143.977 237.198 144.99 237.794 145.817C237.924 145.997 237.627 146.172 237.499 145.993Z" fill="white"/>
<path d="M232.487 154.006C234.69 154.396 236.96 153.942 238.843 152.733C239.03 152.613 239.206 152.909 239.02 153.028C237.058 154.283 234.695 154.751 232.403 154.34C232.184 154.3 232.27 153.967 232.487 154.006Z" fill="white"/>
<path d="M246.226 141.054C246.4 141.45 246.67 141.797 247.011 142.063C247.352 142.33 247.753 142.507 248.18 142.58C248.399 142.616 248.313 142.95 248.096 142.914C247.625 142.831 247.181 142.635 246.804 142.341C246.426 142.048 246.127 141.666 245.931 141.23C245.909 141.191 245.903 141.144 245.914 141.1C245.925 141.057 245.952 141.019 245.99 140.994C246.029 140.971 246.076 140.964 246.12 140.975C246.165 140.987 246.203 141.015 246.226 141.054Z" fill="white"/>
<path d="M261.192 164.488C261.054 164.47 260.917 164.451 260.778 164.434C258.931 164.188 257.067 164.094 255.204 164.151C255.06 164.153 254.914 164.157 254.771 164.163C250.285 164.348 245.873 165.364 241.758 167.159C240.121 167.875 238.541 168.715 237.032 169.671C234.948 170.991 232.793 172.588 230.462 173.127C230.22 173.185 229.974 173.229 229.726 173.258L220.099 164.919C220.087 164.889 220.072 164.862 220.06 164.832L219.66 164.516C219.735 164.461 219.813 164.406 219.887 164.352C219.93 164.32 219.976 164.29 220.019 164.258C220.048 164.237 220.077 164.216 220.103 164.196C220.112 164.189 220.122 164.182 220.13 164.177C220.155 164.157 220.181 164.141 220.205 164.123C220.642 163.813 221.082 163.506 221.525 163.202C221.526 163.199 221.526 163.199 221.53 163.199C224.883 160.846 228.503 158.9 232.315 157.4C232.429 157.357 232.545 157.312 232.664 157.272C234.38 156.634 236.146 156.137 237.944 155.786C238.928 155.597 239.922 155.459 240.921 155.37C243.502 155.147 246.103 155.331 248.627 155.916C253.658 157.083 258.261 159.847 260.986 164.157C261.056 164.267 261.124 164.376 261.192 164.488Z" fill="#E6E6E6"/>
<path d="M261.064 164.592C255.446 161.392 248.962 160.045 242.535 160.741C241.148 160.866 239.79 161.209 238.511 161.757C237.281 162.332 236.228 163.225 235.461 164.344C234.724 165.373 234.09 166.511 233.116 167.343C232.612 167.762 232.024 168.069 231.392 168.244C230.761 168.42 230.099 168.46 229.451 168.361C227.829 168.158 226.377 167.385 224.983 166.579C223.436 165.684 221.843 164.73 220.018 164.6C219.796 164.584 219.834 164.242 220.055 164.258C223.23 164.484 225.55 167.023 228.54 167.831C229.935 168.208 231.452 168.166 232.648 167.276C233.695 166.498 234.35 165.325 235.087 164.277C235.819 163.174 236.811 162.267 237.974 161.636C239.222 161.025 240.565 160.63 241.945 160.469C245.046 160.056 248.192 160.134 251.269 160.7C254.784 161.326 258.166 162.548 261.269 164.315C261.461 164.425 261.255 164.701 261.064 164.592Z" fill="white"/>
<path d="M244.59 160.395C244.62 159.3 245.037 158.252 245.768 157.437C246.499 156.622 247.496 156.093 248.581 155.945C248.801 155.916 248.856 156.256 248.636 156.285C247.626 156.421 246.697 156.913 246.018 157.674C245.339 158.434 244.954 159.412 244.932 160.432C244.927 160.653 244.585 160.615 244.59 160.395Z" fill="white"/>
<path d="M235.766 163.773C237.29 165.412 239.376 166.415 241.607 166.584C241.828 166.601 241.791 166.943 241.57 166.927C239.248 166.747 237.08 165.698 235.498 163.989C235.347 163.826 235.616 163.611 235.766 163.773Z" fill="white"/>
<path d="M254.532 161.706C254.433 162.127 254.439 162.567 254.551 162.985C254.663 163.403 254.877 163.787 255.174 164.101C255.326 164.262 255.057 164.477 254.906 164.317C254.579 163.968 254.343 163.544 254.219 163.082C254.094 162.621 254.084 162.136 254.19 161.669C254.196 161.624 254.219 161.584 254.255 161.555C254.29 161.527 254.335 161.513 254.38 161.517C254.425 161.522 254.466 161.545 254.495 161.58C254.524 161.616 254.537 161.661 254.532 161.706Z" fill="white"/>
<path d="M79.6476 149.394C84.399 142.185 92.8985 136.971 101.457 138.093C94.6615 144.571 90.3755 153.244 89.3573 162.578C88.9777 166.18 88.9303 170.225 86.3551 172.77C84.7528 174.354 82.4196 175.018 80.1672 175.041C77.9146 175.063 75.7007 174.51 73.516 173.961L72.9688 174.09C73.3334 165.463 74.8962 156.603 79.6476 149.394Z" fill="#E6E6E6"/>
<path d="M101.457 138.274C94.8301 140.945 89.2127 145.637 85.4029 151.683C84.5596 152.97 83.9244 154.382 83.5207 155.867C83.1742 157.326 83.2246 158.851 83.6667 160.284C84.0521 161.629 84.602 162.96 84.654 164.374C84.6698 165.099 84.5324 165.819 84.2506 166.487C83.9689 167.154 83.5492 167.755 83.0191 168.249C81.7303 169.515 80.0638 170.241 78.4094 170.896C76.5724 171.622 74.653 172.347 73.2873 173.839C73.1219 174.02 72.8511 173.753 73.0163 173.572C75.3923 170.976 79.1835 170.709 81.9347 168.674C83.2185 167.724 84.2238 166.381 84.2748 164.734C84.3194 163.293 83.7535 161.92 83.3515 160.562C82.8997 159.171 82.7955 157.689 83.0479 156.248C83.3747 154.747 83.9544 153.313 84.7623 152.007C86.5341 149.038 88.7616 146.366 91.3633 144.088C94.3181 141.473 97.6985 139.382 101.358 137.907C101.585 137.816 101.682 138.184 101.457 138.274Z" fill="white"/>
<path d="M86.5144 149.664C85.5871 148.887 84.9661 147.805 84.7623 146.612C84.5586 145.42 84.7853 144.193 85.4021 143.152C85.5276 142.942 85.8601 143.127 85.7344 143.338C85.1583 144.306 84.9472 145.448 85.1392 146.559C85.3312 147.669 85.9136 148.674 86.7815 149.393C86.9699 149.549 86.7017 149.819 86.5144 149.664Z" fill="white"/>
<path d="M83.3808 159.628C85.846 159.433 88.147 158.315 89.8249 156.498C89.991 156.318 90.2618 156.585 90.0959 156.765C88.3463 158.653 85.9494 159.811 83.3836 160.009C83.139 160.028 83.1375 159.647 83.3808 159.628Z" fill="white"/>
<path d="M94.4755 141.952C94.7717 142.328 95.1565 142.624 95.5953 142.814C96.0341 143.004 96.5132 143.082 96.9895 143.041C97.2337 143.019 97.2349 143.4 96.9923 143.421C96.4658 143.464 95.9368 143.377 95.4515 143.169C94.9663 142.96 94.5395 142.635 94.2085 142.223C94.174 142.187 94.1547 142.139 94.1543 142.089C94.1539 142.039 94.1726 141.991 94.2065 141.954C94.2421 141.919 94.2903 141.898 94.3406 141.898C94.391 141.898 94.4395 141.917 94.4755 141.952Z" fill="white"/>
<path d="M116.997 162.852C116.845 162.87 116.693 162.888 116.539 162.909C114.496 163.16 112.476 163.578 110.5 164.157C110.346 164.199 110.191 164.244 110.039 164.291C105.293 165.736 100.857 168.051 96.9553 171.116C95.4039 172.338 93.9477 173.675 92.5992 175.118C90.7371 177.11 88.8764 179.418 86.5341 180.642C86.2911 180.772 86.0403 180.888 85.7831 180.987L73.1674 174.748C73.1458 174.719 73.1227 174.694 73.101 174.665L72.5859 174.439C72.6503 174.36 72.7187 174.279 72.7831 174.2C72.8202 174.154 72.8602 174.109 72.8973 174.063C72.923 174.032 72.9488 174.002 72.9702 173.973C72.9787 173.963 72.9873 173.953 72.9944 173.946C73.0158 173.917 73.0388 173.893 73.0588 173.867C73.4401 173.414 73.8253 172.963 74.2143 172.514C74.2158 172.511 74.2158 172.511 74.22 172.51C77.193 169.097 80.4771 165.902 84.1415 163.307C84.2517 163.229 84.3633 163.148 84.4793 163.073C86.1376 161.912 87.8878 160.889 89.7127 160.014C90.7134 159.538 91.7377 159.113 92.7814 158.741C95.4801 157.783 98.3125 157.257 101.175 157.18C106.881 157.028 112.572 158.703 116.686 162.555C116.791 162.653 116.894 162.75 116.997 162.852Z" fill="#E6E6E6"/>
<path d="M116.89 162.998C109.991 161.139 102.682 161.502 96.0013 164.035C94.5533 164.555 93.1963 165.3 91.9802 166.242C90.8253 167.199 89.9474 168.447 89.4378 169.858C88.9363 171.163 88.5744 172.557 87.7644 173.718C87.3409 174.306 86.7979 174.798 86.171 175.161C85.5442 175.525 84.8476 175.752 84.1269 175.827C82.3362 176.061 80.568 175.638 78.8533 175.164C76.9495 174.637 74.9803 174.061 72.992 174.429C72.751 174.474 72.6958 174.097 72.9364 174.053C76.3958 173.411 79.5835 175.481 83.0054 175.513C84.6021 175.528 86.2129 175.061 87.2453 173.776C88.1481 172.653 88.5225 171.216 89.0189 169.89C89.4958 168.506 90.3041 167.261 91.3731 166.262C92.5373 165.261 93.8634 164.465 95.2945 163.909C98.4965 162.605 101.884 161.812 105.331 161.561C109.265 161.252 113.222 161.619 117.032 162.645C117.268 162.708 117.125 163.061 116.89 162.998Z" fill="white"/>
<path d="M98.1039 163.093C97.8312 161.914 97.9864 160.677 98.5416 159.601C99.0969 158.526 100.016 157.684 101.135 157.224C101.362 157.132 101.516 157.48 101.289 157.572C100.246 157.998 99.3898 158.783 98.8748 159.786C98.3598 160.788 98.2199 161.941 98.4803 163.037C98.5366 163.276 98.1599 163.33 98.1039 163.093Z" fill="white"/>
<path d="M89.605 169.162C91.6911 170.491 94.201 170.984 96.6345 170.544C96.8756 170.5 96.9309 170.876 96.6901 170.92C94.1569 171.374 91.5459 170.855 89.3782 169.468C89.1717 169.335 89.3996 169.03 89.605 169.162Z" fill="white"/>
<path d="M109.102 161.729C109.113 162.208 109.242 162.676 109.478 163.092C109.714 163.508 110.049 163.858 110.455 164.113C110.663 164.242 110.434 164.547 110.228 164.418C109.781 164.135 109.411 163.747 109.15 163.288C108.888 162.829 108.742 162.313 108.726 161.785C108.72 161.735 108.734 161.685 108.763 161.645C108.793 161.605 108.837 161.578 108.886 161.569C108.936 161.562 108.987 161.575 109.027 161.605C109.068 161.635 109.095 161.68 109.102 161.729Z" fill="white"/>
<path d="M113.462 95.3477C113.777 95.0339 114.02 94.6548 114.173 94.2371C114.326 93.8194 114.386 93.3732 114.347 92.93C114.309 92.4868 114.175 92.0573 113.953 91.6718C113.731 91.2863 113.427 90.9542 113.063 90.6988L118.028 66.6594L112.671 68.35L108.676 91.6063C108.288 92.2467 108.148 93.0073 108.282 93.744C108.417 94.4807 108.818 95.1423 109.408 95.6035C109.998 96.0647 110.736 96.2934 111.484 96.2462C112.231 96.1991 112.935 95.8794 113.462 95.3477Z" fill="#FFB6B6"/>
<path d="M124.94 31.0893L121.621 28.5835C121.621 28.5835 118.694 28.3761 118.175 33.6571C117.657 38.9382 114.41 59.2066 114.41 59.2066L109.332 82.7336L116.362 84.277L121.801 58.8872L127.245 41.3708L124.94 31.0893Z" fill="#E6E6E6"/>
<path d="M122.411 74.6226L106.493 62.2412C106.245 62.0479 106.083 61.7641 106.044 61.4521C106.005 61.1401 106.092 60.8253 106.284 60.5768L117.115 46.643C117.309 46.395 117.592 46.2338 117.904 46.1947C118.216 46.1557 118.531 46.242 118.779 46.4348L134.698 58.8162C134.946 59.0095 135.107 59.2933 135.146 59.6053C135.185 59.9173 135.099 60.2321 134.906 60.4805L124.075 74.4143C123.882 74.6624 123.598 74.8236 123.286 74.8626C122.974 74.9017 122.66 74.8153 122.411 74.6226Z" fill="#3F3D56"/>
<path d="M122.324 73.3414L107.756 62.0103C107.536 61.8387 107.392 61.5867 107.358 61.3097C107.323 61.0327 107.4 60.7532 107.571 60.5326L117.39 47.9009C117.561 47.6807 117.813 47.5376 118.09 47.5029C118.367 47.4682 118.646 47.5449 118.867 47.716L133.436 59.0471C133.656 59.2187 133.799 59.4707 133.833 59.7478C133.868 60.0248 133.791 60.3043 133.62 60.5249L123.802 73.1565C123.63 73.3767 123.378 73.5199 123.101 73.5545C122.824 73.5892 122.545 73.5126 122.324 73.3414Z" fill="white"/>
<path d="M109.666 61.689C109.611 61.646 109.575 61.5831 109.566 61.5138C109.558 61.4445 109.577 61.3747 109.62 61.3195L114.573 54.9472C114.616 54.8921 114.679 54.8563 114.748 54.8476C114.782 54.8433 114.817 54.8458 114.851 54.855C114.884 54.8642 114.915 54.8798 114.942 54.901C114.97 54.9222 114.993 54.9486 115.01 54.9787C115.027 55.0087 115.038 55.0418 115.042 55.0761C115.046 55.1104 115.044 55.1453 115.035 55.1786C115.025 55.2119 115.01 55.2431 114.989 55.2704L110.035 61.6427C109.992 61.6978 109.929 61.7336 109.86 61.7422C109.791 61.7509 109.721 61.7317 109.666 61.689Z" fill="#E4E4E4"/>
<path d="M110.486 62.3275C110.431 62.2846 110.395 62.2216 110.387 62.1524C110.378 62.0831 110.397 62.0132 110.44 61.9581L115.393 55.5858C115.436 55.5307 115.499 55.4948 115.568 55.4862C115.638 55.4775 115.708 55.4967 115.763 55.5396C115.818 55.5824 115.854 55.6454 115.862 55.7147C115.871 55.784 115.852 55.8539 115.809 55.909L110.856 62.2813C110.813 62.3364 110.75 62.3721 110.681 62.3808C110.611 62.3895 110.541 62.3703 110.486 62.3275Z" fill="#E4E4E4"/>
<path d="M114.113 59.356C114.058 59.3131 114.022 59.2501 114.014 59.1808C114.005 59.1116 114.024 59.0417 114.067 58.9866L116.214 56.2243C116.235 56.197 116.262 56.1741 116.292 56.1569C116.322 56.1398 116.355 56.1287 116.389 56.1244C116.424 56.1201 116.458 56.1225 116.492 56.1317C116.525 56.1409 116.556 56.1565 116.584 56.1777C116.611 56.199 116.634 56.2254 116.651 56.2555C116.668 56.2856 116.679 56.3188 116.683 56.3531C116.688 56.3875 116.685 56.4223 116.676 56.4557C116.667 56.489 116.651 56.5202 116.63 56.5475L114.483 59.3098C114.44 59.3648 114.377 59.4006 114.307 59.4093C114.238 59.4179 114.168 59.3988 114.113 59.356Z" fill="#E4E4E4"/>
<path d="M115.221 64.7765C115.166 64.7336 115.13 64.6706 115.121 64.6014C115.113 64.5321 115.132 64.4623 115.174 64.4071L122.994 54.3473C123.015 54.32 123.042 54.2971 123.072 54.28C123.102 54.2629 123.135 54.2519 123.169 54.2476C123.204 54.2434 123.238 54.2459 123.272 54.255C123.305 54.2642 123.336 54.2798 123.364 54.301C123.391 54.3222 123.414 54.3486 123.431 54.3787C123.448 54.4087 123.459 54.4419 123.463 54.4762C123.467 54.5105 123.465 54.5453 123.456 54.5786C123.447 54.6119 123.431 54.6432 123.41 54.6704L115.59 64.7303C115.547 64.7854 115.484 64.8211 115.415 64.8298C115.346 64.8385 115.276 64.8193 115.221 64.7765Z" fill="#E4E4E4"/>
<path d="M116.041 65.4151C115.986 65.3722 115.95 65.3092 115.941 65.24C115.933 65.1707 115.952 65.1008 115.995 65.0457L123.815 54.9858C123.836 54.9585 123.862 54.9357 123.892 54.9186C123.922 54.9015 123.955 54.8905 123.99 54.8862C124.024 54.8819 124.059 54.8844 124.092 54.8936C124.125 54.9027 124.157 54.9184 124.184 54.9396C124.211 54.9608 124.234 54.9872 124.251 55.0173C124.268 55.0473 124.279 55.0804 124.283 55.1147C124.288 55.149 124.285 55.1839 124.276 55.2172C124.267 55.2505 124.251 55.2817 124.23 55.309L116.41 65.3689C116.367 65.4239 116.304 65.4597 116.235 65.4684C116.166 65.4771 116.096 65.4579 116.041 65.4151Z" fill="#E4E4E4"/>
<path d="M117.906 66.8646C117.851 66.8217 117.815 66.7587 117.807 66.6894C117.798 66.6202 117.817 66.5503 117.86 66.4951L125.68 56.4353C125.701 56.408 125.727 56.3851 125.757 56.368C125.787 56.3509 125.821 56.3399 125.855 56.3357C125.889 56.3314 125.924 56.3339 125.957 56.343C125.991 56.3522 126.022 56.3678 126.049 56.3891C126.076 56.4103 126.099 56.4367 126.116 56.4667C126.133 56.4968 126.144 56.5299 126.149 56.5642C126.153 56.5985 126.15 56.6333 126.141 56.6666C126.132 56.7 126.117 56.7312 126.095 56.7585L118.276 66.8183C118.233 66.8734 118.17 66.9092 118.1 66.9178C118.031 66.9265 117.961 66.9073 117.906 66.8646Z" fill="#E4E4E4"/>
<path d="M118.727 67.503C118.671 67.4601 118.636 67.3971 118.627 67.3279C118.618 67.2586 118.638 67.1887 118.68 67.1336L126.5 57.0737C126.521 57.0464 126.548 57.0236 126.578 57.0065C126.608 56.9894 126.641 56.9784 126.675 56.9741C126.709 56.9698 126.744 56.9723 126.778 56.9815C126.811 56.9906 126.842 57.0063 126.869 57.0275C126.897 57.0487 126.92 57.0751 126.937 57.1051C126.954 57.1352 126.965 57.1683 126.969 57.2026C126.973 57.2369 126.971 57.2717 126.962 57.3051C126.952 57.3384 126.937 57.3696 126.916 57.3969L119.096 67.4568C119.053 67.5118 118.99 67.5476 118.921 67.5563C118.852 67.565 118.782 67.5458 118.727 67.503Z" fill="#E4E4E4"/>
<path d="M120.59 68.9525C120.535 68.9096 120.499 68.8466 120.49 68.7773C120.482 68.708 120.501 68.6382 120.544 68.583L128.363 58.5232C128.385 58.4959 128.411 58.473 128.441 58.4559C128.471 58.4388 128.504 58.4278 128.538 58.4235C128.573 58.4193 128.608 58.4218 128.641 58.4309C128.674 58.4401 128.705 58.4557 128.733 58.4769C128.76 58.4982 128.783 58.5245 128.8 58.5546C128.817 58.5846 128.828 58.6178 128.832 58.6521C128.837 58.6864 128.834 58.7212 128.825 58.7545C128.816 58.7879 128.8 58.8191 128.779 58.8464L120.959 68.9062C120.916 68.9613 120.853 68.9971 120.784 69.0057C120.715 69.0144 120.645 68.9952 120.59 68.9525Z" fill="#E4E4E4"/>
<path d="M121.41 69.591C121.355 69.548 121.319 69.4851 121.311 69.4158C121.302 69.3465 121.321 69.2767 121.364 69.2215L129.184 59.1617C129.227 59.1068 129.29 59.0712 129.359 59.0627C129.428 59.0541 129.497 59.0733 129.552 59.1161C129.607 59.1589 129.643 59.2217 129.652 59.2908C129.661 59.36 129.642 59.4297 129.599 59.4849L121.779 69.5447C121.737 69.5998 121.674 69.6356 121.604 69.6442C121.535 69.6529 121.465 69.6337 121.41 69.591Z" fill="#E4E4E4"/>
<path d="M108.342 81.274C108.402 81.274 108.45 81.2256 108.45 81.1659C108.45 81.1063 108.402 81.0579 108.342 81.0579C108.283 81.0579 108.234 81.1063 108.234 81.1659C108.234 81.2256 108.283 81.274 108.342 81.274Z" fill="white"/>
<path d="M124.087 6.79541C123.707 8.83804 123.084 10.8278 122.231 12.7222C117.346 23.0594 131.258 19.69 136.229 19.69C141.665 19.69 146.866 22.5491 146.071 9.845C145.732 4.41835 141.665 0 136.229 0C131.586 0 125.058 2.0643 124.087 6.79541Z" fill="#2F2E41"/>
<path d="M141.296 158.405H136.665L134.461 140.536H141.296V158.405Z" fill="#FFB6B6"/>
<path d="M143.741 166.431H140.419L139.827 163.295L138.308 166.431H129.5C129.078 166.431 128.666 166.296 128.326 166.046C127.986 165.796 127.735 165.443 127.609 165.04C127.484 164.637 127.49 164.204 127.628 163.805C127.765 163.406 128.027 163.061 128.375 162.821L135.409 157.961V154.79L142.808 155.232L143.741 166.431Z" fill="#2F2E41"/>
<path d="M168.81 152.559L165.094 155.323L152.666 142.3L158.151 138.22L168.81 152.559Z" fill="#FFB6B6"/>
<path d="M175.558 157.541L172.893 159.523L170.546 157.36L171.199 160.783L164.13 166.041C163.792 166.293 163.381 166.43 162.959 166.432C162.537 166.434 162.125 166.301 161.784 166.053C161.442 165.804 161.189 165.453 161.061 165.05C160.934 164.648 160.938 164.215 161.074 163.815L163.82 155.717L161.928 153.172L168.129 149.11L175.558 157.541Z" fill="#2F2E41"/>
<path d="M126.127 76.1691L148.111 72.744L143.739 59.588H126.127V76.1691Z" fill="#FFB6B6"/>
<path d="M146.687 66.214C146.687 66.214 155.474 73.8078 151.419 95.4557L146.47 116.667L159.955 140.086L153.098 143.827L136.48 120.723L128.876 102.881L124.854 71.6101L146.687 66.214Z" fill="#2F2E41"/>
<path d="M133.068 107.966L132.539 116.153L134.086 140.398L141.767 143.043L143.222 118.202L133.068 107.966Z" fill="#2F2E41"/>
<path d="M130.707 22.4148L139.205 22.7464L142.592 28.37L150.319 29.8789L145.706 53.2219L146.554 66.5085L138.86 66.4615C133.315 66.4277 127.953 68.4428 123.802 72.1203L124.032 54.8733L120.723 41.9986L121.466 28.4987L127.683 27.7214L130.707 22.4148Z" fill="#E6E6E6"/>
<path d="M135.414 19.6876C139.831 19.6876 143.412 16.1058 143.412 11.6874C143.412 7.26905 139.831 3.68726 135.414 3.68726C130.997 3.68726 127.416 7.26905 127.416 11.6874C127.416 16.1058 130.997 19.6876 135.414 19.6876Z" fill="#FFB6B6"/>
<path d="M129.984 3.53238C131.385 2.67774 132.991 2.21543 134.632 2.19379C136.273 2.17215 137.89 2.59197 139.314 3.40935C140.737 4.22673 141.915 5.41165 142.724 6.84022C143.533 8.26879 143.943 9.88853 143.912 11.5301C139.837 12.5536 135.556 13.3368 131.21 11.7749L130.183 9.26226L129.578 11.7768C128.255 12.3179 126.928 12.7757 125.601 11.7715C125.547 10.1346 125.923 8.51212 126.692 7.06627C127.461 5.62042 128.596 4.40186 129.984 3.53238Z" fill="#2F2E41"/>
<path d="M148.84 82.6378L149.918 92.425C149.993 92.6692 150.145 92.8829 150.35 93.0347C150.555 93.1865 150.804 93.2684 151.06 93.2684H156.029C156.285 93.2684 156.533 93.1865 156.739 93.0347C156.944 92.8829 157.096 92.6692 157.171 92.425L158.064 84.9236C158.322 85.05 158.606 85.1134 158.893 85.1086C159.18 85.1038 159.461 85.0309 159.715 84.8959C159.968 84.7609 160.186 84.5677 160.35 84.3321C160.514 84.0966 160.62 83.8254 160.659 83.5409C160.698 83.2564 160.669 82.9668 160.574 82.6957C160.48 82.4246 160.322 82.18 160.114 81.9818C159.906 81.7836 159.655 81.6375 159.38 81.5556C159.104 81.4737 158.814 81.4583 158.532 81.5107C158.42 81.379 158.281 81.2733 158.125 81.201C157.968 81.1286 157.798 81.0913 157.625 81.0917H149.982C149.795 81.0917 149.61 81.1356 149.443 81.2198C149.277 81.304 149.132 81.4263 149.021 81.5766C148.91 81.727 148.836 81.9014 148.804 82.0857C148.773 82.27 148.785 82.4591 148.84 82.6378ZM158.22 84.4163L158.767 82.6378C158.83 82.4325 158.836 82.2139 158.785 82.0054C158.808 82.0042 158.83 81.9984 158.854 81.9984C159.197 81.9984 159.527 82.1349 159.77 82.3779C160.013 82.6208 160.149 82.9503 160.149 83.2938C160.149 83.6374 160.013 83.9669 159.77 84.2098C159.527 84.4528 159.197 84.5892 158.854 84.5892C158.631 84.5878 158.413 84.5282 158.22 84.4163Z" fill="#F9A326"/>
<path d="M156.333 93.2752C156.019 92.9598 155.778 92.5795 155.627 92.161C155.476 91.7425 155.419 91.296 155.46 90.853C155.5 90.41 155.637 89.9812 155.861 89.5968C156.085 89.2125 156.39 88.8819 156.756 88.6284L151.912 64.5641L157.261 66.2819L161.138 89.5581C161.523 90.2005 161.659 90.9618 161.52 91.6978C161.382 92.4338 160.978 93.0934 160.386 93.5516C159.793 94.0097 159.054 94.2347 158.307 94.1837C157.56 94.1328 156.857 93.8095 156.333 93.2752Z" fill="#FFB6B6"/>
<path d="M146.999 32.3847L150.318 29.8789C150.318 29.8789 153.245 29.6715 153.764 34.9526C154.282 40.2336 157.528 60.502 157.528 60.502L162.607 84.029L155.577 85.5724L150.138 60.1826L144.693 42.6663L146.999 32.3847Z" fill="#E6E6E6"/>
<path d="M118.357 54.2906C119.395 54.2906 120.236 53.4493 120.236 52.4115C120.236 51.3737 119.395 50.5323 118.357 50.5323C117.32 50.5323 116.479 51.3737 116.479 52.4115C116.479 53.4493 117.32 54.2906 118.357 54.2906Z" fill="#F9A326"/>
<path d="M58.4537 180.204L62.3687 180.204L64.2313 165.099L58.4531 165.099L58.4537 180.204Z" fill="#FFB6B6"/>
<path d="M57.4551 178.925L58.557 178.925L62.8592 177.175L65.165 178.925C66.4681 178.925 67.7181 179.443 68.6395 180.365C69.561 181.286 70.0786 182.536 70.0787 183.84V184L57.4553 184L57.4551 178.925Z" fill="#2F2E41"/>
<path d="M73.625 177.736L77.444 178.599L82.587 164.275L76.9506 163.002L73.625 177.736Z" fill="#FFB6B6"/>
<path d="M72.9317 176.269L74.0066 176.512L78.5885 175.753L80.4524 177.968L80.4527 177.968C81.7237 178.255 82.8287 179.035 83.5245 180.137C84.2203 181.239 84.45 182.573 84.1631 183.844L84.1279 184L71.8145 181.219L72.9317 176.269Z" fill="#2F2E41"/>
<path d="M51.2871 102.506L54.8273 142.182C54.8273 142.182 53.5008 166.001 57.7811 174.383H63.9887L67.0622 140.007L67.4481 116.933L80.7566 136.399L72.28 173.821L79.9201 174.504L93.6752 133.893L78.5634 95.7686L51.2871 102.506Z" fill="#2F2E41"/>
<path d="M54.9932 39.3238C60.0356 39.3238 64.1232 35.235 64.1232 30.1912C64.1232 25.1474 60.0356 21.0586 54.9932 21.0586C49.9509 21.0586 45.8633 25.1474 45.8633 30.1912C45.8633 35.235 49.9509 39.3238 54.9932 39.3238Z" fill="#FFB8B8"/>
<path d="M71.044 48.0268L63.5539 44.8121L59.9076 40.9435L50.7988 42.413L48.382 46.558L40.5586 53.8348L49.7247 95.2917L49.4472 104.346C49.4472 104.346 55.3137 106.988 80.7559 100.906C81.061 100.833 80.4224 100.513 80.4224 100.513L71.044 48.0268Z" fill="#3F3D56"/>
<path d="M45.501 35.3733C45.4374 35.2865 45.3744 35.1989 45.312 35.1106C45.2869 35.1636 45.267 35.2184 45.2383 35.2702L45.501 35.3733Z" fill="#2F2E41"/>
<path d="M64.0764 23.511C63.4661 22.1812 62.378 21.1297 61.0283 20.5654C59.6904 20.0257 58.1953 20.027 56.8584 20.5691C55.6514 19.8063 54.3103 19.2015 52.8979 19.1266C51.4856 19.0517 49.9923 19.5759 49.1219 20.7296C48.9276 21.0342 48.7068 21.321 48.4622 21.5869C47.7626 22.235 46.6994 22.1415 45.7694 22.009C46.1865 22.3666 46.6037 22.7242 47.021 23.0818C46.5162 23.2137 46.0112 23.3456 45.5062 23.4776C46.0955 23.835 46.6847 24.1925 47.2738 24.55C45.5633 25.5769 44.7859 27.8184 44.9912 29.8542C45.1855 31.7815 46.1158 33.544 47.2278 35.1105C47.6714 34.1741 47.5758 33.0536 47.5685 31.999C47.5608 30.8847 47.7579 29.6193 48.6506 28.9965C49.2528 28.5764 50.0271 28.5576 50.7532 28.5616C54.416 28.5817 58.0747 28.8102 61.7115 29.2459C62.205 29.2673 62.6862 29.4069 63.1145 29.653C63.9188 30.2018 64.0755 31.3344 64.1563 32.3281C64.5812 30.6874 64.7891 28.9981 64.7748 27.3033C64.8106 26.0042 64.5726 24.7121 64.0764 23.511Z" fill="#2F2E41"/>
<path d="M66.9187 130.319C74.855 130.319 81.2887 123.884 81.2887 115.945C81.2887 108.006 74.855 101.571 66.9187 101.571C58.9825 101.571 52.5488 108.006 52.5488 115.945C52.5488 123.884 58.9825 130.319 66.9187 130.319Z" fill="white"/>
<path d="M66.9178 101.251C66.1791 101.252 65.4415 101.307 64.7111 101.418C64.3375 101.472 63.9736 101.542 63.6127 101.628C60.9617 102.24 58.5326 103.576 56.5964 105.487C54.6603 107.399 53.2932 109.811 52.6477 112.455C52.0023 115.099 52.1038 117.87 52.941 120.459C53.7782 123.048 55.3181 125.354 57.389 127.119C57.6349 127.326 57.8839 127.527 58.1425 127.719C60.0068 129.109 62.1745 130.037 64.4672 130.426C66.76 130.814 69.1122 130.653 71.3303 129.954C73.5484 129.256 75.5691 128.041 77.2259 126.409C78.8827 124.776 80.1284 122.774 80.8604 120.566C81.5924 118.358 81.7898 116.008 81.4364 113.709C81.0829 111.41 80.1888 109.228 78.8274 107.342C77.4661 105.456 75.6765 103.921 73.606 102.862C71.5355 101.803 69.2432 101.251 66.9178 101.251ZM66.9178 130C63.9302 130.003 61.0202 129.048 58.6151 127.275C58.3533 127.083 58.1011 126.885 57.8552 126.675C55.8376 124.972 54.3406 122.735 53.5358 120.221C52.731 117.706 52.6511 115.015 53.3051 112.457C53.9592 109.899 55.3208 107.578 57.2337 105.758C59.1467 103.939 61.5335 102.696 64.1205 102.171C64.478 102.098 64.8357 102.04 65.1998 101.996C65.7697 101.925 66.3435 101.89 66.9178 101.89C70.6442 101.89 74.218 103.371 76.853 106.007C79.488 108.643 80.9684 112.217 80.9684 115.945C80.9684 119.673 79.488 123.247 76.853 125.883C74.218 128.519 70.6442 130 66.9178 130Z" fill="#3F3D56"/>
<path d="M59.8708 113.07H73.9673C74.4837 113.07 74.9023 112.652 74.9023 112.135V112.089C74.9023 111.573 74.4837 111.154 73.9673 111.154H59.8708C59.3544 111.154 58.9358 111.573 58.9358 112.089V112.135C58.9358 112.652 59.3544 113.07 59.8708 113.07Z" fill="#F9A326"/>
<path d="M59.8708 116.903H73.9673C74.4837 116.903 74.9023 116.485 74.9023 115.968V115.922C74.9023 115.406 74.4837 114.987 73.9673 114.987H59.8708C59.3544 114.987 58.9358 115.406 58.9358 115.922V115.968C58.9358 116.485 59.3544 116.903 59.8708 116.903Z" fill="#F9A326"/>
<path d="M59.8708 120.736H73.9673C74.4837 120.736 74.9023 120.318 74.9023 119.801V119.755C74.9023 119.239 74.4837 118.82 73.9673 118.82H59.8708C59.3544 118.82 58.9358 119.239 58.9358 119.755V119.801C58.9358 120.318 59.3544 120.736 59.8708 120.736Z" fill="#F9A326"/>
<path d="M227.687 179.716L223.582 179.716L221.629 163.878L227.688 163.878L227.687 179.716Z" fill="#9E616A"/>
<path d="M208.265 179.716L204.16 179.716L202.207 163.878L208.266 163.878L208.265 179.716Z" fill="#9E616A"/>
<path d="M208.411 184L195.787 184V183.84C195.787 182.536 196.305 181.286 197.226 180.365C198.148 179.443 199.397 178.925 200.7 178.925H200.701L203.007 177.175L207.309 178.925L208.411 178.925L208.411 184Z" fill="#2F2E41"/>
<path d="M228.358 184L215.734 184V183.84C215.734 182.536 216.252 181.286 217.174 180.365C218.095 179.443 219.345 178.925 220.648 178.925H220.648L222.954 177.175L227.256 178.925L228.358 178.925L228.358 184Z" fill="#2F2E41"/>
<path d="M204.24 85.9792L198.001 123.979L199.699 129.641L197.471 133.652L200.742 168.872L199.414 171.797L203.125 174.086H210.676L211.076 142.201L212.942 137.519V134.939L216.739 115.496L217.438 142.725L218.542 147.414L217.614 150.752L218.827 153.091L222.047 174.781H230.513L229.859 169.735C230.596 169.361 231.189 168.753 231.543 168.006C231.897 167.259 231.993 166.416 231.816 165.608L231.331 163.396L232.435 156.856L234.447 120.372L233.88 90.9339L223.976 83.3578L204.24 85.9792Z" fill="#2F2E41"/>
<path d="M218.542 37.183C222.887 37.183 226.408 33.6601 226.408 29.3143C226.408 24.9686 222.887 21.4457 218.542 21.4457C214.198 21.4457 210.676 24.9686 210.676 29.3143C210.676 33.6601 214.198 37.183 218.542 37.183Z" fill="#9E616A"/>
<path d="M201.355 101.058C201.697 100.705 201.958 100.28 202.118 99.8146C202.279 99.3491 202.335 98.8541 202.284 98.3644C202.232 97.8747 202.074 97.4022 201.821 96.9803C201.567 96.5583 201.224 96.1971 200.815 95.9222L203.874 84.351L197.981 86.3338L195.98 97.0181C195.563 97.7349 195.424 98.5795 195.589 99.392C195.754 100.204 196.211 100.928 196.873 101.426C197.536 101.924 198.358 102.162 199.184 102.094C200.01 102.026 200.782 101.658 201.355 101.058Z" fill="#9E616A"/>
<path d="M204.574 45.5029L203.309 45.2404L202.23 45.8379C202.23 45.8379 199.216 49.8571 199.216 53.5414C199.216 57.2258 195.533 92.7292 195.533 92.7292L202.23 95.7436L207.587 67.9438L204.574 45.5029Z" fill="#E6E6E6"/>
<path d="M225.43 23.5452C225.43 23.5452 227.488 19.6109 222.961 19.2532C222.961 19.2532 219.103 15.7518 215.17 18.6131C215.17 18.6131 213.024 18.6131 211.851 21.0416C211.851 21.0416 210.164 20.4015 209.793 22.1146C209.793 22.1146 208.558 25.6912 209.793 28.9102C211.028 32.1292 211.438 32.4869 211.438 32.4869C211.438 32.4869 209.409 25.7381 214.347 25.3804C219.285 25.0228 224.812 21.9358 225.223 25.8701C225.635 29.8044 226.254 30.7738 226.254 30.7738C226.254 30.7738 230.163 25.1547 225.43 23.5452Z" fill="#2F2E41"/>
<path d="M254.166 133.652C253.572 133.653 252.999 133.434 252.557 133.038L228.751 111.84C228.271 111.412 227.981 110.811 227.944 110.169C227.906 109.527 228.125 108.896 228.552 108.416L243.802 91.2784C244.23 90.7985 244.831 90.508 245.473 90.4707C246.115 90.4333 246.745 90.6522 247.226 91.0793L271.032 112.277C271.513 112.705 271.804 113.306 271.841 113.948C271.878 114.59 271.659 115.221 271.231 115.701L255.981 132.839C255.77 133.077 255.513 133.272 255.226 133.411C254.94 133.549 254.628 133.63 254.31 133.648C254.262 133.651 254.214 133.652 254.166 133.652Z" fill="white"/>
<path d="M254.165 133.808C253.534 133.809 252.924 133.576 252.453 133.154L228.647 111.957C228.136 111.501 227.827 110.861 227.788 110.178C227.748 109.495 227.981 108.824 228.435 108.312L243.685 91.1745C244.141 90.6639 244.781 90.3549 245.464 90.3152C246.147 90.2754 246.818 90.5083 247.329 90.9626L271.136 112.16C271.647 112.616 271.956 113.255 271.996 113.939C272.036 114.622 271.802 115.294 271.347 115.805L256.097 132.942C255.872 133.196 255.599 133.403 255.294 133.551C254.989 133.699 254.657 133.785 254.319 133.803C254.267 133.806 254.216 133.808 254.165 133.808ZM245.614 90.9338C245.338 90.9333 245.065 90.9914 244.812 91.1044C244.56 91.2173 244.335 91.3826 244.151 91.5892L228.901 108.726C228.556 109.115 228.379 109.624 228.41 110.142C228.44 110.66 228.674 111.145 229.061 111.491L252.867 132.688C253.059 132.859 253.283 132.991 253.526 133.075C253.769 133.16 254.026 133.196 254.283 133.181C254.539 133.166 254.79 133.1 255.022 132.988C255.253 132.876 255.46 132.72 255.631 132.528L270.882 115.39C271.227 115.003 271.404 114.494 271.374 113.975C271.344 113.457 271.109 112.972 270.721 112.626L246.915 91.4284C246.557 91.1092 246.094 90.9331 245.614 90.9338Z" fill="#3F3D56"/>
<path d="M262.799 117.422C262.542 117.422 262.293 117.328 262.102 117.157L243.415 100.517C243.311 100.426 243.227 100.315 243.166 100.191C243.106 100.066 243.071 99.9315 243.062 99.7936C243.054 99.6557 243.073 99.5176 243.118 99.3871C243.164 99.2566 243.234 99.1363 243.326 99.0331C243.418 98.93 243.529 98.8459 243.654 98.7859C243.778 98.7258 243.913 98.6909 244.051 98.6831C244.189 98.6753 244.327 98.6948 244.457 98.7405C244.587 98.7862 244.707 98.8571 244.81 98.9493L263.497 115.589C263.656 115.73 263.768 115.917 263.819 116.123C263.869 116.33 263.856 116.547 263.78 116.746C263.704 116.945 263.57 117.116 263.395 117.237C263.219 117.358 263.012 117.422 262.799 117.422Z" fill="#F9A326"/>
<path d="M259.234 121.427C258.977 121.427 258.728 121.333 258.536 121.162L239.85 104.522C239.747 104.431 239.663 104.32 239.603 104.196C239.543 104.072 239.508 103.937 239.5 103.799C239.492 103.662 239.511 103.524 239.556 103.394C239.602 103.264 239.672 103.144 239.764 103.041C239.855 102.938 239.966 102.854 240.09 102.794C240.214 102.734 240.349 102.699 240.487 102.691C240.624 102.683 240.762 102.702 240.892 102.747C241.022 102.793 241.142 102.863 241.245 102.955L259.932 119.594C260.091 119.736 260.203 119.922 260.254 120.129C260.304 120.336 260.291 120.553 260.215 120.752C260.139 120.95 260.005 121.122 259.829 121.242C259.654 121.363 259.446 121.427 259.234 121.427Z" fill="#F9A326"/>
<path d="M255.668 125.433C255.411 125.433 255.163 125.339 254.971 125.167L236.284 108.528C236.181 108.437 236.097 108.326 236.037 108.202C235.977 108.077 235.942 107.943 235.933 107.805C235.925 107.667 235.945 107.529 235.99 107.399C236.035 107.269 236.106 107.149 236.197 107.046C236.289 106.943 236.4 106.859 236.524 106.799C236.648 106.738 236.783 106.703 236.921 106.696C237.058 106.688 237.196 106.707 237.327 106.752C237.457 106.798 237.577 106.868 237.68 106.96L256.367 123.6C256.526 123.741 256.638 123.928 256.688 124.134C256.739 124.341 256.725 124.558 256.65 124.757C256.574 124.956 256.439 125.127 256.264 125.248C256.089 125.369 255.881 125.433 255.668 125.433Z" fill="#F9A326"/>
<path d="M234.3 101.741C234.06 101.311 233.917 100.834 233.882 100.343C233.846 99.8518 233.919 99.3589 234.095 98.8989C234.27 98.439 234.545 98.0231 234.898 97.6806C235.252 97.3382 235.676 97.0774 236.142 96.9168L236.162 84.9479L241.347 88.3807L240.533 99.2203C240.751 100.02 240.668 100.872 240.3 101.615C239.932 102.358 239.304 102.94 238.536 103.25C237.767 103.561 236.912 103.579 236.131 103.301C235.35 103.023 234.699 102.468 234.3 101.741Z" fill="#9E616A"/>
<path d="M234.779 48.7828L237.096 46.5494L238.797 47.778C238.797 47.778 240.472 49.7876 241.811 55.8165C243.15 61.8454 241.811 95.0042 241.811 95.0042L234.445 93.9994L235.449 76.5826L232.436 61.8454L234.779 48.7828Z" fill="#E6E6E6"/>
<path d="M238.198 47.0942L230.394 43.3652L225.096 38.4493L215.434 38.377L212.317 42.4299L204.089 45.2258L205.46 73.6068L204.525 75.7892C204.525 75.7892 205.176 76.3778 205.474 76.707C205.772 77.0362 205.063 79.7925 205.063 79.7925L204.663 82.7911L205.772 83.5834L204.33 85.2863L203.973 87.9705C203.973 87.9705 229.13 81.7159 233.883 92.0773C234.134 92.6247 233.516 87.2745 233.516 87.2745L232.897 83.3577L233.511 79.8422L234.446 78.9069L232.878 77.3382L233.883 69.8951L238.198 47.0942Z" fill="#3F3D56"/>
<path d="M61.2172 110.013C61.4109 109.521 61.4944 108.992 61.4618 108.465C61.4292 107.937 61.2814 107.423 61.0287 106.958C60.776 106.494 60.4246 106.091 59.9993 105.777C59.5739 105.463 59.0849 105.246 58.5668 105.142L56.8332 92.4083L51.8066 96.8035L54.2235 108.222C54.106 109.104 54.3161 109.999 54.8141 110.737C55.312 111.474 56.0632 112.004 56.9252 112.224C57.7873 112.445 58.7003 112.342 59.4914 111.934C60.2824 111.527 60.8965 110.843 61.2172 110.013Z" fill="#FFB8B8"/>
<path d="M41.5237 53.6019L40.1612 53.863L39.3377 54.9001C39.3377 54.9001 38.0054 60.1273 39.5231 63.7804C41.0408 67.4334 52.0139 104.153 52.0139 104.153L59.8955 104.382L53.7558 74.6101L41.5237 53.6019Z" fill="#3F3D56"/>
<path d="M72.5956 108.145C72.2325 107.76 71.9581 107.301 71.7916 106.8C71.6251 106.298 71.5707 105.766 71.6321 105.24C71.6934 104.715 71.8692 104.21 72.1469 103.76C72.4246 103.31 72.7975 102.927 73.2394 102.637L70.1016 90.1748L76.4039 92.3783L78.4175 103.875C78.8554 104.65 78.994 105.558 78.8069 106.428C78.6198 107.299 78.1202 108.07 77.4025 108.596C76.6849 109.123 75.7992 109.367 74.9133 109.284C74.0273 109.201 73.2027 108.795 72.5956 108.145Z" fill="#FFB8B8"/>
<path d="M69.8416 48.4568L71.2031 48.1909L72.3538 48.8461C72.3538 48.8461 75.5385 53.1995 75.4919 57.1552C75.4453 61.1108 78.9507 99.2755 78.9507 99.2755L71.7226 102.427L66.3223 72.5122L69.8416 48.4568Z" fill="#3F3D56"/>
</g>
<defs>
<clipPath id="clip0_343_143">
<rect width="272" height="184" fill="white"/>
</clipPath>
</defs>
</svg>
