<svg width="67" height="68" viewBox="0 0 67 68" fill="none" xmlns="http://www.w3.org/2000/svg">
<g clip-path="url(#clip0_758_251)">
<path d="M11.1667 36.8333H19.5417V42.5H11.1667V36.8333ZM25.125 42.5H33.5V36.8333H25.125V42.5ZM11.1667 53.8333H19.5417V48.1667H11.1667V53.8333ZM25.125 53.8333H33.5V48.1667H25.125V53.8333ZM11.1667 19.8333H19.5417V14.1667H11.1667V19.8333ZM25.125 19.8333H33.5V14.1667H25.125V19.8333ZM11.1667 31.1667H19.5417V25.5H11.1667V31.1667ZM25.125 31.1667H33.5V25.5H25.125V31.1667ZM67 22.6667V68H0V8.5C0 6.24566 0.882363 4.08365 2.45298 2.48959C4.0236 0.895533 6.15381 0 8.375 0L36.2917 0C38.5129 0 40.6431 0.895533 42.2137 2.48959C43.7843 4.08365 44.6667 6.24566 44.6667 8.5V14.1667H58.625C60.8462 14.1667 62.9764 15.0622 64.547 16.6563C66.1176 18.2503 67 20.4123 67 22.6667ZM39.0833 8.5C39.0833 7.74855 38.7892 7.02788 38.2657 6.49653C37.7421 5.96518 37.0321 5.66667 36.2917 5.66667H8.375C7.6346 5.66667 6.92453 5.96518 6.40099 6.49653C5.87745 7.02788 5.58333 7.74855 5.58333 8.5V62.3333H39.0833V8.5ZM61.4167 22.6667C61.4167 21.9152 61.1225 21.1946 60.599 20.6632C60.0755 20.1318 59.3654 19.8333 58.625 19.8333H44.6667V62.3333H61.4167V22.6667ZM50.25 42.5H55.8333V36.8333H50.25V42.5ZM50.25 53.8333H55.8333V48.1667H50.25V53.8333ZM50.25 31.1667H55.8333V25.5H50.25V31.1667Z" fill="#FFB800"/>
</g>
<defs>
<clipPath id="clip0_758_251">
<rect width="67" height="68" fill="white"/>
</clipPath>
</defs>
</svg>
