<svg width="1400" height="570" viewBox="0 0 1400 570" fill="none" xmlns="http://www.w3.org/2000/svg">
<path d="M1.50215 18.038C1.50215 8.07588 11.5902 0 24.0343 0H1375.97C1388.41 0 1398.5 8.07588 1398.5 18.038V550.759C1398.5 560.722 1388.41 568.797 1375.97 568.797H24.0343C11.5901 568.797 1.50215 560.722 1.50215 550.759V18.038Z" fill="#ADC3D2"/>
<path d="M576.073 347.532L954.614 1.20253H1384.98C1393.27 1.20253 1400 6.58645 1400 13.2278V557.975C1400 564.616 1393.27 570 1384.98 570H15.0215C6.72534 570 0 564.616 0 557.975V347.532H576.073Z" fill="black" fill-opacity="0.74"/>
<g clip-path="url(#clip0_296_1049)">
<path d="M152.78 167.506C159.338 167.506 164.655 162.174 164.655 155.596C164.655 149.018 159.338 143.685 152.78 143.685C146.222 143.685 140.905 149.018 140.905 155.596C140.905 162.174 146.222 167.506 152.78 167.506Z" fill="#FFB8B8"/>
<path d="M112.655 298.323L115.662 303.447L136.796 294.252L132.358 286.691L112.655 298.323Z" fill="#FFB8B8"/>
<path d="M113.557 296.032L119.478 306.122C119.974 306.966 120.299 307.9 120.434 308.871C120.57 309.841 120.514 310.829 120.269 311.777C120.024 312.726 119.595 313.617 119.007 314.399C118.419 315.181 117.683 315.84 116.841 316.337L116.632 316.46L106.938 299.94L113.557 296.032Z" fill="#2F2E41"/>
<path d="M147.493 316.781L153.421 316.78L156.24 293.849L147.492 293.849L147.493 316.781Z" fill="#FFB8B8"/>
<path d="M145.981 314.84L157.654 314.839C158.631 314.839 159.599 315.032 160.502 315.407C161.404 315.782 162.224 316.332 162.915 317.024C163.606 317.717 164.154 318.54 164.528 319.445C164.901 320.35 165.094 321.321 165.094 322.3V322.543L145.982 322.544L145.981 314.84Z" fill="#2F2E41"/>
<path d="M123.664 302.887C123.323 302.888 122.986 302.807 122.682 302.653C122.378 302.498 122.114 302.274 121.912 301.998L116.195 294.211C116.021 293.974 115.896 293.703 115.829 293.416C115.762 293.129 115.753 292.831 115.804 292.54C115.855 292.25 115.964 291.973 116.125 291.725C116.285 291.478 116.494 291.266 116.739 291.103L142.177 274.061L126.828 233.582L159.651 236.299L160.756 271.085C160.86 274.253 160.103 277.389 158.566 280.159C157.029 282.928 154.771 285.227 152.032 286.808L124.751 302.594C124.421 302.786 124.046 302.887 123.664 302.887Z" fill="#2F2E41"/>
<path d="M147.672 312.125C147.109 312.124 146.568 311.904 146.164 311.512C145.759 311.119 145.522 310.585 145.502 310.021L144.299 276.133L159.194 275.346L158.008 309.477C157.99 310.018 157.773 310.533 157.397 310.921C157.022 311.31 156.516 311.544 155.977 311.578L147.82 312.12C147.77 312.124 147.721 312.125 147.672 312.125Z" fill="#2F2E41"/>
<path d="M163.449 243.028C159.659 243.028 146.422 238.753 141.827 237.229C141.139 237.781 137.363 240.613 132.955 240.095C130.235 239.775 127.84 238.231 125.837 235.505C121.415 229.485 126.877 203.669 132.238 183.071C133.313 178.908 135.955 175.325 139.609 173.075C143.263 170.825 147.645 170.083 151.833 171.006C154.868 171.678 157.656 173.186 159.884 175.36C162.112 177.534 163.692 180.288 164.445 183.313C165.455 187.434 164.587 192.281 163.953 195.821C163.655 197.485 163.419 198.8 163.5 199.446C163.811 201.943 165.539 241.097 164.428 242.77C164.309 242.948 163.967 243.028 163.449 243.028Z" fill="#FFE8A7"/>
<path d="M149.585 243.098C150.194 242.643 150.696 242.06 151.056 241.389C151.416 240.719 151.625 239.977 151.668 239.217C151.712 238.456 151.588 237.696 151.307 236.988C151.026 236.281 150.593 235.644 150.04 235.123L150.274 187.675L139.133 189.536L142.406 235.59C141.594 236.581 141.172 237.835 141.221 239.117C141.27 240.398 141.786 241.617 142.67 242.542C143.555 243.467 144.748 244.035 146.022 244.138C147.297 244.24 148.564 243.87 149.585 243.098Z" fill="#FFB8B8"/>
<path d="M152.162 218.146H140.161C139.588 218.144 139.039 217.917 138.631 217.512C138.224 217.107 137.992 216.559 137.985 215.984L137.691 183.352C137.681 182.223 137.894 181.104 138.317 180.059C138.741 179.014 139.367 178.063 140.16 177.262C140.952 176.461 141.895 175.826 142.934 175.392C143.972 174.959 145.086 174.737 146.211 174.738C147.336 174.739 148.45 174.965 149.488 175.4C150.525 175.836 151.467 176.474 152.257 177.277C153.048 178.08 153.671 179.032 154.093 180.078C154.514 181.125 154.724 182.244 154.711 183.373L154.337 215.989C154.329 216.563 154.096 217.11 153.689 217.514C153.282 217.917 152.734 218.144 152.162 218.146Z" fill="#FFE8A7"/>
<path d="M149.756 167.456C144.319 167.466 139.19 163.156 138.248 157.785C137.911 155.675 138.063 153.516 138.693 151.475C139.376 149.151 140.549 147.001 142.131 145.17C143.713 143.339 145.668 141.87 147.864 140.861C150.061 139.852 152.447 139.327 154.863 139.322C157.279 139.316 159.667 139.83 161.868 140.829C163.323 141.489 164.755 142.437 165.421 143.893C166.087 145.348 165.67 147.382 164.213 148.037C163.261 148.464 162.067 148.254 161.222 148.869C160.009 149.751 160.321 151.628 160.863 153.03C161.405 154.431 162.017 156.127 161.109 157.323C160.263 158.437 158.572 158.402 157.239 157.983C155.907 157.563 154.592 156.861 153.203 157.004C151.177 157.212 149.721 159.234 149.452 161.258C149.182 163.283 149.817 165.307 150.443 167.251L149.756 167.456Z" fill="#2F2E41"/>
<path d="M205.22 323H80.4835C80.3553 323 80.2323 322.949 80.1416 322.858C80.0509 322.767 80 322.644 80 322.515C80 322.386 80.0509 322.263 80.1416 322.172C80.2323 322.081 80.3553 322.03 80.4835 322.03H205.22C205.349 322.03 205.472 322.081 205.562 322.172C205.653 322.263 205.704 322.386 205.704 322.515C205.704 322.644 205.653 322.767 205.562 322.858C205.472 322.949 205.349 323 205.22 323Z" fill="#CCCCCC"/>
<path d="M520.023 242.726H210.192C208.077 242.723 206.05 241.88 204.554 240.38C203.058 238.88 202.217 236.846 202.215 234.724V43.102C202.217 41.5479 202.833 40.0579 203.928 38.9589C205.024 37.86 206.51 37.2418 208.059 37.24H522.055C523.631 37.2418 525.142 37.8707 526.257 38.9886C527.371 40.1066 527.998 41.6223 528 43.2034V234.724C527.998 236.846 527.156 238.88 525.661 240.38C524.165 241.88 522.138 242.723 520.023 242.726Z" fill="#F2F2F2"/>
<path d="M510.005 232.624H221.251C217.018 232.624 213.574 229.389 213.574 225.414V58.5463C213.574 55.5978 216.126 53.199 219.263 53.199H511.898C515.087 53.199 517.681 55.6374 517.681 58.6343V225.414C517.681 229.389 514.237 232.624 510.005 232.624Z" fill="white"/>
<path d="M527.889 44.0991H202.103V40.0255C202.106 37.8971 202.95 35.8568 204.451 34.3523C205.952 32.8477 207.987 32.0018 210.109 32H519.882C522.004 32.0017 524.039 32.8477 525.54 34.3522C527.041 35.8568 527.886 37.8971 527.889 40.0255V44.0991Z" fill="#3F3D56"/>
<path d="M216.653 40.1388C217.797 40.1388 218.724 39.2088 218.724 38.0616C218.724 36.9145 217.797 35.9845 216.653 35.9845C215.509 35.9845 214.582 36.9145 214.582 38.0616C214.582 39.2088 215.509 40.1388 216.653 40.1388Z" fill="white"/>
<path d="M224.513 40.1388C225.657 40.1388 226.584 39.2089 226.584 38.0617C226.584 36.9145 225.657 35.9845 224.513 35.9845C223.37 35.9845 222.442 36.9145 222.442 38.0617C222.442 39.2089 223.37 40.1388 224.513 40.1388Z" fill="white"/>
<path d="M232.375 40.1388C233.518 40.1388 234.446 39.2088 234.446 38.0616C234.446 36.9145 233.518 35.9845 232.375 35.9845C231.231 35.9845 230.304 36.9145 230.304 38.0616C230.304 39.2088 231.231 40.1388 232.375 40.1388Z" fill="white"/>
<path d="M358.777 89.6847H302.303C301.462 89.6847 300.654 89.3493 300.059 88.7521C299.463 88.155 299.129 87.3451 299.129 86.5006C299.129 85.6561 299.463 84.8463 300.059 84.2491C300.654 83.652 301.462 83.3165 302.303 83.3165H358.777C359.619 83.3165 360.427 83.652 361.022 84.2491C361.618 84.8463 361.952 85.6561 361.952 86.5006C361.952 87.3451 361.618 88.155 361.022 88.7521C360.427 89.3493 359.619 89.6847 358.777 89.6847Z" fill="#CCCCCC"/>
<path d="M428.952 89.6847H372.478C371.636 89.6847 370.829 89.3493 370.234 88.7521C369.638 88.155 369.304 87.3451 369.304 86.5006C369.304 85.6561 369.638 84.8463 370.234 84.2491C370.829 83.652 371.636 83.3165 372.478 83.3165H428.952C429.794 83.3165 430.602 83.652 431.197 84.2491C431.792 84.8463 432.127 85.6561 432.127 86.5006C432.127 87.3451 431.792 88.155 431.197 88.7521C430.602 89.3493 429.794 89.6847 428.952 89.6847Z" fill="#CCCCCC"/>
<path d="M428.953 101.751H330.708C329.866 101.751 329.058 101.415 328.463 100.818C327.868 100.221 327.533 99.4112 327.533 98.5668C327.533 97.7223 327.868 96.9124 328.463 96.3152C329.058 95.7181 329.866 95.3826 330.708 95.3826H428.953C429.794 95.3826 430.602 95.7181 431.197 96.3152C431.793 96.9124 432.127 97.7223 432.127 98.5668C432.127 99.4112 431.793 100.221 431.197 100.818C430.602 101.415 429.794 101.751 428.953 101.751Z" fill="#CCCCCC"/>
<path d="M358.778 77.451H302.303C301.462 77.45 300.656 77.114 300.061 76.517C299.467 75.92 299.133 75.1107 299.133 74.2669C299.133 73.4231 299.467 72.6138 300.061 72.0167C300.656 71.4197 301.462 71.0838 302.303 71.0828H358.778C359.195 71.0822 359.608 71.1642 359.994 71.324C360.379 71.4838 360.73 71.7182 361.025 72.014C361.32 72.3097 361.554 72.6609 361.714 73.0474C361.874 73.434 361.956 73.8484 361.956 74.2669C361.956 74.6853 361.874 75.0997 361.714 75.4863C361.554 75.8729 361.32 76.2241 361.025 76.5198C360.73 76.8155 360.379 77.05 359.994 77.2098C359.608 77.3695 359.195 77.4515 358.778 77.451Z" fill="#CCCCCC"/>
<path d="M389.855 77.6186H373.815C372.973 77.6186 372.166 77.2831 371.57 76.686C370.975 76.0888 370.641 75.2789 370.641 74.4344C370.641 73.59 370.975 72.7801 371.57 72.1829C372.166 71.5858 372.973 71.2503 373.815 71.2503H389.855C390.697 71.2503 391.505 71.5858 392.1 72.1829C392.695 72.7801 393.03 73.59 393.03 74.4344C393.03 75.2789 392.695 76.0888 392.1 76.686C391.505 77.2831 390.697 77.6186 389.855 77.6186Z" fill="#CCCCCC"/>
<path d="M318.343 101.751H302.303C301.462 101.75 300.656 101.414 300.061 100.817C299.467 100.22 299.133 99.4106 299.133 98.5668C299.133 97.723 299.467 96.9137 300.061 96.3166C300.656 95.7196 301.462 95.3837 302.303 95.3827H318.343C318.761 95.3821 319.174 95.4641 319.559 95.6239C319.945 95.7837 320.296 96.0181 320.591 96.3139C320.886 96.6096 321.12 96.9608 321.28 97.3474C321.44 97.7339 321.522 98.1483 321.522 98.5668C321.522 98.9853 321.44 99.3996 321.28 99.7862C321.12 100.173 320.886 100.524 320.591 100.82C320.296 101.115 319.945 101.35 319.559 101.51C319.174 101.669 318.761 101.751 318.343 101.751Z" fill="#CCCCCC"/>
<path d="M358.777 202.674H302.303C301.462 202.674 300.654 202.338 300.059 201.741C299.463 201.144 299.129 200.334 299.129 199.49C299.129 198.645 299.463 197.835 300.059 197.238C300.654 196.641 301.462 196.305 302.303 196.305H358.777C359.194 196.305 359.607 196.388 359.992 196.548C360.378 196.708 360.727 196.942 361.022 197.238C361.317 197.534 361.551 197.885 361.71 198.271C361.87 198.657 361.952 199.071 361.952 199.49C361.952 199.908 361.87 200.322 361.71 200.708C361.551 201.094 361.317 201.445 361.022 201.741C360.727 202.037 360.378 202.271 359.992 202.431C359.607 202.591 359.194 202.674 358.777 202.674Z" fill="#CCCCCC"/>
<path d="M428.952 202.674H372.478C371.636 202.674 370.829 202.338 370.234 201.741C369.638 201.144 369.304 200.334 369.304 199.49C369.304 198.645 369.638 197.835 370.234 197.238C370.829 196.641 371.636 196.305 372.478 196.305H428.952C429.369 196.305 429.782 196.388 430.167 196.548C430.552 196.708 430.902 196.942 431.197 197.238C431.492 197.534 431.726 197.885 431.885 198.271C432.045 198.657 432.127 199.071 432.127 199.49C432.127 199.908 432.045 200.322 431.885 200.708C431.726 201.094 431.492 201.445 431.197 201.741C430.902 202.037 430.552 202.271 430.167 202.431C429.782 202.591 429.369 202.674 428.952 202.674Z" fill="#CCCCCC"/>
<path d="M428.953 214.74H330.708C329.866 214.74 329.058 214.404 328.463 213.807C327.868 213.21 327.533 212.4 327.533 211.556C327.533 210.711 327.868 209.901 328.463 209.304C329.058 208.707 329.866 208.372 330.708 208.372H428.953C429.37 208.371 429.783 208.453 430.169 208.613C430.554 208.773 430.905 209.007 431.2 209.303C431.495 209.599 431.729 209.95 431.889 210.336C432.049 210.723 432.131 211.137 432.131 211.556C432.131 211.974 432.049 212.389 431.889 212.775C431.729 213.162 431.495 213.513 431.2 213.809C430.905 214.104 430.554 214.339 430.169 214.499C429.783 214.658 429.37 214.74 428.953 214.74Z" fill="#CCCCCC"/>
<path d="M358.777 190.44H302.303C301.462 190.44 300.654 190.105 300.059 189.507C299.463 188.91 299.129 188.1 299.129 187.256C299.129 186.411 299.463 185.601 300.059 185.004C300.654 184.407 301.462 184.072 302.303 184.072H358.777C359.619 184.072 360.427 184.407 361.022 185.004C361.618 185.601 361.952 186.411 361.952 187.256C361.952 188.1 361.618 188.91 361.022 189.507C360.427 190.105 359.619 190.44 358.777 190.44Z" fill="#CCCCCC"/>
<path d="M389.855 190.608H373.815C372.973 190.608 372.166 190.272 371.57 189.675C370.975 189.078 370.641 188.268 370.641 187.423C370.641 186.579 370.975 185.769 371.57 185.172C372.166 184.575 372.973 184.239 373.815 184.239H389.855C390.697 184.239 391.505 184.575 392.1 185.172C392.695 185.769 393.03 186.579 393.03 187.423C393.03 188.268 392.695 189.078 392.1 189.675C391.505 190.272 390.697 190.608 389.855 190.608Z" fill="#CCCCCC"/>
<path d="M318.343 214.74H302.303C301.462 214.74 300.654 214.404 300.059 213.807C299.463 213.21 299.129 212.4 299.129 211.556C299.129 210.711 299.463 209.901 300.059 209.304C300.654 208.707 301.462 208.372 302.303 208.372H318.343C318.761 208.371 319.174 208.453 319.559 208.613C319.945 208.773 320.296 209.007 320.591 209.303C320.886 209.599 321.12 209.95 321.28 210.336C321.44 210.723 321.522 211.137 321.522 211.556C321.522 211.974 321.44 212.389 321.28 212.775C321.12 213.162 320.886 213.513 320.591 213.809C320.296 214.104 319.945 214.339 319.559 214.499C319.174 214.658 318.761 214.74 318.343 214.74Z" fill="#CCCCCC"/>
<path d="M344.028 168.49C342.83 168.492 341.679 168.02 340.826 167.175L319.597 146.149C319.18 145.736 318.849 145.245 318.623 144.703C318.398 144.161 318.281 143.579 318.281 142.991C318.281 142.404 318.398 141.822 318.623 141.28C318.849 140.738 319.18 140.246 319.597 139.834L340.74 118.892C341.621 118.024 342.807 117.539 344.042 117.543C345.277 117.547 346.461 118.039 347.336 118.913C348.212 119.794 348.705 120.987 348.705 122.232C348.705 123.476 348.213 124.669 347.336 125.55L331.625 141.309C331.136 141.801 330.861 142.468 330.861 143.163C330.861 143.858 331.136 144.525 331.625 145.017L347.251 160.69C347.889 161.329 348.324 162.143 348.5 163.03C348.676 163.917 348.586 164.836 348.241 165.671C347.896 166.507 347.311 167.22 346.561 167.722C345.811 168.224 344.93 168.491 344.028 168.49Z" fill="#FED253"/>
<path d="M377.856 168.49C376.954 168.491 376.072 168.224 375.322 167.722C374.572 167.22 373.988 166.507 373.643 165.671C373.297 164.836 373.207 163.917 373.383 163.03C373.56 162.143 373.994 161.329 374.632 160.69L390.258 145.017C390.748 144.525 391.023 143.858 391.023 143.163C391.023 142.468 390.748 141.801 390.258 141.309L374.547 125.55C374.113 125.114 373.768 124.597 373.533 124.028C373.298 123.458 373.177 122.848 373.177 122.232C373.177 121.615 373.298 121.005 373.533 120.436C373.768 119.866 374.113 119.349 374.547 118.913C375.423 118.039 376.606 117.547 377.841 117.543C379.076 117.539 380.263 118.024 381.144 118.892L402.287 139.834C402.703 140.246 403.034 140.738 403.26 141.28C403.486 141.822 403.602 142.404 403.602 142.991C403.602 143.579 403.486 144.16 403.26 144.703C403.034 145.245 402.703 145.736 402.287 146.149L381.058 167.175C380.205 168.02 379.054 168.492 377.856 168.49Z" fill="#FFCB2D"/>
</g>
<path d="M921.869 160.739L916.193 161.352C916.136 160.773 915.96 160.233 915.665 159.733C915.369 159.233 914.926 158.835 914.335 158.54C913.756 158.233 913.006 158.08 912.085 158.08C910.744 158.08 909.568 158.381 908.557 158.983C907.545 159.585 906.972 160.358 906.835 161.301C906.71 162.006 906.881 162.58 907.347 163.023C907.813 163.466 908.676 163.841 909.938 164.148L914.267 165.102C916.653 165.636 918.369 166.5 919.415 167.693C920.472 168.886 920.841 170.449 920.523 172.381C920.25 173.994 919.545 175.415 918.409 176.642C917.273 177.858 915.818 178.807 914.045 179.489C912.284 180.17 910.33 180.511 908.182 180.511C904.92 180.511 902.409 179.835 900.648 178.483C898.898 177.119 898.028 175.244 898.04 172.858L904.108 172.278C904.176 173.46 904.591 174.352 905.352 174.955C906.114 175.545 907.17 175.847 908.523 175.858C910.045 175.869 911.33 175.551 912.375 174.903C913.432 174.244 914.028 173.443 914.165 172.5C914.278 171.795 914.102 171.222 913.636 170.778C913.182 170.335 912.369 169.983 911.199 169.722L906.903 168.784C904.472 168.25 902.739 167.347 901.705 166.074C900.682 164.79 900.335 163.17 900.665 161.216C900.938 159.625 901.602 158.256 902.659 157.108C903.727 155.949 905.097 155.057 906.767 154.432C908.438 153.795 910.307 153.477 912.375 153.477C915.489 153.477 917.835 154.131 919.415 155.438C920.994 156.744 921.813 158.511 921.869 160.739ZM935.821 180.511C933.241 180.511 931.094 179.943 929.378 178.807C927.673 177.67 926.474 176.074 925.781 174.017C925.088 171.96 924.963 169.574 925.406 166.858C925.849 164.176 926.736 161.83 928.065 159.818C929.406 157.807 931.094 156.25 933.128 155.148C935.173 154.034 937.463 153.477 939.997 153.477C942.577 153.477 944.719 154.051 946.423 155.199C948.128 156.335 949.327 157.932 950.02 159.989C950.724 162.045 950.855 164.443 950.412 167.182C949.98 169.852 949.088 172.188 947.736 174.188C946.395 176.188 944.707 177.744 942.673 178.858C940.639 179.96 938.355 180.511 935.821 180.511ZM936.332 175.568C937.764 175.568 939.02 175.182 940.099 174.409C941.19 173.625 942.082 172.574 942.776 171.256C943.48 169.926 943.969 168.449 944.241 166.824C944.491 165.256 944.497 163.835 944.259 162.562C944.02 161.278 943.509 160.261 942.724 159.511C941.952 158.75 940.878 158.369 939.503 158.369C938.071 158.369 936.804 158.767 935.702 159.562C934.611 160.347 933.719 161.403 933.026 162.733C932.332 164.051 931.855 165.523 931.594 167.148C931.332 168.716 931.321 170.136 931.56 171.409C931.798 172.682 932.31 173.693 933.094 174.443C933.878 175.193 934.957 175.568 936.332 175.568ZM965.501 145.091L959.706 180H953.536L959.331 145.091H965.501ZM966.051 180L970.415 153.818H976.585L972.222 180H966.051ZM974.403 150.068C973.415 150.068 972.597 149.739 971.949 149.08C971.301 148.42 971.017 147.631 971.097 146.71C971.176 145.79 971.591 145 972.341 144.341C973.102 143.682 973.972 143.352 974.949 143.352C975.938 143.352 976.75 143.682 977.386 144.341C978.034 145 978.318 145.79 978.239 146.71C978.17 147.631 977.756 148.42 976.994 149.08C976.244 149.739 975.381 150.068 974.403 150.068ZM988.317 190.364C986.089 190.364 984.232 190.063 982.743 189.46C981.254 188.869 980.107 188.074 979.3 187.074C978.493 186.074 977.993 184.966 977.8 183.75L983.595 182.403C983.766 182.915 984.038 183.42 984.413 183.92C984.8 184.432 985.368 184.852 986.118 185.182C986.868 185.523 987.868 185.693 989.118 185.693C990.868 185.693 992.396 185.267 993.703 184.415C995.01 183.563 995.817 182.176 996.124 180.256L996.908 175.295H996.601C996.192 175.932 995.629 176.585 994.913 177.256C994.209 177.926 993.317 178.489 992.237 178.943C991.169 179.398 989.885 179.625 988.385 179.625C986.374 179.625 984.629 179.153 983.152 178.21C981.675 177.256 980.612 175.835 979.964 173.949C979.328 172.051 979.249 169.676 979.726 166.824C980.192 163.949 981.067 161.523 982.351 159.545C983.646 157.557 985.197 156.051 987.004 155.028C988.811 153.994 990.72 153.477 992.732 153.477C994.266 153.477 995.487 153.739 996.396 154.261C997.305 154.773 997.993 155.392 998.459 156.119C998.925 156.835 999.266 157.511 999.482 158.148H999.805L1000.52 153.818H1006.61L1002.21 180.426C1001.85 182.665 1001.01 184.517 999.703 185.983C998.396 187.46 996.754 188.557 994.777 189.273C992.811 190 990.658 190.364 988.317 190.364ZM990.839 174.784C992.146 174.784 993.317 174.466 994.351 173.83C995.385 173.193 996.249 172.278 996.942 171.085C997.635 169.892 998.118 168.46 998.391 166.79C998.663 165.142 998.652 163.699 998.357 162.46C998.072 161.222 997.521 160.261 996.703 159.58C995.885 158.886 994.817 158.54 993.499 158.54C992.124 158.54 990.919 158.898 989.885 159.614C988.862 160.33 988.021 161.312 987.362 162.562C986.714 163.801 986.26 165.21 985.999 166.79C985.749 168.392 985.749 169.795 985.999 171C986.26 172.193 986.788 173.125 987.584 173.795C988.391 174.455 989.476 174.784 990.839 174.784ZM1016.03 180.528C1014.37 180.528 1012.93 180.233 1011.7 179.642C1010.48 179.04 1009.57 178.153 1008.99 176.983C1008.42 175.812 1008.28 174.369 1008.57 172.653C1008.82 171.176 1009.29 169.955 1010 168.989C1010.71 168.023 1011.59 167.25 1012.62 166.67C1013.67 166.08 1014.81 165.636 1016.03 165.341C1017.27 165.045 1018.53 164.83 1019.82 164.693C1021.38 164.534 1022.65 164.386 1023.62 164.25C1024.6 164.114 1025.33 163.909 1025.82 163.636C1026.31 163.352 1026.6 162.92 1026.7 162.341V162.239C1026.91 160.955 1026.7 159.96 1026.09 159.256C1025.48 158.551 1024.45 158.199 1023.02 158.199C1021.52 158.199 1020.26 158.528 1019.24 159.188C1018.21 159.847 1017.47 160.625 1017 161.523L1011.41 160.705C1012.12 159.114 1013.08 157.784 1014.31 156.716C1015.54 155.636 1016.95 154.83 1018.56 154.295C1020.17 153.75 1021.89 153.477 1023.72 153.477C1024.97 153.477 1026.19 153.625 1027.38 153.92C1028.59 154.216 1029.65 154.705 1030.57 155.386C1031.5 156.057 1032.19 156.972 1032.62 158.131C1033.06 159.29 1033.13 160.739 1032.84 162.477L1029.92 180H1023.99L1024.61 176.403H1024.4C1023.91 177.131 1023.28 177.812 1022.49 178.449C1021.71 179.074 1020.78 179.58 1019.7 179.966C1018.62 180.341 1017.4 180.528 1016.03 180.528ZM1018.37 175.994C1019.61 175.994 1020.72 175.75 1021.71 175.261C1022.7 174.761 1023.51 174.102 1024.15 173.284C1024.78 172.466 1025.18 171.574 1025.34 170.608L1025.85 167.523C1025.62 167.682 1025.27 167.83 1024.79 167.966C1024.32 168.102 1023.78 168.222 1023.19 168.324C1022.61 168.426 1022.04 168.517 1021.47 168.597C1020.9 168.676 1020.41 168.744 1020 168.801C1019.06 168.926 1018.2 169.131 1017.41 169.415C1016.64 169.699 1016 170.097 1015.49 170.608C1014.99 171.108 1014.67 171.756 1014.55 172.551C1014.37 173.676 1014.63 174.534 1015.35 175.125C1016.07 175.705 1017.07 175.994 1018.37 175.994Z" fill="white" fill-opacity="0.67"/>
<path d="M1059.69 180L1062.97 160.364H1067.6L1064.32 180H1059.69ZM1065.96 157.551C1065.22 157.551 1064.6 157.304 1064.12 156.81C1063.63 156.315 1063.42 155.723 1063.48 155.033C1063.54 154.342 1063.85 153.75 1064.41 153.256C1064.98 152.761 1065.63 152.514 1066.37 152.514C1067.11 152.514 1067.72 152.761 1068.2 153.256C1068.68 153.75 1068.89 154.342 1068.84 155.033C1068.78 155.723 1068.47 156.315 1067.9 156.81C1067.34 157.304 1066.69 157.551 1065.96 157.551ZM1078.06 153.818L1073.71 180H1069.08L1073.43 153.818H1078.06ZM1087.11 180.384C1085.14 180.384 1083.51 179.974 1082.23 179.156C1080.94 178.33 1080.04 177.162 1079.52 175.653C1079 174.136 1078.92 172.351 1079.26 170.297C1079.59 168.277 1080.27 166.504 1081.29 164.979C1082.32 163.445 1083.59 162.251 1085.13 161.399C1086.67 160.538 1088.38 160.108 1090.24 160.108C1091.45 160.108 1092.56 160.304 1093.58 160.696C1094.59 161.08 1095.45 161.676 1096.15 162.486C1096.85 163.295 1097.33 164.327 1097.59 165.58C1097.86 166.824 1097.84 168.307 1097.55 170.028L1097.34 171.447H1081.23L1081.73 168.328H1093.39C1093.54 167.442 1093.49 166.653 1093.23 165.963C1092.98 165.264 1092.55 164.714 1091.96 164.314C1091.36 163.913 1090.61 163.713 1089.72 163.713C1088.81 163.713 1087.95 163.947 1087.16 164.416C1086.38 164.876 1085.72 165.473 1085.18 166.206C1084.64 166.939 1084.3 167.71 1084.16 168.52L1083.63 171.511C1083.45 172.739 1083.49 173.74 1083.76 174.516C1084.03 175.291 1084.51 175.862 1085.19 176.229C1085.87 176.595 1086.74 176.778 1087.77 176.778C1088.46 176.778 1089.09 176.685 1089.67 176.497C1090.25 176.31 1090.76 176.028 1091.21 175.653C1091.67 175.27 1092.06 174.801 1092.36 174.247L1096.6 174.733C1096.13 175.875 1095.44 176.872 1094.54 177.724C1093.63 178.568 1092.55 179.224 1091.29 179.693C1090.04 180.153 1088.64 180.384 1087.11 180.384ZM1117.41 180.384C1115.45 180.384 1113.82 179.974 1112.53 179.156C1111.24 178.33 1110.34 177.162 1109.82 175.653C1109.31 174.136 1109.22 172.351 1109.57 170.297C1109.9 168.277 1110.58 166.504 1111.6 164.979C1112.62 163.445 1113.9 162.251 1115.43 161.399C1116.98 160.538 1118.68 160.108 1120.55 160.108C1121.76 160.108 1122.87 160.304 1123.88 160.696C1124.9 161.08 1125.75 161.676 1126.45 162.486C1127.15 163.295 1127.63 164.327 1127.9 165.58C1128.16 166.824 1128.15 168.307 1127.86 170.028L1127.64 171.447H1111.53L1112.03 168.328H1123.69C1123.85 167.442 1123.79 166.653 1123.54 165.963C1123.28 165.264 1122.86 164.714 1122.26 164.314C1121.66 163.913 1120.92 163.713 1120.02 163.713C1119.11 163.713 1118.26 163.947 1117.47 164.416C1116.68 164.876 1116.02 165.473 1115.48 166.206C1114.95 166.939 1114.61 167.71 1114.46 168.52L1113.94 171.511C1113.75 172.739 1113.79 173.74 1114.07 174.516C1114.34 175.291 1114.82 175.862 1115.5 176.229C1116.18 176.595 1117.04 176.778 1118.08 176.778C1118.76 176.778 1119.39 176.685 1119.97 176.497C1120.55 176.31 1121.07 176.028 1121.52 175.653C1121.98 175.27 1122.36 174.801 1122.67 174.247L1126.9 174.733C1126.43 175.875 1125.75 176.872 1124.84 177.724C1123.94 178.568 1122.86 179.224 1121.6 179.693C1120.34 180.153 1118.95 180.384 1117.41 180.384ZM1136.69 168.494L1134.8 180H1130.16L1133.43 160.364H1137.87L1137.31 163.7H1137.55C1138.16 162.601 1139.02 161.727 1140.13 161.08C1141.24 160.432 1142.53 160.108 1144.01 160.108C1145.34 160.108 1146.47 160.398 1147.38 160.977C1148.29 161.548 1148.94 162.388 1149.32 163.496C1149.71 164.595 1149.77 165.929 1149.5 167.497L1147.41 180H1142.78L1144.73 168.213C1144.96 166.909 1144.79 165.886 1144.24 165.145C1143.69 164.395 1142.81 164.02 1141.6 164.02C1140.79 164.02 1140.05 164.199 1139.37 164.557C1138.68 164.906 1138.11 165.413 1137.64 166.078C1137.18 166.743 1136.86 167.548 1136.69 168.494ZM1161.01 180L1164.29 160.364H1168.92L1165.64 180H1161.01ZM1167.28 157.551C1166.54 157.551 1165.92 157.304 1165.44 156.81C1164.95 156.315 1164.74 155.723 1164.8 155.033C1164.86 154.342 1165.17 153.75 1165.73 153.256C1166.3 152.761 1166.96 152.514 1167.69 152.514C1168.43 152.514 1169.04 152.761 1169.52 153.256C1170 153.75 1170.22 154.342 1170.16 155.033C1170.1 155.723 1169.79 156.315 1169.22 156.81C1168.66 157.304 1168.01 157.551 1167.28 157.551ZM1172.08 187.364C1171.45 187.364 1170.87 187.313 1170.35 187.21C1169.84 187.116 1169.43 187.006 1169.14 186.878L1170.82 183.273C1171.46 183.469 1172.04 183.554 1172.55 183.528C1173.07 183.511 1173.55 183.337 1173.98 183.004C1174.42 182.68 1174.86 182.148 1175.29 181.406L1175.87 180.345L1172.11 160.364H1176.84L1178.89 175.219H1179.09L1186.11 160.364H1191.21L1179.72 182.352C1179.17 183.418 1178.52 184.321 1177.79 185.062C1177.06 185.812 1176.22 186.384 1175.27 186.776C1174.33 187.168 1173.27 187.364 1172.08 187.364ZM1191.14 180L1194.42 160.364H1199.04L1195.77 180H1191.14ZM1197.41 157.551C1196.67 157.551 1196.05 157.304 1195.57 156.81C1195.08 156.315 1194.87 155.723 1194.93 155.033C1194.99 154.342 1195.3 153.75 1195.86 153.256C1196.43 152.761 1197.08 152.514 1197.82 152.514C1198.56 152.514 1199.17 152.761 1199.65 153.256C1200.13 153.75 1200.34 154.342 1200.28 155.033C1200.23 155.723 1199.92 156.315 1199.35 156.81C1198.79 157.304 1198.14 157.551 1197.41 157.551ZM897.754 224L901.027 204.364H905.463L904.901 207.7H905.143C905.74 206.575 906.562 205.697 907.611 205.067C908.659 204.428 909.839 204.108 911.152 204.108C912.473 204.108 913.538 204.432 914.348 205.08C915.166 205.719 915.669 206.592 915.857 207.7H916.061C916.675 206.601 917.553 205.727 918.695 205.08C919.845 204.432 921.136 204.108 922.568 204.108C924.358 204.108 925.73 204.679 926.685 205.821C927.639 206.963 927.933 208.629 927.567 210.82L925.368 224H920.74L922.837 211.536C923.024 210.317 922.837 209.426 922.274 208.864C921.72 208.293 920.974 208.007 920.037 208.007C918.92 208.007 917.991 208.352 917.25 209.043C916.517 209.733 916.065 210.636 915.895 211.753L913.837 224H909.298L911.42 211.344C911.574 210.33 911.395 209.52 910.884 208.915C910.381 208.31 909.639 208.007 908.659 208.007C907.994 208.007 907.359 208.178 906.754 208.518C906.149 208.859 905.634 209.337 905.207 209.95C904.79 210.555 904.517 211.259 904.389 212.06L902.395 224H897.754ZM943.934 215.741L945.838 204.364H950.466L947.194 224H942.706L943.294 220.51H943.09C942.476 221.609 941.598 222.509 940.456 223.207C939.323 223.906 938.019 224.256 936.544 224.256C935.257 224.256 934.171 223.97 933.284 223.399C932.398 222.82 931.767 221.98 931.392 220.881C931.026 219.773 930.971 218.435 931.226 216.866L933.323 204.364H937.951L935.982 216.151C935.786 217.395 935.965 218.384 936.519 219.116C937.081 219.849 937.917 220.216 939.025 220.216C939.706 220.216 940.392 220.05 941.083 219.717C941.782 219.385 942.391 218.891 942.911 218.234C943.431 217.57 943.772 216.739 943.934 215.741ZM938.807 201.474C938.083 201.474 937.49 201.206 937.03 200.669C936.578 200.132 936.408 199.501 936.519 198.777C936.621 198.172 936.924 197.669 937.426 197.268C937.929 196.859 938.479 196.655 939.076 196.655C939.843 196.655 940.444 196.919 940.878 197.447C941.321 197.967 941.483 198.602 941.364 199.352C941.27 199.932 940.98 200.43 940.495 200.848C940.009 201.266 939.446 201.474 938.807 201.474ZM946.478 201.474C945.753 201.474 945.161 201.21 944.701 200.682C944.24 200.153 944.07 199.518 944.189 198.777C944.3 198.172 944.603 197.669 945.097 197.268C945.6 196.859 946.15 196.655 946.746 196.655C947.513 196.655 948.114 196.919 948.549 197.447C948.992 197.967 949.154 198.602 949.034 199.352C948.941 199.932 948.651 200.43 948.165 200.848C947.679 201.266 947.117 201.474 946.478 201.474ZM958.498 212.494L956.606 224H951.965L956.312 197.818H960.85L959.214 207.7H959.457C960.079 206.584 960.927 205.706 962.001 205.067C963.083 204.428 964.383 204.108 965.9 204.108C967.246 204.108 968.38 204.393 969.3 204.964C970.221 205.536 970.869 206.371 971.244 207.47C971.627 208.57 971.691 209.912 971.435 211.497L969.339 224H964.698L966.667 212.213C966.88 210.892 966.705 209.865 966.143 209.132C965.589 208.391 964.711 208.02 963.509 208.02C962.683 208.02 961.92 208.199 961.221 208.557C960.522 208.906 959.934 209.413 959.457 210.078C958.988 210.743 958.668 211.548 958.498 212.494ZM982.673 224.384C980.704 224.384 979.076 223.974 977.789 223.156C976.502 222.33 975.599 221.162 975.079 219.653C974.567 218.136 974.482 216.351 974.823 214.297C975.156 212.277 975.833 210.504 976.856 208.979C977.879 207.445 979.157 206.251 980.691 205.399C982.234 204.538 983.938 204.108 985.805 204.108C987.015 204.108 988.127 204.304 989.141 204.696C990.156 205.08 991.012 205.676 991.711 206.486C992.41 207.295 992.891 208.327 993.156 209.58C993.42 210.824 993.407 212.307 993.117 214.028L992.9 215.447H976.792L977.29 212.328H988.95C989.103 211.442 989.052 210.653 988.796 209.963C988.54 209.264 988.114 208.714 987.518 208.314C986.921 207.913 986.175 207.713 985.281 207.713C984.369 207.713 983.516 207.947 982.724 208.416C981.94 208.876 981.279 209.473 980.742 210.206C980.205 210.939 979.864 211.71 979.719 212.52L979.195 215.511C979.008 216.739 979.05 217.74 979.323 218.516C979.596 219.291 980.073 219.862 980.755 220.229C981.437 220.595 982.298 220.778 983.337 220.778C984.019 220.778 984.65 220.685 985.229 220.497C985.809 220.31 986.325 220.028 986.776 219.653C987.237 219.27 987.62 218.801 987.927 218.247L992.158 218.733C991.69 219.875 991.004 220.872 990.1 221.724C989.197 222.568 988.114 223.224 986.853 223.693C985.6 224.153 984.207 224.384 982.673 224.384ZM1001.95 212.494L1000.06 224H995.418L998.691 204.364H1003.13L1002.56 207.7H1002.81C1003.42 206.601 1004.28 205.727 1005.39 205.08C1006.5 204.432 1007.79 204.108 1009.26 204.108C1010.6 204.108 1011.73 204.398 1012.64 204.977C1013.55 205.548 1014.2 206.388 1014.58 207.496C1014.97 208.595 1015.02 209.929 1014.76 211.497L1012.66 224H1008.04L1009.99 212.213C1010.21 210.909 1010.05 209.886 1009.49 209.145C1008.95 208.395 1008.07 208.02 1006.86 208.02C1006.05 208.02 1005.3 208.199 1004.62 208.557C1003.94 208.906 1003.37 209.413 1002.9 210.078C1002.44 210.743 1002.12 211.548 1001.95 212.494ZM1024.6 224.345C1023.06 224.345 1021.75 223.949 1020.65 223.156C1019.56 222.364 1018.79 221.213 1018.33 219.705C1017.88 218.196 1017.82 216.364 1018.17 214.207C1018.54 212.026 1019.21 210.185 1020.18 208.685C1021.15 207.176 1022.31 206.038 1023.66 205.271C1025.01 204.496 1026.45 204.108 1027.95 204.108C1029.11 204.108 1030.03 204.304 1030.7 204.696C1031.38 205.08 1031.9 205.544 1032.24 206.089C1032.58 206.626 1032.83 207.134 1032.99 207.611H1033.18L1034.81 197.818H1039.45L1035.1 224H1030.55L1031.07 220.906H1030.79C1030.47 221.384 1030.04 221.891 1029.5 222.428C1028.96 222.956 1028.29 223.408 1027.49 223.783C1026.69 224.158 1025.73 224.345 1024.6 224.345ZM1026.45 220.548C1027.43 220.548 1028.32 220.284 1029.1 219.756C1029.9 219.219 1030.56 218.473 1031.09 217.518C1031.61 216.564 1031.99 215.452 1032.2 214.182C1032.41 212.912 1032.41 211.808 1032.2 210.871C1031.99 209.933 1031.57 209.205 1030.96 208.685C1030.34 208.165 1029.54 207.905 1028.54 207.905C1027.52 207.905 1026.62 208.173 1025.84 208.71C1025.08 209.247 1024.45 209.989 1023.95 210.935C1023.46 211.881 1023.11 212.963 1022.9 214.182C1022.7 215.409 1022.69 216.504 1022.87 217.467C1023.05 218.422 1023.44 219.176 1024.03 219.73C1024.63 220.276 1025.43 220.548 1026.45 220.548ZM1040.05 224L1043.33 204.364H1047.95L1044.68 224H1040.05ZM1046.32 201.551C1045.58 201.551 1044.96 201.304 1044.48 200.81C1043.99 200.315 1043.78 199.723 1043.84 199.033C1043.9 198.342 1044.21 197.75 1044.77 197.256C1045.34 196.761 1045.99 196.514 1046.73 196.514C1047.47 196.514 1048.08 196.761 1048.56 197.256C1049.04 197.75 1049.25 198.342 1049.19 199.033C1049.14 199.723 1048.83 200.315 1048.26 200.81C1047.7 201.304 1047.05 201.551 1046.32 201.551ZM1067.35 209.554L1063.09 210.014C1063.05 209.58 1062.92 209.175 1062.7 208.8C1062.48 208.425 1062.14 208.126 1061.7 207.905C1061.27 207.675 1060.7 207.56 1060.01 207.56C1059.01 207.56 1058.13 207.786 1057.37 208.237C1056.61 208.689 1056.18 209.268 1056.08 209.976C1055.98 210.504 1056.11 210.935 1056.46 211.267C1056.81 211.599 1057.46 211.881 1058.4 212.111L1061.65 212.827C1063.44 213.227 1064.73 213.875 1065.51 214.77C1066.3 215.665 1066.58 216.837 1066.34 218.286C1066.14 219.496 1065.61 220.561 1064.76 221.482C1063.9 222.393 1062.81 223.105 1061.48 223.616C1060.16 224.128 1058.7 224.384 1057.09 224.384C1054.64 224.384 1052.76 223.876 1051.44 222.862C1050.12 221.839 1049.47 220.433 1049.48 218.643L1054.03 218.209C1054.08 219.095 1054.39 219.764 1054.96 220.216C1055.53 220.659 1056.33 220.885 1057.34 220.893C1058.48 220.902 1059.45 220.663 1060.23 220.178C1061.02 219.683 1061.47 219.082 1061.57 218.375C1061.66 217.847 1061.53 217.416 1061.18 217.084C1060.84 216.751 1060.23 216.487 1059.35 216.291L1056.13 215.588C1054.3 215.187 1053 214.51 1052.23 213.555C1051.46 212.592 1051.2 211.378 1051.45 209.912C1051.65 208.719 1052.15 207.692 1052.94 206.831C1053.74 205.962 1054.77 205.293 1056.02 204.824C1057.28 204.347 1058.68 204.108 1060.23 204.108C1062.57 204.108 1064.33 204.598 1065.51 205.578C1066.69 206.558 1067.31 207.884 1067.35 209.554ZM1078.17 197.818L1073.83 224H1069.2L1073.55 197.818H1078.17ZM1087.23 224.384C1085.26 224.384 1083.63 223.974 1082.34 223.156C1081.06 222.33 1080.15 221.162 1079.63 219.653C1079.12 218.136 1079.04 216.351 1079.38 214.297C1079.71 212.277 1080.39 210.504 1081.41 208.979C1082.43 207.445 1083.71 206.251 1085.25 205.399C1086.79 204.538 1088.49 204.108 1090.36 204.108C1091.57 204.108 1092.68 204.304 1093.7 204.696C1094.71 205.08 1095.57 205.676 1096.27 206.486C1096.96 207.295 1097.45 208.327 1097.71 209.58C1097.97 210.824 1097.96 212.307 1097.67 214.028L1097.45 215.447H1081.35L1081.85 212.328H1093.5C1093.66 211.442 1093.61 210.653 1093.35 209.963C1093.1 209.264 1092.67 208.714 1092.07 208.314C1091.48 207.913 1090.73 207.713 1089.84 207.713C1088.92 207.713 1088.07 207.947 1087.28 208.416C1086.49 208.876 1085.83 209.473 1085.3 210.206C1084.76 210.939 1084.42 211.71 1084.27 212.52L1083.75 215.511C1083.56 216.739 1083.61 217.74 1083.88 218.516C1084.15 219.291 1084.63 219.862 1085.31 220.229C1085.99 220.595 1086.85 220.778 1087.89 220.778C1088.57 220.778 1089.2 220.685 1089.78 220.497C1090.36 220.31 1090.88 220.028 1091.33 219.653C1091.79 219.27 1092.17 218.801 1092.48 218.247L1096.71 218.733C1096.24 219.875 1095.56 220.872 1094.65 221.724C1093.75 222.568 1092.67 223.224 1091.41 223.693C1090.15 224.153 1088.76 224.384 1087.23 224.384ZM1099.96 224L1103.23 204.364H1107.72L1107.17 207.636H1107.38C1107.91 206.503 1108.67 205.629 1109.65 205.016C1110.64 204.393 1111.7 204.082 1112.82 204.082C1113.09 204.082 1113.37 204.095 1113.68 204.121C1113.98 204.138 1114.25 204.168 1114.47 204.21L1113.75 208.467C1113.56 208.399 1113.25 208.339 1112.83 208.288C1112.42 208.229 1112.02 208.199 1111.62 208.199C1110.78 208.199 1109.99 208.382 1109.27 208.749C1108.55 209.107 1107.95 209.605 1107.45 210.244C1106.96 210.884 1106.64 211.621 1106.49 212.456L1104.59 224H1099.96ZM1122.1 224.384C1120.13 224.384 1118.51 223.974 1117.22 223.156C1115.93 222.33 1115.03 221.162 1114.51 219.653C1114 218.136 1113.91 216.351 1114.25 214.297C1114.59 212.277 1115.26 210.504 1116.29 208.979C1117.31 207.445 1118.59 206.251 1120.12 205.399C1121.66 204.538 1123.37 204.108 1125.23 204.108C1126.44 204.108 1127.56 204.304 1128.57 204.696C1129.59 205.08 1130.44 205.676 1131.14 206.486C1131.84 207.295 1132.32 208.327 1132.59 209.58C1132.85 210.824 1132.84 212.307 1132.55 214.028L1132.33 215.447H1116.22L1116.72 212.328H1128.38C1128.53 211.442 1128.48 210.653 1128.23 209.963C1127.97 209.264 1127.54 208.714 1126.95 208.314C1126.35 207.913 1125.61 207.713 1124.71 207.713C1123.8 207.713 1122.95 207.947 1122.15 208.416C1121.37 208.876 1120.71 209.473 1120.17 210.206C1119.63 210.939 1119.29 211.71 1119.15 212.52L1118.62 215.511C1118.44 216.739 1118.48 217.74 1118.75 218.516C1119.03 219.291 1119.5 219.862 1120.18 220.229C1120.87 220.595 1121.73 220.778 1122.77 220.778C1123.45 220.778 1124.08 220.685 1124.66 220.497C1125.24 220.31 1125.75 220.028 1126.21 219.653C1126.67 219.27 1127.05 218.801 1127.36 218.247L1131.59 218.733C1131.12 219.875 1130.43 220.872 1129.53 221.724C1128.63 222.568 1127.54 223.224 1126.28 223.693C1125.03 224.153 1123.64 224.384 1122.1 224.384ZM1157.65 215.741L1159.55 204.364H1164.18L1160.91 224H1156.42L1157.01 220.51H1156.8C1156.19 221.609 1155.31 222.509 1154.17 223.207C1153.04 223.906 1151.73 224.256 1150.26 224.256C1148.97 224.256 1147.89 223.97 1147 223.399C1146.11 222.82 1145.48 221.98 1145.11 220.881C1144.74 219.773 1144.69 218.435 1144.94 216.866L1147.04 204.364H1151.67L1149.7 216.151C1149.5 217.395 1149.68 218.384 1150.23 219.116C1150.8 219.849 1151.63 220.216 1152.74 220.216C1153.42 220.216 1154.11 220.05 1154.8 219.717C1155.5 219.385 1156.11 218.891 1156.63 218.234C1157.15 217.57 1157.49 216.739 1157.65 215.741ZM1174.64 197.818L1170.3 224H1165.67L1170.01 197.818H1174.64ZM1180.65 224.396C1179.41 224.396 1178.33 224.175 1177.41 223.732C1176.49 223.28 1175.81 222.615 1175.37 221.737C1174.95 220.859 1174.84 219.777 1175.05 218.49C1175.24 217.382 1175.6 216.466 1176.13 215.741C1176.66 215.017 1177.32 214.438 1178.1 214.003C1178.88 213.56 1179.73 213.227 1180.65 213.006C1181.58 212.784 1182.53 212.622 1183.49 212.52C1184.67 212.401 1185.62 212.29 1186.34 212.188C1187.08 212.085 1187.63 211.932 1187.99 211.727C1188.36 211.514 1188.58 211.19 1188.66 210.756V210.679C1188.81 209.716 1188.66 208.97 1188.2 208.442C1187.74 207.913 1186.97 207.649 1185.89 207.649C1184.77 207.649 1183.82 207.896 1183.06 208.391C1182.29 208.885 1181.73 209.469 1181.38 210.142L1177.19 209.528C1177.72 208.335 1178.44 207.338 1179.36 206.537C1180.28 205.727 1181.34 205.122 1182.55 204.722C1183.76 204.312 1185.05 204.108 1186.42 204.108C1187.36 204.108 1188.27 204.219 1189.17 204.44C1190.07 204.662 1190.87 205.028 1191.56 205.54C1192.26 206.043 1192.77 206.729 1193.09 207.598C1193.42 208.467 1193.48 209.554 1193.26 210.858L1191.07 224H1186.62L1187.08 221.303H1186.93C1186.56 221.848 1186.09 222.359 1185.5 222.837C1184.91 223.305 1184.21 223.685 1183.4 223.974C1182.59 224.256 1181.68 224.396 1180.65 224.396ZM1182.4 220.996C1183.33 220.996 1184.17 220.812 1184.91 220.446C1185.65 220.071 1186.26 219.577 1186.74 218.963C1187.22 218.349 1187.51 217.68 1187.63 216.956L1188.02 214.642C1187.85 214.761 1187.58 214.872 1187.22 214.974C1186.87 215.077 1186.47 215.166 1186.02 215.243C1185.59 215.32 1185.16 215.388 1184.73 215.447C1184.31 215.507 1183.94 215.558 1183.63 215.601C1182.92 215.695 1182.28 215.848 1181.69 216.061C1181.11 216.274 1180.63 216.572 1180.24 216.956C1179.87 217.331 1179.63 217.817 1179.54 218.413C1179.4 219.257 1179.61 219.901 1180.14 220.344C1180.68 220.778 1181.43 220.996 1182.4 220.996ZM1213.64 209.554L1209.38 210.014C1209.34 209.58 1209.2 209.175 1208.98 208.8C1208.76 208.425 1208.43 208.126 1207.99 207.905C1207.55 207.675 1206.99 207.56 1206.3 207.56C1205.29 207.56 1204.41 207.786 1203.65 208.237C1202.89 208.689 1202.46 209.268 1202.36 209.976C1202.27 210.504 1202.39 210.935 1202.74 211.267C1203.09 211.599 1203.74 211.881 1204.69 212.111L1207.93 212.827C1209.72 213.227 1211.01 213.875 1211.8 214.77C1212.59 215.665 1212.87 216.837 1212.63 218.286C1212.42 219.496 1211.89 220.561 1211.04 221.482C1210.19 222.393 1209.1 223.105 1207.77 223.616C1206.45 224.128 1204.98 224.384 1203.37 224.384C1200.92 224.384 1199.04 223.876 1197.72 222.862C1196.41 221.839 1195.76 220.433 1195.76 218.643L1200.32 218.209C1200.37 219.095 1200.68 219.764 1201.25 220.216C1201.82 220.659 1202.61 220.885 1203.63 220.893C1204.77 220.902 1205.73 220.663 1206.52 220.178C1207.31 219.683 1207.76 219.082 1207.86 218.375C1207.94 217.847 1207.81 217.416 1207.46 217.084C1207.12 216.751 1206.51 216.487 1205.63 216.291L1202.41 215.588C1200.59 215.187 1199.29 214.51 1198.51 213.555C1197.75 212.592 1197.49 211.378 1197.73 209.912C1197.94 208.719 1198.44 207.692 1199.23 206.831C1200.03 205.962 1201.06 205.293 1202.31 204.824C1203.56 204.347 1204.96 204.108 1206.52 204.108C1208.85 204.108 1210.61 204.598 1211.8 205.578C1212.98 206.558 1213.59 207.884 1213.64 209.554ZM1202.23 223.898H1204.74L1204.33 224.984C1205.11 225.104 1205.74 225.415 1206.22 225.918C1206.7 226.42 1206.85 227.136 1206.68 228.065C1206.49 229.276 1205.8 230.247 1204.59 230.98C1203.38 231.713 1201.76 232.08 1199.74 232.08L1200.07 229.804C1201.05 229.804 1201.85 229.672 1202.46 229.408C1203.09 229.152 1203.45 228.743 1203.56 228.18C1203.66 227.635 1203.52 227.234 1203.14 226.979C1202.76 226.732 1202.12 226.561 1201.22 226.467L1202.23 223.898ZM1215.48 224L1218.76 204.364H1223.38L1220.11 224H1215.48ZM1231.42 212.494L1229.52 224H1224.88L1228.16 204.364H1232.59L1232.03 207.7H1232.27C1232.89 206.601 1233.75 205.727 1234.85 205.08C1235.96 204.432 1237.25 204.108 1238.73 204.108C1240.07 204.108 1241.19 204.398 1242.1 204.977C1243.02 205.548 1243.66 206.388 1244.05 207.496C1244.43 208.595 1244.49 209.929 1244.23 211.497L1242.13 224H1237.5L1239.46 212.213C1239.68 210.909 1239.51 209.886 1238.96 209.145C1238.41 208.395 1237.54 208.02 1236.32 208.02C1235.52 208.02 1234.77 208.199 1234.09 208.557C1233.41 208.906 1232.83 209.413 1232.36 210.078C1231.9 210.743 1231.59 211.548 1231.42 212.494Z" fill="#FFC50B" fill-opacity="0.5"/>
<path d="M0 392H1400V522H0V392Z" fill="#B5BFC6" fill-opacity="0.15"/>
<defs>
<clipPath id="clip0_296_1049">
<rect width="448" height="291" fill="white" transform="translate(80 32)"/>
</clipPath>
</defs>
</svg>
