<svg width="1000" height="500" viewBox="0 0 1000 500" fill="none" xmlns="http://www.w3.org/2000/svg">
<path d="M1.07296 15.8228C1.07296 7.0841 8.27868 0 17.1674 0H982.833C991.721 0 998.927 7.0841 998.927 15.8228V483.122C998.927 491.861 991.721 498.945 982.833 498.945H17.1674C8.27866 498.945 1.07296 491.861 1.07296 483.122V15.8228Z" fill="#ADC3D2"/>
<path d="M411.481 304.852L681.867 1.05485H989.27C995.196 1.05485 1000 5.77759 1000 11.6034V489.451C1000 495.277 995.196 500 989.27 500H10.7296C4.80381 500 0 495.277 0 489.451V304.852H411.481Z" fill="black" fill-opacity="0.74"/>
<g clip-path="url(#clip0_292_1021)">
<path d="M114.22 149.949C119.827 149.949 124.372 145.386 124.372 139.757C124.372 134.129 119.827 129.566 114.22 129.566C108.613 129.566 104.068 134.129 104.068 139.757C104.068 145.386 108.613 149.949 114.22 149.949Z" fill="#FFB8B8"/>
<path d="M79.918 261.884L82.4885 266.269L100.556 258.401L96.762 251.931L79.918 261.884Z" fill="#FFB8B8"/>
<path d="M80.6882 259.924L85.7504 268.558C86.174 269.28 86.4519 270.08 86.5679 270.91C86.6838 271.74 86.6357 272.585 86.4264 273.397C86.217 274.209 85.8504 274.971 85.3475 275.64C84.8447 276.31 84.2154 276.873 83.4957 277.298L83.3175 277.404L75.0293 263.268L80.6882 259.924Z" fill="#2F2E41"/>
<path d="M109.701 277.678L114.768 277.678L117.179 258.056L109.7 258.057L109.701 277.678Z" fill="#FFB8B8"/>
<path d="M108.408 276.017L118.388 276.017C119.223 276.017 120.05 276.182 120.822 276.503C121.593 276.824 122.294 277.294 122.885 277.887C123.476 278.48 123.944 279.184 124.264 279.958C124.583 280.733 124.748 281.563 124.748 282.401V282.609L108.409 282.609L108.408 276.017Z" fill="#2F2E41"/>
<path d="M89.3283 265.79C89.0367 265.79 88.7491 265.722 88.4889 265.59C88.2286 265.457 88.003 265.266 87.8304 265.03L82.9433 258.366C82.7942 258.163 82.6877 257.932 82.6303 257.686C82.5728 257.44 82.5656 257.185 82.609 256.937C82.6525 256.688 82.7457 256.451 82.883 256.239C83.0204 256.028 83.199 255.847 83.4081 255.706L105.155 241.125L92.0332 206.488L120.094 208.812L121.039 238.578C121.128 241.288 120.48 243.972 119.167 246.342C117.853 248.712 115.922 250.679 113.58 252.031L90.2576 265.539C89.9752 265.704 89.6546 265.79 89.3283 265.79Z" fill="#2F2E41"/>
<path d="M109.853 273.695C109.372 273.694 108.91 273.506 108.564 273.17C108.218 272.834 108.015 272.377 107.998 271.894L106.97 242.897L119.704 242.224L118.69 271.429C118.675 271.891 118.489 272.332 118.168 272.664C117.847 272.997 117.414 273.197 116.954 273.227L109.98 273.691C109.938 273.694 109.895 273.695 109.853 273.695Z" fill="#2F2E41"/>
<path d="M123.341 214.57C120.102 214.57 108.785 210.912 104.857 209.608C104.269 210.08 101.04 212.504 97.2718 212.061C94.9464 211.787 92.8992 210.466 91.1872 208.133C87.4065 202.982 92.0761 180.892 96.6593 163.267C97.5781 159.705 99.8369 156.639 102.961 154.713C106.085 152.788 109.831 152.154 113.411 152.944C116.006 153.519 118.39 154.809 120.294 156.669C122.199 158.529 123.55 160.886 124.194 163.474C125.057 167 124.314 171.148 123.772 174.177C123.517 175.601 123.316 176.726 123.385 177.278C123.651 179.415 125.129 212.918 124.179 214.349C124.077 214.502 123.785 214.57 123.341 214.57Z" fill="#FFE8A7"/>
<path d="M111.489 214.63C112.01 214.241 112.439 213.742 112.747 213.168C113.055 212.594 113.233 211.96 113.271 211.309C113.308 210.658 113.202 210.008 112.962 209.402C112.721 208.797 112.351 208.252 111.878 207.806L112.079 167.207L102.554 168.799L105.352 208.206C104.658 209.053 104.297 210.127 104.339 211.223C104.381 212.32 104.822 213.363 105.578 214.155C106.335 214.946 107.354 215.432 108.444 215.52C109.533 215.607 110.617 215.291 111.489 214.63Z" fill="#FFB8B8"/>
<path d="M113.692 193.28H103.432C102.943 193.278 102.473 193.083 102.125 192.737C101.777 192.391 101.578 191.921 101.572 191.429L101.321 163.507C101.312 162.542 101.494 161.584 101.856 160.69C102.218 159.795 102.754 158.982 103.431 158.296C104.109 157.611 104.915 157.067 105.803 156.697C106.691 156.326 107.643 156.136 108.605 156.137C109.567 156.138 110.519 156.331 111.406 156.703C112.293 157.076 113.098 157.622 113.774 158.309C114.449 158.996 114.983 159.811 115.343 160.706C115.703 161.601 115.883 162.56 115.872 163.525L115.552 191.434C115.545 191.925 115.346 192.393 114.998 192.738C114.65 193.084 114.181 193.278 113.692 193.28Z" fill="#FFE8A7"/>
<path d="M111.635 149.906C106.987 149.915 102.602 146.226 101.797 141.631C101.509 139.825 101.639 137.978 102.177 136.231C102.761 134.242 103.764 132.403 105.116 130.836C106.469 129.269 108.14 128.012 110.018 127.149C111.896 126.286 113.936 125.837 116.001 125.832C118.066 125.827 120.108 126.267 121.99 127.122C123.233 127.687 124.458 128.498 125.028 129.743C125.597 130.988 125.241 132.729 123.995 133.289C123.181 133.655 122.16 133.475 121.438 134.001C120.401 134.756 120.668 136.362 121.131 137.562C121.594 138.761 122.118 140.212 121.341 141.235C120.618 142.188 119.172 142.159 118.033 141.8C116.894 141.441 115.77 140.84 114.582 140.962C112.85 141.141 111.605 142.87 111.375 144.603C111.145 146.335 111.687 148.067 112.222 149.73L111.635 149.906Z" fill="#2F2E41"/>
<path d="M159.052 283H52.4133C52.3037 283 52.1986 282.956 52.1211 282.878C52.0435 282.801 52 282.695 52 282.585C52 282.475 52.0435 282.369 52.1211 282.292C52.1986 282.214 52.3037 282.17 52.4133 282.17H159.052C159.162 282.17 159.267 282.214 159.345 282.292C159.422 282.369 159.466 282.475 159.466 282.585C159.466 282.695 159.422 282.801 159.345 282.878C159.267 282.956 159.162 283 159.052 283Z" fill="#CCCCCC"/>
<path d="M428.181 214.312H163.303C161.495 214.31 159.762 213.588 158.483 212.304C157.205 211.021 156.485 209.28 156.483 207.465V43.4997C156.485 42.1698 157.012 40.8949 157.948 39.9546C158.885 39.0142 160.155 38.4852 161.48 38.4837H429.918C431.265 38.4852 432.557 39.0233 433.51 39.98C434.463 40.9366 434.999 42.2336 435.001 43.5864V207.465C434.999 209.28 434.279 211.021 433.001 212.304C431.722 213.588 429.989 214.31 428.181 214.312Z" fill="#F2F2F2"/>
<path d="M419.616 205.668H172.757C169.138 205.668 166.194 202.9 166.194 199.498V56.7148C166.194 54.192 168.376 52.1393 171.057 52.1393H421.235C423.961 52.1393 426.179 54.2258 426.179 56.7902V199.498C426.179 202.9 423.234 205.668 419.616 205.668Z" fill="white"/>
<path d="M434.905 44.3529H156.387V40.8672C156.389 39.046 157.111 37.3002 158.395 36.0128C159.678 34.7254 161.417 34.0015 163.231 34H428.06C429.874 34.0015 431.614 34.7253 432.897 36.0127C434.18 37.3001 434.902 39.046 434.905 40.8672V44.3529Z" fill="#3F3D56"/>
<path d="M168.826 40.9641C169.804 40.9641 170.597 40.1684 170.597 39.1868C170.597 38.2051 169.804 37.4094 168.826 37.4094C167.848 37.4094 167.056 38.2051 167.056 39.1868C167.056 40.1684 167.848 40.9641 168.826 40.9641Z" fill="white"/>
<path d="M175.546 40.9642C176.524 40.9642 177.316 40.1684 177.316 39.1868C177.316 38.2052 176.524 37.4094 175.546 37.4094C174.568 37.4094 173.775 38.2052 173.775 39.1868C173.775 40.1684 174.568 40.9642 175.546 40.9642Z" fill="white"/>
<path d="M182.267 40.9641C183.244 40.9641 184.037 40.1684 184.037 39.1868C184.037 38.2051 183.244 37.4094 182.267 37.4094C181.289 37.4094 180.496 38.2051 180.496 39.1868C180.496 40.1684 181.289 40.9641 182.267 40.9641Z" fill="white"/>
<path d="M290.33 83.3591H242.05C241.33 83.3591 240.64 83.0721 240.131 82.5611C239.622 82.0502 239.336 81.3571 239.336 80.6345C239.336 79.9119 239.622 79.219 240.131 78.708C240.64 78.197 241.33 77.91 242.05 77.91H290.33C291.05 77.91 291.74 78.197 292.249 78.708C292.758 79.219 293.044 79.9119 293.044 80.6345C293.044 81.3571 292.758 82.0502 292.249 82.5611C291.74 83.0721 291.05 83.3591 290.33 83.3591Z" fill="#CCCCCC"/>
<path d="M350.323 83.3591H302.043C301.323 83.3591 300.633 83.0721 300.124 82.5611C299.615 82.0502 299.329 81.3571 299.329 80.6345C299.329 79.9119 299.615 79.219 300.124 78.708C300.633 78.197 301.323 77.91 302.043 77.91H350.323C351.043 77.91 351.733 78.197 352.242 78.708C352.751 79.219 353.037 79.9119 353.037 80.6345C353.037 81.3571 352.751 82.0502 352.242 82.5611C351.733 83.0721 351.043 83.3591 350.323 83.3591Z" fill="#CCCCCC"/>
<path d="M350.323 93.6837H266.332C265.612 93.6837 264.922 93.3967 264.413 92.8857C263.904 92.3748 263.618 91.6818 263.618 90.9592C263.618 90.2366 263.904 89.5436 264.413 89.0326C264.922 88.5217 265.612 88.2346 266.332 88.2346H350.323C351.042 88.2346 351.733 88.5217 352.242 89.0326C352.751 89.5436 353.037 90.2366 353.037 90.9592C353.037 91.6818 352.751 92.3748 352.242 92.8857C351.733 93.3967 351.042 93.6837 350.323 93.6837Z" fill="#CCCCCC"/>
<path d="M290.33 72.8911H242.049C241.33 72.8902 240.641 72.6027 240.133 72.0919C239.624 71.581 239.339 70.8885 239.339 70.1665C239.339 69.4445 239.624 68.752 240.133 68.2411C240.641 67.7303 241.33 67.4428 242.049 67.4419H290.33C290.686 67.4415 291.04 67.5116 291.369 67.6484C291.699 67.7851 291.999 67.9857 292.251 68.2388C292.503 68.4918 292.704 68.7923 292.84 69.1231C292.977 69.4539 293.047 69.8084 293.047 70.1665C293.047 70.5246 292.977 70.8791 292.84 71.2099C292.704 71.5407 292.503 71.8412 292.251 72.0942C291.999 72.3473 291.699 72.5479 291.369 72.6846C291.04 72.8214 290.686 72.8915 290.33 72.8911Z" fill="#CCCCCC"/>
<path d="M316.898 73.0345H303.186C302.466 73.0345 301.776 72.7474 301.267 72.2364C300.758 71.7255 300.472 71.0325 300.472 70.3099C300.472 69.5873 300.758 68.8943 301.267 68.3833C301.776 67.8724 302.466 67.5853 303.186 67.5853H316.898C317.618 67.5853 318.308 67.8724 318.817 68.3833C319.326 68.8943 319.612 69.5873 319.612 70.3099C319.612 71.0325 319.326 71.7255 318.817 72.2364C318.308 72.7474 317.618 73.0345 316.898 73.0345Z" fill="#CCCCCC"/>
<path d="M255.762 93.6838H242.049C241.33 93.6829 240.641 93.3954 240.133 92.8846C239.624 92.3737 239.339 91.6812 239.339 90.9592C239.339 90.2372 239.624 89.5447 240.133 89.0338C240.641 88.523 241.33 88.2355 242.049 88.2347H255.762C256.119 88.2342 256.472 88.3044 256.802 88.4411C257.132 88.5778 257.431 88.7784 257.683 89.0315C257.936 89.2845 258.136 89.585 258.273 89.9158C258.409 90.2466 258.48 90.6011 258.48 90.9592C258.48 91.3173 258.409 91.6719 258.273 92.0026C258.136 92.3334 257.936 92.6339 257.683 92.887C257.431 93.14 257.132 93.3406 256.802 93.4773C256.472 93.6141 256.119 93.6842 255.762 93.6838Z" fill="#CCCCCC"/>
<path d="M290.33 180.04H242.05C241.33 180.04 240.64 179.753 240.131 179.242C239.622 178.731 239.336 178.038 239.336 177.316C239.336 176.593 239.622 175.9 240.131 175.389C240.64 174.878 241.33 174.591 242.05 174.591H290.33C290.687 174.591 291.039 174.662 291.369 174.799C291.698 174.936 291.997 175.136 292.249 175.389C292.501 175.642 292.701 175.943 292.838 176.273C292.974 176.604 293.044 176.958 293.044 177.316C293.044 177.674 292.974 178.028 292.838 178.358C292.701 178.689 292.501 178.989 292.249 179.242C291.997 179.495 291.698 179.696 291.369 179.833C291.039 179.97 290.687 180.04 290.33 180.04Z" fill="#CCCCCC"/>
<path d="M350.323 180.04H302.043C301.323 180.04 300.633 179.753 300.124 179.242C299.615 178.731 299.329 178.038 299.329 177.316C299.329 176.593 299.615 175.9 300.124 175.389C300.633 174.878 301.323 174.591 302.043 174.591H350.323C350.68 174.591 351.033 174.662 351.362 174.799C351.691 174.936 351.99 175.136 352.242 175.389C352.494 175.642 352.694 175.943 352.831 176.273C352.967 176.604 353.037 176.958 353.037 177.316C353.037 177.674 352.967 178.028 352.831 178.358C352.694 178.689 352.494 178.989 352.242 179.242C351.99 179.495 351.691 179.696 351.362 179.833C351.033 179.97 350.68 180.04 350.323 180.04Z" fill="#CCCCCC"/>
<path d="M350.323 190.365H266.332C265.612 190.365 264.922 190.078 264.413 189.567C263.904 189.056 263.618 188.363 263.618 187.641C263.618 186.918 263.904 186.225 264.413 185.714C264.922 185.203 265.612 184.916 266.332 184.916H350.323C350.679 184.916 351.033 184.986 351.362 185.122C351.692 185.259 351.991 185.46 352.244 185.713C352.496 185.966 352.696 186.266 352.833 186.597C352.97 186.928 353.04 187.282 353.04 187.641C353.04 187.999 352.97 188.353 352.833 188.684C352.696 189.015 352.496 189.315 352.244 189.568C351.991 189.821 351.692 190.022 351.362 190.159C351.033 190.295 350.679 190.366 350.323 190.365Z" fill="#CCCCCC"/>
<path d="M290.33 169.572H242.05C241.33 169.572 240.64 169.285 240.131 168.774C239.622 168.263 239.336 167.57 239.336 166.848C239.336 166.125 239.622 165.432 240.131 164.921C240.64 164.41 241.33 164.123 242.05 164.123H290.33C291.05 164.123 291.74 164.41 292.249 164.921C292.758 165.432 293.044 166.125 293.044 166.848C293.044 167.57 292.758 168.263 292.249 168.774C291.74 169.285 291.05 169.572 290.33 169.572Z" fill="#CCCCCC"/>
<path d="M316.898 169.716H303.186C302.466 169.716 301.776 169.429 301.267 168.918C300.758 168.407 300.472 167.714 300.472 166.991C300.472 166.269 300.758 165.576 301.267 165.065C301.776 164.554 302.466 164.267 303.186 164.267H316.898C317.618 164.267 318.308 164.554 318.817 165.065C319.326 165.576 319.612 166.269 319.612 166.991C319.612 167.714 319.326 168.407 318.817 168.918C318.308 169.429 317.618 169.716 316.898 169.716Z" fill="#CCCCCC"/>
<path d="M255.763 190.365H242.05C241.33 190.365 240.64 190.078 240.131 189.567C239.622 189.056 239.336 188.363 239.336 187.641C239.336 186.918 239.622 186.225 240.131 185.714C240.64 185.203 241.33 184.916 242.05 184.916H255.763C256.119 184.916 256.473 184.986 256.802 185.122C257.132 185.259 257.431 185.46 257.684 185.713C257.936 185.966 258.136 186.266 258.273 186.597C258.41 186.928 258.48 187.282 258.48 187.641C258.48 187.999 258.41 188.353 258.273 188.684C258.136 189.015 257.936 189.315 257.684 189.568C257.431 189.821 257.132 190.022 256.802 190.159C256.473 190.295 256.119 190.366 255.763 190.365Z" fill="#CCCCCC"/>
<path d="M277.72 150.79C276.696 150.792 275.712 150.388 274.982 149.666L256.834 131.674C256.477 131.321 256.195 130.9 256.001 130.436C255.808 129.972 255.709 129.475 255.709 128.972C255.709 128.469 255.808 127.972 256.001 127.508C256.195 127.044 256.477 126.623 256.834 126.27L274.909 108.351C275.662 107.608 276.677 107.193 277.732 107.197C278.788 107.2 279.8 107.621 280.548 108.369C281.297 109.123 281.718 110.144 281.718 111.208C281.718 112.273 281.298 113.294 280.548 114.048L267.117 127.532C266.698 127.953 266.463 128.524 266.463 129.119C266.463 129.714 266.698 130.284 267.117 130.705L280.476 144.116C281.021 144.663 281.393 145.359 281.543 146.118C281.694 146.877 281.617 147.664 281.322 148.378C281.027 149.093 280.527 149.704 279.886 150.133C279.245 150.563 278.491 150.791 277.72 150.79Z" fill="#FED253"/>
<path d="M306.64 150.79C305.869 150.791 305.115 150.563 304.474 150.133C303.833 149.704 303.333 149.093 303.038 148.378C302.743 147.664 302.666 146.877 302.816 146.118C302.967 145.359 303.339 144.663 303.884 144.116L317.243 130.705C317.661 130.284 317.896 129.714 317.896 129.119C317.896 128.524 317.661 127.953 317.243 127.532L303.811 114.048C303.44 113.675 303.145 113.232 302.944 112.745C302.743 112.258 302.64 111.736 302.64 111.208C302.64 110.681 302.743 110.159 302.944 109.672C303.145 109.184 303.44 108.742 303.811 108.369C304.56 107.621 305.572 107.2 306.627 107.197C307.683 107.193 308.698 107.608 309.451 108.351L327.526 126.27C327.882 126.623 328.165 127.044 328.358 127.508C328.551 127.972 328.651 128.469 328.651 128.972C328.651 129.475 328.551 129.972 328.358 130.436C328.165 130.9 327.882 131.321 327.526 131.674L309.377 149.666C308.648 150.388 307.664 150.792 306.64 150.79Z" fill="#FFCB2D"/>
</g>
<path d="M629.724 135.949L624.994 136.46C624.947 135.977 624.8 135.527 624.554 135.111C624.308 134.694 623.938 134.363 623.446 134.116C622.963 133.861 622.338 133.733 621.571 133.733C620.454 133.733 619.473 133.984 618.631 134.486C617.788 134.988 617.31 135.632 617.196 136.418C617.092 137.005 617.234 137.483 617.622 137.852C618.01 138.222 618.73 138.534 619.781 138.79L623.389 139.585C625.378 140.03 626.808 140.75 627.679 141.744C628.56 142.739 628.867 144.041 628.602 145.651C628.375 146.995 627.788 148.179 626.841 149.202C625.894 150.215 624.682 151.006 623.205 151.574C621.737 152.142 620.108 152.426 618.318 152.426C615.6 152.426 613.508 151.863 612.04 150.736C610.581 149.599 609.857 148.037 609.866 146.048L614.923 145.565C614.98 146.55 615.326 147.294 615.96 147.795C616.595 148.288 617.475 148.539 618.602 148.548C619.871 148.558 620.941 148.293 621.812 147.753C622.693 147.204 623.19 146.536 623.304 145.75C623.399 145.163 623.252 144.685 622.864 144.315C622.485 143.946 621.808 143.652 620.832 143.435L617.253 142.653C615.226 142.208 613.782 141.455 612.92 140.395C612.068 139.325 611.779 137.975 612.054 136.347C612.281 135.021 612.835 133.88 613.716 132.923C614.606 131.957 615.747 131.214 617.139 130.693C618.531 130.163 620.089 129.898 621.812 129.898C624.407 129.898 626.363 130.442 627.679 131.531C628.995 132.62 629.677 134.093 629.724 135.949ZM641.351 152.426C639.201 152.426 637.411 151.953 635.982 151.006C634.561 150.059 633.562 148.728 632.984 147.014C632.407 145.3 632.303 143.312 632.672 141.048C633.041 138.813 633.78 136.858 634.888 135.182C636.005 133.506 637.411 132.208 639.107 131.29C640.811 130.362 642.719 129.898 644.831 129.898C646.981 129.898 648.766 130.376 650.186 131.332C651.607 132.279 652.606 133.61 653.183 135.324C653.77 137.038 653.879 139.036 653.51 141.318C653.15 143.544 652.407 145.49 651.28 147.156C650.162 148.823 648.756 150.12 647.061 151.048C645.366 151.967 643.463 152.426 641.351 152.426ZM641.777 148.307C642.97 148.307 644.017 147.985 644.916 147.341C645.825 146.687 646.569 145.812 647.146 144.713C647.733 143.605 648.141 142.374 648.368 141.02C648.576 139.713 648.581 138.529 648.382 137.469C648.183 136.399 647.757 135.551 647.104 134.926C646.46 134.292 645.565 133.974 644.419 133.974C643.226 133.974 642.17 134.306 641.251 134.969C640.342 135.622 639.599 136.503 639.021 137.611C638.444 138.709 638.046 139.936 637.828 141.29C637.61 142.597 637.601 143.78 637.8 144.841C637.999 145.902 638.425 146.744 639.078 147.369C639.732 147.994 640.631 148.307 641.777 148.307ZM666.085 122.909L661.255 152H656.113L660.942 122.909H666.085ZM666.543 152L670.179 130.182H675.321L671.685 152H666.543ZM673.503 127.057C672.679 127.057 671.997 126.782 671.457 126.233C670.918 125.684 670.681 125.026 670.747 124.259C670.813 123.491 671.159 122.833 671.784 122.284C672.419 121.735 673.143 121.46 673.957 121.46C674.781 121.46 675.458 121.735 675.989 122.284C676.528 122.833 676.765 123.491 676.699 124.259C676.642 125.026 676.296 125.684 675.662 126.233C675.037 126.782 674.317 127.057 673.503 127.057ZM685.097 160.636C683.241 160.636 681.693 160.385 680.452 159.884C679.212 159.391 678.255 158.728 677.583 157.895C676.911 157.062 676.494 156.138 676.333 155.125L681.163 154.003C681.305 154.429 681.532 154.85 681.844 155.267C682.166 155.693 682.64 156.044 683.265 156.318C683.89 156.602 684.723 156.744 685.765 156.744C687.223 156.744 688.497 156.389 689.586 155.679C690.675 154.969 691.347 153.813 691.603 152.213L692.256 148.08H692.001C691.66 148.61 691.191 149.154 690.594 149.713C690.007 150.272 689.264 150.741 688.364 151.119C687.474 151.498 686.404 151.688 685.154 151.688C683.478 151.688 682.024 151.295 680.793 150.509C679.562 149.713 678.677 148.529 678.137 146.957C677.607 145.376 677.54 143.397 677.938 141.02C678.326 138.624 679.056 136.602 680.126 134.955C681.205 133.297 682.498 132.043 684.004 131.19C685.509 130.329 687.1 129.898 688.776 129.898C690.055 129.898 691.073 130.116 691.83 130.551C692.588 130.977 693.161 131.493 693.549 132.099C693.937 132.696 694.221 133.259 694.401 133.79H694.671L695.268 130.182H700.339L696.674 152.355C696.371 154.221 695.675 155.764 694.586 156.986C693.497 158.217 692.129 159.131 690.481 159.727C688.843 160.333 687.048 160.636 685.097 160.636ZM687.2 147.653C688.289 147.653 689.264 147.388 690.126 146.858C690.987 146.328 691.707 145.565 692.285 144.571C692.862 143.577 693.265 142.384 693.492 140.991C693.719 139.618 693.71 138.416 693.464 137.384C693.227 136.351 692.768 135.551 692.086 134.983C691.404 134.405 690.514 134.116 689.415 134.116C688.27 134.116 687.266 134.415 686.404 135.011C685.552 135.608 684.851 136.427 684.302 137.469C683.762 138.501 683.383 139.675 683.165 140.991C682.957 142.327 682.957 143.496 683.165 144.5C683.383 145.494 683.824 146.271 684.487 146.83C685.159 147.379 686.063 147.653 687.2 147.653ZM708.194 152.44C706.811 152.44 705.609 152.194 704.586 151.702C703.563 151.2 702.81 150.461 702.327 149.486C701.854 148.51 701.736 147.308 701.972 145.878C702.181 144.647 702.578 143.629 703.165 142.824C703.762 142.019 704.491 141.375 705.353 140.892C706.224 140.4 707.171 140.03 708.194 139.784C709.226 139.538 710.277 139.358 711.347 139.244C712.654 139.112 713.71 138.989 714.515 138.875C715.329 138.761 715.94 138.591 716.347 138.364C716.754 138.127 717.001 137.767 717.086 137.284V137.199C717.256 136.129 717.086 135.3 716.575 134.713C716.063 134.126 715.211 133.832 714.018 133.832C712.768 133.832 711.717 134.107 710.864 134.656C710.012 135.205 709.392 135.854 709.004 136.602L704.344 135.92C704.932 134.595 705.737 133.487 706.759 132.597C707.782 131.697 708.961 131.025 710.296 130.58C711.641 130.125 713.076 129.898 714.6 129.898C715.642 129.898 716.66 130.021 717.654 130.267C718.658 130.513 719.543 130.92 720.31 131.489C721.087 132.047 721.655 132.81 722.015 133.776C722.384 134.741 722.446 135.949 722.2 137.398L719.771 152H714.827L715.339 149.003H715.168C714.761 149.609 714.231 150.177 713.577 150.707C712.924 151.228 712.147 151.65 711.248 151.972C710.348 152.284 709.33 152.44 708.194 152.44ZM710.14 148.662C711.172 148.662 712.1 148.458 712.924 148.051C713.748 147.634 714.425 147.085 714.955 146.403C715.486 145.722 715.817 144.978 715.95 144.173L716.376 141.602C716.186 141.735 715.893 141.858 715.495 141.972C715.097 142.085 714.652 142.185 714.16 142.27C713.677 142.355 713.199 142.431 712.725 142.497C712.252 142.563 711.844 142.62 711.504 142.668C710.718 142.772 709.998 142.942 709.344 143.179C708.701 143.416 708.165 143.747 707.739 144.173C707.323 144.59 707.062 145.13 706.958 145.793C706.807 146.73 707.029 147.445 707.626 147.938C708.222 148.42 709.06 148.662 710.14 148.662Z" fill="white" fill-opacity="0.67"/>
<path d="M748.589 152L751.498 134.545H755.612L752.702 152H748.589ZM754.157 132.045C753.498 132.045 752.952 131.826 752.521 131.386C752.089 130.947 751.899 130.42 751.952 129.807C752.005 129.193 752.282 128.667 752.782 128.227C753.29 127.788 753.869 127.568 754.521 127.568C755.18 127.568 755.721 127.788 756.146 128.227C756.577 128.667 756.767 129.193 756.714 129.807C756.668 130.42 756.392 130.947 755.884 131.386C755.384 131.826 754.808 132.045 754.157 132.045ZM764.91 128.727L761.046 152H756.933L760.796 128.727H764.91ZM772.958 152.341C771.208 152.341 769.761 151.977 768.617 151.25C767.473 150.515 766.67 149.477 766.208 148.136C765.754 146.788 765.678 145.201 765.981 143.375C766.276 141.58 766.879 140.004 767.788 138.648C768.697 137.284 769.833 136.223 771.197 135.466C772.568 134.701 774.083 134.318 775.742 134.318C776.818 134.318 777.807 134.492 778.708 134.841C779.61 135.182 780.371 135.712 780.992 136.432C781.613 137.152 782.041 138.068 782.276 139.182C782.511 140.288 782.5 141.606 782.242 143.136L782.049 144.398H767.731L768.174 141.625H778.538C778.674 140.837 778.629 140.136 778.401 139.523C778.174 138.902 777.795 138.413 777.265 138.057C776.735 137.701 776.072 137.523 775.276 137.523C774.466 137.523 773.708 137.731 773.004 138.148C772.307 138.557 771.719 139.087 771.242 139.739C770.765 140.39 770.462 141.076 770.333 141.795L769.867 144.455C769.701 145.545 769.738 146.436 769.981 147.125C770.223 147.814 770.647 148.322 771.254 148.648C771.86 148.973 772.625 149.136 773.549 149.136C774.155 149.136 774.716 149.053 775.231 148.886C775.746 148.72 776.204 148.47 776.606 148.136C777.015 147.795 777.356 147.379 777.629 146.886L781.39 147.318C780.973 148.333 780.363 149.22 779.56 149.977C778.757 150.727 777.795 151.311 776.674 151.727C775.56 152.136 774.322 152.341 772.958 152.341ZM799.896 152.341C798.146 152.341 796.699 151.977 795.555 151.25C794.411 150.515 793.608 149.477 793.146 148.136C792.691 146.788 792.615 145.201 792.918 143.375C793.214 141.58 793.816 140.004 794.725 138.648C795.634 137.284 796.771 136.223 798.134 135.466C799.505 134.701 801.021 134.318 802.68 134.318C803.755 134.318 804.744 134.492 805.646 134.841C806.547 135.182 807.308 135.712 807.93 136.432C808.551 137.152 808.979 138.068 809.214 139.182C809.449 140.288 809.437 141.606 809.18 143.136L808.987 144.398H794.668L795.112 141.625H805.475C805.612 140.837 805.566 140.136 805.339 139.523C805.112 138.902 804.733 138.413 804.202 138.057C803.672 137.701 803.009 137.523 802.214 137.523C801.403 137.523 800.646 137.731 799.941 138.148C799.244 138.557 798.657 139.087 798.18 139.739C797.702 140.39 797.399 141.076 797.271 141.795L796.805 144.455C796.638 145.545 796.676 146.436 796.918 147.125C797.161 147.814 797.585 148.322 798.191 148.648C798.797 148.973 799.562 149.136 800.487 149.136C801.093 149.136 801.653 149.053 802.168 148.886C802.683 148.72 803.142 148.47 803.543 148.136C803.952 147.795 804.293 147.379 804.566 146.886L808.327 147.318C807.911 148.333 807.301 149.22 806.498 149.977C805.695 150.727 804.733 151.311 803.612 151.727C802.498 152.136 801.259 152.341 799.896 152.341ZM817.032 141.773L815.35 152H811.225L814.134 134.545H818.077L817.577 137.511H817.793C818.339 136.534 819.104 135.758 820.089 135.182C821.074 134.606 822.221 134.318 823.532 134.318C824.721 134.318 825.721 134.576 826.532 135.091C827.343 135.598 827.918 136.345 828.259 137.33C828.6 138.307 828.653 139.492 828.418 140.886L826.555 152H822.441L824.18 141.523C824.377 140.364 824.229 139.455 823.737 138.795C823.252 138.129 822.471 137.795 821.396 137.795C820.676 137.795 820.013 137.955 819.407 138.273C818.801 138.583 818.29 139.034 817.873 139.625C817.464 140.216 817.183 140.932 817.032 141.773ZM838.651 152L841.56 134.545H845.674L842.765 152H838.651ZM844.219 132.045C843.56 132.045 843.015 131.826 842.583 131.386C842.151 130.947 841.962 130.42 842.015 129.807C842.068 129.193 842.344 128.667 842.844 128.227C843.352 127.788 843.932 127.568 844.583 127.568C845.242 127.568 845.784 127.788 846.208 128.227C846.64 128.667 846.829 129.193 846.776 129.807C846.731 130.42 846.454 130.947 845.947 131.386C845.447 131.826 844.871 132.045 844.219 132.045ZM848.484 158.545C847.923 158.545 847.412 158.5 846.95 158.409C846.495 158.326 846.135 158.227 845.87 158.114L847.37 154.909C847.938 155.083 848.45 155.159 848.904 155.136C849.366 155.121 849.79 154.966 850.177 154.67C850.571 154.383 850.957 153.909 851.336 153.25L851.859 152.307L848.518 134.545H852.722L854.54 147.75H854.722L860.961 134.545H865.495L855.279 154.091C854.787 155.038 854.215 155.841 853.563 156.5C852.912 157.167 852.165 157.674 851.325 158.023C850.491 158.371 849.544 158.545 848.484 158.545ZM865.433 152L868.342 134.545H872.455L869.546 152H865.433ZM871.001 132.045C870.342 132.045 869.796 131.826 869.364 131.386C868.933 130.947 868.743 130.42 868.796 129.807C868.849 129.193 869.126 128.667 869.626 128.227C870.133 127.788 870.713 127.568 871.364 127.568C872.023 127.568 872.565 127.788 872.989 128.227C873.421 128.667 873.611 129.193 873.558 129.807C873.512 130.42 873.236 130.947 872.728 131.386C872.228 131.826 871.652 132.045 871.001 132.045ZM609.67 191L612.58 173.545H616.523L616.023 176.511H616.239C616.769 175.511 617.5 174.731 618.432 174.17C619.364 173.602 620.413 173.318 621.58 173.318C622.754 173.318 623.701 173.606 624.42 174.182C625.148 174.75 625.595 175.527 625.761 176.511H625.943C626.489 175.534 627.269 174.758 628.284 174.182C629.307 173.606 630.455 173.318 631.727 173.318C633.318 173.318 634.538 173.826 635.386 174.841C636.235 175.856 636.496 177.337 636.17 179.284L634.216 191H630.102L631.966 179.92C632.133 178.837 631.966 178.045 631.466 177.545C630.973 177.038 630.311 176.784 629.477 176.784C628.485 176.784 627.659 177.091 627 177.705C626.348 178.318 625.947 179.121 625.795 180.114L623.966 191H619.932L621.818 179.75C621.955 178.848 621.795 178.129 621.341 177.591C620.894 177.053 620.235 176.784 619.364 176.784C618.773 176.784 618.208 176.936 617.67 177.239C617.133 177.542 616.674 177.966 616.295 178.511C615.924 179.049 615.682 179.674 615.568 180.386L613.795 191H609.67ZM650.719 183.659L652.412 173.545H656.526L653.616 191H649.628L650.151 187.898H649.969C649.423 188.875 648.643 189.674 647.628 190.295C646.62 190.917 645.461 191.227 644.151 191.227C643.007 191.227 642.041 190.973 641.253 190.466C640.465 189.951 639.904 189.205 639.571 188.227C639.245 187.242 639.196 186.053 639.423 184.659L641.287 173.545H645.401L643.651 184.023C643.476 185.129 643.635 186.008 644.128 186.659C644.628 187.311 645.37 187.636 646.355 187.636C646.961 187.636 647.571 187.489 648.185 187.193C648.806 186.898 649.348 186.458 649.81 185.875C650.272 185.284 650.575 184.545 650.719 183.659ZM646.162 170.977C645.518 170.977 644.991 170.739 644.582 170.261C644.181 169.784 644.029 169.223 644.128 168.58C644.219 168.042 644.488 167.595 644.935 167.239C645.382 166.875 645.87 166.693 646.401 166.693C647.082 166.693 647.616 166.928 648.003 167.398C648.397 167.86 648.541 168.424 648.435 169.091C648.351 169.606 648.094 170.049 647.662 170.42C647.23 170.792 646.73 170.977 646.162 170.977ZM652.98 170.977C652.336 170.977 651.81 170.742 651.401 170.273C650.991 169.803 650.84 169.239 650.946 168.58C651.045 168.042 651.313 167.595 651.753 167.239C652.2 166.875 652.688 166.693 653.219 166.693C653.901 166.693 654.435 166.928 654.821 167.398C655.215 167.86 655.359 168.424 655.253 169.091C655.17 169.606 654.912 170.049 654.48 170.42C654.048 170.792 653.548 170.977 652.98 170.977ZM663.665 180.773L661.983 191H657.858L661.722 167.727H665.756L664.301 176.511H664.517C665.07 175.519 665.824 174.739 666.778 174.17C667.741 173.602 668.896 173.318 670.244 173.318C671.441 173.318 672.449 173.572 673.267 174.08C674.085 174.587 674.661 175.33 674.994 176.307C675.335 177.284 675.392 178.477 675.165 179.886L673.301 191H669.176L670.926 180.523C671.116 179.348 670.96 178.436 670.46 177.784C669.968 177.125 669.188 176.795 668.119 176.795C667.384 176.795 666.706 176.955 666.085 177.273C665.464 177.583 664.941 178.034 664.517 178.625C664.1 179.216 663.816 179.932 663.665 180.773ZM685.153 191.341C683.403 191.341 681.956 190.977 680.812 190.25C679.669 189.515 678.866 188.477 678.403 187.136C677.949 185.788 677.873 184.201 678.176 182.375C678.472 180.58 679.074 179.004 679.983 177.648C680.892 176.284 682.028 175.223 683.392 174.466C684.763 173.701 686.278 173.318 687.938 173.318C689.013 173.318 690.002 173.492 690.903 173.841C691.805 174.182 692.566 174.712 693.188 175.432C693.809 176.152 694.237 177.068 694.472 178.182C694.706 179.288 694.695 180.606 694.438 182.136L694.244 183.398H679.926L680.369 180.625H690.733C690.869 179.837 690.824 179.136 690.597 178.523C690.369 177.902 689.991 177.413 689.46 177.057C688.93 176.701 688.267 176.523 687.472 176.523C686.661 176.523 685.903 176.731 685.199 177.148C684.502 177.557 683.915 178.087 683.438 178.739C682.96 179.39 682.657 180.076 682.528 180.795L682.062 183.455C681.896 184.545 681.934 185.436 682.176 186.125C682.419 186.814 682.843 187.322 683.449 187.648C684.055 187.973 684.82 188.136 685.744 188.136C686.35 188.136 686.911 188.053 687.426 187.886C687.941 187.72 688.4 187.47 688.801 187.136C689.21 186.795 689.551 186.379 689.824 185.886L693.585 186.318C693.169 187.333 692.559 188.22 691.756 188.977C690.953 189.727 689.991 190.311 688.869 190.727C687.756 191.136 686.517 191.341 685.153 191.341ZM702.29 180.773L700.608 191H696.483L699.392 173.545H703.335L702.835 176.511H703.051C703.597 175.534 704.362 174.758 705.347 174.182C706.331 173.606 707.479 173.318 708.79 173.318C709.979 173.318 710.979 173.576 711.79 174.091C712.6 174.598 713.176 175.345 713.517 176.33C713.858 177.307 713.911 178.492 713.676 179.886L711.812 191H707.699L709.438 180.523C709.634 179.364 709.487 178.455 708.994 177.795C708.509 177.129 707.729 176.795 706.653 176.795C705.934 176.795 705.271 176.955 704.665 177.273C704.059 177.583 703.547 178.034 703.131 178.625C702.722 179.216 702.441 179.932 702.29 180.773ZM722.426 191.307C721.055 191.307 719.884 190.955 718.915 190.25C717.945 189.545 717.256 188.523 716.847 187.182C716.445 185.841 716.4 184.212 716.71 182.295C717.036 180.356 717.631 178.72 718.494 177.386C719.358 176.045 720.388 175.034 721.585 174.352C722.79 173.663 724.063 173.318 725.403 173.318C726.434 173.318 727.248 173.492 727.847 173.841C728.453 174.182 728.907 174.595 729.21 175.08C729.513 175.557 729.737 176.008 729.881 176.432H730.051L731.494 167.727H735.619L731.756 191H727.71L728.176 188.25H727.926C727.638 188.674 727.256 189.125 726.778 189.602C726.301 190.072 725.706 190.473 724.994 190.807C724.282 191.14 723.426 191.307 722.426 191.307ZM724.062 187.932C724.941 187.932 725.729 187.697 726.426 187.227C727.131 186.75 727.718 186.087 728.188 185.239C728.657 184.39 728.987 183.402 729.176 182.273C729.366 181.144 729.366 180.163 729.176 179.33C728.987 178.496 728.619 177.848 728.074 177.386C727.528 176.924 726.813 176.693 725.926 176.693C725.017 176.693 724.218 176.932 723.528 177.409C722.847 177.886 722.286 178.545 721.847 179.386C721.407 180.227 721.097 181.189 720.915 182.273C720.733 183.364 720.722 184.337 720.881 185.193C721.047 186.042 721.392 186.712 721.915 187.205C722.445 187.689 723.161 187.932 724.062 187.932ZM736.159 191L739.068 173.545H743.182L740.273 191H736.159ZM741.727 171.045C741.068 171.045 740.523 170.826 740.091 170.386C739.659 169.947 739.47 169.42 739.523 168.807C739.576 168.193 739.852 167.667 740.352 167.227C740.86 166.788 741.439 166.568 742.091 166.568C742.75 166.568 743.292 166.788 743.716 167.227C744.148 167.667 744.337 168.193 744.284 168.807C744.239 169.42 743.962 169.947 743.455 170.386C742.955 170.826 742.379 171.045 741.727 171.045ZM760.423 178.159L756.639 178.568C756.601 178.182 756.484 177.822 756.287 177.489C756.09 177.155 755.795 176.89 755.401 176.693C755.014 176.489 754.514 176.386 753.901 176.386C753.007 176.386 752.223 176.587 751.548 176.989C750.874 177.39 750.491 177.905 750.401 178.534C750.317 179.004 750.431 179.386 750.741 179.682C751.052 179.977 751.628 180.227 752.469 180.432L755.355 181.068C756.946 181.424 758.09 182 758.787 182.795C759.491 183.591 759.738 184.633 759.526 185.92C759.344 186.996 758.874 187.943 758.116 188.761C757.359 189.572 756.389 190.205 755.207 190.659C754.033 191.114 752.73 191.341 751.298 191.341C749.124 191.341 747.45 190.89 746.276 189.989C745.109 189.08 744.529 187.83 744.537 186.239L748.582 185.852C748.628 186.64 748.904 187.235 749.412 187.636C749.92 188.03 750.624 188.231 751.526 188.239C752.541 188.246 753.397 188.034 754.094 187.602C754.798 187.163 755.196 186.629 755.287 186C755.363 185.53 755.245 185.148 754.935 184.852C754.632 184.557 754.09 184.322 753.31 184.148L750.446 183.523C748.825 183.167 747.67 182.564 746.98 181.716C746.298 180.86 746.067 179.78 746.287 178.477C746.469 177.417 746.912 176.504 747.616 175.739C748.329 174.966 749.241 174.371 750.355 173.955C751.469 173.53 752.715 173.318 754.094 173.318C756.17 173.318 757.734 173.754 758.787 174.625C759.84 175.496 760.385 176.674 760.423 178.159ZM770.043 167.727L766.179 191H762.065L765.929 167.727H770.043ZM778.091 191.341C776.341 191.341 774.894 190.977 773.75 190.25C772.606 189.515 771.803 188.477 771.341 187.136C770.886 185.788 770.811 184.201 771.114 182.375C771.409 180.58 772.011 179.004 772.92 177.648C773.83 176.284 774.966 175.223 776.33 174.466C777.701 173.701 779.216 173.318 780.875 173.318C781.951 173.318 782.939 173.492 783.841 173.841C784.742 174.182 785.504 174.712 786.125 175.432C786.746 176.152 787.174 177.068 787.409 178.182C787.644 179.288 787.633 180.606 787.375 182.136L787.182 183.398H772.864L773.307 180.625H783.67C783.807 179.837 783.761 179.136 783.534 178.523C783.307 177.902 782.928 177.413 782.398 177.057C781.867 176.701 781.205 176.523 780.409 176.523C779.598 176.523 778.841 176.731 778.136 177.148C777.439 177.557 776.852 178.087 776.375 178.739C775.898 179.39 775.595 180.076 775.466 180.795L775 183.455C774.833 184.545 774.871 185.436 775.114 186.125C775.356 186.814 775.78 187.322 776.386 187.648C776.992 187.973 777.758 188.136 778.682 188.136C779.288 188.136 779.848 188.053 780.364 187.886C780.879 187.72 781.337 187.47 781.739 187.136C782.148 186.795 782.489 186.379 782.761 185.886L786.523 186.318C786.106 187.333 785.496 188.22 784.693 188.977C783.89 189.727 782.928 190.311 781.807 190.727C780.693 191.136 779.455 191.341 778.091 191.341ZM789.409 191L792.318 173.545H796.307L795.818 176.455H796C796.477 175.447 797.152 174.67 798.023 174.125C798.902 173.572 799.841 173.295 800.841 173.295C801.076 173.295 801.33 173.307 801.602 173.33C801.875 173.345 802.11 173.371 802.307 173.409L801.67 177.193C801.496 177.133 801.223 177.08 800.852 177.034C800.489 176.981 800.129 176.955 799.773 176.955C799.023 176.955 798.326 177.117 797.682 177.443C797.045 177.761 796.508 178.205 796.068 178.773C795.629 179.341 795.345 179.996 795.216 180.739L793.523 191H789.409ZM809.091 191.341C807.341 191.341 805.894 190.977 804.75 190.25C803.606 189.515 802.803 188.477 802.341 187.136C801.886 185.788 801.811 184.201 802.114 182.375C802.409 180.58 803.011 179.004 803.92 177.648C804.83 176.284 805.966 175.223 807.33 174.466C808.701 173.701 810.216 173.318 811.875 173.318C812.951 173.318 813.939 173.492 814.841 173.841C815.742 174.182 816.504 174.712 817.125 175.432C817.746 176.152 818.174 177.068 818.409 178.182C818.644 179.288 818.633 180.606 818.375 182.136L818.182 183.398H803.864L804.307 180.625H814.67C814.807 179.837 814.761 179.136 814.534 178.523C814.307 177.902 813.928 177.413 813.398 177.057C812.867 176.701 812.205 176.523 811.409 176.523C810.598 176.523 809.841 176.731 809.136 177.148C808.439 177.557 807.852 178.087 807.375 178.739C806.898 179.39 806.595 180.076 806.466 180.795L806 183.455C805.833 184.545 805.871 185.436 806.114 186.125C806.356 186.814 806.78 187.322 807.386 187.648C807.992 187.973 808.758 188.136 809.682 188.136C810.288 188.136 810.848 188.053 811.364 187.886C811.879 187.72 812.337 187.47 812.739 187.136C813.148 186.795 813.489 186.379 813.761 185.886L817.523 186.318C817.106 187.333 816.496 188.22 815.693 188.977C814.89 189.727 813.928 190.311 812.807 190.727C811.693 191.136 810.455 191.341 809.091 191.341ZM840.688 183.659L842.381 173.545H846.494L843.585 191H839.597L840.119 187.898H839.938C839.392 188.875 838.612 189.674 837.597 190.295C836.589 190.917 835.43 191.227 834.119 191.227C832.975 191.227 832.009 190.973 831.222 190.466C830.434 189.951 829.873 189.205 829.54 188.227C829.214 187.242 829.165 186.053 829.392 184.659L831.256 173.545H835.369L833.619 184.023C833.445 185.129 833.604 186.008 834.097 186.659C834.597 187.311 835.339 187.636 836.324 187.636C836.93 187.636 837.54 187.489 838.153 187.193C838.775 186.898 839.316 186.458 839.778 185.875C840.241 185.284 840.544 184.545 840.688 183.659ZM855.793 167.727L851.929 191H847.815L851.679 167.727H855.793ZM861.136 191.352C860.03 191.352 859.068 191.155 858.25 190.761C857.432 190.36 856.83 189.769 856.443 188.989C856.064 188.208 855.97 187.246 856.159 186.102C856.326 185.117 856.644 184.303 857.114 183.659C857.591 183.015 858.174 182.5 858.864 182.114C859.561 181.72 860.318 181.424 861.136 181.227C861.962 181.03 862.803 180.886 863.659 180.795C864.705 180.689 865.549 180.591 866.193 180.5C866.845 180.409 867.333 180.273 867.659 180.091C867.985 179.902 868.182 179.614 868.25 179.227V179.159C868.386 178.303 868.25 177.64 867.841 177.17C867.432 176.701 866.75 176.466 865.795 176.466C864.795 176.466 863.955 176.686 863.273 177.125C862.591 177.564 862.095 178.083 861.784 178.682L858.057 178.136C858.527 177.076 859.17 176.189 859.989 175.477C860.807 174.758 861.75 174.22 862.818 173.864C863.894 173.5 865.042 173.318 866.261 173.318C867.095 173.318 867.909 173.417 868.705 173.614C869.508 173.811 870.216 174.136 870.83 174.591C871.451 175.038 871.905 175.648 872.193 176.42C872.489 177.193 872.538 178.159 872.341 179.318L870.398 191H866.443L866.852 188.602H866.716C866.39 189.087 865.966 189.542 865.443 189.966C864.92 190.383 864.299 190.72 863.58 190.977C862.86 191.227 862.045 191.352 861.136 191.352ZM862.693 188.33C863.519 188.33 864.261 188.167 864.92 187.841C865.58 187.508 866.121 187.068 866.545 186.523C866.97 185.977 867.235 185.383 867.341 184.739L867.682 182.682C867.53 182.788 867.295 182.886 866.977 182.977C866.659 183.068 866.303 183.148 865.909 183.216C865.523 183.284 865.14 183.345 864.761 183.398C864.383 183.451 864.057 183.496 863.784 183.534C863.155 183.617 862.58 183.754 862.057 183.943C861.542 184.133 861.114 184.398 860.773 184.739C860.439 185.072 860.231 185.504 860.148 186.034C860.027 186.784 860.205 187.356 860.682 187.75C861.159 188.136 861.83 188.33 862.693 188.33ZM890.455 178.159L886.67 178.568C886.633 178.182 886.515 177.822 886.318 177.489C886.121 177.155 885.826 176.89 885.432 176.693C885.045 176.489 884.545 176.386 883.932 176.386C883.038 176.386 882.254 176.587 881.58 176.989C880.905 177.39 880.523 177.905 880.432 178.534C880.348 179.004 880.462 179.386 880.773 179.682C881.083 179.977 881.659 180.227 882.5 180.432L885.386 181.068C886.977 181.424 888.121 182 888.818 182.795C889.523 183.591 889.769 184.633 889.557 185.92C889.375 186.996 888.905 187.943 888.148 188.761C887.39 189.572 886.42 190.205 885.239 190.659C884.064 191.114 882.761 191.341 881.33 191.341C879.155 191.341 877.481 190.89 876.307 189.989C875.14 189.08 874.561 187.83 874.568 186.239L878.614 185.852C878.659 186.64 878.936 187.235 879.443 187.636C879.951 188.03 880.655 188.231 881.557 188.239C882.572 188.246 883.428 188.034 884.125 187.602C884.83 187.163 885.227 186.629 885.318 186C885.394 185.53 885.277 185.148 884.966 184.852C884.663 184.557 884.121 184.322 883.341 184.148L880.477 183.523C878.856 183.167 877.701 182.564 877.011 181.716C876.33 180.86 876.098 179.78 876.318 178.477C876.5 177.417 876.943 176.504 877.648 175.739C878.36 174.966 879.273 174.371 880.386 173.955C881.5 173.53 882.746 173.318 884.125 173.318C886.201 173.318 887.765 173.754 888.818 174.625C889.871 175.496 890.417 176.674 890.455 178.159ZM880.318 190.909H882.545L882.182 191.875C882.879 191.981 883.439 192.258 883.864 192.705C884.288 193.152 884.424 193.788 884.273 194.614C884.106 195.689 883.485 196.553 882.409 197.205C881.333 197.856 879.898 198.182 878.102 198.182L878.398 196.159C879.269 196.159 879.977 196.042 880.523 195.807C881.076 195.58 881.402 195.216 881.5 194.716C881.591 194.231 881.466 193.875 881.125 193.648C880.784 193.428 880.216 193.277 879.42 193.193L880.318 190.909ZM892.097 191L895.006 173.545H899.119L896.21 191H892.097ZM906.259 180.773L904.577 191H900.452L903.361 173.545H907.304L906.804 176.511H907.02C907.565 175.534 908.33 174.758 909.315 174.182C910.3 173.606 911.448 173.318 912.759 173.318C913.948 173.318 914.948 173.576 915.759 174.091C916.569 174.598 917.145 175.345 917.486 176.33C917.827 177.307 917.88 178.492 917.645 179.886L915.781 191H911.668L913.406 180.523C913.603 179.364 913.455 178.455 912.963 177.795C912.478 177.129 911.698 176.795 910.622 176.795C909.902 176.795 909.24 176.955 908.634 177.273C908.027 177.583 907.516 178.034 907.099 178.625C906.69 179.216 906.41 179.932 906.259 180.773Z" fill="#FFC50B" fill-opacity="0.5"/>
<path d="M0 322H1000V452H0V322Z" fill="#B5BFC6" fill-opacity="0.15"/>
<defs>
<clipPath id="clip0_292_1021">
<rect width="383" height="249" fill="white" transform="translate(52 34)"/>
</clipPath>
</defs>
</svg>
