<svg width="1400" height="570" viewBox="0 0 1400 570" fill="none" xmlns="http://www.w3.org/2000/svg">
<g clip-path="url(#clip0_78_3)">
<rect width="1400" height="570" rx="15" fill="#252022"/>
<circle cx="1300" cy="389" r="251" fill="#FFCB2D"/>
<path d="M226 50C226 188.623 113.623 301 -25 301C-163.623 301 -276 188.623 -276 50C-276 -88.6235 -163.623 -201 -25 -201C113.623 -201 226 -88.6235 226 50Z" fill="#D52529"/>
<path d="M-53.8462 138H1578.77V463H-53.8462V138Z" fill="white"/>
<path d="M121.304 211.432C118.648 211.432 116.328 211.128 114.344 210.52C112.36 209.912 110.824 209.064 109.736 207.976C108.68 206.856 108.152 205.544 108.152 204.04C108.152 202.376 108.68 201.112 109.736 200.248C110.792 199.352 112.328 198.904 114.344 198.904C114.28 199.544 114.248 199.992 114.248 200.248C114.248 202.232 114.888 203.736 116.168 204.76C117.48 205.784 119.384 206.296 121.88 206.296C124.344 206.296 126.296 205.832 127.736 204.904C129.176 203.944 129.896 202.648 129.896 201.016C129.896 199.992 129.368 199.16 128.312 198.52C127.288 197.88 125.368 197.224 122.552 196.552C118.776 195.656 116.008 194.504 114.248 193.096C112.52 191.688 111.656 189.896 111.656 187.72C111.656 185.544 112.248 183.656 113.432 182.056C114.616 180.424 116.296 179.176 118.472 178.312C120.648 177.416 123.192 176.968 126.104 176.968C128.408 176.968 130.456 177.256 132.248 177.832C134.04 178.408 135.432 179.224 136.424 180.28C137.448 181.304 137.96 182.472 137.96 183.784C137.96 185.288 137.464 186.44 136.472 187.24C135.48 188.04 134.024 188.456 132.104 188.488C132.136 188.264 132.152 187.96 132.152 187.576C132.152 185.656 131.624 184.264 130.568 183.4C129.512 182.536 127.848 182.104 125.576 182.104C123.24 182.104 121.4 182.536 120.056 183.4C118.744 184.264 118.088 185.464 118.088 187C118.088 188.024 118.568 188.84 119.528 189.448C120.488 190.056 122.216 190.648 124.712 191.224C128.744 192.152 131.672 193.336 133.496 194.776C135.352 196.216 136.28 198.04 136.28 200.248C136.28 202.52 135.672 204.504 134.456 206.2C133.24 207.864 131.496 209.16 129.224 210.088C126.984 210.984 124.344 211.432 121.304 211.432ZM149.017 211.432C147.193 211.432 145.545 211.112 144.073 210.472C142.633 209.8 141.497 208.888 140.665 207.736C139.833 206.584 139.417 205.288 139.417 203.848C139.417 203.304 139.449 202.888 139.513 202.6L140.665 195.832C141.177 193.016 142.569 190.776 144.841 189.112C147.113 187.416 149.961 186.568 153.385 186.568C155.305 186.568 156.985 186.92 158.425 187.624C159.897 188.296 161.017 189.224 161.785 190.408C162.585 191.56 162.984 192.872 162.984 194.344C162.984 194.856 162.937 195.352 162.841 195.832L161.689 202.6C161.209 205.288 159.817 207.432 157.513 209.032C155.241 210.632 152.409 211.432 149.017 211.432ZM149.929 206.296C151.529 206.296 152.841 205.944 153.865 205.24C154.921 204.504 155.561 203.496 155.785 202.216L156.841 196.12C156.905 195.736 156.937 195.432 156.937 195.208C156.937 194.12 156.553 193.272 155.785 192.664C155.017 192.024 153.929 191.704 152.521 191.704C150.953 191.704 149.625 192.12 148.537 192.952C147.481 193.752 146.825 194.808 146.569 196.12L145.513 202.216C145.481 202.408 145.465 202.664 145.465 202.984C145.465 204.04 145.849 204.856 146.617 205.432C147.385 206.008 148.489 206.296 149.929 206.296ZM172.542 211.432C170.462 211.432 168.814 210.84 167.598 209.656C166.382 208.472 165.774 206.92 165.774 205C165.774 204.488 165.822 203.944 165.918 203.368L169.95 180.616C170.174 179.336 170.814 178.408 171.87 177.832C172.926 177.256 174.494 176.968 176.574 176.968L171.966 203.128C171.902 203.384 171.87 203.736 171.87 204.184C171.87 204.888 172.078 205.416 172.494 205.768C172.91 206.088 173.566 206.248 174.462 206.248C175.614 206.248 176.83 205.944 178.11 205.336C178.558 205.784 178.782 206.392 178.782 207.16C178.782 208.344 178.174 209.352 176.958 210.184C175.774 211.016 174.302 211.432 172.542 211.432ZM191.033 184.312C190.041 184.312 189.225 184.04 188.585 183.496C187.945 182.92 187.625 182.184 187.625 181.288C187.625 180.104 188.089 179.096 189.017 178.264C189.945 177.4 191.049 176.968 192.329 176.968C193.321 176.968 194.121 177.24 194.729 177.784C195.369 178.328 195.689 179.048 195.689 179.944C195.689 181.128 195.225 182.152 194.297 183.016C193.369 183.88 192.281 184.312 191.033 184.312ZM186.953 190.216C187.177 188.968 187.817 188.056 188.873 187.48C189.961 186.872 191.529 186.568 193.577 186.568L189.833 207.784C189.609 209.064 188.969 209.992 187.913 210.568C186.857 211.144 185.289 211.432 183.209 211.432L186.953 190.216ZM204.098 221.032C202.434 221.032 200.93 220.808 199.586 220.36C198.242 219.912 197.186 219.288 196.418 218.488C195.682 217.72 195.314 216.84 195.314 215.848C195.314 214.664 195.73 213.752 196.562 213.112C197.394 212.472 198.61 212.152 200.21 212.152C200.114 213.496 200.466 214.52 201.266 215.224C202.066 215.928 203.298 216.28 204.962 216.28C206.69 216.28 208.034 215.848 208.994 214.984C209.986 214.152 210.658 212.84 211.01 211.048L211.346 209.416C211.826 209.064 212.226 208.728 212.546 208.408L212.402 208.168C211.474 208.968 210.258 209.64 208.754 210.184C207.282 210.696 205.922 210.952 204.674 210.952C202.306 210.952 200.386 210.296 198.914 208.984C197.442 207.64 196.706 205.928 196.706 203.848C196.706 203.368 196.754 202.872 196.85 202.36L198.05 195.208C198.498 192.584 199.682 190.488 201.602 188.92C203.554 187.352 205.922 186.568 208.706 186.568C210.338 186.568 211.73 186.904 212.882 187.576C214.066 188.248 215.058 189.272 215.858 190.648L216.098 190.456C215.97 190.2 215.746 189.784 215.426 189.208C215.682 187.448 217.666 186.568 221.378 186.568L217.202 210.184C216.594 213.576 215.122 216.232 212.786 218.152C210.45 220.072 207.554 221.032 204.098 221.032ZM207.074 205.816C208.482 205.816 209.73 205.464 210.818 204.76C211.906 204.056 212.546 203.192 212.738 202.168L213.89 195.352C213.922 195.224 213.938 195.048 213.938 194.824C213.938 193.896 213.538 193.144 212.738 192.568C211.938 191.992 210.898 191.704 209.618 191.704C208.018 191.704 206.722 192.04 205.73 192.712C204.77 193.352 204.178 194.312 203.954 195.592L202.85 201.928C202.786 202.312 202.754 202.584 202.754 202.744C202.754 203.736 203.122 204.504 203.858 205.048C204.594 205.56 205.666 205.816 207.074 205.816ZM230.388 211.432C228.116 211.432 226.26 210.84 224.82 209.656C223.412 208.44 222.708 206.872 222.708 204.952C222.708 203.096 223.188 201.432 224.148 199.96C225.108 198.488 226.452 197.336 228.18 196.504C229.908 195.672 231.86 195.256 234.036 195.256C235.444 195.256 236.692 195.48 237.78 195.928C238.868 196.376 239.86 197.08 240.756 198.04L240.996 197.8C240.9 197.672 240.484 197.24 239.748 196.504L239.892 195.544C239.924 195.352 239.94 195.064 239.94 194.68C239.94 193.56 239.556 192.712 238.788 192.136C238.02 191.56 236.9 191.272 235.428 191.272C233.956 191.272 232.596 191.56 231.348 192.136C230.132 192.68 229.108 193.48 228.276 194.536C227.668 194.376 227.172 194.072 226.788 193.624C226.404 193.176 226.212 192.696 226.212 192.184C226.212 191.16 226.676 190.216 227.604 189.352C228.564 188.488 229.844 187.816 231.444 187.336C233.076 186.824 234.852 186.568 236.772 186.568C239.652 186.568 241.908 187.208 243.54 188.488C245.172 189.768 245.988 191.512 245.988 193.72C245.988 194.264 245.94 194.824 245.844 195.4L243.732 207.4C243.476 208.808 242.852 209.832 241.86 210.472C240.868 211.112 239.396 211.432 237.444 211.432L237.78 209.464C238.388 208.984 238.852 208.584 239.172 208.264L238.98 208.024C237.668 209.208 236.324 210.072 234.948 210.616C233.604 211.16 232.084 211.432 230.388 211.432ZM232.74 207.064C234.532 207.064 235.972 206.68 237.06 205.912C238.148 205.112 238.692 204.056 238.692 202.744C238.692 201.752 238.276 200.984 237.444 200.44C236.644 199.896 235.524 199.624 234.084 199.624C232.452 199.624 231.124 200.04 230.1 200.872C229.108 201.704 228.612 202.792 228.612 204.136C228.612 206.088 229.988 207.064 232.74 207.064Z" fill="black"/>
<path d="M122.545 298.545C122.409 297.394 121.856 296.5 120.886 295.864C119.917 295.227 118.727 294.909 117.318 294.909C116.288 294.909 115.386 295.076 114.614 295.409C113.848 295.742 113.25 296.201 112.818 296.784C112.394 297.367 112.182 298.03 112.182 298.773C112.182 299.394 112.33 299.928 112.625 300.375C112.928 300.814 113.314 301.182 113.784 301.477C114.254 301.765 114.746 302.004 115.261 302.193C115.777 302.375 116.25 302.523 116.682 302.636L119.045 303.273C119.652 303.432 120.326 303.652 121.068 303.932C121.818 304.212 122.534 304.595 123.216 305.08C123.905 305.557 124.473 306.17 124.92 306.92C125.367 307.67 125.591 308.591 125.591 309.682C125.591 310.939 125.261 312.076 124.602 313.091C123.951 314.106 122.996 314.913 121.739 315.511C120.489 316.11 118.97 316.409 117.182 316.409C115.515 316.409 114.072 316.14 112.852 315.602C111.64 315.064 110.686 314.314 109.989 313.352C109.299 312.39 108.909 311.273 108.818 310H111.727C111.803 310.879 112.098 311.606 112.614 312.182C113.136 312.75 113.795 313.174 114.591 313.455C115.394 313.727 116.258 313.864 117.182 313.864C118.258 313.864 119.223 313.689 120.08 313.341C120.936 312.985 121.614 312.492 122.114 311.864C122.614 311.227 122.864 310.485 122.864 309.636C122.864 308.864 122.648 308.235 122.216 307.75C121.784 307.265 121.216 306.871 120.511 306.568C119.807 306.265 119.045 306 118.227 305.773L115.364 304.955C113.545 304.432 112.106 303.686 111.045 302.716C109.985 301.746 109.455 300.477 109.455 298.909C109.455 297.606 109.807 296.47 110.511 295.5C111.223 294.523 112.178 293.765 113.375 293.227C114.58 292.682 115.924 292.409 117.409 292.409C118.909 292.409 120.242 292.678 121.409 293.216C122.576 293.746 123.5 294.473 124.182 295.398C124.871 296.322 125.235 297.371 125.273 298.545H122.545ZM129.861 316V298.545H132.543V316H129.861ZM131.224 295.636C130.702 295.636 130.251 295.458 129.872 295.102C129.501 294.746 129.315 294.318 129.315 293.818C129.315 293.318 129.501 292.89 129.872 292.534C130.251 292.178 130.702 292 131.224 292C131.747 292 132.194 292.178 132.565 292.534C132.944 292.89 133.134 293.318 133.134 293.818C133.134 294.318 132.944 294.746 132.565 295.102C132.194 295.458 131.747 295.636 131.224 295.636ZM136.955 316V313.955L146.864 301.227V301.045H137.273V298.545H150.318V300.682L140.682 313.318V313.5H150.636V316H136.955ZM154.767 316V298.545H157.449V316H154.767ZM156.131 295.636C155.608 295.636 155.157 295.458 154.778 295.102C154.407 294.746 154.222 294.318 154.222 293.818C154.222 293.318 154.407 292.89 154.778 292.534C155.157 292.178 155.608 292 156.131 292C156.653 292 157.1 292.178 157.472 292.534C157.85 292.89 158.04 293.318 158.04 293.818C158.04 294.318 157.85 294.746 157.472 295.102C157.1 295.458 156.653 295.636 156.131 295.636ZM165.043 305.5V316H162.361V298.545H164.952V301.273H165.179C165.588 300.386 166.209 299.674 167.043 299.136C167.876 298.591 168.952 298.318 170.27 298.318C171.452 298.318 172.486 298.561 173.372 299.045C174.259 299.523 174.948 300.25 175.44 301.227C175.933 302.197 176.179 303.424 176.179 304.909V316H173.497V305.091C173.497 303.72 173.141 302.652 172.429 301.886C171.717 301.114 170.74 300.727 169.497 300.727C168.641 300.727 167.876 300.913 167.202 301.284C166.535 301.655 166.009 302.197 165.622 302.909C165.236 303.621 165.043 304.485 165.043 305.5ZM190.08 316V298.545H192.761V316H190.08ZM191.443 295.636C190.92 295.636 190.47 295.458 190.091 295.102C189.72 294.746 189.534 294.318 189.534 293.818C189.534 293.318 189.72 292.89 190.091 292.534C190.47 292.178 190.92 292 191.443 292C191.966 292 192.413 292.178 192.784 292.534C193.163 292.89 193.352 293.318 193.352 293.818C193.352 294.318 193.163 294.746 192.784 295.102C192.413 295.458 191.966 295.636 191.443 295.636ZM204.764 316.364C203.128 316.364 201.719 315.977 200.537 315.205C199.355 314.432 198.446 313.367 197.81 312.011C197.173 310.655 196.855 309.106 196.855 307.364C196.855 305.591 197.181 304.027 197.832 302.67C198.491 301.307 199.408 300.242 200.582 299.477C201.764 298.705 203.143 298.318 204.719 298.318C205.946 298.318 207.052 298.545 208.037 299C209.022 299.455 209.829 300.091 210.457 300.909C211.086 301.727 211.476 302.682 211.628 303.773H208.946C208.741 302.977 208.287 302.273 207.582 301.659C206.885 301.038 205.946 300.727 204.764 300.727C203.719 300.727 202.802 301 202.014 301.545C201.234 302.083 200.624 302.845 200.185 303.83C199.753 304.807 199.537 305.955 199.537 307.273C199.537 308.621 199.749 309.795 200.173 310.795C200.605 311.795 201.211 312.572 201.991 313.125C202.779 313.678 203.704 313.955 204.764 313.955C205.461 313.955 206.094 313.833 206.662 313.591C207.23 313.348 207.711 313 208.105 312.545C208.499 312.091 208.779 311.545 208.946 310.909H211.628C211.476 311.939 211.101 312.867 210.503 313.693C209.912 314.511 209.128 315.163 208.151 315.648C207.181 316.125 206.052 316.364 204.764 316.364ZM203.491 315.909H205.719L205.537 316.818C206.128 316.909 206.67 317.155 207.162 317.557C207.654 317.966 207.901 318.614 207.901 319.5C207.901 320.477 207.495 321.273 206.685 321.886C205.882 322.508 204.696 322.818 203.128 322.818L203.037 321.045C203.741 321.045 204.325 320.932 204.787 320.705C205.257 320.485 205.491 320.114 205.491 319.591C205.491 319.068 205.298 318.712 204.912 318.523C204.526 318.333 203.901 318.205 203.037 318.136L203.491 315.909ZM215.548 316V298.545H218.23V316H215.548ZM216.912 295.636C216.389 295.636 215.938 295.458 215.56 295.102C215.188 294.746 215.003 294.318 215.003 293.818C215.003 293.318 215.188 292.89 215.56 292.534C215.938 292.178 216.389 292 216.912 292C217.435 292 217.882 292.178 218.253 292.534C218.632 292.89 218.821 293.318 218.821 293.818C218.821 294.318 218.632 294.746 218.253 295.102C217.882 295.458 217.435 295.636 216.912 295.636ZM225.824 305.5V316H223.142V298.545H225.733V301.273H225.96C226.369 300.386 226.991 299.674 227.824 299.136C228.657 298.591 229.733 298.318 231.051 298.318C232.233 298.318 233.267 298.561 234.153 299.045C235.04 299.523 235.729 300.25 236.222 301.227C236.714 302.197 236.96 303.424 236.96 304.909V316H234.278V305.091C234.278 303.72 233.922 302.652 233.21 301.886C232.498 301.114 231.521 300.727 230.278 300.727C229.422 300.727 228.657 300.913 227.983 301.284C227.316 301.655 226.79 302.197 226.403 302.909C226.017 303.621 225.824 304.485 225.824 305.5ZM258.179 316.364C256.497 316.364 255.046 315.992 253.827 315.25C252.615 314.5 251.679 313.455 251.02 312.114C250.368 310.765 250.043 309.197 250.043 307.409C250.043 305.621 250.368 304.045 251.02 302.682C251.679 301.311 252.596 300.242 253.77 299.477C254.952 298.705 256.33 298.318 257.906 298.318C258.815 298.318 259.713 298.47 260.599 298.773C261.486 299.076 262.293 299.568 263.02 300.25C263.747 300.924 264.327 301.818 264.759 302.932C265.19 304.045 265.406 305.417 265.406 307.045V308.182H251.952V305.864H262.679C262.679 304.879 262.482 304 262.088 303.227C261.702 302.455 261.149 301.845 260.429 301.398C259.717 300.951 258.876 300.727 257.906 300.727C256.838 300.727 255.914 300.992 255.134 301.523C254.361 302.045 253.766 302.727 253.349 303.568C252.933 304.409 252.724 305.311 252.724 306.273V307.818C252.724 309.136 252.952 310.254 253.406 311.17C253.868 312.08 254.509 312.773 255.327 313.25C256.145 313.72 257.096 313.955 258.179 313.955C258.884 313.955 259.52 313.856 260.088 313.659C260.664 313.455 261.16 313.152 261.577 312.75C261.993 312.341 262.315 311.833 262.543 311.227L265.134 311.955C264.861 312.833 264.402 313.606 263.759 314.273C263.115 314.932 262.319 315.447 261.372 315.818C260.425 316.182 259.361 316.364 258.179 316.364ZM272.168 305.5V316H269.486V298.545H272.077V301.273H272.304C272.713 300.386 273.334 299.674 274.168 299.136C275.001 298.591 276.077 298.318 277.395 298.318C278.577 298.318 279.611 298.561 280.497 299.045C281.384 299.523 282.073 300.25 282.565 301.227C283.058 302.197 283.304 303.424 283.304 304.909V316H280.622V305.091C280.622 303.72 280.266 302.652 279.554 301.886C278.842 301.114 277.865 300.727 276.622 300.727C275.766 300.727 275.001 300.913 274.327 301.284C273.66 301.655 273.134 302.197 272.747 302.909C272.361 303.621 272.168 304.485 272.168 305.5ZM308.205 308.864V298.545H310.886V316H308.205V313.045H308.023C307.614 313.932 306.977 314.686 306.114 315.307C305.25 315.92 304.159 316.227 302.841 316.227C301.75 316.227 300.78 315.989 299.932 315.511C299.083 315.027 298.417 314.299 297.932 313.33C297.447 312.352 297.205 311.121 297.205 309.636V298.545H299.886V309.455C299.886 310.727 300.242 311.742 300.955 312.5C301.674 313.258 302.591 313.636 303.705 313.636C304.371 313.636 305.049 313.466 305.739 313.125C306.436 312.784 307.019 312.261 307.489 311.557C307.966 310.852 308.205 309.955 308.205 308.864ZM317.526 322.545C317.071 322.545 316.666 322.508 316.31 322.432C315.954 322.364 315.707 322.295 315.571 322.227L316.253 319.864C316.904 320.03 317.48 320.091 317.98 320.045C318.48 320 318.923 319.777 319.31 319.375C319.704 318.981 320.063 318.341 320.389 317.455L320.889 316.091L314.435 298.545H317.344L322.162 312.455H322.344L327.162 298.545H330.071L322.662 318.545C322.329 319.447 321.916 320.193 321.423 320.784C320.931 321.383 320.359 321.826 319.707 322.114C319.063 322.402 318.336 322.545 317.526 322.545ZM340.031 322.909C338.736 322.909 337.622 322.742 336.69 322.409C335.759 322.083 334.982 321.652 334.361 321.114C333.747 320.583 333.259 320.015 332.895 319.409L335.031 317.909C335.274 318.227 335.58 318.591 335.952 319C336.323 319.417 336.83 319.777 337.474 320.08C338.126 320.39 338.978 320.545 340.031 320.545C341.44 320.545 342.603 320.205 343.52 319.523C344.437 318.841 344.895 317.773 344.895 316.318V312.773H344.668C344.471 313.091 344.19 313.485 343.827 313.955C343.471 314.417 342.955 314.83 342.281 315.193C341.615 315.549 340.713 315.727 339.577 315.727C338.168 315.727 336.902 315.394 335.781 314.727C334.668 314.061 333.785 313.091 333.134 311.818C332.49 310.545 332.168 309 332.168 307.182C332.168 305.394 332.482 303.837 333.111 302.511C333.74 301.178 334.615 300.148 335.736 299.42C336.857 298.686 338.152 298.318 339.622 298.318C340.759 298.318 341.66 298.508 342.327 298.886C343.001 299.258 343.516 299.682 343.872 300.159C344.236 300.629 344.516 301.015 344.713 301.318H344.986V298.545H347.577V316.5C347.577 318 347.236 319.22 346.554 320.159C345.88 321.106 344.971 321.799 343.827 322.239C342.69 322.686 341.425 322.909 340.031 322.909ZM339.94 313.318C341.016 313.318 341.925 313.072 342.668 312.58C343.41 312.087 343.974 311.379 344.361 310.455C344.747 309.53 344.94 308.424 344.94 307.136C344.94 305.879 344.751 304.769 344.372 303.807C343.993 302.845 343.433 302.091 342.69 301.545C341.948 301 341.031 300.727 339.94 300.727C338.804 300.727 337.857 301.015 337.099 301.591C336.349 302.167 335.785 302.939 335.406 303.909C335.035 304.879 334.849 305.955 334.849 307.136C334.849 308.348 335.039 309.42 335.418 310.352C335.804 311.277 336.372 312.004 337.122 312.534C337.88 313.057 338.819 313.318 339.94 313.318ZM363.486 308.864V298.545H366.168V316H363.486V313.045H363.304C362.895 313.932 362.259 314.686 361.395 315.307C360.531 315.92 359.44 316.227 358.122 316.227C357.031 316.227 356.062 315.989 355.213 315.511C354.365 315.027 353.698 314.299 353.213 313.33C352.728 312.352 352.486 311.121 352.486 309.636V298.545H355.168V309.455C355.168 310.727 355.524 311.742 356.236 312.5C356.955 313.258 357.872 313.636 358.986 313.636C359.652 313.636 360.33 313.466 361.02 313.125C361.717 312.784 362.3 312.261 362.77 311.557C363.247 310.852 363.486 309.955 363.486 308.864ZM373.761 305.5V316H371.08V298.545H373.67V301.273H373.898C374.307 300.386 374.928 299.674 375.761 299.136C376.595 298.591 377.67 298.318 378.989 298.318C380.17 298.318 381.205 298.561 382.091 299.045C382.977 299.523 383.667 300.25 384.159 301.227C384.652 302.197 384.898 303.424 384.898 304.909V316H382.216V305.091C382.216 303.72 381.86 302.652 381.148 301.886C380.436 301.114 379.458 300.727 378.216 300.727C377.36 300.727 376.595 300.913 375.92 301.284C375.254 301.655 374.727 302.197 374.341 302.909C373.955 303.621 373.761 304.485 373.761 305.5ZM405.889 316.364C404.253 316.364 402.844 315.977 401.662 315.205C400.48 314.432 399.571 313.367 398.935 312.011C398.298 310.655 397.98 309.106 397.98 307.364C397.98 305.591 398.306 304.027 398.957 302.67C399.616 301.307 400.533 300.242 401.707 299.477C402.889 298.705 404.268 298.318 405.844 298.318C407.071 298.318 408.177 298.545 409.162 299C410.147 299.455 410.954 300.091 411.582 300.909C412.211 301.727 412.601 302.682 412.753 303.773H410.071C409.866 302.977 409.412 302.273 408.707 301.659C408.01 301.038 407.071 300.727 405.889 300.727C404.844 300.727 403.927 301 403.139 301.545C402.359 302.083 401.749 302.845 401.31 303.83C400.878 304.807 400.662 305.955 400.662 307.273C400.662 308.621 400.874 309.795 401.298 310.795C401.73 311.795 402.336 312.572 403.116 313.125C403.904 313.678 404.829 313.955 405.889 313.955C406.586 313.955 407.219 313.833 407.787 313.591C408.355 313.348 408.836 313 409.23 312.545C409.624 312.091 409.904 311.545 410.071 310.909H412.753C412.601 311.939 412.226 312.867 411.628 313.693C411.037 314.511 410.253 315.163 409.276 315.648C408.306 316.125 407.177 316.364 405.889 316.364ZM404.616 315.909H406.844L406.662 316.818C407.253 316.909 407.795 317.155 408.287 317.557C408.779 317.966 409.026 318.614 409.026 319.5C409.026 320.477 408.62 321.273 407.81 321.886C407.007 322.508 405.821 322.818 404.253 322.818L404.162 321.045C404.866 321.045 405.45 320.932 405.912 320.705C406.382 320.485 406.616 320.114 406.616 319.591C406.616 319.068 406.423 318.712 406.037 318.523C405.651 318.333 405.026 318.205 404.162 318.136L404.616 315.909ZM423.764 316.364C422.188 316.364 420.806 315.989 419.616 315.239C418.435 314.489 417.51 313.439 416.844 312.091C416.185 310.742 415.855 309.167 415.855 307.364C415.855 305.545 416.185 303.958 416.844 302.602C417.51 301.246 418.435 300.193 419.616 299.443C420.806 298.693 422.188 298.318 423.764 298.318C425.34 298.318 426.719 298.693 427.901 299.443C429.09 300.193 430.014 301.246 430.673 302.602C431.34 303.958 431.673 305.545 431.673 307.364C431.673 309.167 431.34 310.742 430.673 312.091C430.014 313.439 429.09 314.489 427.901 315.239C426.719 315.989 425.34 316.364 423.764 316.364ZM423.764 313.955C424.961 313.955 425.946 313.648 426.719 313.034C427.491 312.42 428.063 311.614 428.435 310.614C428.806 309.614 428.991 308.53 428.991 307.364C428.991 306.197 428.806 305.11 428.435 304.102C428.063 303.095 427.491 302.28 426.719 301.659C425.946 301.038 424.961 300.727 423.764 300.727C422.567 300.727 421.582 301.038 420.81 301.659C420.037 302.28 419.465 303.095 419.094 304.102C418.723 305.11 418.537 306.197 418.537 307.364C418.537 308.53 418.723 309.614 419.094 310.614C419.465 311.614 420.037 312.42 420.81 313.034C421.582 313.648 422.567 313.955 423.764 313.955ZM420.491 295.636C420.014 295.636 419.59 295.455 419.219 295.091C418.855 294.72 418.673 294.295 418.673 293.818C418.673 293.295 418.855 292.864 419.219 292.523C419.59 292.174 420.014 292 420.491 292C421.014 292 421.446 292.174 421.787 292.523C422.135 292.864 422.31 293.295 422.31 293.818C422.31 294.295 422.135 294.72 421.787 295.091C421.446 295.455 421.014 295.636 420.491 295.636ZM427.037 295.636C426.56 295.636 426.135 295.455 425.764 295.091C425.401 294.72 425.219 294.295 425.219 293.818C425.219 293.295 425.401 292.864 425.764 292.523C426.135 292.174 426.56 292 427.037 292C427.56 292 427.991 292.174 428.332 292.523C428.681 292.864 428.855 293.295 428.855 293.818C428.855 294.295 428.681 294.72 428.332 295.091C427.991 295.455 427.56 295.636 427.037 295.636ZM435.267 316V313.955L445.176 301.227V301.045H435.585V298.545H448.631V300.682L438.994 313.318V313.5H448.949V316H435.267ZM464.08 308.864V298.545H466.761V316H464.08V313.045H463.898C463.489 313.932 462.852 314.686 461.989 315.307C461.125 315.92 460.034 316.227 458.716 316.227C457.625 316.227 456.655 315.989 455.807 315.511C454.958 315.027 454.292 314.299 453.807 313.33C453.322 312.352 453.08 311.121 453.08 309.636V298.545H455.761V309.455C455.761 310.727 456.117 311.742 456.83 312.5C457.549 313.258 458.466 313.636 459.58 313.636C460.246 313.636 460.924 313.466 461.614 313.125C462.311 312.784 462.894 312.261 463.364 311.557C463.841 310.852 464.08 309.955 464.08 308.864ZM456.67 295.636C456.193 295.636 455.769 295.455 455.398 295.091C455.034 294.72 454.852 294.295 454.852 293.818C454.852 293.295 455.034 292.864 455.398 292.523C455.769 292.174 456.193 292 456.67 292C457.193 292 457.625 292.174 457.966 292.523C458.314 292.864 458.489 293.295 458.489 293.818C458.489 294.295 458.314 294.72 457.966 295.091C457.625 295.455 457.193 295.636 456.67 295.636ZM463.216 295.636C462.739 295.636 462.314 295.455 461.943 295.091C461.58 294.72 461.398 294.295 461.398 293.818C461.398 293.295 461.58 292.864 461.943 292.523C462.314 292.174 462.739 292 463.216 292C463.739 292 464.17 292.174 464.511 292.523C464.86 292.864 465.034 293.295 465.034 293.818C465.034 294.295 464.86 294.72 464.511 295.091C464.17 295.455 463.739 295.636 463.216 295.636ZM471.673 316V298.545H474.264V301.273H474.491C474.855 300.341 475.442 299.617 476.253 299.102C477.063 298.58 478.037 298.318 479.173 298.318C480.325 298.318 481.283 298.58 482.048 299.102C482.821 299.617 483.423 300.341 483.855 301.273H484.037C484.484 300.371 485.154 299.655 486.048 299.125C486.942 298.587 488.014 298.318 489.264 298.318C490.825 298.318 492.101 298.807 493.094 299.784C494.086 300.754 494.582 302.265 494.582 304.318V316H491.901V304.318C491.901 303.03 491.548 302.11 490.844 301.557C490.139 301.004 489.31 300.727 488.355 300.727C487.128 300.727 486.177 301.098 485.503 301.841C484.829 302.576 484.491 303.508 484.491 304.636V316H481.764V304.045C481.764 303.053 481.442 302.254 480.798 301.648C480.154 301.034 479.325 300.727 478.31 300.727C477.613 300.727 476.961 300.913 476.355 301.284C475.757 301.655 475.272 302.17 474.901 302.83C474.537 303.481 474.355 304.235 474.355 305.091V316H471.673ZM510.486 308.864V298.545H513.168V316H510.486V313.045H510.304C509.895 313.932 509.259 314.686 508.395 315.307C507.531 315.92 506.44 316.227 505.122 316.227C504.031 316.227 503.062 315.989 502.213 315.511C501.365 315.027 500.698 314.299 500.213 313.33C499.728 312.352 499.486 311.121 499.486 309.636V298.545H502.168V309.455C502.168 310.727 502.524 311.742 503.236 312.5C503.955 313.258 504.872 313.636 505.986 313.636C506.652 313.636 507.33 313.466 508.02 313.125C508.717 312.784 509.3 312.261 509.77 311.557C510.247 310.852 510.486 309.955 510.486 308.864ZM503.077 295.636C502.599 295.636 502.175 295.455 501.804 295.091C501.44 294.72 501.259 294.295 501.259 293.818C501.259 293.295 501.44 292.864 501.804 292.523C502.175 292.174 502.599 292 503.077 292C503.599 292 504.031 292.174 504.372 292.523C504.721 292.864 504.895 293.295 504.895 293.818C504.895 294.295 504.721 294.72 504.372 295.091C504.031 295.455 503.599 295.636 503.077 295.636ZM509.622 295.636C509.145 295.636 508.721 295.455 508.349 295.091C507.986 294.72 507.804 294.295 507.804 293.818C507.804 293.295 507.986 292.864 508.349 292.523C508.721 292.174 509.145 292 509.622 292C510.145 292 510.577 292.174 510.918 292.523C511.266 292.864 511.44 293.295 511.44 293.818C511.44 294.295 511.266 294.72 510.918 295.091C510.577 295.455 510.145 295.636 509.622 295.636ZM527.443 316V292.727H530.125V301.318H530.352C530.549 301.015 530.822 300.629 531.17 300.159C531.527 299.682 532.034 299.258 532.693 298.886C533.36 298.508 534.261 298.318 535.398 298.318C536.867 298.318 538.163 298.686 539.284 299.42C540.405 300.155 541.28 301.197 541.909 302.545C542.538 303.894 542.852 305.485 542.852 307.318C542.852 309.167 542.538 310.769 541.909 312.125C541.28 313.473 540.409 314.519 539.295 315.261C538.182 315.996 536.898 316.364 535.443 316.364C534.322 316.364 533.424 316.178 532.75 315.807C532.076 315.428 531.557 315 531.193 314.523C530.83 314.038 530.549 313.636 530.352 313.318H530.034V316H527.443ZM530.08 307.273C530.08 308.591 530.273 309.754 530.659 310.761C531.045 311.761 531.61 312.545 532.352 313.114C533.095 313.674 534.004 313.955 535.08 313.955C536.201 313.955 537.136 313.659 537.886 313.068C538.644 312.47 539.212 311.667 539.591 310.659C539.977 309.644 540.17 308.515 540.17 307.273C540.17 306.045 539.981 304.939 539.602 303.955C539.231 302.962 538.667 302.178 537.909 301.602C537.159 301.019 536.216 300.727 535.08 300.727C533.989 300.727 533.072 301.004 532.33 301.557C531.587 302.102 531.027 302.867 530.648 303.852C530.269 304.83 530.08 305.97 530.08 307.273ZM557.955 308.864V298.545H560.636V316H557.955V313.045H557.773C557.364 313.932 556.727 314.686 555.864 315.307C555 315.92 553.909 316.227 552.591 316.227C551.5 316.227 550.53 315.989 549.682 315.511C548.833 315.027 548.167 314.299 547.682 313.33C547.197 312.352 546.955 311.121 546.955 309.636V298.545H549.636V309.455C549.636 310.727 549.992 311.742 550.705 312.5C551.424 313.258 552.341 313.636 553.455 313.636C554.121 313.636 554.799 313.466 555.489 313.125C556.186 312.784 556.769 312.261 557.239 311.557C557.716 310.852 557.955 309.955 557.955 308.864ZM568.23 292.727V316H565.548V292.727H568.23ZM573.142 316V298.545H575.733V301.273H575.96C576.324 300.341 576.911 299.617 577.722 299.102C578.532 298.58 579.506 298.318 580.642 298.318C581.794 298.318 582.752 298.58 583.517 299.102C584.29 299.617 584.892 300.341 585.324 301.273H585.506C585.953 300.371 586.623 299.655 587.517 299.125C588.411 298.587 589.483 298.318 590.733 298.318C592.294 298.318 593.57 298.807 594.562 299.784C595.555 300.754 596.051 302.265 596.051 304.318V316H593.369V304.318C593.369 303.03 593.017 302.11 592.312 301.557C591.608 301.004 590.778 300.727 589.824 300.727C588.597 300.727 587.646 301.098 586.972 301.841C586.297 302.576 585.96 303.508 585.96 304.636V316H583.233V304.045C583.233 303.053 582.911 302.254 582.267 301.648C581.623 301.034 580.794 300.727 579.778 300.727C579.081 300.727 578.43 300.913 577.824 301.284C577.225 301.655 576.741 302.17 576.369 302.83C576.006 303.481 575.824 304.235 575.824 305.091V316H573.142ZM606.091 316.409C604.985 316.409 603.981 316.201 603.08 315.784C602.178 315.36 601.462 314.75 600.932 313.955C600.402 313.152 600.136 312.182 600.136 311.045C600.136 310.045 600.333 309.235 600.727 308.614C601.121 307.985 601.648 307.492 602.307 307.136C602.966 306.78 603.693 306.515 604.489 306.341C605.292 306.159 606.098 306.015 606.909 305.909C607.97 305.773 608.83 305.67 609.489 305.602C610.155 305.527 610.64 305.402 610.943 305.227C611.254 305.053 611.409 304.75 611.409 304.318V304.227C611.409 303.106 611.102 302.235 610.489 301.614C609.883 300.992 608.962 300.682 607.727 300.682C606.447 300.682 605.443 300.962 604.716 301.523C603.989 302.083 603.477 302.682 603.182 303.318L600.636 302.409C601.091 301.348 601.697 300.523 602.455 299.932C603.22 299.333 604.053 298.917 604.955 298.682C605.864 298.439 606.758 298.318 607.636 298.318C608.197 298.318 608.841 298.386 609.568 298.523C610.303 298.652 611.011 298.92 611.693 299.33C612.383 299.739 612.955 300.356 613.409 301.182C613.864 302.008 614.091 303.114 614.091 304.5V316H611.409V313.636H611.273C611.091 314.015 610.788 314.42 610.364 314.852C609.939 315.284 609.375 315.652 608.67 315.955C607.966 316.258 607.106 316.409 606.091 316.409ZM606.5 314C607.561 314 608.455 313.792 609.182 313.375C609.917 312.958 610.47 312.42 610.841 311.761C611.22 311.102 611.409 310.409 611.409 309.682V307.227C611.295 307.364 611.045 307.489 610.659 307.602C610.28 307.708 609.841 307.803 609.341 307.886C608.848 307.962 608.367 308.03 607.898 308.091C607.436 308.144 607.061 308.189 606.773 308.227C606.076 308.318 605.424 308.466 604.818 308.67C604.22 308.867 603.735 309.167 603.364 309.568C603 309.962 602.818 310.5 602.818 311.182C602.818 312.114 603.163 312.818 603.852 313.295C604.549 313.765 605.432 314 606.5 314ZM621.486 309.636L621.44 306.318H621.986L629.622 298.545H632.94L624.804 306.773H624.577L621.486 309.636ZM618.986 316V292.727H621.668V316H618.986ZM630.077 316L623.259 307.364L625.168 305.5L633.486 316H630.077ZM645.392 316V298.545H648.074V316H645.392ZM646.756 295.636C646.233 295.636 645.782 295.458 645.403 295.102C645.032 294.746 644.847 294.318 644.847 293.818C644.847 293.318 645.032 292.89 645.403 292.534C645.782 292.178 646.233 292 646.756 292C647.278 292 647.725 292.178 648.097 292.534C648.475 292.89 648.665 293.318 648.665 293.818C648.665 294.318 648.475 294.746 648.097 295.102C647.725 295.458 647.278 295.636 646.756 295.636ZM660.077 316.364C658.44 316.364 657.031 315.977 655.849 315.205C654.668 314.432 653.759 313.367 653.122 312.011C652.486 310.655 652.168 309.106 652.168 307.364C652.168 305.591 652.493 304.027 653.145 302.67C653.804 301.307 654.721 300.242 655.895 299.477C657.077 298.705 658.455 298.318 660.031 298.318C661.259 298.318 662.365 298.545 663.349 299C664.334 299.455 665.141 300.091 665.77 300.909C666.399 301.727 666.789 302.682 666.94 303.773H664.259C664.054 302.977 663.599 302.273 662.895 301.659C662.198 301.038 661.259 300.727 660.077 300.727C659.031 300.727 658.115 301 657.327 301.545C656.546 302.083 655.937 302.845 655.497 303.83C655.065 304.807 654.849 305.955 654.849 307.273C654.849 308.621 655.062 309.795 655.486 310.795C655.918 311.795 656.524 312.572 657.304 313.125C658.092 313.678 659.016 313.955 660.077 313.955C660.774 313.955 661.406 313.833 661.974 313.591C662.543 313.348 663.024 313 663.418 312.545C663.812 312.091 664.092 311.545 664.259 310.909H666.94C666.789 311.939 666.414 312.867 665.815 313.693C665.224 314.511 664.44 315.163 663.463 315.648C662.493 316.125 661.365 316.364 660.077 316.364ZM658.804 315.909H661.031L660.849 316.818C661.44 316.909 661.982 317.155 662.474 317.557C662.967 317.966 663.213 318.614 663.213 319.5C663.213 320.477 662.808 321.273 661.997 321.886C661.194 322.508 660.009 322.818 658.44 322.818L658.349 321.045C659.054 321.045 659.637 320.932 660.099 320.705C660.569 320.485 660.804 320.114 660.804 319.591C660.804 319.068 660.611 318.712 660.224 318.523C659.838 318.333 659.213 318.205 658.349 318.136L658.804 315.909ZM670.861 316V298.545H673.543V316H670.861ZM672.224 295.636C671.702 295.636 671.251 295.458 670.872 295.102C670.501 294.746 670.315 294.318 670.315 293.818C670.315 293.318 670.501 292.89 670.872 292.534C671.251 292.178 671.702 292 672.224 292C672.747 292 673.194 292.178 673.565 292.534C673.944 292.89 674.134 293.318 674.134 293.818C674.134 294.318 673.944 294.746 673.565 295.102C673.194 295.458 672.747 295.636 672.224 295.636ZM681.136 305.5V316H678.455V298.545H681.045V301.273H681.273C681.682 300.386 682.303 299.674 683.136 299.136C683.97 298.591 685.045 298.318 686.364 298.318C687.545 298.318 688.58 298.561 689.466 299.045C690.352 299.523 691.042 300.25 691.534 301.227C692.027 302.197 692.273 303.424 692.273 304.909V316H689.591V305.091C689.591 303.72 689.235 302.652 688.523 301.886C687.811 301.114 686.833 300.727 685.591 300.727C684.735 300.727 683.97 300.913 683.295 301.284C682.629 301.655 682.102 302.197 681.716 302.909C681.33 303.621 681.136 304.485 681.136 305.5ZM706.537 316V292.727H709.219V301.318H709.446C709.643 301.015 709.916 300.629 710.264 300.159C710.62 299.682 711.128 299.258 711.787 298.886C712.454 298.508 713.355 298.318 714.491 298.318C715.961 298.318 717.257 298.686 718.378 299.42C719.499 300.155 720.374 301.197 721.003 302.545C721.632 303.894 721.946 305.485 721.946 307.318C721.946 309.167 721.632 310.769 721.003 312.125C720.374 313.473 719.503 314.519 718.389 315.261C717.276 315.996 715.991 316.364 714.537 316.364C713.416 316.364 712.518 316.178 711.844 315.807C711.17 315.428 710.651 315 710.287 314.523C709.923 314.038 709.643 313.636 709.446 313.318H709.128V316H706.537ZM709.173 307.273C709.173 308.591 709.366 309.754 709.753 310.761C710.139 311.761 710.704 312.545 711.446 313.114C712.188 313.674 713.098 313.955 714.173 313.955C715.295 313.955 716.23 313.659 716.98 313.068C717.738 312.47 718.306 311.667 718.685 310.659C719.071 309.644 719.264 308.515 719.264 307.273C719.264 306.045 719.075 304.939 718.696 303.955C718.325 302.962 717.76 302.178 717.003 301.602C716.253 301.019 715.31 300.727 714.173 300.727C713.082 300.727 712.166 301.004 711.423 301.557C710.681 302.102 710.12 302.867 709.741 303.852C709.363 304.83 709.173 305.97 709.173 307.273ZM737.048 308.864V298.545H739.73V316H737.048V313.045H736.866C736.457 313.932 735.821 314.686 734.957 315.307C734.094 315.92 733.003 316.227 731.685 316.227C730.594 316.227 729.624 315.989 728.776 315.511C727.927 315.027 727.26 314.299 726.776 313.33C726.291 312.352 726.048 311.121 726.048 309.636V298.545H728.73V309.455C728.73 310.727 729.086 311.742 729.798 312.5C730.518 313.258 731.435 313.636 732.548 313.636C733.215 313.636 733.893 313.466 734.582 313.125C735.279 312.784 735.863 312.261 736.332 311.557C736.81 310.852 737.048 309.955 737.048 308.864ZM744.642 316V298.545H747.233V301.182H747.415C747.733 300.318 748.309 299.617 749.142 299.08C749.975 298.542 750.915 298.273 751.96 298.273C752.157 298.273 752.403 298.277 752.699 298.284C752.994 298.292 753.218 298.303 753.369 298.318V301.045C753.278 301.023 753.07 300.989 752.744 300.943C752.426 300.89 752.089 300.864 751.733 300.864C750.884 300.864 750.127 301.042 749.46 301.398C748.801 301.746 748.278 302.231 747.892 302.852C747.513 303.466 747.324 304.167 747.324 304.955V316H744.642ZM761.685 316.409C760.579 316.409 759.575 316.201 758.673 315.784C757.772 315.36 757.056 314.75 756.526 313.955C755.995 313.152 755.73 312.182 755.73 311.045C755.73 310.045 755.927 309.235 756.321 308.614C756.715 307.985 757.241 307.492 757.901 307.136C758.56 306.78 759.287 306.515 760.082 306.341C760.885 306.159 761.692 306.015 762.503 305.909C763.563 305.773 764.423 305.67 765.082 305.602C765.749 305.527 766.234 305.402 766.537 305.227C766.848 305.053 767.003 304.75 767.003 304.318V304.227C767.003 303.106 766.696 302.235 766.082 301.614C765.476 300.992 764.556 300.682 763.321 300.682C762.041 300.682 761.037 300.962 760.31 301.523C759.582 302.083 759.071 302.682 758.776 303.318L756.23 302.409C756.685 301.348 757.291 300.523 758.048 299.932C758.813 299.333 759.647 298.917 760.548 298.682C761.457 298.439 762.351 298.318 763.23 298.318C763.791 298.318 764.435 298.386 765.162 298.523C765.897 298.652 766.605 298.92 767.287 299.33C767.976 299.739 768.548 300.356 769.003 301.182C769.457 302.008 769.685 303.114 769.685 304.5V316H767.003V313.636H766.866C766.685 314.015 766.382 314.42 765.957 314.852C765.533 315.284 764.969 315.652 764.264 315.955C763.56 316.258 762.7 316.409 761.685 316.409ZM762.094 314C763.154 314 764.048 313.792 764.776 313.375C765.51 312.958 766.063 312.42 766.435 311.761C766.813 311.102 767.003 310.409 767.003 309.682V307.227C766.889 307.364 766.639 307.489 766.253 307.602C765.874 307.708 765.435 307.803 764.935 307.886C764.442 307.962 763.961 308.03 763.491 308.091C763.029 308.144 762.654 308.189 762.366 308.227C761.67 308.318 761.018 308.466 760.412 308.67C759.813 308.867 759.329 309.167 758.957 309.568C758.594 309.962 758.412 310.5 758.412 311.182C758.412 312.114 758.757 312.818 759.446 313.295C760.143 313.765 761.026 314 762.094 314ZM781.17 316.364C779.716 316.364 778.432 315.996 777.318 315.261C776.205 314.519 775.333 313.473 774.705 312.125C774.076 310.769 773.761 309.167 773.761 307.318C773.761 305.485 774.076 303.894 774.705 302.545C775.333 301.197 776.208 300.155 777.33 299.42C778.451 298.686 779.746 298.318 781.216 298.318C782.352 298.318 783.25 298.508 783.909 298.886C784.576 299.258 785.083 299.682 785.432 300.159C785.788 300.629 786.064 301.015 786.261 301.318H786.489V292.727H789.17V316H786.58V313.318H786.261C786.064 313.636 785.784 314.038 785.42 314.523C785.057 315 784.538 315.428 783.864 315.807C783.189 316.178 782.292 316.364 781.17 316.364ZM781.534 313.955C782.61 313.955 783.519 313.674 784.261 313.114C785.004 312.545 785.568 311.761 785.955 310.761C786.341 309.754 786.534 308.591 786.534 307.273C786.534 305.97 786.345 304.83 785.966 303.852C785.587 302.867 785.027 302.102 784.284 301.557C783.542 301.004 782.625 300.727 781.534 300.727C780.398 300.727 779.451 301.019 778.693 301.602C777.943 302.178 777.379 302.962 777 303.955C776.629 304.939 776.443 306.045 776.443 307.273C776.443 308.515 776.633 309.644 777.011 310.659C777.398 311.667 777.966 312.47 778.716 313.068C779.473 313.659 780.413 313.955 781.534 313.955ZM799.591 316.409C798.485 316.409 797.481 316.201 796.58 315.784C795.678 315.36 794.962 314.75 794.432 313.955C793.902 313.152 793.636 312.182 793.636 311.045C793.636 310.045 793.833 309.235 794.227 308.614C794.621 307.985 795.148 307.492 795.807 307.136C796.466 306.78 797.193 306.515 797.989 306.341C798.792 306.159 799.598 306.015 800.409 305.909C801.47 305.773 802.33 305.67 802.989 305.602C803.655 305.527 804.14 305.402 804.443 305.227C804.754 305.053 804.909 304.75 804.909 304.318V304.227C804.909 303.106 804.602 302.235 803.989 301.614C803.383 300.992 802.462 300.682 801.227 300.682C799.947 300.682 798.943 300.962 798.216 301.523C797.489 302.083 796.977 302.682 796.682 303.318L794.136 302.409C794.591 301.348 795.197 300.523 795.955 299.932C796.72 299.333 797.553 298.917 798.455 298.682C799.364 298.439 800.258 298.318 801.136 298.318C801.697 298.318 802.341 298.386 803.068 298.523C803.803 298.652 804.511 298.92 805.193 299.33C805.883 299.739 806.455 300.356 806.909 301.182C807.364 302.008 807.591 303.114 807.591 304.5V316H804.909V313.636H804.773C804.591 314.015 804.288 314.42 803.864 314.852C803.439 315.284 802.875 315.652 802.17 315.955C801.466 316.258 800.606 316.409 799.591 316.409ZM800 314C801.061 314 801.955 313.792 802.682 313.375C803.417 312.958 803.97 312.42 804.341 311.761C804.72 311.102 804.909 310.409 804.909 309.682V307.227C804.795 307.364 804.545 307.489 804.159 307.602C803.78 307.708 803.341 307.803 802.841 307.886C802.348 307.962 801.867 308.03 801.398 308.091C800.936 308.144 800.561 308.189 800.273 308.227C799.576 308.318 798.924 308.466 798.318 308.67C797.72 308.867 797.235 309.167 796.864 309.568C796.5 309.962 796.318 310.5 796.318 311.182C796.318 312.114 796.663 312.818 797.352 313.295C798.049 313.765 798.932 314 800 314ZM813.588 322.545C813.134 322.545 812.728 322.508 812.372 322.432C812.016 322.364 811.77 322.295 811.634 322.227L812.315 319.864C812.967 320.03 813.543 320.091 814.043 320.045C814.543 320 814.986 319.777 815.372 319.375C815.766 318.981 816.126 318.341 816.452 317.455L816.952 316.091L810.497 298.545H813.406L818.224 312.455H818.406L823.224 298.545H826.134L818.724 318.545C818.391 319.447 817.978 320.193 817.486 320.784C816.993 321.383 816.421 321.826 815.77 322.114C815.126 322.402 814.399 322.545 813.588 322.545ZM829.673 316V298.545H832.355V316H829.673ZM836.767 316V313.955L846.676 301.227V301.045H837.085V298.545H850.131V300.682L840.494 313.318V313.5H850.449V316H836.767ZM858.125 292.727L857.898 309.455H855.261L855.034 292.727H858.125ZM856.58 316.182C856.019 316.182 855.538 315.981 855.136 315.58C854.735 315.178 854.534 314.697 854.534 314.136C854.534 313.576 854.735 313.095 855.136 312.693C855.538 312.292 856.019 312.091 856.58 312.091C857.14 312.091 857.621 312.292 858.023 312.693C858.424 313.095 858.625 313.576 858.625 314.136C858.625 314.508 858.53 314.848 858.341 315.159C858.159 315.47 857.913 315.72 857.602 315.909C857.299 316.091 856.958 316.182 856.58 316.182ZM872.849 292.727H876.213L884.122 312.045H884.395L892.304 292.727H895.668V316H893.031V298.318H892.804L885.531 316H882.986L875.713 298.318H875.486V316H872.849V292.727ZM911.955 308.864V298.545H914.636V316H911.955V313.045H911.773C911.364 313.932 910.727 314.686 909.864 315.307C909 315.92 907.909 316.227 906.591 316.227C905.5 316.227 904.53 315.989 903.682 315.511C902.833 315.027 902.167 314.299 901.682 313.33C901.197 312.352 900.955 311.121 900.955 309.636V298.545H903.636V309.455C903.636 310.727 903.992 311.742 904.705 312.5C905.424 313.258 906.341 313.636 907.455 313.636C908.121 313.636 908.799 313.466 909.489 313.125C910.186 312.784 910.769 312.261 911.239 311.557C911.716 310.852 911.955 309.955 911.955 308.864ZM904.545 295.636C904.068 295.636 903.644 295.455 903.273 295.091C902.909 294.72 902.727 294.295 902.727 293.818C902.727 293.295 902.909 292.864 903.273 292.523C903.644 292.174 904.068 292 904.545 292C905.068 292 905.5 292.174 905.841 292.523C906.189 292.864 906.364 293.295 906.364 293.818C906.364 294.295 906.189 294.72 905.841 295.091C905.5 295.455 905.068 295.636 904.545 295.636ZM911.091 295.636C910.614 295.636 910.189 295.455 909.818 295.091C909.455 294.72 909.273 294.295 909.273 293.818C909.273 293.295 909.455 292.864 909.818 292.523C910.189 292.174 910.614 292 911.091 292C911.614 292 912.045 292.174 912.386 292.523C912.735 292.864 912.909 293.295 912.909 293.818C912.909 294.295 912.735 294.72 912.386 295.091C912.045 295.455 911.614 295.636 911.091 295.636ZM922.23 305.5V316H919.548V292.727H922.23V301.273H922.457C922.866 300.371 923.48 299.655 924.298 299.125C925.124 298.587 926.223 298.318 927.594 298.318C928.783 298.318 929.825 298.557 930.719 299.034C931.613 299.504 932.306 300.227 932.798 301.205C933.298 302.174 933.548 303.409 933.548 304.909V316H930.866V305.091C930.866 303.705 930.507 302.633 929.787 301.875C929.075 301.11 928.086 300.727 926.821 300.727C925.942 300.727 925.154 300.913 924.457 301.284C923.768 301.655 923.223 302.197 922.821 302.909C922.427 303.621 922.23 304.485 922.23 305.5ZM945.773 316.364C944.091 316.364 942.64 315.992 941.42 315.25C940.208 314.5 939.273 313.455 938.614 312.114C937.962 310.765 937.636 309.197 937.636 307.409C937.636 305.621 937.962 304.045 938.614 302.682C939.273 301.311 940.189 300.242 941.364 299.477C942.545 298.705 943.924 298.318 945.5 298.318C946.409 298.318 947.307 298.47 948.193 298.773C949.08 299.076 949.886 299.568 950.614 300.25C951.341 300.924 951.92 301.818 952.352 302.932C952.784 304.045 953 305.417 953 307.045V308.182H939.545V305.864H950.273C950.273 304.879 950.076 304 949.682 303.227C949.295 302.455 948.742 301.845 948.023 301.398C947.311 300.951 946.47 300.727 945.5 300.727C944.432 300.727 943.508 300.992 942.727 301.523C941.955 302.045 941.36 302.727 940.943 303.568C940.527 304.409 940.318 305.311 940.318 306.273V307.818C940.318 309.136 940.545 310.254 941 311.17C941.462 312.08 942.102 312.773 942.92 313.25C943.739 313.72 944.689 313.955 945.773 313.955C946.477 313.955 947.114 313.856 947.682 313.659C948.258 313.455 948.754 313.152 949.17 312.75C949.587 312.341 949.909 311.833 950.136 311.227L952.727 311.955C952.455 312.833 951.996 313.606 951.352 314.273C950.708 314.932 949.913 315.447 948.966 315.818C948.019 316.182 946.955 316.364 945.773 316.364ZM959.761 305.5V316H957.08V298.545H959.67V301.273H959.898C960.307 300.386 960.928 299.674 961.761 299.136C962.595 298.591 963.67 298.318 964.989 298.318C966.17 298.318 967.205 298.561 968.091 299.045C968.977 299.523 969.667 300.25 970.159 301.227C970.652 302.197 970.898 303.424 970.898 304.909V316H968.216V305.091C968.216 303.72 967.86 302.652 967.148 301.886C966.436 301.114 965.458 300.727 964.216 300.727C963.36 300.727 962.595 300.913 961.92 301.284C961.254 301.655 960.727 302.197 960.341 302.909C959.955 303.621 959.761 304.485 959.761 305.5ZM982.389 316.364C980.935 316.364 979.651 315.996 978.537 315.261C977.423 314.519 976.552 313.473 975.923 312.125C975.295 310.769 974.98 309.167 974.98 307.318C974.98 305.485 975.295 303.894 975.923 302.545C976.552 301.197 977.427 300.155 978.548 299.42C979.67 298.686 980.965 298.318 982.435 298.318C983.571 298.318 984.469 298.508 985.128 298.886C985.795 299.258 986.302 299.682 986.651 300.159C987.007 300.629 987.283 301.015 987.48 301.318H987.707V292.727H990.389V316H987.798V313.318H987.48C987.283 313.636 987.003 314.038 986.639 314.523C986.276 315 985.757 315.428 985.082 315.807C984.408 316.178 983.51 316.364 982.389 316.364ZM982.753 313.955C983.829 313.955 984.738 313.674 985.48 313.114C986.223 312.545 986.787 311.761 987.173 310.761C987.56 309.754 987.753 308.591 987.753 307.273C987.753 305.97 987.563 304.83 987.185 303.852C986.806 302.867 986.245 302.102 985.503 301.557C984.76 301.004 983.844 300.727 982.753 300.727C981.616 300.727 980.67 301.019 979.912 301.602C979.162 302.178 978.598 302.962 978.219 303.955C977.848 304.939 977.662 306.045 977.662 307.273C977.662 308.515 977.851 309.644 978.23 310.659C978.616 311.667 979.185 312.47 979.935 313.068C980.692 313.659 981.632 313.955 982.753 313.955ZM995.673 316V298.545H998.355V316H995.673ZM997.037 295.636C996.514 295.636 996.063 295.458 995.685 295.102C995.313 294.746 995.128 294.318 995.128 293.818C995.128 293.318 995.313 292.89 995.685 292.534C996.063 292.178 996.514 292 997.037 292C997.56 292 998.007 292.178 998.378 292.534C998.757 292.89 998.946 293.318 998.946 293.818C998.946 294.318 998.757 294.746 998.378 295.102C998.007 295.458 997.56 295.636 997.037 295.636ZM1015.63 302.455L1013.22 303.136C1013.07 302.735 1012.85 302.345 1012.55 301.966C1012.26 301.58 1011.87 301.261 1011.37 301.011C1010.87 300.761 1010.23 300.636 1009.45 300.636C1008.38 300.636 1007.49 300.883 1006.78 301.375C1006.07 301.86 1005.72 302.477 1005.72 303.227C1005.72 303.894 1005.96 304.42 1006.45 304.807C1006.93 305.193 1007.69 305.515 1008.72 305.773L1011.31 306.409C1012.87 306.788 1014.04 307.367 1014.8 308.148C1015.57 308.92 1015.95 309.917 1015.95 311.136C1015.95 312.136 1015.66 313.03 1015.09 313.818C1014.52 314.606 1013.72 315.227 1012.7 315.682C1011.68 316.136 1010.49 316.364 1009.13 316.364C1007.35 316.364 1005.88 315.977 1004.71 315.205C1003.54 314.432 1002.8 313.303 1002.49 311.818L1005.04 311.182C1005.28 312.121 1005.74 312.826 1006.41 313.295C1007.1 313.765 1007.99 314 1009.09 314C1010.34 314 1011.33 313.735 1012.06 313.205C1012.8 312.667 1013.18 312.023 1013.18 311.273C1013.18 310.667 1012.96 310.159 1012.54 309.75C1012.12 309.333 1011.46 309.023 1010.59 308.818L1007.68 308.136C1006.08 307.758 1004.9 307.17 1004.15 306.375C1003.41 305.572 1003.04 304.568 1003.04 303.364C1003.04 302.379 1003.32 301.508 1003.87 300.75C1004.43 299.992 1005.19 299.398 1006.15 298.966C1007.12 298.534 1008.22 298.318 1009.45 298.318C1011.18 298.318 1012.53 298.697 1013.52 299.455C1014.51 300.212 1015.21 301.212 1015.63 302.455ZM1022.67 292.727V316H1019.99V292.727H1022.67ZM1027.58 316V298.545H1030.26V316H1027.58ZM1028.94 295.636C1028.42 295.636 1027.97 295.458 1027.59 295.102C1027.22 294.746 1027.03 294.318 1027.03 293.818C1027.03 293.318 1027.22 292.89 1027.59 292.534C1027.97 292.178 1028.42 292 1028.94 292C1029.47 292 1029.91 292.178 1030.28 292.534C1030.66 292.89 1030.85 293.318 1030.85 293.818C1030.85 294.318 1030.66 294.746 1030.28 295.102C1029.91 295.458 1029.47 295.636 1028.94 295.636ZM1037.67 309.636L1037.63 306.318H1038.17L1045.81 298.545H1049.13L1040.99 306.773H1040.76L1037.67 309.636ZM1035.17 316V292.727H1037.86V316H1035.17ZM1046.26 316L1039.45 307.364L1041.36 305.5L1049.67 316H1046.26ZM1072.58 308.864V298.545H1075.26V316H1072.58V313.045H1072.4C1071.99 313.932 1071.35 314.686 1070.49 315.307C1069.63 315.92 1068.53 316.227 1067.22 316.227C1066.12 316.227 1065.16 315.989 1064.31 315.511C1063.46 315.027 1062.79 314.299 1062.31 313.33C1061.82 312.352 1061.58 311.121 1061.58 309.636V298.545H1064.26V309.455C1064.26 310.727 1064.62 311.742 1065.33 312.5C1066.05 313.258 1066.97 313.636 1068.08 313.636C1068.75 313.636 1069.42 313.466 1070.11 313.125C1070.81 312.784 1071.39 312.261 1071.86 311.557C1072.34 310.852 1072.58 309.955 1072.58 308.864ZM1079.67 316V313.955L1089.58 301.227V301.045H1079.99V298.545H1093.04V300.682L1083.4 313.318V313.5H1093.36V316H1079.67ZM1097.49 316V298.545H1100.08V301.273H1100.3C1100.67 300.341 1101.25 299.617 1102.07 299.102C1102.88 298.58 1103.85 298.318 1104.99 298.318C1106.14 298.318 1107.1 298.58 1107.86 299.102C1108.63 299.617 1109.24 300.341 1109.67 301.273H1109.85C1110.3 300.371 1110.97 299.655 1111.86 299.125C1112.75 298.587 1113.83 298.318 1115.08 298.318C1116.64 298.318 1117.91 298.807 1118.91 299.784C1119.9 300.754 1120.39 302.265 1120.39 304.318V316H1117.71V304.318C1117.71 303.03 1117.36 302.11 1116.66 301.557C1115.95 301.004 1115.12 300.727 1114.17 300.727C1112.94 300.727 1111.99 301.098 1111.32 301.841C1110.64 302.576 1110.3 303.508 1110.3 304.636V316H1107.58V304.045C1107.58 303.053 1107.25 302.254 1106.61 301.648C1105.97 301.034 1105.14 300.727 1104.12 300.727C1103.43 300.727 1102.77 300.913 1102.17 301.284C1101.57 301.655 1101.08 302.17 1100.71 302.83C1100.35 303.481 1100.17 304.235 1100.17 305.091V316H1097.49ZM1130.43 316.409C1129.33 316.409 1128.32 316.201 1127.42 315.784C1126.52 315.36 1125.81 314.75 1125.28 313.955C1124.75 313.152 1124.48 312.182 1124.48 311.045C1124.48 310.045 1124.68 309.235 1125.07 308.614C1125.46 307.985 1125.99 307.492 1126.65 307.136C1127.31 306.78 1128.04 306.515 1128.83 306.341C1129.64 306.159 1130.44 306.015 1131.25 305.909C1132.31 305.773 1133.17 305.67 1133.83 305.602C1134.5 305.527 1134.98 305.402 1135.29 305.227C1135.6 305.053 1135.75 304.75 1135.75 304.318V304.227C1135.75 303.106 1135.45 302.235 1134.83 301.614C1134.23 300.992 1133.31 300.682 1132.07 300.682C1130.79 300.682 1129.79 300.962 1129.06 301.523C1128.33 302.083 1127.82 302.682 1127.53 303.318L1124.98 302.409C1125.43 301.348 1126.04 300.523 1126.8 299.932C1127.56 299.333 1128.4 298.917 1129.3 298.682C1130.21 298.439 1131.1 298.318 1131.98 298.318C1132.54 298.318 1133.18 298.386 1133.91 298.523C1134.65 298.652 1135.36 298.92 1136.04 299.33C1136.73 299.739 1137.3 300.356 1137.75 301.182C1138.21 302.008 1138.43 303.114 1138.43 304.5V316H1135.75V313.636H1135.62C1135.43 314.015 1135.13 314.42 1134.71 314.852C1134.28 315.284 1133.72 315.652 1133.01 315.955C1132.31 316.258 1131.45 316.409 1130.43 316.409ZM1130.84 314C1131.9 314 1132.8 313.792 1133.53 313.375C1134.26 312.958 1134.81 312.42 1135.18 311.761C1135.56 311.102 1135.75 310.409 1135.75 309.682V307.227C1135.64 307.364 1135.39 307.489 1135 307.602C1134.62 307.708 1134.18 307.803 1133.68 307.886C1133.19 307.962 1132.71 308.03 1132.24 308.091C1131.78 308.144 1131.4 308.189 1131.12 308.227C1130.42 308.318 1129.77 308.466 1129.16 308.67C1128.56 308.867 1128.08 309.167 1127.71 309.568C1127.34 309.962 1127.16 310.5 1127.16 311.182C1127.16 312.114 1127.51 312.818 1128.2 313.295C1128.89 313.765 1129.78 314 1130.84 314ZM1146.01 305.5V316H1143.33V298.545H1145.92V301.273H1146.15C1146.56 300.386 1147.18 299.674 1148.01 299.136C1148.84 298.591 1149.92 298.318 1151.24 298.318C1152.42 298.318 1153.45 298.561 1154.34 299.045C1155.23 299.523 1155.92 300.25 1156.41 301.227C1156.9 302.197 1157.15 303.424 1157.15 304.909V316H1154.47V305.091C1154.47 303.72 1154.11 302.652 1153.4 301.886C1152.69 301.114 1151.71 300.727 1150.47 300.727C1149.61 300.727 1148.84 300.913 1148.17 301.284C1147.5 301.655 1146.98 302.197 1146.59 302.909C1146.2 303.621 1146.01 304.485 1146.01 305.5ZM1164.73 292.727V316H1162.05V292.727H1164.73ZM1174.78 316.409C1173.67 316.409 1172.67 316.201 1171.77 315.784C1170.87 315.36 1170.15 314.75 1169.62 313.955C1169.09 313.152 1168.82 312.182 1168.82 311.045C1168.82 310.045 1169.02 309.235 1169.41 308.614C1169.81 307.985 1170.34 307.492 1170.99 307.136C1171.65 306.78 1172.38 306.515 1173.18 306.341C1173.98 306.159 1174.79 306.015 1175.6 305.909C1176.66 305.773 1177.52 305.67 1178.18 305.602C1178.84 305.527 1179.33 305.402 1179.63 305.227C1179.94 305.053 1180.1 304.75 1180.1 304.318V304.227C1180.1 303.106 1179.79 302.235 1179.18 301.614C1178.57 300.992 1177.65 300.682 1176.41 300.682C1175.13 300.682 1174.13 300.962 1173.4 301.523C1172.68 302.083 1172.16 302.682 1171.87 303.318L1169.32 302.409C1169.78 301.348 1170.38 300.523 1171.14 299.932C1171.91 299.333 1172.74 298.917 1173.64 298.682C1174.55 298.439 1175.45 298.318 1176.32 298.318C1176.88 298.318 1177.53 298.386 1178.26 298.523C1178.99 298.652 1179.7 298.92 1180.38 299.33C1181.07 299.739 1181.64 300.356 1182.1 301.182C1182.55 302.008 1182.78 303.114 1182.78 304.5V316H1180.1V313.636H1179.96C1179.78 314.015 1179.48 314.42 1179.05 314.852C1178.63 315.284 1178.06 315.652 1177.36 315.955C1176.65 316.258 1175.79 316.409 1174.78 316.409ZM1175.19 314C1176.25 314 1177.14 313.792 1177.87 313.375C1178.6 312.958 1179.16 312.42 1179.53 311.761C1179.91 311.102 1180.1 310.409 1180.1 309.682V307.227C1179.98 307.364 1179.73 307.489 1179.35 307.602C1178.97 307.708 1178.53 307.803 1178.03 307.886C1177.54 307.962 1177.05 308.03 1176.59 308.091C1176.12 308.144 1175.75 308.189 1175.46 308.227C1174.76 308.318 1174.11 308.466 1173.51 308.67C1172.91 308.867 1172.42 309.167 1172.05 309.568C1171.69 309.962 1171.51 310.5 1171.51 311.182C1171.51 312.114 1171.85 312.818 1172.54 313.295C1173.24 313.765 1174.12 314 1175.19 314ZM1187.67 316V298.545H1190.26V301.182H1190.45C1190.76 300.318 1191.34 299.617 1192.17 299.08C1193.01 298.542 1193.95 298.273 1194.99 298.273C1195.19 298.273 1195.43 298.277 1195.73 298.284C1196.03 298.292 1196.25 298.303 1196.4 298.318V301.045C1196.31 301.023 1196.1 300.989 1195.78 300.943C1195.46 300.89 1195.12 300.864 1194.76 300.864C1193.92 300.864 1193.16 301.042 1192.49 301.398C1191.83 301.746 1191.31 302.231 1190.92 302.852C1190.54 303.466 1190.36 304.167 1190.36 304.955V316H1187.67ZM1199.58 316V298.545H1202.26V316H1199.58ZM1207.17 316V298.545H1209.76V301.273H1209.99C1210.36 300.341 1210.94 299.617 1211.75 299.102C1212.56 298.58 1213.54 298.318 1214.67 298.318C1215.82 298.318 1216.78 298.58 1217.55 299.102C1218.32 299.617 1218.92 300.341 1219.36 301.273H1219.54C1219.98 300.371 1220.65 299.655 1221.55 299.125C1222.44 298.587 1223.51 298.318 1224.76 298.318C1226.32 298.318 1227.6 298.807 1228.59 299.784C1229.59 300.754 1230.08 302.265 1230.08 304.318V316H1227.4V304.318C1227.4 303.03 1227.05 302.11 1226.34 301.557C1225.64 301.004 1224.81 300.727 1223.86 300.727C1222.63 300.727 1221.68 301.098 1221 301.841C1220.33 302.576 1219.99 303.508 1219.99 304.636V316H1217.26V304.045C1217.26 303.053 1216.94 302.254 1216.3 301.648C1215.65 301.034 1214.82 300.727 1213.81 300.727C1213.11 300.727 1212.46 300.913 1211.86 301.284C1211.26 301.655 1210.77 302.17 1210.4 302.83C1210.04 303.481 1209.86 304.235 1209.86 305.091V316H1207.17ZM1234.99 316V298.545H1237.67V316H1234.99ZM1242.08 316V313.955L1251.99 301.227V301.045H1242.4V298.545H1255.44V300.682L1245.81 313.318V313.5H1255.76V316H1242.08ZM1262.57 292.727V316H1259.89V292.727H1262.57ZM1272.62 316.409C1271.52 316.409 1270.51 316.201 1269.61 315.784C1268.71 315.36 1267.99 314.75 1267.46 313.955C1266.93 313.152 1266.67 312.182 1266.67 311.045C1266.67 310.045 1266.86 309.235 1267.26 308.614C1267.65 307.985 1268.18 307.492 1268.84 307.136C1269.5 306.78 1270.22 306.515 1271.02 306.341C1271.82 306.159 1272.63 306.015 1273.44 305.909C1274.5 305.773 1275.36 305.67 1276.02 305.602C1276.69 305.527 1277.17 305.402 1277.47 305.227C1277.79 305.053 1277.94 304.75 1277.94 304.318V304.227C1277.94 303.106 1277.63 302.235 1277.02 301.614C1276.41 300.992 1275.49 300.682 1274.26 300.682C1272.98 300.682 1271.97 300.962 1271.25 301.523C1270.52 302.083 1270.01 302.682 1269.71 303.318L1267.17 302.409C1267.62 301.348 1268.23 300.523 1268.99 299.932C1269.75 299.333 1270.58 298.917 1271.49 298.682C1272.39 298.439 1273.29 298.318 1274.17 298.318C1274.73 298.318 1275.37 298.386 1276.1 298.523C1276.83 298.652 1277.54 298.92 1278.22 299.33C1278.91 299.739 1279.49 300.356 1279.94 301.182C1280.39 302.008 1280.62 303.114 1280.62 304.5V316H1277.94V313.636H1277.8C1277.62 314.015 1277.32 314.42 1276.89 314.852C1276.47 315.284 1275.91 315.652 1275.2 315.955C1274.5 316.258 1273.64 316.409 1272.62 316.409ZM1273.03 314C1274.09 314 1274.99 313.792 1275.71 313.375C1276.45 312.958 1277 312.42 1277.37 311.761C1277.75 311.102 1277.94 310.409 1277.94 309.682V307.227C1277.83 307.364 1277.58 307.489 1277.19 307.602C1276.81 307.708 1276.37 307.803 1275.87 307.886C1275.38 307.962 1274.9 308.03 1274.43 308.091C1273.97 308.144 1273.59 308.189 1273.3 308.227C1272.61 308.318 1271.96 308.466 1271.35 308.67C1270.75 308.867 1270.27 309.167 1269.89 309.568C1269.53 309.962 1269.35 310.5 1269.35 311.182C1269.35 312.114 1269.69 312.818 1270.38 313.295C1271.08 313.765 1271.96 314 1273.03 314ZM109.455 361.545V337.545H112.045V340.318H112.364C112.561 340.015 112.833 339.629 113.182 339.159C113.538 338.682 114.045 338.258 114.705 337.886C115.371 337.508 116.273 337.318 117.409 337.318C118.879 337.318 120.174 337.686 121.295 338.42C122.417 339.155 123.292 340.197 123.92 341.545C124.549 342.894 124.864 344.485 124.864 346.318C124.864 348.167 124.549 349.769 123.92 351.125C123.292 352.473 122.42 353.519 121.307 354.261C120.193 354.996 118.909 355.364 117.455 355.364C116.333 355.364 115.436 355.178 114.761 354.807C114.087 354.428 113.568 354 113.205 353.523C112.841 353.038 112.561 352.636 112.364 352.318H112.136V361.545H109.455ZM112.091 346.273C112.091 347.591 112.284 348.754 112.67 349.761C113.057 350.761 113.621 351.545 114.364 352.114C115.106 352.674 116.015 352.955 117.091 352.955C118.212 352.955 119.148 352.659 119.898 352.068C120.655 351.47 121.223 350.667 121.602 349.659C121.989 348.644 122.182 347.515 122.182 346.273C122.182 345.045 121.992 343.939 121.614 342.955C121.242 341.962 120.678 341.178 119.92 340.602C119.17 340.019 118.227 339.727 117.091 339.727C116 339.727 115.083 340.004 114.341 340.557C113.598 341.102 113.038 341.867 112.659 342.852C112.28 343.83 112.091 344.97 112.091 346.273ZM128.955 355V337.545H131.545V340.182H131.727C132.045 339.318 132.621 338.617 133.455 338.08C134.288 337.542 135.227 337.273 136.273 337.273C136.47 337.273 136.716 337.277 137.011 337.284C137.307 337.292 137.53 337.303 137.682 337.318V340.045C137.591 340.023 137.383 339.989 137.057 339.943C136.739 339.89 136.402 339.864 136.045 339.864C135.197 339.864 134.439 340.042 133.773 340.398C133.114 340.746 132.591 341.231 132.205 341.852C131.826 342.466 131.636 343.167 131.636 343.955V355H128.955ZM147.42 355.364C145.845 355.364 144.462 354.989 143.273 354.239C142.091 353.489 141.167 352.439 140.5 351.091C139.841 349.742 139.511 348.167 139.511 346.364C139.511 344.545 139.841 342.958 140.5 341.602C141.167 340.246 142.091 339.193 143.273 338.443C144.462 337.693 145.845 337.318 147.42 337.318C148.996 337.318 150.375 337.693 151.557 338.443C152.746 339.193 153.67 340.246 154.33 341.602C154.996 342.958 155.33 344.545 155.33 346.364C155.33 348.167 154.996 349.742 154.33 351.091C153.67 352.439 152.746 353.489 151.557 354.239C150.375 354.989 148.996 355.364 147.42 355.364ZM147.42 352.955C148.617 352.955 149.602 352.648 150.375 352.034C151.148 351.42 151.72 350.614 152.091 349.614C152.462 348.614 152.648 347.53 152.648 346.364C152.648 345.197 152.462 344.11 152.091 343.102C151.72 342.095 151.148 341.28 150.375 340.659C149.602 340.038 148.617 339.727 147.42 339.727C146.223 339.727 145.239 340.038 144.466 340.659C143.693 341.28 143.121 342.095 142.75 343.102C142.379 344.11 142.193 345.197 142.193 346.364C142.193 347.53 142.379 348.614 142.75 349.614C143.121 350.614 143.693 351.42 144.466 352.034C145.239 352.648 146.223 352.955 147.42 352.955ZM159.423 337.545H162.105V356.273C162.105 357.348 161.92 358.28 161.548 359.068C161.185 359.856 160.632 360.466 159.889 360.898C159.154 361.33 158.226 361.545 157.105 361.545C157.014 361.545 156.923 361.545 156.832 361.545C156.741 361.545 156.651 361.545 156.56 361.545V359.045C156.651 359.045 156.734 359.045 156.81 359.045C156.885 359.045 156.969 359.045 157.06 359.045C157.878 359.045 158.476 358.803 158.855 358.318C159.234 357.841 159.423 357.159 159.423 356.273V337.545ZM160.741 334.636C160.219 334.636 159.768 334.458 159.389 334.102C159.018 333.746 158.832 333.318 158.832 332.818C158.832 332.318 159.018 331.89 159.389 331.534C159.768 331.178 160.219 331 160.741 331C161.264 331 161.711 331.178 162.082 331.534C162.461 331.89 162.651 332.318 162.651 332.818C162.651 333.318 162.461 333.746 162.082 334.102C161.711 334.458 161.264 334.636 160.741 334.636ZM174.335 355.364C172.653 355.364 171.203 354.992 169.983 354.25C168.771 353.5 167.835 352.455 167.176 351.114C166.525 349.765 166.199 348.197 166.199 346.409C166.199 344.621 166.525 343.045 167.176 341.682C167.835 340.311 168.752 339.242 169.926 338.477C171.108 337.705 172.487 337.318 174.062 337.318C174.972 337.318 175.869 337.47 176.756 337.773C177.642 338.076 178.449 338.568 179.176 339.25C179.903 339.924 180.483 340.818 180.915 341.932C181.347 343.045 181.562 344.417 181.562 346.045V347.182H168.108V344.864H178.835C178.835 343.879 178.638 343 178.244 342.227C177.858 341.455 177.305 340.845 176.585 340.398C175.873 339.951 175.032 339.727 174.062 339.727C172.994 339.727 172.07 339.992 171.29 340.523C170.517 341.045 169.922 341.727 169.506 342.568C169.089 343.409 168.881 344.311 168.881 345.273V346.818C168.881 348.136 169.108 349.254 169.562 350.17C170.025 351.08 170.665 351.773 171.483 352.25C172.301 352.72 173.252 352.955 174.335 352.955C175.04 352.955 175.676 352.856 176.244 352.659C176.82 352.455 177.316 352.152 177.733 351.75C178.15 351.341 178.472 350.833 178.699 350.227L181.29 350.955C181.017 351.833 180.559 352.606 179.915 353.273C179.271 353.932 178.475 354.447 177.528 354.818C176.581 355.182 175.517 355.364 174.335 355.364ZM188.324 344.5V355H185.642V337.545H188.233V340.273H188.46C188.869 339.386 189.491 338.674 190.324 338.136C191.157 337.591 192.233 337.318 193.551 337.318C194.733 337.318 195.767 337.561 196.653 338.045C197.54 338.523 198.229 339.25 198.722 340.227C199.214 341.197 199.46 342.424 199.46 343.909V355H196.778V344.091C196.778 342.72 196.422 341.652 195.71 340.886C194.998 340.114 194.021 339.727 192.778 339.727C191.922 339.727 191.157 339.913 190.483 340.284C189.816 340.655 189.29 341.197 188.903 341.909C188.517 342.621 188.324 343.485 188.324 344.5ZM204.361 355V337.545H207.043V355H204.361ZM205.724 334.636C205.202 334.636 204.751 334.458 204.372 334.102C204.001 333.746 203.815 333.318 203.815 332.818C203.815 332.318 204.001 331.89 204.372 331.534C204.751 331.178 205.202 331 205.724 331C206.247 331 206.694 331.178 207.065 331.534C207.444 331.89 207.634 332.318 207.634 332.818C207.634 333.318 207.444 333.746 207.065 334.102C206.694 334.458 206.247 334.636 205.724 334.636ZM211.455 355V352.955L221.364 340.227V340.045H211.773V337.545H224.818V339.682L215.182 352.318V352.5H225.136V355H211.455ZM229.267 355V337.545H231.949V355H229.267ZM230.631 334.636C230.108 334.636 229.657 334.458 229.278 334.102C228.907 333.746 228.722 333.318 228.722 332.818C228.722 332.318 228.907 331.89 229.278 331.534C229.657 331.178 230.108 331 230.631 331C231.153 331 231.6 331.178 231.972 331.534C232.35 331.89 232.54 332.318 232.54 332.818C232.54 333.318 232.35 333.746 231.972 334.102C231.6 334.458 231.153 334.636 230.631 334.636ZM246.224 355V331.727H248.906V340.318H249.134C249.33 340.015 249.603 339.629 249.952 339.159C250.308 338.682 250.815 338.258 251.474 337.886C252.141 337.508 253.043 337.318 254.179 337.318C255.649 337.318 256.944 337.686 258.065 338.42C259.187 339.155 260.062 340.197 260.69 341.545C261.319 342.894 261.634 344.485 261.634 346.318C261.634 348.167 261.319 349.769 260.69 351.125C260.062 352.473 259.19 353.519 258.077 354.261C256.963 354.996 255.679 355.364 254.224 355.364C253.103 355.364 252.205 355.178 251.531 354.807C250.857 354.428 250.338 354 249.974 353.523C249.611 353.038 249.33 352.636 249.134 352.318H248.815V355H246.224ZM248.861 346.273C248.861 347.591 249.054 348.754 249.44 349.761C249.827 350.761 250.391 351.545 251.134 352.114C251.876 352.674 252.785 352.955 253.861 352.955C254.982 352.955 255.918 352.659 256.668 352.068C257.425 351.47 257.993 350.667 258.372 349.659C258.759 348.644 258.952 347.515 258.952 346.273C258.952 345.045 258.762 343.939 258.384 342.955C258.012 341.962 257.448 341.178 256.69 340.602C255.94 340.019 254.997 339.727 253.861 339.727C252.77 339.727 251.853 340.004 251.111 340.557C250.368 341.102 249.808 341.867 249.429 342.852C249.05 343.83 248.861 344.97 248.861 346.273ZM265.736 355V337.545H268.418V355H265.736ZM267.099 334.636C266.577 334.636 266.126 334.458 265.747 334.102C265.376 333.746 265.19 333.318 265.19 332.818C265.19 332.318 265.376 331.89 265.747 331.534C266.126 331.178 266.577 331 267.099 331C267.622 331 268.069 331.178 268.44 331.534C268.819 331.89 269.009 332.318 269.009 332.818C269.009 333.318 268.819 333.746 268.44 334.102C268.069 334.458 267.622 334.636 267.099 334.636ZM273.33 355V337.545H275.92V340.182H276.102C276.42 339.318 276.996 338.617 277.83 338.08C278.663 337.542 279.602 337.273 280.648 337.273C280.845 337.273 281.091 337.277 281.386 337.284C281.682 337.292 281.905 337.303 282.057 337.318V340.045C281.966 340.023 281.758 339.989 281.432 339.943C281.114 339.89 280.777 339.864 280.42 339.864C279.572 339.864 278.814 340.042 278.148 340.398C277.489 340.746 276.966 341.231 276.58 341.852C276.201 342.466 276.011 343.167 276.011 343.955V355H273.33ZM287.918 331.727V355H285.236V331.727H287.918ZM292.83 355V337.545H295.511V355H292.83ZM294.193 334.636C293.67 334.636 293.22 334.458 292.841 334.102C292.47 333.746 292.284 333.318 292.284 332.818C292.284 332.318 292.47 331.89 292.841 331.534C293.22 331.178 293.67 331 294.193 331C294.716 331 295.163 331.178 295.534 331.534C295.913 331.89 296.102 332.318 296.102 332.818C296.102 333.318 295.913 333.746 295.534 334.102C295.163 334.458 294.716 334.636 294.193 334.636ZM302.923 348.636L302.878 345.318H303.423L311.06 337.545H314.378L306.241 345.773H306.014L302.923 348.636ZM300.423 355V331.727H303.105V355H300.423ZM311.514 355L304.696 346.364L306.605 344.5L314.923 355H311.514ZM325.42 337.545V339.818H316.375V337.545H325.42ZM319.011 333.364H321.693V350C321.693 350.758 321.803 351.326 322.023 351.705C322.25 352.076 322.538 352.326 322.886 352.455C323.242 352.576 323.617 352.636 324.011 352.636C324.307 352.636 324.549 352.621 324.739 352.591C324.928 352.553 325.08 352.523 325.193 352.5L325.739 354.909C325.557 354.977 325.303 355.045 324.977 355.114C324.652 355.189 324.239 355.227 323.739 355.227C322.981 355.227 322.239 355.064 321.511 354.739C320.792 354.413 320.193 353.917 319.716 353.25C319.246 352.583 319.011 351.742 319.011 350.727V333.364ZM336.585 355.364C334.903 355.364 333.453 354.992 332.233 354.25C331.021 353.5 330.085 352.455 329.426 351.114C328.775 349.765 328.449 348.197 328.449 346.409C328.449 344.621 328.775 343.045 329.426 341.682C330.085 340.311 331.002 339.242 332.176 338.477C333.358 337.705 334.737 337.318 336.312 337.318C337.222 337.318 338.119 337.47 339.006 337.773C339.892 338.076 340.699 338.568 341.426 339.25C342.153 339.924 342.733 340.818 343.165 341.932C343.597 343.045 343.812 344.417 343.812 346.045V347.182H330.358V344.864H341.085C341.085 343.879 340.888 343 340.494 342.227C340.108 341.455 339.555 340.845 338.835 340.398C338.123 339.951 337.282 339.727 336.312 339.727C335.244 339.727 334.32 339.992 333.54 340.523C332.767 341.045 332.172 341.727 331.756 342.568C331.339 343.409 331.131 344.311 331.131 345.273V346.818C331.131 348.136 331.358 349.254 331.812 350.17C332.275 351.08 332.915 351.773 333.733 352.25C334.551 352.72 335.502 352.955 336.585 352.955C337.29 352.955 337.926 352.856 338.494 352.659C339.07 352.455 339.566 352.152 339.983 351.75C340.4 351.341 340.722 350.833 340.949 350.227L343.54 350.955C343.267 351.833 342.809 352.606 342.165 353.273C341.521 353.932 340.725 354.447 339.778 354.818C338.831 355.182 337.767 355.364 336.585 355.364ZM369.256 341.455L366.847 342.136C366.695 341.735 366.472 341.345 366.176 340.966C365.888 340.58 365.494 340.261 364.994 340.011C364.494 339.761 363.854 339.636 363.074 339.636C362.006 339.636 361.116 339.883 360.403 340.375C359.699 340.86 359.347 341.477 359.347 342.227C359.347 342.894 359.589 343.42 360.074 343.807C360.559 344.193 361.316 344.515 362.347 344.773L364.938 345.409C366.498 345.788 367.661 346.367 368.426 347.148C369.191 347.92 369.574 348.917 369.574 350.136C369.574 351.136 369.286 352.03 368.71 352.818C368.142 353.606 367.347 354.227 366.324 354.682C365.301 355.136 364.112 355.364 362.756 355.364C360.975 355.364 359.502 354.977 358.335 354.205C357.169 353.432 356.43 352.303 356.119 350.818L358.665 350.182C358.907 351.121 359.366 351.826 360.04 352.295C360.722 352.765 361.612 353 362.71 353C363.96 353 364.953 352.735 365.688 352.205C366.43 351.667 366.801 351.023 366.801 350.273C366.801 349.667 366.589 349.159 366.165 348.75C365.741 348.333 365.089 348.023 364.21 347.818L361.301 347.136C359.703 346.758 358.528 346.17 357.778 345.375C357.036 344.572 356.665 343.568 356.665 342.364C356.665 341.379 356.941 340.508 357.494 339.75C358.055 338.992 358.816 338.398 359.778 337.966C360.748 337.534 361.847 337.318 363.074 337.318C364.801 337.318 366.157 337.697 367.142 338.455C368.134 339.212 368.839 340.212 369.256 341.455ZM361.756 354.909H363.983L363.801 355.818C364.392 355.909 364.934 356.155 365.426 356.557C365.919 356.966 366.165 357.614 366.165 358.5C366.165 359.477 365.759 360.273 364.949 360.886C364.146 361.508 362.96 361.818 361.392 361.818L361.301 360.045C362.006 360.045 362.589 359.932 363.051 359.705C363.521 359.485 363.756 359.114 363.756 358.591C363.756 358.068 363.563 357.712 363.176 357.523C362.79 357.333 362.165 357.205 361.301 357.136L361.756 354.909ZM380.929 355.364C379.247 355.364 377.796 354.992 376.577 354.25C375.365 353.5 374.429 352.455 373.77 351.114C373.118 349.765 372.793 348.197 372.793 346.409C372.793 344.621 373.118 343.045 373.77 341.682C374.429 340.311 375.346 339.242 376.52 338.477C377.702 337.705 379.08 337.318 380.656 337.318C381.565 337.318 382.463 337.47 383.349 337.773C384.236 338.076 385.043 338.568 385.77 339.25C386.497 339.924 387.077 340.818 387.509 341.932C387.94 343.045 388.156 344.417 388.156 346.045V347.182H374.702V344.864H385.429C385.429 343.879 385.232 343 384.838 342.227C384.452 341.455 383.899 340.845 383.179 340.398C382.467 339.951 381.626 339.727 380.656 339.727C379.588 339.727 378.664 339.992 377.884 340.523C377.111 341.045 376.516 341.727 376.099 342.568C375.683 343.409 375.474 344.311 375.474 345.273V346.818C375.474 348.136 375.702 349.254 376.156 350.17C376.618 351.08 377.259 351.773 378.077 352.25C378.895 352.72 379.846 352.955 380.929 352.955C381.634 352.955 382.27 352.856 382.838 352.659C383.414 352.455 383.91 352.152 384.327 351.75C384.743 351.341 385.065 350.833 385.293 350.227L387.884 350.955C387.611 351.833 387.152 352.606 386.509 353.273C385.865 353.932 385.069 354.447 384.122 354.818C383.175 355.182 382.111 355.364 380.929 355.364ZM394.736 348.636L394.69 345.318H395.236L402.872 337.545H406.19L398.054 345.773H397.827L394.736 348.636ZM392.236 355V331.727H394.918V355H392.236ZM403.327 355L396.509 346.364L398.418 344.5L406.736 355H403.327ZM409.642 355V337.545H412.324V355H409.642ZM411.006 334.636C410.483 334.636 410.032 334.458 409.653 334.102C409.282 333.746 409.097 333.318 409.097 332.818C409.097 332.318 409.282 331.89 409.653 331.534C410.032 331.178 410.483 331 411.006 331C411.528 331 411.975 331.178 412.347 331.534C412.725 331.89 412.915 332.318 412.915 332.818C412.915 333.318 412.725 333.746 412.347 334.102C411.975 334.458 411.528 334.636 411.006 334.636ZM419.918 331.727V355H417.236V331.727H419.918ZM427.511 331.727V355H424.83V331.727H427.511ZM439.741 355.364C438.06 355.364 436.609 354.992 435.389 354.25C434.177 353.5 433.241 352.455 432.582 351.114C431.931 349.765 431.605 348.197 431.605 346.409C431.605 344.621 431.931 343.045 432.582 341.682C433.241 340.311 434.158 339.242 435.332 338.477C436.514 337.705 437.893 337.318 439.469 337.318C440.378 337.318 441.276 337.47 442.162 337.773C443.048 338.076 443.855 338.568 444.582 339.25C445.31 339.924 445.889 340.818 446.321 341.932C446.753 343.045 446.969 344.417 446.969 346.045V347.182H433.514V344.864H444.241C444.241 343.879 444.045 343 443.651 342.227C443.264 341.455 442.711 340.845 441.991 340.398C441.279 339.951 440.438 339.727 439.469 339.727C438.401 339.727 437.476 339.992 436.696 340.523C435.923 341.045 435.329 341.727 434.912 342.568C434.495 343.409 434.287 344.311 434.287 345.273V346.818C434.287 348.136 434.514 349.254 434.969 350.17C435.431 351.08 436.071 351.773 436.889 352.25C437.707 352.72 438.658 352.955 439.741 352.955C440.446 352.955 441.082 352.856 441.651 352.659C442.226 352.455 442.723 352.152 443.139 351.75C443.556 351.341 443.878 350.833 444.105 350.227L446.696 350.955C446.423 351.833 445.965 352.606 445.321 353.273C444.677 353.932 443.882 354.447 442.935 354.818C441.988 355.182 440.923 355.364 439.741 355.364ZM453.73 344.5V355H451.048V337.545H453.639V340.273H453.866C454.276 339.386 454.897 338.674 455.73 338.136C456.563 337.591 457.639 337.318 458.957 337.318C460.139 337.318 461.173 337.561 462.06 338.045C462.946 338.523 463.635 339.25 464.128 340.227C464.62 341.197 464.866 342.424 464.866 343.909V355H462.185V344.091C462.185 342.72 461.829 341.652 461.116 340.886C460.404 340.114 459.427 339.727 458.185 339.727C457.329 339.727 456.563 339.913 455.889 340.284C455.223 340.655 454.696 341.197 454.31 341.909C453.923 342.621 453.73 343.485 453.73 344.5ZM476.358 355.364C474.903 355.364 473.619 354.996 472.506 354.261C471.392 353.519 470.521 352.473 469.892 351.125C469.263 349.769 468.949 348.167 468.949 346.318C468.949 344.485 469.263 342.894 469.892 341.545C470.521 340.197 471.396 339.155 472.517 338.42C473.638 337.686 474.934 337.318 476.403 337.318C477.54 337.318 478.438 337.508 479.097 337.886C479.763 338.258 480.271 338.682 480.619 339.159C480.975 339.629 481.252 340.015 481.449 340.318H481.676V331.727H484.358V355H481.767V352.318H481.449C481.252 352.636 480.972 353.038 480.608 353.523C480.244 354 479.725 354.428 479.051 354.807C478.377 355.178 477.479 355.364 476.358 355.364ZM476.722 352.955C477.797 352.955 478.706 352.674 479.449 352.114C480.191 351.545 480.756 350.761 481.142 349.761C481.528 348.754 481.722 347.591 481.722 346.273C481.722 344.97 481.532 343.83 481.153 342.852C480.775 341.867 480.214 341.102 479.472 340.557C478.729 340.004 477.813 339.727 476.722 339.727C475.585 339.727 474.638 340.019 473.881 340.602C473.131 341.178 472.566 341.962 472.188 342.955C471.816 343.939 471.631 345.045 471.631 346.273C471.631 347.515 471.82 348.644 472.199 349.659C472.585 350.667 473.153 351.47 473.903 352.068C474.661 352.659 475.6 352.955 476.722 352.955ZM489.642 355V337.545H492.324V355H489.642ZM491.006 334.636C490.483 334.636 490.032 334.458 489.653 334.102C489.282 333.746 489.097 333.318 489.097 332.818C489.097 332.318 489.282 331.89 489.653 331.534C490.032 331.178 490.483 331 491.006 331C491.528 331 491.975 331.178 492.347 331.534C492.725 331.89 492.915 332.318 492.915 332.818C492.915 333.318 492.725 333.746 492.347 334.102C491.975 334.458 491.528 334.636 491.006 334.636ZM497.236 355V337.545H499.827V340.182H500.009C500.327 339.318 500.902 338.617 501.736 338.08C502.569 337.542 503.509 337.273 504.554 337.273C504.751 337.273 504.997 337.277 505.293 337.284C505.588 337.292 505.812 337.303 505.963 337.318V340.045C505.872 340.023 505.664 339.989 505.338 339.943C505.02 339.89 504.683 339.864 504.327 339.864C503.478 339.864 502.721 340.042 502.054 340.398C501.395 340.746 500.872 341.231 500.486 341.852C500.107 342.466 499.918 343.167 499.918 343.955V355H497.236ZM509.142 355V337.545H511.824V355H509.142ZM510.506 334.636C509.983 334.636 509.532 334.458 509.153 334.102C508.782 333.746 508.597 333.318 508.597 332.818C508.597 332.318 508.782 331.89 509.153 331.534C509.532 331.178 509.983 331 510.506 331C511.028 331 511.475 331.178 511.847 331.534C512.225 331.89 512.415 332.318 512.415 332.818C512.415 333.318 512.225 333.746 511.847 334.102C511.475 334.458 511.028 334.636 510.506 334.636ZM518.463 361.545C518.009 361.545 517.603 361.508 517.247 361.432C516.891 361.364 516.645 361.295 516.509 361.227L517.19 358.864C517.842 359.03 518.418 359.091 518.918 359.045C519.418 359 519.861 358.777 520.247 358.375C520.641 357.981 521.001 357.341 521.327 356.455L521.827 355.091L515.372 337.545H518.281L523.099 351.455H523.281L528.099 337.545H531.009L523.599 357.545C523.266 358.447 522.853 359.193 522.361 359.784C521.868 360.383 521.296 360.826 520.645 361.114C520.001 361.402 519.274 361.545 518.463 361.545ZM541.014 355.364C539.438 355.364 538.056 354.989 536.866 354.239C535.685 353.489 534.76 352.439 534.094 351.091C533.435 349.742 533.105 348.167 533.105 346.364C533.105 344.545 533.435 342.958 534.094 341.602C534.76 340.246 535.685 339.193 536.866 338.443C538.056 337.693 539.438 337.318 541.014 337.318C542.59 337.318 543.969 337.693 545.151 338.443C546.34 339.193 547.264 340.246 547.923 341.602C548.59 342.958 548.923 344.545 548.923 346.364C548.923 348.167 548.59 349.742 547.923 351.091C547.264 352.439 546.34 353.489 545.151 354.239C543.969 354.989 542.59 355.364 541.014 355.364ZM541.014 352.955C542.211 352.955 543.196 352.648 543.969 352.034C544.741 351.42 545.313 350.614 545.685 349.614C546.056 348.614 546.241 347.53 546.241 346.364C546.241 345.197 546.056 344.11 545.685 343.102C545.313 342.095 544.741 341.28 543.969 340.659C543.196 340.038 542.211 339.727 541.014 339.727C539.817 339.727 538.832 340.038 538.06 340.659C537.287 341.28 536.715 342.095 536.344 343.102C535.973 344.11 535.787 345.197 535.787 346.364C535.787 347.53 535.973 348.614 536.344 349.614C536.715 350.614 537.287 351.42 538.06 352.034C538.832 352.648 539.817 352.955 541.014 352.955ZM553.017 355V337.545H555.608V340.182H555.79C556.108 339.318 556.684 338.617 557.517 338.08C558.35 337.542 559.29 337.273 560.335 337.273C560.532 337.273 560.778 337.277 561.074 337.284C561.369 337.292 561.593 337.303 561.744 337.318V340.045C561.653 340.023 561.445 339.989 561.119 339.943C560.801 339.89 560.464 339.864 560.108 339.864C559.259 339.864 558.502 340.042 557.835 340.398C557.176 340.746 556.653 341.231 556.267 341.852C555.888 342.466 555.699 343.167 555.699 343.955V355H553.017ZM575.923 347.864V337.545H578.605V355H575.923V352.045H575.741C575.332 352.932 574.696 353.686 573.832 354.307C572.969 354.92 571.878 355.227 570.56 355.227C569.469 355.227 568.499 354.989 567.651 354.511C566.802 354.027 566.135 353.299 565.651 352.33C565.166 351.352 564.923 350.121 564.923 348.636V337.545H567.605V348.455C567.605 349.727 567.961 350.742 568.673 351.5C569.393 352.258 570.31 352.636 571.423 352.636C572.09 352.636 572.768 352.466 573.457 352.125C574.154 351.784 574.738 351.261 575.207 350.557C575.685 349.852 575.923 348.955 575.923 347.864ZM583.017 355V352.955L592.926 340.227V340.045H583.335V337.545H596.381V339.682L586.744 352.318V352.5H596.699V355H583.017ZM602.784 355.182C602.223 355.182 601.742 354.981 601.341 354.58C600.939 354.178 600.739 353.697 600.739 353.136C600.739 352.576 600.939 352.095 601.341 351.693C601.742 351.292 602.223 351.091 602.784 351.091C603.345 351.091 603.826 351.292 604.227 351.693C604.629 352.095 604.83 352.576 604.83 353.136C604.83 353.508 604.735 353.848 604.545 354.159C604.364 354.47 604.117 354.72 603.807 354.909C603.504 355.091 603.163 355.182 602.784 355.182Z" fill="black"/>
</g>
<line x1="1.31134e-07" y1="462.5" x2="1400" y2="462.5" stroke="#D52529" stroke-width="3"/>
<line x1="1.31134e-07" y1="138.5" x2="1400" y2="138.5" stroke="#FFA800" stroke-width="3"/>
<defs>
<clipPath id="clip0_78_3">
<rect width="1400" height="570" rx="15" fill="white"/>
</clipPath>
</defs>
</svg>
