<svg width="232" height="165" viewBox="0 0 232 165" fill="none" xmlns="http://www.w3.org/2000/svg">
<path d="M100 95C100 122.614 77.6142 145 50 145C22.3858 145 0 122.614 0 95C0 67.3858 22.3858 45 50 45C77.6142 45 100 67.3858 100 95Z" fill="#D52529"/>
<path d="M232 63C232 92.8234 207.823 117 178 117C148.177 117 124 92.8234 124 63C124 33.1766 148.177 9 178 9C207.823 9 232 33.1766 232 63Z" fill="#FFCB2D"/>
<path d="M194 78C194 121.078 159.078 156 116 156C72.9218 156 38 121.078 38 78C38 34.9218 72.9218 0 116 0C159.078 0 194 34.9218 194 78Z" fill="#252022"/>
<g filter="url(#filter0_f_756_32)">
<path fill-rule="evenodd" clip-rule="evenodd" d="M88 150.5L134.501 99L134.5 101.501L114 129L94.0014 152.5L88 150.5Z" fill="white" fill-opacity="0.36"/>
</g>
<path d="M164.909 95.432C162.605 95.432 160.733 94.84 159.293 93.656C157.853 92.44 157.133 90.872 157.133 88.952C157.133 87.096 157.613 85.432 158.573 83.96C159.533 82.488 160.861 81.336 162.557 80.504C164.285 79.672 166.237 79.256 168.413 79.256C171.293 79.256 173.565 80.248 175.229 82.232L175.469 81.992C175.213 81.64 174.829 81.224 174.317 80.744L174.557 79.4C174.621 78.952 174.653 78.632 174.653 78.44C174.653 77.256 174.253 76.36 173.453 75.752C172.653 75.144 171.469 74.84 169.901 74.84C166.797 74.84 164.317 76.008 162.461 78.344C161.917 78.152 161.485 77.848 161.165 77.432C160.845 77.016 160.685 76.568 160.685 76.088C160.685 75.096 161.149 74.184 162.077 73.352C163.037 72.488 164.317 71.816 165.917 71.336C167.517 70.824 169.245 70.568 171.101 70.568C173.885 70.568 176.061 71.192 177.629 72.44C179.229 73.688 180.029 75.4 180.029 77.576C180.029 78.12 179.981 78.68 179.885 79.256L177.677 91.688C177.453 93 176.877 93.96 175.949 94.568C175.053 95.144 173.725 95.432 171.965 95.432L172.349 93.368C173.021 92.824 173.469 92.408 173.693 92.12L173.549 91.928C172.237 93.144 170.893 94.04 169.517 94.616C168.141 95.16 166.605 95.432 164.909 95.432ZM166.925 91.4C168.845 91.4 170.381 90.968 171.533 90.104C172.717 89.24 173.309 88.088 173.309 86.648C173.309 85.592 172.877 84.776 172.013 84.2C171.149 83.592 169.949 83.288 168.413 83.288C166.653 83.288 165.213 83.736 164.093 84.632C163.005 85.528 162.461 86.712 162.461 88.184C162.461 89.272 162.829 90.088 163.565 90.632C164.301 91.144 165.421 91.4 166.925 91.4Z" fill="white"/>
<path d="M138.426 105.032C136.826 105.032 135.37 104.792 134.058 104.312C132.746 103.864 131.706 103.24 130.938 102.44C130.202 101.672 129.834 100.792 129.834 99.8C129.834 98.68 130.202 97.816 130.938 97.208C131.706 96.632 132.826 96.344 134.298 96.344C134.17 97.72 134.522 98.792 135.354 99.56C136.218 100.328 137.498 100.712 139.194 100.712C141.05 100.712 142.506 100.264 143.562 99.368C144.65 98.472 145.354 97.096 145.674 95.24L146.01 93.224C146.522 92.84 146.922 92.504 147.21 92.216L147.114 91.976C146.09 92.84 144.826 93.56 143.322 94.136C141.85 94.68 140.474 94.952 139.194 94.952C137.658 94.952 136.282 94.648 135.066 94.04C133.85 93.432 132.906 92.584 132.234 91.496C131.562 90.408 131.226 89.192 131.226 87.848C131.226 87.24 131.258 86.776 131.322 86.456L132.618 79.112C133.066 76.456 134.25 74.376 136.17 72.872C138.09 71.336 140.474 70.568 143.322 70.568C146.49 70.568 148.858 71.928 150.426 74.648L150.666 74.456C150.538 74.136 150.314 73.736 149.994 73.256C150.25 71.464 152.058 70.568 155.418 70.568L151.194 94.52C150.618 97.816 149.194 100.392 146.922 102.248C144.682 104.104 141.85 105.032 138.426 105.032ZM141.258 90.296C142.762 90.296 144.106 89.912 145.29 89.144C146.474 88.344 147.162 87.4 147.354 86.312L148.554 79.208C148.586 79.08 148.602 78.888 148.602 78.632C148.602 77.608 148.17 76.776 147.306 76.136C146.474 75.496 145.37 75.176 143.994 75.176C140.442 75.176 138.426 76.6 137.946 79.448L136.746 86.12C136.682 86.568 136.65 86.872 136.65 87.032C136.65 89.208 138.186 90.296 141.258 90.296Z" fill="white"/>
<path d="M125.453 67.832C124.525 67.832 123.757 67.576 123.149 67.064C122.573 66.52 122.285 65.832 122.285 65C122.285 63.912 122.717 62.968 123.581 62.168C124.445 61.368 125.485 60.968 126.701 60.968C127.629 60.968 128.381 61.24 128.957 61.784C129.533 62.296 129.821 62.952 129.821 63.752C129.821 64.84 129.389 65.8 128.525 66.632C127.661 67.432 126.637 67.832 125.453 67.832ZM121.661 74.024C121.885 72.84 122.477 71.976 123.437 71.432C124.397 70.856 125.789 70.568 127.613 70.568L123.869 91.976C123.645 93.16 123.053 94.04 122.093 94.616C121.133 95.16 119.725 95.432 117.869 95.432L121.661 74.024Z" fill="white"/>
<path d="M107.242 95.432C105.226 95.432 103.642 94.888 102.49 93.8C101.338 92.68 100.762 91.192 100.762 89.336C100.762 88.824 100.81 88.28 100.906 87.704L105.034 64.424C105.258 63.208 105.85 62.328 106.81 61.784C107.77 61.24 109.178 60.968 111.034 60.968L106.33 87.512C106.266 88.024 106.234 88.376 106.234 88.568C106.234 89.336 106.442 89.896 106.858 90.248C107.306 90.568 107.994 90.728 108.922 90.728C110.138 90.728 111.322 90.424 112.474 89.816C112.858 90.264 113.05 90.808 113.05 91.448C113.05 92.568 112.49 93.512 111.37 94.28C110.25 95.048 108.874 95.432 107.242 95.432Z" fill="white"/>
<path d="M83.903 95.432C82.143 95.432 80.543 95.112 79.103 94.472C77.695 93.832 76.575 92.952 75.743 91.832C74.943 90.68 74.543 89.4 74.543 87.992C74.543 87.448 74.575 87.032 74.639 86.744L75.887 79.64C76.367 76.888 77.727 74.696 79.967 73.064C82.207 71.4 84.991 70.568 88.319 70.568C90.175 70.568 91.807 70.904 93.215 71.576C94.655 72.248 95.759 73.176 96.527 74.36C97.295 75.512 97.679 76.808 97.679 78.248C97.679 78.696 97.631 79.16 97.535 79.64L96.287 86.744C95.999 88.44 95.295 89.944 94.175 91.256C93.087 92.568 91.647 93.592 89.855 94.328C88.095 95.064 86.111 95.432 83.903 95.432ZM84.767 90.776C86.463 90.776 87.871 90.392 88.991 89.624C90.143 88.824 90.831 87.752 91.055 86.408L92.159 79.88C92.223 79.432 92.255 79.112 92.255 78.92C92.255 77.768 91.839 76.856 91.007 76.184C90.207 75.512 89.039 75.176 87.503 75.176C85.807 75.176 84.383 75.608 83.231 76.472C82.079 77.336 81.375 78.472 81.119 79.88L80.015 86.408C79.951 86.792 79.919 87.08 79.919 87.272C79.919 88.36 80.335 89.224 81.167 89.864C81.999 90.472 83.199 90.776 84.767 90.776Z" fill="white"/>
<path d="M60.5592 95.432C57.8072 95.432 55.5512 94.952 53.7912 93.992C52.0632 93 51.1992 91.72 51.1992 90.152C51.1992 89.032 51.5512 88.168 52.2552 87.56C52.9912 86.952 54.0472 86.616 55.4232 86.552C55.4552 88.024 55.9352 89.176 56.8632 90.008C57.7912 90.808 59.1032 91.208 60.7992 91.208C62.7192 91.208 64.1912 90.92 65.2152 90.344C66.2712 89.768 66.7992 88.952 66.7992 87.896C66.7992 87.16 66.3992 86.552 65.5992 86.072C64.7992 85.592 63.4232 85.128 61.4712 84.68C58.5592 84.008 56.4792 83.16 55.2312 82.136C53.9832 81.112 53.3592 79.816 53.3592 78.248C53.3592 75.848 54.2872 73.976 56.1432 72.632C57.9992 71.256 60.5432 70.568 63.7752 70.568C66.4632 70.568 68.6712 71.032 70.3992 71.96C72.1592 72.888 73.0392 74.072 73.0392 75.512C73.0392 77.56 71.5992 78.632 68.7192 78.728C68.6552 76.008 66.9752 74.648 63.6792 74.648C62.1752 74.648 60.9432 74.936 59.9832 75.512C59.0232 76.056 58.5432 76.76 58.5432 77.624C58.5432 78.264 58.8792 78.792 59.5512 79.208C60.2552 79.592 61.4712 79.96 63.1992 80.312C69.0552 81.592 71.9832 83.992 71.9832 87.512C71.9832 90.04 70.9752 91.992 68.9592 93.368C66.9752 94.744 64.1752 95.432 60.5592 95.432Z" fill="white"/>
<defs>
<filter id="filter0_f_756_32" x="75.5" y="86.5" width="71.502" height="78.5" filterUnits="userSpaceOnUse" color-interpolation-filters="sRGB">
<feFlood flood-opacity="0" result="BackgroundImageFix"/>
<feBlend mode="normal" in="SourceGraphic" in2="BackgroundImageFix" result="shape"/>
<feGaussianBlur stdDeviation="6.25" result="effect1_foregroundBlur_756_32"/>
</filter>
</defs>
</svg>
