<svg width="169" height="137" viewBox="0 0 169 137" fill="none" xmlns="http://www.w3.org/2000/svg">
<g clip-path="url(#clip0_343_10)">
<path d="M156.364 124.526C150.827 129.024 144.081 133.582 137.449 135.73C135.537 136.368 133.564 136.775 131.567 136.944C129.7 137.104 127.821 136.949 125.999 136.483C121.212 135.213 116.773 132.989 112.477 130.39C111.073 129.539 109.686 128.65 108.307 127.741C106.055 126.257 103.826 124.72 101.591 123.221C101.256 122.994 100.924 122.771 100.589 122.55H100.587C100.047 122.189 99.5065 121.832 98.9643 121.481C98.869 121.418 98.7737 121.358 98.6763 121.295C97.652 120.633 96.6102 119.986 95.5507 119.354C95.4209 119.278 95.2911 119.2 95.1613 119.124C93.1116 117.911 91.0048 116.811 88.8493 115.829C87.4336 115.193 85.9996 114.619 84.5514 114.13H84.5494C83.9957 113.944 83.4399 113.769 82.8822 113.609C81.2096 113.119 79.5052 112.763 77.7831 112.544C75.41 112.237 73.0098 112.258 70.6416 112.605C70.4813 112.628 70.3231 112.652 70.1629 112.68C63.7536 113.775 57.904 117.467 51.4663 118.337C51.2574 118.365 51.0505 118.391 50.8416 118.41C50.7523 118.419 50.6631 118.43 50.5739 118.436C48.703 118.607 46.8203 118.558 44.9596 118.289C39.7611 117.558 34.6986 115.288 30.1411 112.427C19.4866 105.738 10.8461 95.4576 5.5929 83.5517C4.69081 81.5113 3.88989 79.4217 3.19346 77.2915C1.24631 71.3846 0.174001 65.1899 0.0151539 58.9306C-0.477716 37.2135 11.0895 15.425 29.2506 5.60299C47.4138 -4.21905 71.3068 -0.971002 85.955 14.118C94.8409 23.2714 99.9825 35.675 106.67 46.7564C113.357 57.8357 122.861 68.4194 135.12 70.0337C141.365 70.856 147.9 69.2655 153.886 71.3342C157.2 72.4811 160.027 74.6753 162.305 77.4711C163.837 79.3683 165.118 81.4796 166.114 83.7465C166.844 85.3853 167.437 87.0899 167.885 88.8404C167.968 89.1628 168.045 89.4852 168.12 89.8076C171.102 102.8 166.337 116.42 156.364 124.526Z" fill="white"/>
<path d="M56.6207 101.006H37.5549C34.6984 101.006 32.3828 103.476 32.3828 106.524V106.524C32.3828 109.571 34.6984 112.042 37.5549 112.042H56.6207C59.4771 112.042 61.7927 109.571 61.7927 106.524C61.7927 103.476 59.4771 101.006 56.6207 101.006Z" fill="#3F3D56"/>
<path d="M50.841 109.229V118.41C48.8825 118.612 46.9087 118.572 44.959 118.289V109.229H50.841Z" fill="#3F3D56"/>
<path d="M70.6398 112.604C70.4795 112.628 70.3213 112.652 70.1611 112.68C63.7518 113.775 57.9022 117.467 51.4645 118.337C51.2556 118.365 51.0487 118.391 50.8398 118.41C50.7505 118.419 50.6613 118.43 50.5721 118.436C49.0002 116.794 47.4282 115.045 45.9517 113.234C45.1505 112.254 44.3757 111.254 43.6475 110.241C41.7572 107.627 40.1549 104.94 39.0961 102.3C39.2036 101.034 38.4653 98.1062 38.1124 95.8644L38.1104 95.8622C37.9603 94.9209 37.8791 94.1029 37.9542 93.5771C38.3842 90.5433 40.7065 90.8917 41.4205 87.9184C42.0645 87.3482 42.7502 86.8337 43.4711 86.3799C43.5907 86.3042 43.7124 86.2284 43.8382 86.1527L51.5862 80.4399L54.5475 83.5387L59.0543 88.256L63.9384 93.3651L59.7926 97.8335C59.7926 97.8335 63.2569 102.094 67.3073 107.775C68.3945 109.3 69.5242 110.93 70.6398 112.604Z" fill="#2F2E41"/>
<path d="M137.448 109.229V135.73C135.536 136.368 133.563 136.775 131.566 136.944V109.229H137.448Z" fill="#3F3D56"/>
<path d="M145.056 107.065H125.99C123.134 107.065 120.818 109.535 120.818 112.583V112.583C120.818 115.63 123.134 118.101 125.99 118.101H145.056C147.913 118.101 150.228 115.63 150.228 112.583C150.228 109.535 147.913 107.065 145.056 107.065Z" fill="#3F3D56"/>
<path d="M98.6771 121.295C97.6528 120.633 96.611 119.986 95.5515 119.354C95.4217 119.278 95.2919 119.2 95.1621 119.124L95.8598 118.806L97.7421 117.943L97.7603 117.934L97.7806 118.008L98.6771 121.295Z" fill="#FFB6B6"/>
<path d="M101.59 123.221C101.256 122.993 100.923 122.77 100.589 122.55H100.587C100.047 122.188 99.5061 121.832 98.9639 121.481C98.8686 121.418 98.7732 121.357 98.6759 121.295C97.6516 120.633 96.6097 119.986 95.5503 119.354C95.4205 119.278 95.2907 119.2 95.1609 119.124C93.1111 117.911 91.0044 116.811 88.8489 115.829C87.4332 115.192 85.9992 114.619 84.551 114.13H84.549L83.4111 112.098L78.2897 102.947L77.164 100.937C77.164 100.937 73.3245 102.148 67.8908 103.31C65.9132 103.734 63.7267 104.15 61.4328 104.5C58.9806 104.873 56.4087 105.169 53.8531 105.312C52.6341 105.381 51.4192 105.416 50.2225 105.405C47.1294 105.383 44.158 105.074 41.5557 104.338C40.6876 103.468 38.0711 102.285 36.197 101.201H36.195C35.408 100.746 34.7549 100.311 34.4121 99.9238C32.4366 97.695 34.1241 95.9573 32.3676 93.5251C32.344 92.6328 32.3867 91.7399 32.4954 90.8548C32.5137 90.7077 32.5319 90.5584 32.5543 90.4069L33.108 80.375L37.2213 79.795L43.4805 78.9121L50.2611 77.9557L51.0075 84.1921C51.0075 84.1921 56.287 83.9065 62.9763 84.0017C73.72 84.1575 88.0964 85.3 90.0435 90.2035C90.2261 90.6644 90.4086 91.1296 90.5912 91.5949C91.0252 92.7071 91.4552 93.8252 91.8812 94.949C93.4247 99.0171 94.8972 103.124 96.242 107.006C97.0776 109.421 97.8646 111.75 98.5887 113.929C99.1708 115.681 99.7103 117.339 100.203 118.865C100.653 120.258 101.061 121.541 101.424 122.693C101.481 122.872 101.536 123.05 101.59 123.221Z" fill="#2F2E41"/>
<path d="M63.7519 62.4388L50.7598 50.6668L59.2126 41.54L65.1098 51.8453L86.9693 56.4689C87.6266 55.9412 88.4136 55.6289 89.2344 55.5701C90.0551 55.5113 90.8742 55.7085 91.5917 56.1378C92.3093 56.5671 92.8942 57.2098 93.2753 57.9876C93.6563 58.7654 93.817 59.6447 93.7378 60.5183C93.6585 61.3918 93.3427 62.2219 92.8289 62.9073C92.3151 63.5927 91.6255 64.1038 90.8441 64.3783C90.0627 64.6528 89.2234 64.6788 88.4284 64.4531C87.6334 64.2275 86.9172 63.7599 86.367 63.1074L63.7519 62.4388Z" fill="#A0616A"/>
<path d="M39.2784 35.1955C37.777 40.4068 52.0767 52.8358 52.0767 52.8358C52.2356 51.5847 60.3431 62.3729 60.8947 61.3959C62.4624 58.6191 64.1874 51.7552 65.9972 50.878C67.0322 50.3763 61.0947 43.403 61.0947 43.403C61.0947 43.403 58.066 39.128 54.067 33.7099C52.9631 32.1557 51.5086 30.9248 49.8388 30.1318C48.169 29.3387 46.3383 29.0092 44.5171 29.1741C44.5171 29.1741 40.7799 29.9842 39.2784 35.1955Z" fill="#3F3D56"/>
<path d="M45.5998 23.6588C50.4529 23.6588 54.3871 19.4614 54.3871 14.2838C54.3871 9.10613 50.4529 4.90881 45.5998 4.90881C40.7467 4.90881 36.8125 9.10613 36.8125 14.2838C36.8125 19.4614 40.7467 23.6588 45.5998 23.6588Z" fill="#A0616A"/>
<path d="M49.995 29.855C51.8881 31.0557 53.0205 33.2619 53.6706 35.5069C54.8741 39.6631 55.5986 43.9604 55.8279 48.3036L56.5146 61.3065L65.0184 88.9933C57.6484 95.6465 29.9457 90.5054 29.9457 90.5054C29.9457 90.5054 29.0953 90.203 29.9457 89.2957C30.7961 88.3884 31.624 89.1922 30.7736 88.2849C29.9232 87.3777 30.5094 88.3884 30.7929 87.4812C31.0764 86.5739 30.7929 87.1788 30.5094 86.8763C30.226 86.5739 32.7038 83.8521 32.7038 83.8521L30.4362 67.9597L27.6016 35.9033C31.0031 31.367 37.844 28.6929 37.844 28.6929L39.6116 25.2985L48.4497 26.0528L49.995 29.855Z" fill="#3F3D56"/>
<path d="M52.8457 9.30303C53.5287 9.84649 54.0347 10.6048 54.2924 11.4712C54.3915 10.0553 54.3978 8.63382 54.3113 7.21703C54.2077 6.22144 53.5507 5.9975 52.79 5.73802C52.103 5.50358 51.326 5.23875 51.117 4.27227C48.3547 1.40541 43.5463 1.54998 40.2555 2.54998C38.4448 3.10026 37.4028 3.80727 37.3096 4.22144L37.2903 4.3067L37.2168 4.34592C35.821 5.09049 35.5493 7.44169 35.5672 9.28295C35.6012 12.752 36.7239 16.692 37.3564 17.0121C37.3899 17.029 37.3983 17.0224 37.4128 17.0095C38.3652 16.1975 39.5271 17.0712 40.0377 17.5461C40.3388 15.3901 41.3085 13.4038 42.7919 11.9047C44.2752 10.4056 46.1867 9.47997 48.221 9.27579C48.8853 9.20728 49.5443 9.08938 50.1933 8.92294C50.5225 8.83209 50.8608 8.78471 51.2008 8.78188C51.7861 8.7724 52.3602 8.95426 52.8457 9.30303Z" fill="#2F2E41"/>
<path d="M41.7726 76.5633L39.0846 75.0946C38.9406 74.9851 38.8383 74.824 38.7964 74.6407C38.7545 74.4574 38.7758 74.2641 38.8564 74.0962C38.937 73.9282 39.0715 73.7968 39.2354 73.726C39.3993 73.6551 39.5817 73.6495 39.7491 73.7102L42.4371 75.179C42.5811 75.2885 42.6835 75.4496 42.7253 75.6329C42.7672 75.8162 42.7459 76.0094 42.6653 76.1774C42.5847 76.3453 42.4502 76.4767 42.2863 76.5475C42.1224 76.6184 41.9401 76.624 41.7726 76.5633Z" fill="#F9A326"/>
<path d="M32.7266 72.6283L28.3047 55.0654L40.1211 52.679L39.4857 64.734L55.0115 81.7896C55.8334 81.7538 56.6474 81.9739 57.3541 82.423C58.0609 82.8722 58.6298 83.531 58.9917 84.3192C59.3535 85.1074 59.4926 85.9909 59.3919 86.8619C59.2912 87.733 58.9552 88.554 58.4247 89.2248C57.8943 89.8956 57.1923 90.3873 56.4045 90.6398C55.6167 90.8924 54.777 90.8949 53.9878 90.6471C53.1986 90.3993 52.4941 89.9119 51.9601 89.2443C51.4261 88.5767 51.0857 87.7578 50.9804 86.8874L32.7266 72.6283Z" fill="#A0616A"/>
<path d="M27.0935 35.3739C23.0826 38.7521 28.2306 57.6482 28.2306 57.6482C29.0277 56.715 29.9539 70.5073 30.9281 70.0377C33.697 68.703 38.772 64.1003 40.7284 64.4755C41.8473 64.69 40.6751 55.3526 40.6751 55.3526C40.6751 55.3526 40.4595 49.9986 40.0543 43.116C39.9735 41.1679 39.4321 39.2733 38.4804 37.6085C37.5287 35.9437 36.1977 34.5628 34.6113 33.5944C34.6113 33.5944 31.1044 31.9957 27.0935 35.3739Z" fill="#3F3D56"/>
<path d="M166.114 83.7464L5.59279 83.5516C4.6907 81.5112 3.88979 79.4215 3.19336 77.2914L162.305 77.471C163.836 79.3682 165.118 81.4795 166.114 83.7464Z" fill="#3F3D56"/>
<path d="M114.988 129.15C114.158 129.578 113.321 129.991 112.477 130.39C111.073 129.539 109.686 128.65 108.307 127.741L113.422 125.343L114.988 129.15Z" fill="#FFB6B6"/>
<path d="M152.284 99.3309C151.453 100.521 150.595 101.687 149.71 102.83C148.895 103.884 148.058 104.917 147.199 105.931C146.844 106.351 146.485 106.768 146.118 107.182C145.443 107.954 144.752 108.714 144.047 109.46C142.778 109.887 140.206 110.637 137.449 111.338C135.443 111.847 133.34 112.33 131.567 112.637C130.575 112.827 129.571 112.941 128.564 112.979C127.367 112.99 126.152 112.955 124.933 112.886C123.558 112.808 122.181 112.687 120.82 112.531C117.28 112.135 113.852 111.518 110.895 110.884C109.812 110.655 108.794 110.421 107.857 110.194C106.082 109.767 104.597 109.369 103.522 109.066C102.312 108.729 101.622 108.51 101.622 108.51L98.5897 113.929L97.0158 116.74L95.8597 118.806L95.5514 119.354C95.4216 119.278 95.2918 119.2 95.162 119.124C93.1122 117.911 91.0054 116.811 88.85 115.829C87.4343 115.192 86.0003 114.619 84.5521 114.13H84.5501C83.9963 113.944 83.4406 113.769 82.8828 113.608C83.0573 113.109 83.2337 112.605 83.4122 112.098C83.7448 111.152 84.0842 110.198 84.4304 109.235C85.1788 107.149 85.9536 105.033 86.7507 102.927C87.4038 101.198 88.0691 99.4759 88.7425 97.7772C89.0528 96.9939 89.6836 96.3057 90.5659 95.702C90.9876 95.4183 91.4275 95.1667 91.8823 94.949C94.4075 93.722 98.1273 92.9235 102.226 92.4107C102.565 92.3696 102.906 92.3285 103.249 92.2895C106.642 91.9087 110.242 91.7117 113.609 91.6208C115.295 91.5754 116.921 91.5581 118.434 91.5559C118.923 91.5559 119.398 91.5574 119.86 91.5603H119.862C121.11 91.5668 122.258 91.5862 123.268 91.6079C123.464 91.6122 123.655 91.6187 123.842 91.623H123.844C123.97 91.6252 124.093 91.6295 124.215 91.6317C126.424 91.6923 127.779 91.7658 127.779 91.7658L128.304 87.3688L128.411 86.4815L128.513 85.6376V85.6354L128.525 85.5294L128.608 85.5273L130.069 85.497L142.344 85.2416L149.049 85.101L147.986 89.9611L146.232 97.9806C146.41 99.2487 152.345 98.2554 152.284 99.3309Z" fill="#2F2E41"/>
<path d="M116.501 128.349C116 128.622 115.495 128.89 114.988 129.15C114.158 129.578 113.321 129.992 112.477 130.39C111.073 129.539 109.686 128.65 108.306 127.741C106.055 126.257 103.826 124.72 101.591 123.221C101.256 122.993 100.923 122.771 100.589 122.55H100.587C99.666 121.091 98.7269 119.572 97.7797 118.008C97.7655 117.986 97.7533 117.964 97.7411 117.943C97.4977 117.545 97.2557 117.144 97.015 116.74C95.4999 114.208 93.9766 111.568 92.498 108.872L96.2422 107.006L103.203 103.54L104.404 102.943L107.856 110.194L110.935 116.662L111.621 118.101L116.501 128.349Z" fill="#2F2E41"/>
<path d="M117.551 93.5354L135.299 75.2754L140.218 60.4159L132.962 57.0498C129.235 60.8586 125.206 72.7218 125.206 72.7218L112.994 89.2984C112.898 89.3332 112.804 89.3701 112.71 89.4143C112.16 89.6731 111.682 90.0789 111.321 90.5925C110.961 91.106 110.731 91.71 110.654 92.3461C110.577 92.9821 110.654 93.6287 110.88 94.2234C111.105 94.818 111.47 95.3406 111.94 95.7406C112.41 96.1406 112.969 96.4046 113.562 96.5069C114.156 96.6093 114.764 96.5465 115.328 96.3248C115.892 96.1031 116.393 95.7299 116.783 95.2413C117.172 94.7526 117.437 94.1651 117.551 93.5354Z" fill="#FFB8B8"/>
<path d="M130.92 58.709L140.123 61.8261L140.158 61.8199C143.583 61.2078 146.426 55.2389 148.207 50.3395C148.793 48.7235 148.782 46.9303 148.176 45.3225C147.571 43.7147 146.415 42.4123 144.944 41.6785C143.855 41.145 142.648 40.9471 141.46 41.1071C140.271 41.2671 139.148 41.7787 138.217 42.584L133.491 46.7039L130.92 58.709Z" fill="#F9A326"/>
<path d="M152.245 99.5501L152.299 99.4739C155.17 95.4109 151.243 85.3492 150.649 83.89L153.319 83.0462L152.854 77.6226L152.63 75.2042L154.706 73.101L154.713 73.0473L156.14 62.2077L158.008 55.0334C158.712 52.3213 158.727 49.4581 158.051 46.7377C157.376 44.0174 156.033 41.5379 154.163 39.5539L150.344 35.5089L145.769 27.8689L138.098 27.6576L135.34 32.8854C132.775 33.4439 130.474 34.9448 128.84 37.1267C127.205 39.3085 126.34 42.033 126.394 44.8256L126.654 58.743L123.902 75.9867L123.824 79.1189L121.123 82.1603L121.622 85.2352L119.602 86.0939L118.613 90.4632C118.235 90.9673 115.742 94.3301 115.719 95.2676C115.715 95.4084 115.81 95.5471 116.015 95.7038C117.629 96.9359 126.651 99.6056 130.711 98.0005C135.036 96.2924 151.986 99.5005 152.157 99.5332L152.245 99.5501Z" fill="#F9A326"/>
<path d="M141.264 25.3154C146.876 25.3154 151.426 20.4613 151.426 14.4734C151.426 8.48549 146.876 3.63135 141.264 3.63135C135.651 3.63135 131.102 8.48549 131.102 14.4734C131.102 20.4613 135.651 25.3154 141.264 25.3154Z" fill="#FFB8B8"/>
<path d="M140.024 25.4606C141.598 25.4867 143.171 25.3695 144.726 25.11C146.267 24.7756 149.715 22.0798 150.677 20.4576C151.391 19.2523 151.847 17.3702 152.105 16.0036C152.451 14.1952 152.438 12.3293 152.066 10.5266C151.694 8.72401 150.971 7.0249 149.944 5.53931C149.549 4.91792 149.005 4.42189 148.367 4.10369C148.311 4.08012 148.253 4.05925 148.194 4.0414C147.266 3.78076 146.431 3.22999 145.798 2.45981C145.676 2.30403 145.542 2.15789 145.4 2.02251C144.685 1.3784 143.836 0.924052 142.925 0.696617C141.454 0.276511 139.324 0.693522 136.596 1.93727C135.226 2.56215 133.727 2.336 132.574 2.06915C132.509 2.05582 132.442 2.06079 132.38 2.08357C132.318 2.10635 132.262 2.14614 132.219 2.19898C131.728 2.69035 131.081 2.96539 130.408 2.96883C129.996 2.98814 129.564 3.59697 129.041 4.3909C128.923 4.57112 128.784 4.78146 128.684 4.90939L128.671 4.66361L128.438 4.9378C128.071 5.36875 127.813 5.89162 127.687 6.45774C127.561 7.02385 127.571 7.61479 127.717 8.17553C127.863 8.73627 128.139 9.24856 128.52 9.66471C128.901 10.0809 129.375 10.3873 129.897 10.5556C130.312 10.6733 130.736 10.7455 131.165 10.7711C131.424 10.796 131.693 10.8218 131.95 10.8694C132.775 11.0497 133.543 11.4553 134.177 12.0466C134.812 12.6379 135.292 13.3946 135.571 14.243C135.637 14.439 135.744 14.6164 135.884 14.7612C136.025 14.9061 136.194 15.0146 136.38 15.0783C136.566 15.1421 136.763 15.1595 136.956 15.1291C137.149 15.0987 137.334 15.0213 137.494 14.903C137.762 14.6804 138.077 14.5303 138.411 14.4654C138.745 14.4005 139.089 14.4228 139.413 14.5303C139.693 14.6965 139.911 14.9605 140.031 15.2779C140.176 15.6316 140.416 15.9311 140.722 16.1382C141.766 16.7128 141.838 19.258 141.463 21.3797C141.101 23.4249 140.387 24.9044 139.725 24.9775C139.215 25.0338 139.157 25.0724 139.12 25.1685L139.087 25.2546L139.144 25.3351C139.426 25.4439 139.726 25.4867 140.024 25.4606Z" fill="#2F2E41"/>
<path d="M133.441 55.431L129.523 47.0966C123.836 47.511 112.548 54.5269 112.548 54.5269L91.1902 59.358C90.5575 59.0985 89.8719 59.0214 89.2024 59.1345C88.5329 59.2476 87.9032 59.5468 87.3765 60.0021C86.8499 60.4574 86.445 61.0526 86.2025 61.728C85.9601 62.4033 85.8887 63.1348 85.9955 63.8489C86.1022 64.5631 86.3835 65.2346 86.8109 65.7959C87.2382 66.3572 87.7967 66.7885 88.4299 67.0463C89.0632 67.3042 89.749 67.3795 90.4182 67.2647C91.0874 67.1499 91.7165 66.8491 92.2421 66.3925L119.41 64.3148L133.441 55.431Z" fill="#FFB8B8"/>
<path d="M131.863 56.7995L142.096 48.686L143.898 41.7556C144.248 40.3936 144.233 38.9546 143.856 37.6012C143.479 36.2478 142.754 35.0338 141.765 34.0965C140.415 32.8357 138.666 32.1686 136.873 32.2304C135.08 32.2921 133.376 33.0779 132.105 34.429C128.254 38.5299 123.862 44.2511 124.805 48.2182L124.815 48.2585L131.863 56.7995Z" fill="#F9A326"/>
<path d="M119.194 78.501H91.8125V82.396H119.194V78.501Z" fill="white"/>
<path d="M49.2195 78.501H21.8379V82.396H49.2195V78.501Z" fill="white"/>
<path d="M52.416 59.7697V78.3154C52.4162 78.5517 52.5043 78.7783 52.6609 78.9455C52.8175 79.1126 53.0299 79.2065 53.2515 79.2067H79.0114C79.2329 79.2065 79.4453 79.1126 79.602 78.9455C79.7586 78.7783 79.8467 78.5517 79.8469 78.3154V59.7697C79.8463 59.5336 79.7581 59.3073 79.6015 59.1404C79.445 58.9736 79.2328 58.8797 79.0114 58.8794H53.2515C53.0301 58.8797 52.8179 58.9736 52.6614 59.1404C52.5048 59.3073 52.4165 59.5336 52.416 59.7697Z" fill="#3F3D56"/>
<path d="M53.0215 60.0006V78.0867C53.0217 78.213 53.0688 78.334 53.1525 78.4233C53.2362 78.5126 53.3496 78.5628 53.468 78.5631H78.7981C78.9165 78.5628 79.03 78.5126 79.1136 78.4233C79.1973 78.334 79.2444 78.213 79.2446 78.0867V60.0006C79.2446 59.8741 79.1976 59.7529 79.1139 59.6634C79.0302 59.5739 78.9166 59.5235 78.7981 59.5232H53.468C53.3495 59.5235 53.2359 59.5739 53.1522 59.6634C53.0685 59.7529 53.0215 59.8741 53.0215 60.0006Z" fill="#F9A326"/>
<path d="M51.8778 81.9323C51.925 81.9954 51.985 82.0463 52.0532 82.0811C52.1215 82.116 52.1963 82.1339 52.272 82.1335H79.8548C79.9303 82.1334 80.0047 82.1153 80.0728 82.0807C80.1409 82.046 80.2009 81.9956 80.2484 81.9331C80.2959 81.8706 80.3298 81.7976 80.3475 81.7193C80.3653 81.6411 80.3664 81.5597 80.351 81.4809L79.9228 79.3111C79.9051 79.2226 79.8668 79.1403 79.8116 79.0715C79.7564 79.0028 79.686 78.95 79.6068 78.9177C79.5494 78.8937 79.4883 78.8814 79.4267 78.8815H52.6985C52.6368 78.8814 52.5757 78.8937 52.5183 78.9177C52.4391 78.95 52.3687 79.0028 52.3135 79.0715C52.2583 79.1403 52.2201 79.2226 52.2023 79.3111L51.7741 81.4809C51.7589 81.5596 51.7603 81.641 51.7782 81.7191C51.7962 81.7971 51.8302 81.87 51.8778 81.9323Z" fill="#2F2E41"/>
<path d="M78.48 79.816H79.1315C79.1861 79.816 79.2305 79.7687 79.2305 79.7104V79.3779C79.2305 79.3195 79.1861 79.2722 79.1315 79.2722H78.48C78.4253 79.2722 78.3809 79.3195 78.3809 79.3779V79.7104C78.3809 79.7687 78.4253 79.816 78.48 79.816Z" fill="#3F3D56"/>
<path d="M76.7807 79.816H77.4322C77.4869 79.816 77.5312 79.7687 77.5312 79.7104V79.3779C77.5312 79.3195 77.4869 79.2722 77.4322 79.2722H76.7807C76.726 79.2722 76.6817 79.3195 76.6817 79.3779V79.7104C76.6817 79.7687 76.726 79.816 76.7807 79.816Z" fill="#3F3D56"/>
<path d="M75.0815 79.816H75.733C75.7877 79.816 75.832 79.7687 75.832 79.7104V79.3779C75.832 79.3195 75.7877 79.2722 75.733 79.2722H75.0815C75.0268 79.2722 74.9825 79.3195 74.9825 79.3779V79.7104C74.9825 79.7687 75.0268 79.816 75.0815 79.816Z" fill="#3F3D56"/>
<path d="M73.3823 79.816H74.0338C74.0885 79.816 74.1328 79.7687 74.1328 79.7104V79.3779C74.1328 79.3195 74.0885 79.2722 74.0338 79.2722H73.3823C73.3276 79.2722 73.2833 79.3195 73.2833 79.3779V79.7104C73.2833 79.7687 73.3276 79.816 73.3823 79.816Z" fill="#3F3D56"/>
<path d="M71.6831 79.8162H72.3346C72.3893 79.8162 72.4336 79.7689 72.4336 79.7105V79.378C72.4336 79.3196 72.3893 79.2723 72.3346 79.2723H71.6831C71.6284 79.2723 71.5841 79.3196 71.5841 79.378V79.7105C71.5841 79.7689 71.6284 79.8162 71.6831 79.8162Z" fill="#3F3D56"/>
<path d="M69.9858 79.816H70.6373C70.692 79.816 70.7363 79.7687 70.7363 79.7104V79.3779C70.7363 79.3195 70.692 79.2722 70.6373 79.2722H69.9858C69.9311 79.2722 69.8868 79.3195 69.8868 79.3779V79.7104C69.8868 79.7687 69.9311 79.816 69.9858 79.816Z" fill="#3F3D56"/>
<path d="M68.2866 79.816H68.9381C68.9928 79.816 69.0371 79.7687 69.0371 79.7104V79.3779C69.0371 79.3195 68.9928 79.2722 68.9381 79.2722H68.2866C68.2319 79.2722 68.1876 79.3195 68.1876 79.3779V79.7104C68.1876 79.7687 68.2319 79.816 68.2866 79.816Z" fill="#3F3D56"/>
<path d="M66.5874 79.816H67.2389C67.2936 79.816 67.3379 79.7687 67.3379 79.7104V79.3779C67.3379 79.3195 67.2936 79.2722 67.2389 79.2722H66.5874C66.5327 79.2722 66.4884 79.3195 66.4884 79.3779V79.7104C66.4884 79.7687 66.5327 79.816 66.5874 79.816Z" fill="#3F3D56"/>
<path d="M64.8862 79.816H65.5377C65.5924 79.816 65.6367 79.7687 65.6367 79.7104V79.3779C65.6367 79.3195 65.5924 79.2722 65.5377 79.2722H64.8862C64.8315 79.2722 64.7872 79.3195 64.7872 79.3779V79.7104C64.7872 79.7687 64.8315 79.816 64.8862 79.816Z" fill="#3F3D56"/>
<path d="M63.187 79.816H63.8385C63.8932 79.816 63.9375 79.7687 63.9375 79.7104V79.3779C63.9375 79.3195 63.8932 79.2722 63.8385 79.2722H63.187C63.1323 79.2722 63.088 79.3195 63.088 79.3779V79.7104C63.088 79.7687 63.1323 79.816 63.187 79.816Z" fill="#3F3D56"/>
<path d="M61.4897 79.816H62.1412C62.1959 79.816 62.2402 79.7687 62.2402 79.7104V79.3779C62.2402 79.3195 62.1959 79.2722 62.1412 79.2722H61.4897C61.435 79.2722 61.3907 79.3195 61.3907 79.3779V79.7104C61.3907 79.7687 61.435 79.816 61.4897 79.816Z" fill="#3F3D56"/>
<path d="M59.7905 79.8162H60.442C60.4967 79.8162 60.541 79.7689 60.541 79.7105V79.378C60.541 79.3196 60.4967 79.2723 60.442 79.2723H59.7905C59.7358 79.2723 59.6915 79.3196 59.6915 79.378V79.7105C59.6915 79.7689 59.7358 79.8162 59.7905 79.8162Z" fill="#3F3D56"/>
<path d="M58.0913 79.8162H58.7428C58.7975 79.8162 58.8418 79.7689 58.8418 79.7105V79.378C58.8418 79.3196 58.7975 79.2723 58.7428 79.2723H58.0913C58.0366 79.2723 57.9923 79.3196 57.9923 79.378V79.7105C57.9923 79.7689 58.0366 79.8162 58.0913 79.8162Z" fill="#3F3D56"/>
<path d="M56.3921 79.816H57.0436C57.0982 79.816 57.1426 79.7687 57.1426 79.7104V79.3779C57.1426 79.3195 57.0982 79.2722 57.0436 79.2722H56.3921C56.3374 79.2722 56.293 79.3195 56.293 79.3779V79.7104C56.293 79.7687 56.3374 79.816 56.3921 79.816Z" fill="#3F3D56"/>
<path d="M54.6928 79.816H55.3443C55.399 79.816 55.4434 79.7687 55.4434 79.7104V79.3779C55.4434 79.3195 55.399 79.2722 55.3443 79.2722H54.6928C54.6382 79.2722 54.5938 79.3195 54.5938 79.3779V79.7104C54.5938 79.7687 54.6382 79.816 54.6928 79.816Z" fill="#3F3D56"/>
<path d="M52.9936 79.816H53.6451C53.6998 79.816 53.7441 79.7687 53.7441 79.7104V79.3779C53.7441 79.3195 53.6998 79.2722 53.6451 79.2722H52.9936C52.9389 79.2722 52.8946 79.3195 52.8946 79.3779V79.7104C52.8946 79.7687 52.9389 79.816 52.9936 79.816Z" fill="#3F3D56"/>
<path d="M78.5014 80.7224H79.1529C79.2076 80.7224 79.252 80.6751 79.252 80.6168V80.2842C79.252 80.2259 79.2076 80.1786 79.1529 80.1786H78.5014C78.4467 80.1786 78.4024 80.2259 78.4024 80.2842V80.6168C78.4024 80.6751 78.4467 80.7224 78.5014 80.7224Z" fill="#3F3D56"/>
<path d="M76.8022 80.7224H77.4537C77.5084 80.7224 77.5527 80.6751 77.5527 80.6168V80.2842C77.5527 80.2259 77.5084 80.1786 77.4537 80.1786H76.8022C76.7475 80.1786 76.7032 80.2259 76.7032 80.2842V80.6168C76.7032 80.6751 76.7475 80.7224 76.8022 80.7224Z" fill="#3F3D56"/>
<path d="M75.101 80.7224H75.7525C75.8072 80.7224 75.8516 80.6751 75.8516 80.6168V80.2842C75.8516 80.2259 75.8072 80.1786 75.7525 80.1786H75.101C75.0464 80.1786 75.002 80.2259 75.002 80.2842V80.6168C75.002 80.6751 75.0464 80.7224 75.101 80.7224Z" fill="#3F3D56"/>
<path d="M73.4018 80.7224H74.0533C74.108 80.7224 74.1523 80.6751 74.1523 80.6168V80.2842C74.1523 80.2259 74.108 80.1786 74.0533 80.1786H73.4018C73.3471 80.1786 73.3028 80.2259 73.3028 80.2842V80.6168C73.3028 80.6751 73.3471 80.7224 73.4018 80.7224Z" fill="#3F3D56"/>
<path d="M71.7026 80.7224H72.3541C72.4088 80.7224 72.4531 80.6751 72.4531 80.6168V80.2842C72.4531 80.2259 72.4088 80.1786 72.3541 80.1786H71.7026C71.6479 80.1786 71.6036 80.2259 71.6036 80.2842V80.6168C71.6036 80.6751 71.6479 80.7224 71.7026 80.7224Z" fill="#3F3D56"/>
<path d="M70.0053 80.7224H70.6568C70.7115 80.7224 70.7559 80.6751 70.7559 80.6168V80.2842C70.7559 80.2259 70.7115 80.1786 70.6568 80.1786H70.0053C69.9506 80.1786 69.9063 80.2259 69.9063 80.2842V80.6168C69.9063 80.6751 69.9506 80.7224 70.0053 80.7224Z" fill="#3F3D56"/>
<path d="M68.3061 80.7224H68.9576C69.0123 80.7224 69.0566 80.6751 69.0566 80.6168V80.2842C69.0566 80.2259 69.0123 80.1786 68.9576 80.1786H68.3061C68.2514 80.1786 68.2071 80.2259 68.2071 80.2842V80.6168C68.2071 80.6751 68.2514 80.7224 68.3061 80.7224Z" fill="#3F3D56"/>
<path d="M66.6069 80.7224H67.2584C67.3131 80.7224 67.3574 80.6751 67.3574 80.6168V80.2842C67.3574 80.2259 67.3131 80.1786 67.2584 80.1786H66.6069C66.5522 80.1786 66.5079 80.2259 66.5079 80.2842V80.6168C66.5079 80.6751 66.5522 80.7224 66.6069 80.7224Z" fill="#3F3D56"/>
<path d="M64.9077 80.7224H65.5592C65.6139 80.7224 65.6582 80.6751 65.6582 80.6168V80.2842C65.6582 80.2259 65.6139 80.1786 65.5592 80.1786H64.9077C64.853 80.1786 64.8087 80.2259 64.8087 80.2842V80.6168C64.8087 80.6751 64.853 80.7224 64.9077 80.7224Z" fill="#3F3D56"/>
<path d="M63.2085 80.7224H63.86C63.9147 80.7224 63.959 80.6751 63.959 80.6168V80.2842C63.959 80.2259 63.9147 80.1786 63.86 80.1786H63.2085C63.1538 80.1786 63.1094 80.2259 63.1094 80.2842V80.6168C63.1094 80.6751 63.1538 80.7224 63.2085 80.7224Z" fill="#3F3D56"/>
<path d="M61.5092 80.7224H62.1607C62.2154 80.7224 62.2598 80.6751 62.2598 80.6168V80.2842C62.2598 80.2259 62.2154 80.1786 62.1607 80.1786H61.5092C61.4546 80.1786 61.4102 80.2259 61.4102 80.2842V80.6168C61.4102 80.6751 61.4546 80.7224 61.5092 80.7224Z" fill="#3F3D56"/>
<path d="M59.81 80.7224H60.4615C60.5162 80.7224 60.5605 80.6751 60.5605 80.6168V80.2842C60.5605 80.2259 60.5162 80.1786 60.4615 80.1786H59.81C59.7553 80.1786 59.711 80.2259 59.711 80.2842V80.6168C59.711 80.6751 59.7553 80.7224 59.81 80.7224Z" fill="#3F3D56"/>
<path d="M58.1108 80.7224H58.7623C58.817 80.7224 58.8613 80.6751 58.8613 80.6168V80.2842C58.8613 80.2259 58.817 80.1786 58.7623 80.1786H58.1108C58.0561 80.1786 58.0118 80.2259 58.0118 80.2842V80.6168C58.0118 80.6751 58.0561 80.7224 58.1108 80.7224Z" fill="#3F3D56"/>
<path d="M56.4116 80.7224H57.0631C57.1178 80.7224 57.1621 80.6751 57.1621 80.6168V80.2842C57.1621 80.2259 57.1178 80.1786 57.0631 80.1786H56.4116C56.3569 80.1786 56.3126 80.2259 56.3126 80.2842V80.6168C56.3126 80.6751 56.3569 80.7224 56.4116 80.7224Z" fill="#3F3D56"/>
<path d="M54.7143 80.7224H55.3658C55.4205 80.7224 55.4648 80.6751 55.4648 80.6168V80.2842C55.4648 80.2259 55.4205 80.1786 55.3658 80.1786H54.7143C54.6596 80.1786 54.6153 80.2259 54.6153 80.2842V80.6168C54.6153 80.6751 54.6596 80.7224 54.7143 80.7224Z" fill="#3F3D56"/>
<path d="M53.0151 80.7224H53.6666C53.7213 80.7224 53.7656 80.6751 53.7656 80.6168V80.2842C53.7656 80.2259 53.7213 80.1786 53.6666 80.1786H53.0151C52.9604 80.1786 52.9161 80.2259 52.9161 80.2842V80.6168C52.9161 80.6751 52.9604 80.7224 53.0151 80.7224Z" fill="#3F3D56"/>
<path d="M64.3965 81.8101H70.9947C71.0494 81.8101 71.0938 81.7628 71.0938 81.7044V81.3719C71.0938 81.3135 71.0494 81.2662 70.9947 81.2662H64.3965C64.3418 81.2662 64.2974 81.3135 64.2974 81.3719V81.7044C64.2974 81.7628 64.3418 81.8101 64.3965 81.8101Z" fill="#3F3D56"/>
</g>
<defs>
<clipPath id="clip0_343_10">
<rect width="169" height="137" fill="white"/>
</clipPath>
</defs>
</svg>
