<svg width="332" height="261" viewBox="0 0 332 261" fill="none" xmlns="http://www.w3.org/2000/svg">
<g clip-path="url(#clip0_343_77)">
<path opacity="0.1" d="M84.4573 104.579H49.2939C48.0486 104.579 47.0391 105.721 47.0391 107.13V115.599C47.0391 117.008 48.0486 118.151 49.2939 118.151H84.4573C85.7026 118.151 86.7122 117.008 86.7122 115.599V107.13C86.7122 105.721 85.7026 104.579 84.4573 104.579Z" fill="#F9A326"/>
<path opacity="0.1" d="M125.975 118.154H90.8114C89.5662 118.154 88.5566 119.296 88.5566 120.706V129.174C88.5566 130.584 89.5662 131.726 90.8114 131.726H125.975C127.22 131.726 128.23 130.584 128.23 129.174V120.706C128.23 119.296 127.22 118.154 125.975 118.154Z" fill="#F9A326"/>
<path opacity="0.1" d="M167.496 131.726H132.333C131.088 131.726 130.078 132.868 130.078 134.278V142.746C130.078 144.156 131.088 145.298 132.333 145.298H167.496C168.742 145.298 169.751 144.156 169.751 142.746V134.278C169.751 132.868 168.742 131.726 167.496 131.726Z" fill="#F9A326"/>
<path opacity="0.1" d="M84.4573 84.2206H49.2939C48.0486 84.2206 47.0391 85.363 47.0391 86.7722V95.241C47.0391 96.6502 48.0486 97.7926 49.2939 97.7926H84.4573C85.7026 97.7926 86.7122 96.6502 86.7122 95.241V86.7722C86.7122 85.363 85.7026 84.2206 84.4573 84.2206Z" fill="#F9A326"/>
<path opacity="0.1" d="M125.975 97.7926H90.8114C89.5662 97.7926 88.5566 98.935 88.5566 100.344V108.813C88.5566 110.222 89.5662 111.365 90.8114 111.365H125.975C127.22 111.365 128.23 110.222 128.23 108.813V100.344C128.23 98.935 127.22 97.7926 125.975 97.7926Z" fill="#F9A326"/>
<path opacity="0.1" d="M167.496 111.368H132.333C131.088 111.368 130.078 112.51 130.078 113.92V122.388C130.078 123.798 131.088 124.94 132.333 124.94H167.496C168.742 124.94 169.751 123.798 169.751 122.388V113.92C169.751 112.51 168.742 111.368 167.496 111.368Z" fill="#F9A326"/>
<path opacity="0.1" d="M213.627 104.579H178.464C177.218 104.579 176.209 105.721 176.209 107.13V115.599C176.209 117.008 177.218 118.151 178.464 118.151H213.627C214.873 118.151 215.882 117.008 215.882 115.599V107.13C215.882 105.721 214.873 104.579 213.627 104.579Z" fill="#F9A326"/>
<path opacity="0.1" d="M255.145 118.154H219.981C218.736 118.154 217.727 119.296 217.727 120.706V129.174C217.727 130.584 218.736 131.726 219.981 131.726H255.145C256.39 131.726 257.4 130.584 257.4 129.174V120.706C257.4 119.296 256.39 118.154 255.145 118.154Z" fill="#F9A326"/>
<path opacity="0.1" d="M296.666 131.726H261.503C260.258 131.726 259.248 132.868 259.248 134.278V142.746C259.248 144.156 260.258 145.298 261.503 145.298H296.666C297.912 145.298 298.921 144.156 298.921 142.746V134.278C298.921 132.868 297.912 131.726 296.666 131.726Z" fill="#F9A326"/>
<path opacity="0.1" d="M213.627 84.2206H178.464C177.218 84.2206 176.209 85.363 176.209 86.7722V95.241C176.209 96.6502 177.218 97.7926 178.464 97.7926H213.627C214.873 97.7926 215.882 96.6502 215.882 95.241V86.7722C215.882 85.363 214.873 84.2206 213.627 84.2206Z" fill="#F9A326"/>
<path opacity="0.1" d="M255.145 97.7926H219.981C218.736 97.7926 217.727 98.935 217.727 100.344V108.813C217.727 110.222 218.736 111.365 219.981 111.365H255.145C256.39 111.365 257.4 110.222 257.4 108.813V100.344C257.4 98.935 256.39 97.7926 255.145 97.7926Z" fill="#F9A326"/>
<path opacity="0.1" d="M296.666 111.368H261.503C260.258 111.368 259.248 112.51 259.248 113.92V122.388C259.248 123.798 260.258 124.94 261.503 124.94H296.666C297.912 124.94 298.921 123.798 298.921 122.388V113.92C298.921 112.51 297.912 111.368 296.666 111.368Z" fill="#F9A326"/>
<path opacity="0.1" d="M84.4573 57.0732H49.2939C48.0486 57.0732 47.0391 58.2155 47.0391 59.6248V68.0935C47.0391 69.5028 48.0486 70.6452 49.2939 70.6452H84.4573C85.7026 70.6452 86.7122 69.5028 86.7122 68.0935V59.6248C86.7122 58.2155 85.7026 57.0732 84.4573 57.0732Z" fill="#F9A326"/>
<path opacity="0.1" d="M125.975 70.6451H90.8114C89.5662 70.6451 88.5566 71.7875 88.5566 73.1968V81.6655C88.5566 83.0747 89.5662 84.2171 90.8114 84.2171H125.975C127.22 84.2171 128.23 83.0747 128.23 81.6655V73.1968C128.23 71.7875 127.22 70.6451 125.975 70.6451Z" fill="#F9A326"/>
<path opacity="0.1" d="M167.496 84.2206H132.333C131.088 84.2206 130.078 85.363 130.078 86.7722V95.241C130.078 96.6502 131.088 97.7926 132.333 97.7926H167.496C168.742 97.7926 169.751 96.6502 169.751 95.241V86.7722C169.751 85.363 168.742 84.2206 167.496 84.2206Z" fill="#F9A326"/>
<path opacity="0.1" d="M84.4573 36.7117H49.2939C48.0486 36.7117 47.0391 37.8541 47.0391 39.2633V47.7321C47.0391 49.1413 48.0486 50.2837 49.2939 50.2837H84.4573C85.7026 50.2837 86.7122 49.1413 86.7122 47.7321V39.2633C86.7122 37.8541 85.7026 36.7117 84.4573 36.7117Z" fill="#F9A326"/>
<path opacity="0.1" d="M125.975 50.2871H90.8114C89.5662 50.2871 88.5566 51.4295 88.5566 52.8388V61.3075C88.5566 62.7167 89.5662 63.8591 90.8114 63.8591H125.975C127.22 63.8591 128.23 62.7167 128.23 61.3075V52.8388C128.23 51.4295 127.22 50.2871 125.975 50.2871Z" fill="#F9A326"/>
<path opacity="0.1" d="M167.496 63.8591H132.333C131.088 63.8591 130.078 65.0015 130.078 66.4108V74.8795C130.078 76.2887 131.088 77.4311 132.333 77.4311H167.496C168.742 77.4311 169.751 76.2887 169.751 74.8795V66.4108C169.751 65.0015 168.742 63.8591 167.496 63.8591Z" fill="#F9A326"/>
<path opacity="0.1" d="M213.627 57.0732H178.464C177.218 57.0732 176.209 58.2155 176.209 59.6248V68.0935C176.209 69.5028 177.218 70.6452 178.464 70.6452H213.627C214.873 70.6452 215.882 69.5028 215.882 68.0935V59.6248C215.882 58.2155 214.873 57.0732 213.627 57.0732Z" fill="#F9A326"/>
<path opacity="0.1" d="M255.145 70.6451H219.981C218.736 70.6451 217.727 71.7875 217.727 73.1968V81.6655C217.727 83.0747 218.736 84.2171 219.981 84.2171H255.145C256.39 84.2171 257.4 83.0747 257.4 81.6655V73.1968C257.4 71.7875 256.39 70.6451 255.145 70.6451Z" fill="#F9A326"/>
<path opacity="0.1" d="M296.666 84.2206H261.503C260.258 84.2206 259.248 85.363 259.248 86.7722V95.241C259.248 96.6502 260.258 97.7926 261.503 97.7926H296.666C297.912 97.7926 298.921 96.6502 298.921 95.241V86.7722C298.921 85.363 297.912 84.2206 296.666 84.2206Z" fill="#F9A326"/>
<path opacity="0.1" d="M213.627 36.7117H178.464C177.218 36.7117 176.209 37.8541 176.209 39.2633V47.7321C176.209 49.1413 177.218 50.2837 178.464 50.2837H213.627C214.873 50.2837 215.882 49.1413 215.882 47.7321V39.2633C215.882 37.8541 214.873 36.7117 213.627 36.7117Z" fill="#F9A326"/>
<path opacity="0.1" d="M255.145 50.2871H219.981C218.736 50.2871 217.727 51.4295 217.727 52.8388V61.3075C217.727 62.7167 218.736 63.8591 219.981 63.8591H255.145C256.39 63.8591 257.4 62.7167 257.4 61.3075V52.8388C257.4 51.4295 256.39 50.2871 255.145 50.2871Z" fill="#F9A326"/>
<path opacity="0.1" d="M296.666 63.8591H261.503C260.258 63.8591 259.248 65.0015 259.248 66.4108V74.8795C259.248 76.2887 260.258 77.4311 261.503 77.4311H296.666C297.912 77.4311 298.921 76.2887 298.921 74.8795V66.4108C298.921 65.0015 297.912 63.8591 296.666 63.8591Z" fill="#F9A326"/>
<path opacity="0.1" d="M166 261C257.679 261 332 245.701 332 226.83C332 207.958 257.679 192.659 166 192.659C74.3207 192.659 0 207.958 0 226.83C0 245.701 74.3207 261 166 261Z" fill="#F9A326"/>
<path d="M72.8328 110.238L58.873 207.083L121.996 199.528L119.264 191.286L69.9498 195.922L81.4818 110.066L72.8328 110.238Z" fill="#3F3D56"/>
<path d="M56.4453 0.343421L141.418 0L165.999 210.517L80.7232 223.567L56.4453 0.343421Z" fill="#3F3D56"/>
<path d="M65.7012 8.41382H134.286L158.261 204.164L87.5513 215.153L65.7012 8.41382Z" fill="white"/>
<path d="M130.384 195.359C130.815 196.293 131.136 197.302 131.698 198.144C133.337 200.623 136.447 201.011 138.781 202.629C138.898 202.696 138.994 202.801 139.057 202.931C139.163 203.216 138.927 203.515 138.699 203.693C136.93 205.098 134.608 205.129 132.444 205.112C131.717 205.141 130.99 205.062 130.281 204.878C129.137 204.535 128.156 203.632 127.027 203.264C126.442 203.099 125.843 203.003 125.24 202.979L122.87 202.797C122.239 202.787 121.614 202.655 121.022 202.409C120.727 202.281 120.465 202.071 120.261 201.798C120.057 201.524 119.918 201.197 119.856 200.846C119.79 200.276 120.005 199.723 120.132 199.167C120.436 197.848 120.342 196.255 121.249 195.355C121.623 195.031 122.052 194.797 122.509 194.668C124.158 194.039 125.842 193.532 127.549 193.15C128.954 192.838 129.762 194.005 130.384 195.359Z" fill="#3F3D56"/>
<path d="M103.576 202.787C103.637 203.518 103.655 204.356 103.188 204.868C102.897 205.141 102.545 205.319 102.171 205.383C99.9284 205.974 97.4277 206.015 95.4764 204.634C95.2734 204.503 95.0942 204.329 94.9484 204.123C94.7857 203.841 94.6934 203.515 94.6813 203.178C94.6115 202.206 94.8755 201.248 95.1153 200.311C95.6826 198.086 96.1135 195.82 96.4051 193.528C96.4293 193.339 102.132 194.558 102.511 195.197C102.987 195.987 102.99 197.883 103.118 198.824C103.31 200.138 103.463 201.459 103.576 202.787Z" fill="#3F3D56"/>
<path d="M124.8 113.422L126.317 129.387C126.62 132.65 126.939 135.929 126.73 139.202C126.487 142.98 125.552 146.758 125.947 150.501C126.102 151.957 126.454 153.386 126.505 154.852C126.515 155.827 126.471 156.802 126.375 157.771C125.689 167.459 127.859 177.071 129.073 186.691C129.268 187.877 129.311 189.089 129.2 190.29C129.042 191.509 128.727 193.109 129.686 193.686L120.678 197.381C119.528 195.75 120.29 193.212 120.072 191.141C119.871 189.277 118.967 187.614 118.484 185.818C118.047 184.204 117.956 182.504 117.814 180.828C117.028 171.704 114.615 162.816 114.051 153.671C114.032 152.787 113.931 151.909 113.747 151.05C113.444 149.914 112.837 148.921 112.394 147.853C111.714 146.249 111.38 144.491 111.052 142.753L109.125 132.536C107.177 135.82 107.256 140.092 106.87 144.027C106.33 149.522 105.122 154.924 104.139 160.35C103.911 161.518 103.74 162.699 103.626 163.887C103.371 167.071 103.878 170.285 103.608 173.465C103.305 177.15 101.936 180.746 102.267 184.431C102.449 186.471 103.141 188.401 103.608 190.379C104.075 192.357 104.306 194.527 103.593 196.413C101.1 195.377 98.4228 195.043 95.7906 195.437C92.8985 192.089 92.3857 187.419 92.1884 182.731C91.9911 178.043 92.4676 173.349 91.9517 168.706C91.8 167.332 91.5632 165.993 91.5238 164.622C91.3963 160.23 93.2627 156.119 94.1913 151.85C95.027 148.008 95.1068 144.004 94.425 140.123C93.9698 137.557 93.1868 135.068 92.9076 132.468C92.5283 128.824 93.1716 125.153 93.818 121.554C94.252 119.126 94.6829 116.698 95.1746 114.284C95.7026 111.691 96.3308 109.043 97.742 106.921C99.9998 103.524 104.009 102.017 107.757 102.346C111.504 102.676 115.004 104.606 118.099 107.01C120.539 108.855 122.786 111.006 124.8 113.422Z" fill="#192534"/>
<path d="M114.732 52.2859C114.562 52.5953 114.443 52.9375 114.383 53.2955C114.307 53.9995 114.686 54.6452 114.99 55.2599C115.378 56.0497 115.677 56.892 115.879 57.7669C116.023 58.3083 116.068 58.8776 116.009 59.4393C115.935 59.8612 115.802 60.267 115.615 60.6413C115.029 61.9188 114.161 63.1002 112.981 63.6325C112.066 64.0134 111.069 64.0591 110.131 63.763C109.199 63.4644 108.318 62.9907 107.524 62.3618C106.855 61.8822 106.254 61.2918 105.74 60.6104C105.249 59.8652 104.835 59.0586 104.508 58.2064C103.876 56.7126 103.236 55.1156 103.351 53.4775C103.357 53.329 103.382 53.1822 103.424 53.0414C103.523 52.787 103.661 52.5544 103.831 52.3545C105.126 50.6183 105.79 48.3904 105.688 46.1214L110.11 47.2582C111.084 47.5089 112.058 47.7596 113.02 48.0721C113.809 48.3296 115.023 48.6868 115.536 49.4835C116.049 50.2803 115.081 51.5578 114.732 52.2859Z" fill="#FBBEBE"/>
<path d="M112.364 51.4342C116.802 51.4342 120.4 47.3627 120.4 42.3404C120.4 37.318 116.802 33.2466 112.364 33.2466C107.926 33.2466 104.328 37.318 104.328 42.3404C104.328 47.3627 107.926 51.4342 112.364 51.4342Z" fill="#FBBEBE"/>
<path d="M111.07 60.6859C111.41 59.8446 112.145 59.3122 112.815 58.7834C113.486 58.2545 114.166 57.578 114.296 56.661C114.304 56.4536 114.35 56.2503 114.43 56.0635C114.688 55.6239 115.301 55.8437 115.668 56.1665C116.56 56.9529 117.167 58.0691 117.759 59.1577C118.525 60.4816 119.18 61.883 119.716 63.344C120.569 65.8888 120.672 68.667 120.766 71.3835C120.851 73.8561 120.933 76.3665 120.402 78.7636C120.068 80.2815 119.492 81.7548 119.458 83.3174C119.358 88.9941 117.616 94.4202 117.495 100.097C117.486 101.738 117.559 103.379 117.713 105.011L117.999 108.696C113.586 108.41 109.186 107.972 104.798 107.381C104.67 105.684 104.242 104.039 103.851 102.398C102.248 95.6867 101.22 88.8162 100.783 81.8819C100.549 78.2004 100.309 74.5327 99.9481 70.8649C99.6234 67.5303 98.9861 64.1751 99.3685 60.8473C99.5686 59.3348 99.9891 57.8702 100.613 56.5134C100.81 55.9728 101.149 55.5137 101.584 55.1981C101.801 55.0792 102.032 54.9948 102.27 54.9474C102.958 54.7896 103.656 54.6966 104.358 54.6692C104.529 54.6529 104.702 54.6715 104.867 54.7241C105.163 54.8909 105.406 55.1573 105.562 55.4865C106.915 57.7869 108.828 59.5933 111.07 60.6859Z" fill="#F2F2F2"/>
<path d="M107.344 59.9579C107.908 60.8714 109.104 61.0877 109.626 62.0184C109.802 62.4074 109.935 62.8191 110.023 63.2444C110.342 64.3949 110.985 65.3942 111.377 66.5172C111.941 68.1313 111.957 69.9171 111.963 71.6514C112.018 73.0328 111.924 74.4167 111.683 75.7724C111.501 76.6207 111.204 77.4277 110.985 78.2657C110.614 79.6906 110.477 81.1804 110.579 82.6615C110.579 82.9814 110.654 83.2955 110.797 83.5715C111.003 83.8473 111.272 84.054 111.574 84.1691C112.463 84.6121 113.395 85.0654 114.366 84.9624C114.565 84.9553 114.758 84.8825 114.921 84.7529C115.034 84.6369 115.127 84.4983 115.195 84.3442L115.802 83.1835C116.351 82.1223 116.924 80.934 116.712 79.7218C116.558 79.0961 116.326 78.4983 116.023 77.9463C115.635 77.0504 115.305 76.1242 115.034 75.1749C114.066 72.0257 113.085 68.8319 112.867 65.5076C112.738 64.2424 112.863 62.9608 113.231 61.7574C113.516 61.0168 113.875 60.3152 114.299 59.666C114.203 59.5201 114.07 59.4107 113.918 59.3524C113.766 59.2942 113.601 59.2897 113.447 59.3397C113.141 59.4465 112.846 59.5856 112.563 59.7553C111.671 60.1811 110.682 60.0266 109.781 59.7347C109.429 59.6179 108.87 59.2195 108.506 59.247C108.382 59.2642 107.365 59.9991 107.344 59.9579Z" fill="#F9A326"/>
<path d="M114.448 59.9201C114.266 59.7553 113.984 59.6042 113.823 59.7965C113.769 59.8798 113.73 59.9743 113.708 60.0746C113.55 60.5554 113.085 60.7924 112.664 60.9778C112.242 61.1633 111.787 61.2663 111.532 60.9126C111.451 60.7749 111.412 60.6117 111.419 60.4468C111.426 60.2819 111.479 60.1239 111.571 59.9957C111.758 59.7412 111.983 59.5261 112.236 59.3603C113.632 58.2453 114.583 56.5522 114.882 54.6486C115.273 55.0007 115.533 55.5074 115.607 56.0669C115.707 56.613 115.72 57.1762 115.82 57.7222C115.968 58.5052 116.299 59.2367 116.375 60.03C116.415 60.4524 116.375 60.8782 116.375 61.3007C116.389 61.7136 116.431 62.1248 116.503 62.5301C115.792 61.6784 115.292 60.6791 114.448 59.9201Z" fill="#F2F2F2"/>
<path d="M108.307 57.5883C108.004 57.262 107.7 56.9529 107.397 56.6198C106.065 55.1489 105.06 53.3427 104.462 51.3483C104.074 51.6917 103.646 52.145 103.637 52.722C103.671 53.1303 103.811 53.5182 104.037 53.8381C105.185 55.8833 105.943 58.177 106.262 60.5726C106.426 60.2828 106.653 60.0455 106.921 59.8838C107.19 59.722 107.49 59.6411 107.794 59.6488C108.274 59.6488 110.425 61.0912 110.58 60.7271C110.808 60.1571 108.671 57.9763 108.307 57.5883Z" fill="#F2F2F2"/>
<path d="M115.083 54.8547C117.938 58.0705 121.432 60.4647 125.274 61.8364C125.656 61.9306 126.01 62.134 126.303 62.4271C126.521 62.7362 126.668 63.1021 126.73 63.4917C127.471 66.7679 127.72 70.1575 127.966 73.5265C128.03 74.0836 128.02 74.6486 127.935 75.2024C127.756 76.1021 127.192 76.8302 126.636 77.5067C124.894 79.6187 122.907 81.8269 122.612 84.6979C122.59 85.2514 122.532 85.8023 122.439 86.3464C122.288 86.9851 121.951 87.5483 121.744 88.1699C120.731 91.2298 123.022 94.9353 121.626 97.7857C122.382 99.4287 122.9 101.198 123.162 103.026C123.208 103.719 123.349 104.4 123.577 105.046C123.993 106.028 124.849 106.653 125.523 107.45C127.577 109.833 127.829 113.48 127.95 116.808C128.026 118.683 128.002 120.836 126.737 122.066C126.005 122.783 125.007 123.017 124.051 123.195C122.779 123.436 121.395 123.608 120.269 122.897C119.462 122.388 118.913 121.499 118.388 120.64C117.393 119.002 116.394 117.368 115.45 115.688C113.957 113.04 112.549 110.015 112.98 106.91C112.859 110.087 112.267 113.288 110.889 116.056C109.511 118.824 107.293 121.135 104.601 122.048C101.909 122.962 98.7623 122.316 96.7564 120.091C96.1015 119.328 95.5392 118.47 95.0842 117.539C93.9424 115.326 93.1091 112.927 92.614 110.427C92.4835 109.778 92.3864 109.053 92.6747 108.473C92.8112 108.198 93.0206 107.982 93.1632 107.711C93.6427 106.787 93.1814 105.623 92.7171 104.682C92.01 104.757 91.5032 103.816 91.567 103.013C91.6307 102.209 92.0556 101.512 92.356 100.78C93.2361 98.6237 93.0419 96.1133 92.617 93.7883C92.1921 91.4633 91.5579 89.1521 91.6064 86.7791C91.658 84.2687 90.0617 82.009 88.8448 79.9107C88.165 78.7293 87.373 77.6303 86.7812 76.3906C85.5474 73.7817 85.2621 70.7308 85.9861 67.8875C86.4111 66.4274 86.9684 65.0211 87.6491 63.6909L88.6506 61.5651C88.8371 61.0572 89.1265 60.606 89.4955 60.248C89.8646 59.8901 90.3028 59.6354 90.7749 59.5046L97.7032 56.4138C98.5891 56.0714 99.4302 55.5954 100.204 54.9989C101.051 54.2777 101.682 53.2818 102.489 52.5125C102.607 52.3727 102.748 52.2609 102.904 52.1836C103.06 52.1064 103.229 52.0652 103.399 52.0626C104.049 52.1279 104.279 53.0551 104.346 53.7797C104.498 55.4007 105.56 56.7744 105.921 58.3507C107.876 67.0564 112.012 75.0856 113.147 83.9733C114.422 80.5082 115.696 77.0362 117.329 73.7737C117.586 73.3053 117.803 72.8096 117.975 72.2936C118.171 71.5492 118.244 70.7704 118.191 69.9961C118.109 67.7604 117.584 65.5763 117.065 63.4161C116.391 60.4765 115.784 57.7669 115.083 54.8547Z" fill="#3F3D56"/>
<path d="M128.288 81.456C128.421 82.919 128.552 84.3854 128.792 85.8312C129.071 87.5037 129.496 89.1384 129.918 90.7731C130.124 91.6919 130.419 92.5822 130.798 93.4277C130.935 93.6731 131.044 93.9374 131.122 94.2141C131.271 94.901 130.931 95.5878 130.785 96.2747C130.348 98.3352 131.659 100.626 130.834 102.525C130.585 103.102 130.151 103.579 129.987 104.197C129.796 104.908 129.987 105.667 130.087 106.402C130.345 108.463 129.723 110.558 129.11 112.539L128.066 115.884C127.113 113.878 126.151 111.852 124.834 110.132C124.364 109.514 123.851 108.94 123.417 108.288C122.77 107.262 122.259 106.135 121.9 104.943C120.973 102.109 120.444 99.1286 120.331 96.1098C120.256 95.2516 120.343 94.385 120.589 93.5685C120.79 93.0962 121.015 92.6375 121.262 92.1948C122.076 90.5361 122.243 88.5717 122.228 86.676C122.212 84.7804 122.033 82.8778 122.228 80.9924C122.386 79.4182 122.797 77.8901 123.441 76.4833C123.821 75.5723 124.386 74.7757 125.089 74.1583C125.614 73.7136 126.254 73.4781 126.91 73.4887C127.902 73.5539 127.675 74.5189 127.76 75.4496L128.288 81.456Z" fill="#3F3D56"/>
<path d="M83.6486 76.7821C83.0295 78.8426 82.4711 80.9215 81.9734 83.0186C81.4878 85.0791 81.0539 87.1511 80.6715 89.2345C80.4751 90.1506 80.3652 91.0877 80.3438 92.03C80.3826 93.1271 80.5489 94.2136 80.8384 95.2616C82.7928 103.232 86.3556 110.585 90.3675 117.498C91.5139 115.88 92.8755 114.474 94.4037 113.329C94.5287 113.245 94.6331 113.127 94.7071 112.986C94.7456 112.852 94.7568 112.71 94.74 112.571C94.7232 112.432 94.6788 112.299 94.61 112.182C93.5024 109.613 91.7483 107.35 91.196 104.558C90.9653 103.397 90.9562 102.188 90.6952 101.034C90.3584 99.5406 89.6058 98.1738 89.4328 96.6421C89.2477 94.9731 89.7363 93.153 89.0443 91.6728C90.4555 91.0512 91.2718 89.4062 91.8697 87.8299C92.5085 86.2173 92.9652 84.52 93.2292 82.7782C93.6448 79.4389 93.0672 76.038 91.5874 73.1109C90.8647 71.6508 89.9371 70.3332 88.841 69.2097C88.4799 68.8422 87.6271 67.7879 87.1021 67.7982C86.4011 67.8154 86.1765 69.0998 85.9762 69.6767C85.1659 72.0326 84.3648 74.3919 83.6486 76.7821Z" fill="#3F3D56"/>
<path d="M96.2186 115.221C96.3096 115.297 96.4128 115.4 96.3885 115.523C96.3642 115.647 96.2762 115.678 96.1973 115.729C95.7871 116.059 95.4808 116.528 95.3233 117.069C94.819 118.355 94.3793 119.672 94.0063 121.015C93.3271 119.863 92.5284 118.808 91.627 117.872C90.9351 117.151 90.1613 116.468 89.791 115.493C89.791 115.465 91.3812 114.136 91.5269 113.992C91.973 113.542 92.5344 112.295 92.9957 112.021C93.5177 111.711 94.0154 112.924 94.4129 113.411C94.9598 114.081 95.5647 114.688 96.2186 115.221Z" fill="#FBBEBE"/>
<path d="M120.898 40.9186C120.877 40.4687 120.825 39.9708 120.522 39.6789C120.255 39.4703 119.934 39.3699 119.611 39.3938C117.842 39.3286 116.012 39.6651 114.343 38.992C113.244 38.549 112.307 37.6973 111.235 37.1685C110.164 36.6396 108.792 36.4988 107.928 37.3882C107.272 38.0751 107.093 39.1294 106.865 40.1013C106.364 42.2463 105.472 44.249 104.246 45.9806C103.424 45.6922 102.835 44.8611 102.456 43.9888C101.166 41.0148 101.8 37.4638 102.717 34.3112C103.02 33.2535 103.357 32.206 103.694 31.162L104.435 28.8542C105.406 28.7462 106.309 28.2378 106.972 27.4256L107.29 28.3013C108.113 28.2678 108.907 27.9503 109.566 27.3913C109.821 27.9339 110.477 28.0781 111.008 27.903C111.539 27.7278 111.997 27.3913 112.525 27.2161C113.936 26.701 115.442 27.4943 116.923 27.5836C117.549 27.5663 118.176 27.5869 118.801 27.6454C120.549 27.9648 121.784 29.8261 122.318 31.7355C122.673 33.0062 122.968 34.5688 124.075 35.0186C124.1 35.4994 123.347 35.5922 123.283 36.0489C123.276 36.2012 123.307 36.3527 123.374 36.485L124.391 38.9542C123.905 39.0923 123.394 39.0636 122.922 38.8718C122.464 40.091 120.944 41.8493 120.898 40.9186Z" fill="#192534"/>
<path d="M172.416 46.2932C172.932 48.1762 173.337 50.0955 173.63 52.0386C173.849 53.4947 173.976 55.1122 173.239 56.3279C176.049 51.5441 178.984 46.616 183.253 43.5286C182.384 42.4618 181.722 41.1998 181.312 39.8248C180.902 38.4498 180.751 36.9925 180.871 35.5475C180.895 35.259 177.366 36.7667 177.096 36.9384C175.858 37.7179 174.723 38.6864 173.515 39.5209C172.89 39.9502 170.286 40.9667 170.262 41.5814C170.262 41.9764 171.297 43.1852 171.491 43.6007C171.872 44.4641 172.182 45.3654 172.416 46.2932Z" fill="#FBBEBE"/>
<path d="M185.474 226.72C184.78 226.167 183.967 225.836 183.121 225.764C182.275 225.691 181.427 225.879 180.667 226.308C179.292 227.111 178.367 228.633 177.117 229.663C174.968 231.428 172.13 231.569 169.615 232.524C168.947 232.778 168.237 233.155 167.955 233.897C167.86 234.209 167.822 234.539 167.844 234.868C167.865 235.197 167.945 235.517 168.079 235.81C168.5 236.871 169.237 237.73 170.161 238.238C171.29 238.849 172.589 238.877 173.839 238.894L184.703 239.038C188.042 239.083 191.401 239.128 194.718 239.598C195.492 239.708 196.329 239.828 197.012 239.399C198.123 238.712 198.25 236.974 198.165 235.542C197.942 231.914 197.225 228.346 196.041 224.965C195.911 224.591 195.738 224.165 195.37 224.096C195.11 224.083 194.854 224.175 194.648 224.357C191.583 226.418 187.702 227.582 184.442 225.933" fill="white"/>
<path d="M190.913 148.282C189.699 156.26 190.491 164.457 191.856 172.401C192.108 173.982 192.439 175.546 192.849 177.085C193.337 178.837 193.996 180.519 194.454 182.281C195.619 186.746 195.456 191.519 195.283 196.179L194.487 217.386C194.421 219.164 194.36 220.985 194.833 222.681C195.025 223.368 195.258 224.226 194.776 224.69C194.587 224.844 194.366 224.939 194.135 224.968C191.964 225.421 189.721 225.04 187.762 223.886L187.547 202.464C187.48 195.86 187.41 189.228 186.512 182.707C185.799 177.521 184.561 172.404 184.479 167.157C184.394 161.662 185.584 156.239 186.797 150.913C187.058 149.773 188.011 148.938 188.794 148.166C189.068 147.861 189.4 147.632 189.765 147.499C190.13 147.386 190.688 147.935 190.913 148.282Z" fill="#3F3D56"/>
<path opacity="0.1" d="M190.913 148.282C189.699 156.26 190.491 164.457 191.856 172.401C192.108 173.982 192.439 175.546 192.849 177.085C193.337 178.837 193.996 180.519 194.454 182.281C195.619 186.746 195.456 191.519 195.283 196.179L194.487 217.386C194.421 219.164 194.36 220.985 194.833 222.681C195.025 223.368 195.258 224.226 194.776 224.69C194.587 224.844 194.366 224.939 194.135 224.968C191.964 225.421 189.721 225.04 187.762 223.886L187.547 202.464C187.48 195.86 187.41 189.228 186.512 182.707C185.799 177.521 184.561 172.404 184.479 167.157C184.394 161.662 185.584 156.239 186.797 150.913C187.058 149.773 188.011 148.938 188.794 148.166C189.068 147.861 189.4 147.632 189.765 147.499C190.13 147.386 190.688 147.935 190.913 148.282Z" fill="black"/>
<path d="M168.125 123.35C167.676 125.441 168.629 127.608 168.523 129.758C168.462 131.06 168.01 132.358 168.219 133.635C168.428 134.913 169.236 135.875 169.667 137.046C169.981 138.024 170.147 139.055 170.158 140.095C170.283 142.664 170.183 145.247 170.098 147.805C169.955 152.098 169.849 156.415 170.349 160.67C170.785 164.356 171.671 167.956 172.981 171.367C173.377 172.295 173.705 173.259 173.961 174.248C174.128 175.17 174.24 176.105 174.295 177.044C174.583 180.099 175.308 183.081 176.44 185.873C177.214 187.786 178.564 189.307 178.992 191.337C179.399 193.281 179.126 195.331 179.42 197.299C179.636 198.758 180.161 200.139 180.452 201.581C180.831 203.446 180.822 205.38 181.013 207.282C181.56 212.777 183.766 218.272 182.449 223.601C182.185 224.673 181.775 225.762 181.96 226.854C182.051 227.389 182.282 227.918 182.179 228.451C182.094 228.904 181.784 229.254 181.627 229.683C181.323 230.487 181.645 231.442 182.185 232.063C182.761 232.643 183.431 233.091 184.157 233.382C186.394 234.464 188.71 235.563 191.137 235.539C191.432 235.557 191.726 235.495 191.996 235.36C192.433 235.103 192.649 234.543 192.834 234.028L194.078 230.545C194.23 230.123 194.382 229.629 194.172 229.237C194.026 229.022 193.85 228.837 193.65 228.688C192.646 227.729 192.873 225.94 193.14 224.501C193.822 220.805 194.2 217.046 194.269 213.271C194.403 205.744 193.307 198.26 192.215 190.832C191.835 188.253 191.453 185.657 190.697 183.184C189.942 180.712 188.828 178.332 189.01 175.763C189.204 172.988 188.567 170.079 189.01 167.342C189.453 164.605 190.154 161.926 190.606 159.193C191.192 155.645 191.338 152.029 191.517 148.43C191.593 146.96 191.69 145.442 192.297 144.137C192.652 143.375 193.168 142.722 193.565 141.984C194.591 140.064 194.755 137.684 195.735 135.734C196.199 134.81 196.84 133.996 197.18 133.007C197.418 132.227 197.543 131.408 197.55 130.582C197.646 128.51 197.544 126.432 197.246 124.384C192.08 121.409 186.351 119.905 180.555 120.002C178.337 120.043 176.094 120.297 174.012 121.166C172.028 122 170.219 123.171 168.125 123.35Z" fill="#3F3D56"/>
<path d="M180.567 232.153C179.675 233.41 179.736 235.206 179.165 236.686C178.473 238.482 176.932 239.632 175.469 240.68L166.365 247.205C165.867 247.548 165.333 247.971 165.151 248.609C165.064 249.017 165.08 249.444 165.196 249.842C165.414 250.704 165.819 251.49 166.374 252.129C166.93 252.767 167.619 253.237 168.377 253.496C169.182 253.713 170.01 253.809 170.838 253.781L174.932 253.843C176.179 253.898 177.428 253.843 178.667 253.678C179.802 253.493 180.907 253.125 182.036 252.892C184.091 252.469 186.203 252.507 188.26 252.099C189.52 251.818 190.764 251.455 191.987 251.01C193.474 250.505 194.988 249.98 196.263 248.98C196.614 248.739 196.898 248.391 197.085 247.977C197.301 247.411 197.182 246.762 197.061 246.161L195.107 236.442C194.996 235.633 194.736 234.859 194.342 234.172C193.908 233.519 193.128 233.087 192.451 233.365C192.172 233.509 191.908 233.689 191.665 233.901C190.664 234.646 189.38 234.77 188.197 234.536C187.432 234.381 186.421 234.144 185.805 233.571C185.338 233.135 185.198 232.458 184.801 231.964C184.522 231.64 184.186 231.386 183.815 231.218C183.444 231.051 183.046 230.973 182.647 230.991C182.248 231.009 181.856 231.122 181.498 231.322C181.14 231.522 180.822 231.805 180.567 232.153Z" fill="white"/>
<path d="M174.664 44.9538C180.719 44.9538 185.628 39.3987 185.628 32.546C185.628 25.6934 180.719 20.1382 174.664 20.1382C168.608 20.1382 163.699 25.6934 163.699 32.546C163.699 39.3987 168.608 44.9538 174.664 44.9538Z" fill="#FBBEBE"/>
<path d="M166.207 33.2741C167.257 32.6078 167.257 30.6881 168.331 30.0493C169.406 29.4106 170.626 30.5198 171.314 31.6394C172.318 33.279 173.016 35.1337 173.363 37.0895C173.46 37.6458 173.551 38.2537 173.921 38.6417C174.291 39.0298 174.777 39.0779 175.25 39.1328C176.636 39.2885 178.024 39.4305 179.414 39.5587C180.962 39.6995 182.595 39.8128 184 39.0607C184.554 38.7801 185.03 38.3337 185.377 37.7694C185.655 37.2276 185.854 36.6385 185.966 36.0249C186.691 32.9032 187.423 29.7437 187.483 26.5155C187.508 25.1831 187.405 23.8025 186.837 22.6349C186.506 21.948 186.021 21.3505 185.884 20.595C185.748 19.8394 186.188 18.8778 186.88 18.9603C186.254 18.9894 185.631 18.8554 185.059 18.5688C184.509 18.2253 184.103 17.487 184.297 16.8139C182.755 17.0371 181.632 15.3131 180.431 14.197C180.235 13.9778 179.972 13.8544 179.696 13.8536C179.485 13.9132 179.281 14.002 179.089 14.118C178.482 14.3584 177.848 13.9017 177.226 13.7025C175.557 13.1736 173.436 14.4512 172.197 13.0775C172.316 13.9532 171.366 14.5404 170.583 14.5233C169.8 14.5061 168.993 14.1799 168.252 14.4752C168.36 14.6972 168.422 14.9432 168.436 15.1957C168.449 15.4483 168.413 15.701 168.33 15.936C168.247 16.1709 168.119 16.3822 167.956 16.5547C167.792 16.7273 167.597 16.8568 167.384 16.9341L167.752 17.8407C167.373 17.9263 167.024 18.1299 166.742 18.4284C166.461 18.727 166.258 19.1087 166.158 19.5304C165.755 21.3333 165.855 23.8952 165.952 25.7497C166.001 26.5636 166.702 32.9684 166.207 33.2741Z" fill="#192534"/>
<path d="M175.562 48.5391C170.054 55.5484 168.652 65.4148 167.478 74.7044L165.748 88.4206C165.299 91.9785 164.837 95.5363 164.446 99.1044C164.173 101.546 163.918 104.026 164.215 106.464C164.449 108.387 165.017 110.242 165.49 112.093C166.722 116.948 167.335 121.977 167.311 127.028C167.678 125.805 168.95 125.311 170.066 125.036C179.437 122.735 189.213 123.917 197.943 128.405C199.476 123.546 199.188 118.23 199.616 113.092C200.223 105.767 202.313 98.6683 202.933 91.3569C203.16 88.6335 203.187 85.8965 203.212 83.1594C203.23 81.1504 203.248 79.1208 202.878 77.153C202.465 74.9757 201.594 72.9461 200.693 70.9714C198.201 65.4822 195.433 60.1596 192.402 55.0298C190.877 52.4473 189.285 49.9163 187.628 47.4368C186.789 46.1798 185.932 44.9366 185.058 43.7072C184.211 42.5155 183.844 41.4818 182.5 42.1961C179.96 43.5424 177.41 46.1867 175.562 48.5391Z" fill="#F9A326"/>
<path d="M178.719 106.88C177.375 106.935 176.03 106.886 174.692 106.735C173.7 106.625 172.686 106.461 171.718 106.735C171.297 106.855 170.903 107.074 170.562 107.377C170.435 107.505 170.344 107.671 170.3 107.856C170.256 108.041 170.26 108.237 170.313 108.419C170.365 108.601 170.464 108.762 170.596 108.882C170.728 109.002 170.888 109.076 171.056 109.095L172.094 109.198C172.753 109.263 173.439 109.338 173.951 109.884C174.162 110.099 174.296 110.393 174.328 110.712C174.392 111.512 173.779 111.948 173.229 112.282C172.448 112.696 171.726 113.24 171.087 113.896C170.586 114.443 170.271 115.173 170.198 115.956C170.195 116.026 170.209 116.095 170.238 116.157C170.267 116.219 170.309 116.271 170.362 116.308C170.414 116.346 170.474 116.367 170.536 116.369C170.598 116.372 170.659 116.356 170.713 116.324C171.927 115.637 172.719 113.6 174.052 113.94C172.84 114.374 171.802 115.278 171.12 116.492C170.952 116.782 170.875 117.127 170.902 117.473C170.929 117.818 171.059 118.143 171.27 118.395C171.481 118.646 171.76 118.81 172.064 118.859C172.367 118.909 172.676 118.84 172.941 118.666C173.138 118.535 173.329 118.392 173.511 118.236C174.414 117.41 175.222 116.459 175.918 115.407C174.947 117.725 173.964 120.438 175.08 122.742C175.136 122.869 175.223 122.975 175.331 123.047C175.439 123.119 175.562 123.154 175.687 123.147C176.039 123.106 176.143 122.732 176.2 122.402C176.382 121.341 176.428 120.221 176.889 119.277C177.957 117.086 180.591 116.873 182.597 115.805C185.004 114.541 186.652 111.821 187.316 108.916C187.549 108.069 187.59 107.169 187.435 106.299C186.989 104.345 184.858 103.895 183.49 104.84C181.811 106.045 180.837 106.804 178.719 106.88Z" fill="#FBBEBE"/>
<path opacity="0.1" d="M176.588 68.4404C178.712 72.1528 182.399 74.2442 185.561 76.8508C186.333 77.4194 187.006 78.1434 187.546 78.9868C188.344 80.3811 188.456 82.1532 188.293 83.7947C188.086 85.9617 187.47 88.0463 186.86 90.1137L185.534 94.5953C184.693 97.4389 183.825 100.341 182.226 102.731C181.816 103.339 181.34 103.988 181.358 104.75C181.394 105.191 181.527 105.614 181.747 105.98C182.258 106.925 182.933 107.744 183.73 108.388C184.527 109.032 185.431 109.489 186.387 109.73C186.959 109.895 187.559 109.895 188.132 109.73C188.951 109.455 189.567 108.7 190.138 107.985C192.869 104.575 195.6 101.117 197.573 97.116C199.5 93.2113 200.653 88.8739 201.715 84.5777C202.153 82.9962 202.457 81.3715 202.626 79.7252C202.85 76.6344 202.134 73.5436 200.963 70.7516C199.791 67.9596 198.18 65.432 196.52 62.9766C194.953 60.5647 193.212 58.3041 191.315 56.218C188.013 52.7254 183.974 50.6718 179.556 52.6533C176.436 54.0545 175.267 56.977 174.988 60.7203C174.752 63.423 175.314 66.1381 176.588 68.4404Z" fill="black"/>
<path d="M177.692 67.4994C179.816 71.2118 183.507 73.3032 186.666 75.9098C187.435 76.484 188.104 77.2126 188.641 78.0596C189.44 79.4539 189.552 81.2225 189.388 82.8675C189.179 85.0345 188.566 87.1191 187.953 89.1865L186.626 93.6509C185.786 96.4945 184.918 99.3929 183.319 101.787C182.912 102.394 182.435 103.04 182.454 103.806C182.487 104.246 182.621 104.668 182.842 105.032C183.353 105.977 184.027 106.797 184.824 107.442C185.62 108.087 186.523 108.544 187.479 108.785C188.053 108.95 188.654 108.95 189.227 108.785C190.047 108.514 190.66 107.755 191.233 107.044C193.964 103.631 196.696 100.176 198.668 96.1751C200.595 92.2704 201.748 87.933 202.811 83.6333C203.249 82.0533 203.554 80.4296 203.721 78.7842C203.946 75.6934 203.229 72.6026 202.061 69.8072C200.893 67.0118 199.278 64.4876 197.618 62.0322C196.046 59.6329 194.301 57.385 192.401 55.3114C189.103 51.8222 185.064 49.7652 180.645 51.7501C177.522 53.1513 176.357 56.0704 176.075 59.8171C175.852 62.5095 176.42 65.2099 177.692 67.4994Z" fill="#F9A326"/>
<path d="M244.796 190.681C244.799 191.577 244.717 192.47 244.554 193.346C244.523 193.511 244.49 193.689 244.456 193.83C243.595 197.742 241.164 200.603 238.263 200.785C238.165 200.785 238.068 200.785 237.959 200.785C234.891 200.785 232.296 197.79 231.44 193.665C231.416 193.556 231.395 193.446 231.374 193.322C231.21 192.446 231.129 191.553 231.131 190.657C231.131 185.07 234.187 180.543 237.959 180.543C241.731 180.543 244.796 185.104 244.796 190.681Z" fill="#3F3D56"/>
<path opacity="0.1" d="M244.796 190.681C244.798 191.577 244.717 192.47 244.553 193.346C244.523 193.511 244.489 193.689 244.456 193.83C244.353 193.83 244.253 193.83 244.153 193.83C243.401 193.784 242.654 193.67 241.919 193.487C241.268 193.715 240.602 193.887 239.928 194.002C239.411 194.09 238.891 194.145 238.368 194.167H237.84C237.215 194.167 236.591 194.12 235.971 194.026C234.969 193.875 233.985 193.598 233.036 193.202C232.517 193.397 231.988 193.558 231.452 193.683C231.428 193.573 231.407 193.463 231.385 193.339C231.222 192.463 231.14 191.57 231.143 190.674C231.143 185.087 234.199 180.56 237.971 180.56C241.743 180.56 244.796 185.104 244.796 190.681Z" fill="black"/>
<path d="M259.364 171.841C259.367 169.382 258.858 166.957 257.877 164.763L249.847 167.589L256.897 162.898C255.714 160.966 254.164 159.359 252.359 158.195C250.554 157.031 248.542 156.34 246.47 156.174C246.14 155.608 245.778 155.066 245.386 154.553L233.854 158.616L243.314 152.321C241.504 150.749 239.38 149.707 237.13 149.285C234.879 148.864 232.572 149.077 230.412 149.905C228.251 150.733 226.305 152.151 224.744 154.034C223.183 155.916 222.056 158.205 221.463 160.697L231.342 173.565L220.626 164.794C217.911 166.973 215.979 170.182 215.181 173.838C214.382 177.494 214.771 181.353 216.277 184.712C217.782 188.071 220.303 190.705 223.382 192.136C226.46 193.567 229.89 193.699 233.047 192.508C235.903 193.696 239.023 193.794 241.933 192.786C243.961 193.291 246.064 193.276 248.086 192.74C250.108 192.204 251.998 191.162 253.617 189.691C255.237 188.22 256.544 186.356 257.443 184.237C258.342 182.119 258.81 179.799 258.812 177.449C258.812 177.106 258.812 176.762 258.782 176.419C259.175 174.934 259.371 173.391 259.364 171.841Z" fill="#F9A326"/>
<path opacity="0.1" d="M259.125 174.753C254.884 173.844 250.536 173.781 246.276 174.568C241.454 175.471 236.525 177.456 231.809 176.007C229.041 175.155 226.65 173.184 223.946 172.088C221.337 171.058 218.527 170.868 215.828 171.539C214.8 174.323 214.502 177.383 214.969 180.354C215.436 183.325 216.65 186.081 218.464 188.292C220.278 190.503 222.617 192.077 225.2 192.825C227.783 193.572 230.502 193.462 233.032 192.508C235.888 193.696 239.009 193.794 241.918 192.786C243.946 193.291 246.049 193.276 248.071 192.74C250.093 192.204 251.983 191.162 253.602 189.691C255.222 188.22 256.529 186.356 257.428 184.237C258.327 182.119 258.795 179.799 258.797 177.449C258.797 177.106 258.797 176.762 258.767 176.419C258.913 175.872 259.033 175.315 259.125 174.753Z" fill="black"/>
</g>
<defs>
<clipPath id="clip0_343_77">
<rect width="332" height="261" fill="white"/>
</clipPath>
</defs>
</svg>
