<svg width="81" height="65" viewBox="0 0 81 65" fill="none" xmlns="http://www.w3.org/2000/svg">
<g clip-path="url(#clip0_758_244)">
<path d="M64.125 2.70831H16.875C12.4011 2.71261 8.11201 4.1407 4.94849 6.67933C1.78498 9.21795 0.00535902 12.6598 0 16.25L0 48.75C0.00535902 52.3401 1.78498 55.782 4.94849 58.3206C8.11201 60.8593 12.4011 62.2873 16.875 62.2916H64.125C68.5989 62.2873 72.888 60.8593 76.0515 58.3206C79.215 55.782 80.9946 52.3401 81 48.75V16.25C80.9946 12.6598 79.215 9.21795 76.0515 6.67933C72.888 4.1407 68.5989 2.71261 64.125 2.70831ZM16.875 8.12498H64.125C66.1459 8.12817 68.1194 8.61658 69.7915 9.52737C71.4636 10.4381 72.7578 11.7296 73.5075 13.2356L47.6618 33.9787C45.7597 35.499 43.1845 36.3525 40.5 36.3525C37.8155 36.3525 35.2403 35.499 33.3382 33.9787L7.4925 13.2356C8.24225 11.7296 9.53644 10.4381 11.2085 9.52737C12.8806 8.61658 14.8541 8.12817 16.875 8.12498ZM64.125 56.875H16.875C14.1897 56.875 11.6144 56.019 9.71554 54.4952C7.81674 52.9715 6.75 50.9049 6.75 48.75V20.3125L28.566 37.8083C31.7339 40.344 36.0256 41.768 40.5 41.768C44.9744 41.768 49.2661 40.344 52.434 37.8083L74.25 20.3125V48.75C74.25 50.9049 73.1833 52.9715 71.2845 54.4952C69.3857 56.019 66.8103 56.875 64.125 56.875Z" fill="#FFB800"/>
</g>
<defs>
<clipPath id="clip0_758_244">
<rect width="81" height="65" fill="white"/>
</clipPath>
</defs>
</svg>
