<svg width="70" height="66" viewBox="0 0 70 66" fill="none" xmlns="http://www.w3.org/2000/svg">
<g clip-path="url(#clip0_758_249)">
<path d="M37.916 2.75C37.916 2.02065 38.2233 1.32118 38.7702 0.805453C39.3172 0.289728 40.0591 -2.86987e-06 40.8326 -2.87034e-06C48.5655 0.00800402 55.9792 2.90789 61.4472 8.0634C66.9152 13.2189 69.9908 20.209 69.9993 27.5C69.9993 28.2293 69.692 28.9288 69.145 29.4445C68.5981 29.9603 67.8562 30.25 67.0826 30.25C66.3091 30.25 65.5672 29.9603 65.0202 29.4445C64.4733 28.9288 64.166 28.2293 64.166 27.5C64.159 21.6672 61.6985 16.0753 57.3241 11.9509C52.9498 7.8265 47.0189 5.50655 40.8326 5.5C40.0591 5.5 39.3172 5.21027 38.7702 4.69454C38.2233 4.17882 37.916 3.47934 37.916 2.75ZM40.8326 16.5C43.9268 16.5 46.8943 17.6589 49.0822 19.7218C51.2701 21.7847 52.4993 24.5826 52.4993 27.5C52.4993 28.2293 52.8066 28.9288 53.3536 29.4445C53.9006 29.9603 54.6424 30.25 55.416 30.25C56.1895 30.25 56.9314 29.9603 57.4784 29.4445C58.0254 28.9288 58.3326 28.2293 58.3326 27.5C58.328 23.1253 56.4828 18.931 53.2019 15.8376C49.921 12.7442 45.4725 11.0044 40.8326 11C40.0591 11 39.3172 11.2897 38.7702 11.8055C38.2233 12.3212 37.916 13.0207 37.916 13.75C37.916 14.4793 38.2233 15.1788 38.7702 15.6945C39.3172 16.2103 40.0591 16.5 40.8326 16.5ZM67.3539 46.0322C69.0441 47.6303 69.9933 49.7951 69.9933 52.052C69.9933 54.3089 69.0441 56.4737 67.3539 58.0717L64.6997 60.9565C40.8122 82.5192 -17.3169 27.7255 5.19972 5.1315L8.55389 2.3815C10.2507 0.83236 12.5262 -0.0246179 14.888 -0.00403205C17.2499 0.0165538 19.5081 0.913048 21.1743 2.4915C21.2647 2.57675 26.6693 9.196 26.6693 9.196C28.273 10.7845 29.1657 12.8946 29.1619 15.0876C29.1581 17.2807 28.2581 19.388 26.6489 20.9715L23.2714 24.9755C25.1405 29.2576 27.8887 33.1492 31.3579 36.4268C34.8271 39.7043 38.949 42.3033 43.4868 44.0742L47.7597 40.8705C49.4394 39.3545 51.6741 38.5069 53.9993 38.5038C56.3246 38.5007 58.5617 39.3424 60.246 40.854C60.246 40.854 67.2635 45.947 67.3539 46.0322ZM63.3406 50.0307C63.3406 50.0307 56.361 44.968 56.2706 44.8827C55.6697 44.321 54.8578 44.0058 54.0116 44.0058C53.1654 44.0058 52.3535 44.321 51.7526 44.8827C51.6739 44.9597 45.791 49.379 45.791 49.379C45.3945 49.6765 44.9227 49.8715 44.422 49.9448C43.9213 50.0181 43.409 49.9672 42.9356 49.797C37.0569 47.7333 31.7173 44.5025 27.2784 40.3235C22.8395 36.1444 19.4051 31.1147 17.2076 25.575C17.0128 25.1225 16.9493 24.6292 17.0236 24.1459C17.0979 23.6626 17.3074 23.2067 17.6306 22.825C17.6306 22.825 22.3176 17.2755 22.3964 17.204C22.9922 16.6375 23.3265 15.8719 23.3265 15.0741C23.3265 14.2763 22.9922 13.5108 22.3964 12.9442C22.306 12.8617 16.9364 6.2755 16.9364 6.2755C16.3265 5.75989 15.5306 5.48376 14.7117 5.5037C13.8928 5.52364 13.1131 5.83815 12.5322 6.38275L9.17806 9.13275C-7.27778 27.7887 43.096 72.6495 60.4356 57.2L63.0926 54.3125C63.7153 53.7687 64.0893 53.018 64.1355 52.2189C64.1818 51.4199 63.8967 50.6352 63.3406 50.0307Z" fill="#FFB800"/>
</g>
<defs>
<clipPath id="clip0_758_249">
<rect width="70" height="66" fill="white"/>
</clipPath>
</defs>
</svg>
