<svg width="324" height="454" viewBox="0 0 324 454" fill="none" xmlns="http://www.w3.org/2000/svg">
<g clip-path="url(#clip0_276_337)">
<path d="M294.788 443.133C294.917 457.002 209.625 458.273 208 443.134C207.871 429.265 293.163 427.994 294.788 443.133Z" fill="#E6E6E6"/>
<path d="M228.056 394.984L221.717 398.527L225.751 412.108L232.089 412.699L235.547 405.023L228.056 394.984Z" fill="#9F616A"/>
<path d="M247.648 422.147V428.642L257.445 428.051L257.308 422.702L247.648 422.147Z" fill="#9F616A"/>
<path d="M225.75 317.04L229.207 361.327L240.156 426.28L257.444 423.918L251.681 372.545L253.986 325.307L225.75 317.04Z" fill="#2F2E41"/>
<path d="M271.85 283.973L230.36 284.563L225.75 317.04L253.986 330.621L260.901 356.603L225.75 394.984L239.58 412.699C239.58 412.699 259.173 385.537 273.579 370.184C287.985 354.831 281.07 308.183 281.07 308.183L271.85 283.973Z" fill="#2F2E41"/>
<path d="M247.072 200.124C254.074 200.124 259.75 194.307 259.75 187.133C259.75 179.958 254.074 174.142 247.072 174.142C240.07 174.142 234.395 179.958 234.395 187.133C234.395 194.307 240.07 200.124 247.072 200.124Z" fill="#9F616A"/>
<path d="M242.461 195.99V208.981L251.105 223.153C251.105 223.153 264.358 213.114 261.477 210.752C258.596 208.39 258.02 190.085 258.02 190.085L242.461 195.99Z" fill="#9F616A"/>
<path d="M242.462 206.619L233.818 217.248L237.276 291.058L264.36 290.468L268.97 226.105L263.208 209.571L259.255 204.06L252.259 214.886L242.462 206.619Z" fill="#D0CDE1"/>
<path d="M228.632 245.001L222.293 269.801L228.632 294.602L218.259 308.773L209.039 263.896C209.039 263.896 215.954 227.286 216.53 223.153C217.107 219.019 218.259 218.429 218.259 218.429L222.869 219.019L228.632 245.001Z" fill="#2F2E41"/>
<path d="M274.732 254.448L278.766 262.125L279.919 275.115L277.614 289.877L285.681 303.459L293.749 266.258L285.105 218.428H281.647L274.732 254.448Z" fill="#2F2E41"/>
<path d="M225.752 394.394C225.752 394.394 217.684 396.756 214.803 397.346C211.922 397.937 216.532 409.156 216.532 409.156C216.532 409.156 219.413 424.509 219.989 427.461C220.565 430.413 224.599 440.452 229.785 441.633C234.972 442.814 231.514 420.966 231.514 420.966C231.514 420.966 233.819 413.88 233.819 411.518C233.819 409.156 230.362 410.337 230.362 410.337C221.142 409.156 225.752 394.394 225.752 394.394Z" fill="#2F2E41"/>
<path d="M244.768 439.861C245.344 443.404 244.191 443.404 253.411 444.585C262.631 445.766 260.326 438.09 260.326 438.09C259.941 434.471 259.168 430.907 258.021 427.461C256.293 422.737 247.073 428.642 247.073 428.642C247.073 428.642 244.191 436.318 244.768 439.861Z" fill="#2F2E41"/>
<path d="M258.036 190.498L258.336 195.749C258.336 195.749 262.055 187.133 262.631 178.276C263.207 169.418 253.411 167.647 247.649 167.056C241.886 166.466 232.09 170.599 232.09 175.323C232.09 180.047 242.462 178.866 246.496 177.685C250.53 176.504 252.259 186.542 252.259 186.542L254.564 187.133L258.036 190.498Z" fill="#2F2E41"/>
<path d="M239.061 210.801L242.462 206.619L252.258 214.886L242.462 221.971L239.061 210.801Z" fill="#D0CDE1"/>
<path d="M263.207 209.571L259.173 204.257L252.258 214.886L260.902 221.381L263.207 209.571Z" fill="#D0CDE1"/>
<path d="M226.903 253.267L229.208 275.706L224.598 289.287L221.717 302.278C221.717 302.278 221.717 314.678 233.242 315.269C244.767 315.859 254.564 278.068 254.564 278.068C254.564 278.068 256.292 286.335 257.445 291.059C258.597 295.783 278.19 314.678 278.19 314.678C278.19 314.678 282.8 314.088 286.834 304.64C290.867 295.192 278.766 286.335 278.766 286.335L275.309 273.935L276.461 258.582L284.529 218.429L260.614 205.733L263.207 239.686L254.564 266.258L241.598 207.505L237.276 210.752L218.836 218.429L226.903 253.267Z" fill="#2F2E41"/>
<path d="M94.0327 222C93.2578 221.994 92.474 221.988 91.7042 221.964L91.7281 221.166C92.4899 221.19 93.269 221.201 94.0329 221.202C94.8002 221.202 95.5821 221.189 96.3578 221.163L96.3828 221.961C95.5986 221.987 94.8082 222 94.0327 222ZM87.036 221.663C85.49 221.513 83.9286 221.309 82.3955 221.057L82.518 220.269C84.0348 220.518 85.5795 220.72 87.1091 220.869L87.036 221.663ZM101.051 221.654L100.977 220.86C102.506 220.71 104.05 220.506 105.567 220.255L105.691 221.043C104.157 221.297 102.596 221.502 101.051 221.654ZM77.8021 220.147C76.2884 219.794 74.7653 219.386 73.2754 218.933L73.4956 218.168C74.9695 218.616 76.4763 219.019 77.9739 219.368L77.8021 220.147ZM110.283 220.127L110.11 219.349C111.611 218.997 113.118 218.592 114.587 218.143L114.808 218.908C113.323 219.362 111.8 219.771 110.283 220.127ZM68.8337 217.423C67.373 216.872 65.9116 216.264 64.49 215.618L64.8044 214.888C66.2106 215.528 67.6563 216.128 69.1014 216.674L68.8337 217.423ZM119.248 217.392L118.979 216.643C120.415 216.099 121.856 215.499 123.261 214.858L123.576 215.588C122.156 216.235 120.699 216.842 119.248 217.392ZM60.2701 213.529C58.8955 212.792 57.5228 211.997 56.1905 211.167L56.5932 210.484C57.9115 211.306 59.2694 212.092 60.6294 212.822L60.2701 213.529ZM127.785 213.5L127.425 212.793C128.782 212.064 130.137 211.278 131.451 210.457L131.855 211.139C130.526 211.969 129.156 212.763 127.785 213.5ZM52.2677 208.541C50.9945 207.628 49.7328 206.66 48.517 205.664L49.0013 205.04C50.2041 206.026 51.4526 206.984 52.7121 207.887L52.2677 208.541ZM135.771 208.513L135.326 207.859C136.585 206.955 137.832 205.997 139.032 205.012L139.517 205.636C138.304 206.631 137.044 207.599 135.771 208.513ZM44.9532 202.546C43.8023 201.473 42.6708 200.348 41.5906 199.203L42.148 198.648C43.2168 199.78 44.3364 200.893 45.4753 201.956L44.9532 202.546ZM143.077 202.519L142.554 201.928C143.69 200.868 144.809 199.754 145.879 198.619L146.437 199.174C145.355 200.321 144.225 201.447 143.077 202.519ZM38.4425 195.648C37.4348 194.434 36.4523 193.171 35.5219 191.894L36.1436 191.416C37.0641 192.679 38.0362 193.929 39.0333 195.13L38.4425 195.648ZM149.584 195.615L148.993 195.097C149.99 193.895 150.963 192.644 151.883 191.379L152.505 191.857C151.575 193.135 150.592 194.4 149.584 195.615ZM32.8408 187.957C31.9912 186.62 31.1737 185.239 30.4107 183.853L31.0868 183.46C31.8414 184.832 32.6505 186.198 33.4911 187.52L32.8408 187.957ZM155.187 187.914L154.536 187.478C155.377 186.153 156.186 184.784 156.941 183.41L157.618 183.802C156.855 185.191 156.037 186.575 155.187 187.914ZM28.2421 179.599C27.5664 178.162 26.928 176.686 26.3448 175.211L27.0641 174.911C27.6413 176.37 28.2728 177.83 28.9413 179.251L28.2421 179.599ZM159.787 179.536L159.088 179.19C159.756 177.767 160.388 176.302 160.965 174.836L161.685 175.135C161.101 176.617 160.463 178.098 159.787 179.536ZM24.7237 170.701C24.2325 169.186 23.7837 167.635 23.3897 166.093L24.1409 165.89C24.5305 167.416 24.9746 168.95 25.4605 170.449L24.7237 170.701ZM163.303 170.617L162.566 170.366C163.049 168.868 163.492 167.334 163.88 165.805L164.632 166.007C164.239 167.552 163.792 169.103 163.303 170.617ZM22.3479 161.407C22.0511 159.841 21.8001 158.244 21.6016 156.661L22.3717 156.559C22.5682 158.125 22.8165 159.705 23.11 161.254L22.3479 161.407ZM165.668 161.319L164.906 161.168C165.197 159.619 165.444 158.039 165.639 156.471L166.409 156.573C166.212 158.157 165.963 159.754 165.668 161.319ZM21.1526 151.877C21.0531 150.286 21.0017 148.669 21 147.071L21.7766 147.07C21.7783 148.652 21.8291 150.251 21.9277 151.825L21.1526 151.877ZM166.853 151.787L166.078 151.737C166.174 150.164 166.223 148.565 166.223 146.983L166.223 146.808H167L167 146.98C167 148.582 166.95 150.198 166.853 151.787ZM21.9169 142.316L21.1418 142.267C21.2381 140.674 21.3855 139.063 21.5798 137.481L22.3503 137.581C22.1579 139.147 22.0121 140.74 21.9169 142.316ZM166.067 142.055C165.966 140.477 165.815 138.885 165.617 137.321L166.387 137.218C166.587 138.798 166.74 140.408 166.842 142.002L166.067 142.055ZM23.0776 132.885L22.3151 132.734C22.608 131.168 22.955 129.59 23.3459 128.045L24.0975 128.246C23.7107 129.774 23.3675 131.335 23.0776 132.885ZM164.873 132.627C164.577 131.077 164.228 129.517 163.837 127.992L164.588 127.789C164.984 129.33 165.336 130.907 165.635 132.474L164.873 132.627ZM25.4068 123.684L24.6693 123.434C25.1568 121.917 25.6994 120.396 26.2824 118.912L27.0025 119.211C26.4257 120.679 25.889 122.184 25.4068 123.684ZM162.513 123.435C162.025 121.937 161.484 120.437 160.904 118.975L161.623 118.674C162.21 120.151 162.757 121.668 163.249 123.182L162.513 123.435ZM28.8757 114.855L28.1757 114.509C28.8494 113.07 29.5778 111.634 30.3406 110.241L31.0175 110.633C30.2627 112.01 29.5422 113.431 28.8757 114.855ZM159.022 114.637C158.354 113.22 157.63 111.805 156.872 110.431L157.548 110.037C158.314 111.426 159.045 112.856 159.721 114.289L159.022 114.637ZM33.4178 106.561L32.7667 106.126C33.6136 104.788 34.5144 103.46 35.4438 102.18L36.0665 102.657C35.1469 103.924 34.2556 105.237 33.4178 106.561ZM154.463 106.373C153.623 105.054 152.729 103.745 151.806 102.481L152.427 102.002C153.36 103.28 154.264 104.603 155.113 105.936L154.463 106.373ZM38.9518 98.935L38.3602 98.4183C39.3661 97.2023 40.4234 96.0037 41.503 94.8559L42.0616 95.4104C40.9934 96.5461 39.9472 97.7321 38.9518 98.935ZM148.912 98.7706C147.913 97.571 146.864 96.3885 145.793 95.2561L146.35 94.7C147.432 95.8443 148.493 97.0394 149.502 98.2519L148.912 98.7706ZM45.3828 92.0968L44.8599 91.5069C46.009 90.4312 47.2058 89.3808 48.4166 88.3852L48.9019 89.0083C47.7039 89.9934 46.5198 91.0326 45.3828 92.0968ZM142.462 91.9521C141.323 90.8927 140.136 89.8566 138.932 88.8727L139.416 88.248C140.632 89.2427 141.832 90.2897 142.983 91.3605L142.462 91.9521ZM52.6046 86.1568L52.1591 85.5033C53.4298 84.5882 54.7463 83.7034 56.0722 82.8734L56.4762 83.555C55.1646 84.3762 53.8618 85.2516 52.6046 86.1568ZM135.218 86.0298C133.954 85.1256 132.647 84.2531 131.334 83.4365L131.736 82.7538C133.063 83.5789 134.384 84.4608 135.662 85.3748L135.218 86.0298ZM60.5003 81.2138L60.1396 80.5069C61.5125 79.767 62.9277 79.0628 64.3453 78.4142L64.6612 79.1433C63.2585 79.7849 61.8587 80.4816 60.5003 81.2138ZM127.295 81.1043C125.932 80.3749 124.526 79.6814 123.118 79.0431L123.432 78.3129C124.855 78.958 126.275 79.659 127.654 80.3963L127.295 81.1043ZM68.9414 77.3531L68.6718 76.6045C70.1279 76.051 71.621 75.539 73.1097 75.0829L73.3315 75.8478C71.8587 76.2988 70.3818 76.8054 68.9414 77.3531ZM118.819 77.2625C117.376 76.7199 115.897 76.2188 114.423 75.7734L114.643 75.0077C116.132 75.4579 117.627 75.9645 119.086 76.5132L118.819 77.2625ZM77.807 74.6369L77.6337 73.8591C79.1446 73.5033 80.6893 73.1934 82.2249 72.9371L82.3492 73.7251C80.83 73.9784 79.3018 74.285 77.807 74.6369ZM109.944 74.5788C108.446 74.232 106.917 73.9308 105.398 73.6834L105.52 72.8951C107.055 73.1452 108.601 73.4498 110.114 73.8003L109.944 74.5788ZM86.9391 73.1143L86.864 72.3201C88.4058 72.1664 89.9762 72.0614 91.5315 72.0082L91.5573 72.8058C90.0183 72.8584 88.4646 72.9623 86.9391 73.1143ZM100.806 73.0895C99.2785 72.9428 97.7242 72.8446 96.1871 72.7976L96.2102 72C97.7636 72.0475 99.3345 72.1467 100.879 72.295L100.806 73.0895Z" fill="#D0CDE1"/>
<path d="M91 92C100.941 92 109 83.7173 109 73.5C109 63.2827 100.941 55 91 55C81.0589 55 73 63.2827 73 73.5C73 83.7173 81.0589 92 91 92Z" fill="#2F2E41"/>
<path d="M161.5 143C171.717 143 180 134.717 180 124.5C180 114.283 171.717 106 161.5 106C151.283 106 143 114.283 143 124.5C143 134.717 151.283 143 161.5 143Z" fill="#2F2E41"/>
<path d="M139.5 222C149.717 222 158 213.493 158 203C158 192.507 149.717 184 139.5 184C129.283 184 121 192.507 121 203C121 213.493 129.283 222 139.5 222Z" fill="#2F2E41"/>
<path d="M51.5 225C61.7173 225 70 216.493 70 206C70 195.507 61.7173 187 51.5 187C41.2827 187 33 195.507 33 206C33 216.493 41.2827 225 51.5 225Z" fill="#2F2E41"/>
<path d="M25.5 143C35.7173 143 44 134.717 44 124.5C44 114.283 35.7173 106 25.5 106C15.2827 106 7 114.283 7 124.5C7 134.717 15.2827 143 25.5 143Z" fill="#2F2E41"/>
<path d="M98.8182 72H92.4545C91.8759 72 91.3209 71.763 90.9118 71.341C90.5026 70.919 90.2727 70.3467 90.2727 69.75V63.1875C90.2727 63.1629 90.268 63.1385 90.2589 63.1157C90.2497 63.093 90.2363 63.0723 90.2195 63.0549C90.2026 63.0375 90.1825 63.0237 90.1605 63.0143C90.1384 63.0048 90.1148 63 90.0909 63H85.9091C85.1376 63 84.3976 63.3161 83.8521 63.8787C83.3065 64.4413 83 65.2043 83 66V81C83 81.7956 83.3065 82.5587 83.8521 83.1213C84.3976 83.6839 85.1376 84 85.9091 84H96.0909C96.8624 84 97.6024 83.6839 98.1479 83.1213C98.6935 82.5587 99 81.7956 99 81V72.1875C99 72.1629 98.9953 72.1385 98.9862 72.1157C98.977 72.093 98.9636 72.0723 98.9467 72.0549C98.9298 72.0375 98.9098 72.0237 98.8877 72.0143C98.8657 72.0049 98.842 72 98.8182 72ZM94.6364 79.5H87.3636C87.1707 79.5 86.9858 79.421 86.8494 79.2803C86.713 79.1397 86.6364 78.9489 86.6364 78.75C86.6364 78.5511 86.713 78.3603 86.8494 78.2197C86.9858 78.079 87.1707 78 87.3636 78H94.6364C94.8292 78 95.0142 78.079 95.1506 78.2197C95.287 78.3603 95.3636 78.5511 95.3636 78.75C95.3636 78.9489 95.287 79.1397 95.1506 79.2803C95.0142 79.421 94.8292 79.5 94.6364 79.5ZM94.6364 75.75H87.3636C87.1707 75.75 86.9858 75.671 86.8494 75.5303C86.713 75.3897 86.6364 75.1989 86.6364 75C86.6364 74.8011 86.713 74.6103 86.8494 74.4697C86.9858 74.329 87.1707 74.25 87.3636 74.25H94.6364C94.8292 74.25 95.0142 74.329 95.1506 74.4697C95.287 74.6103 95.3636 74.8011 95.3636 75C95.3636 75.1989 95.287 75.3897 95.1506 75.5303C95.0142 75.671 94.8292 75.75 94.6364 75.75Z" fill="#FFCB2D"/>
<path d="M97.9764 70.8385L92.1384 64.0275C92.1271 64.0144 92.1126 64.0054 92.0969 64.0018C92.0812 63.9982 92.065 64.0001 92.0502 64.0072C92.0354 64.0143 92.0227 64.0264 92.0138 64.0419C92.0049 64.0574 92.0001 64.0756 92 64.0943V70.2422C92 70.4432 92.0684 70.6359 92.1902 70.7781C92.3121 70.9202 92.4773 71 92.6495 71H97.9191C97.9352 70.9999 97.9508 70.9943 97.9641 70.9839C97.9774 70.9735 97.9877 70.9587 97.9938 70.9415C98 70.9242 98.0016 70.9052 97.9985 70.8869C97.9954 70.8686 97.9877 70.8518 97.9764 70.8385Z" fill="#FFCB2D"/>
<path d="M141.999 199C141.768 199 141.544 199.08 141.365 199.227C141.186 199.374 141.064 199.578 141.019 199.805C140.974 200.032 141.009 200.268 141.118 200.472C141.227 200.676 141.404 200.836 141.618 200.924C141.832 201.012 142.069 201.024 142.291 200.957C142.512 200.89 142.703 200.748 142.832 200.555C142.96 200.363 143.018 200.132 142.995 199.902C142.972 199.671 142.87 199.456 142.707 199.293C142.614 199.2 142.504 199.126 142.382 199.076C142.261 199.026 142.131 199 141.999 199Z" fill="#FFCB2D"/>
<path d="M147.903 194.685V194.682C147.871 194.541 147.8 194.412 147.699 194.31C147.597 194.207 147.469 194.135 147.329 194.101C146.198 193.825 144.419 194.119 142.447 194.909C140.552 195.646 138.817 196.744 137.34 198.143C136.937 198.544 136.562 198.973 136.219 199.426C135.461 199.374 134.7 199.496 133.996 199.783C131.805 200.748 131.18 203.215 131.013 204.228C130.989 204.372 130.998 204.52 131.041 204.66C131.083 204.799 131.157 204.927 131.257 205.034C131.356 205.14 131.48 205.222 131.616 205.274C131.753 205.325 131.9 205.344 132.045 205.329H132.05L134.491 205.062C134.494 205.094 134.497 205.122 134.5 205.148C134.531 205.446 134.664 205.723 134.875 205.934L136.067 207.126C136.277 207.338 136.555 207.471 136.852 207.502L136.934 207.511L136.668 209.949V209.954C136.656 210.078 136.667 210.203 136.703 210.322C136.738 210.442 136.797 210.553 136.876 210.65C136.954 210.746 137.051 210.827 137.161 210.886C137.27 210.945 137.391 210.982 137.514 210.995C137.544 210.998 137.573 211 137.602 211C137.655 211 137.708 210.996 137.76 210.987C138.779 210.823 141.245 210.205 142.207 208.002C142.492 207.301 142.614 206.544 142.565 205.788C143.021 205.446 143.452 205.071 143.854 204.667C145.252 203.204 146.351 201.483 147.091 199.6C147.876 197.652 148.172 195.859 147.903 194.685ZM143.84 201.321C143.528 201.633 143.131 201.846 142.699 201.932C142.266 202.019 141.818 201.975 141.41 201.806C141.002 201.637 140.654 201.352 140.409 200.985C140.163 200.619 140.032 200.187 140.032 199.746C140.032 199.305 140.163 198.874 140.407 198.507C140.652 198.14 141 197.854 141.408 197.685C141.815 197.516 142.264 197.472 142.696 197.558C143.129 197.644 143.526 197.856 143.839 198.167L143.84 198.169C144.258 198.581 144.496 199.142 144.5 199.728C144.504 200.315 144.276 200.88 143.864 201.298L143.84 201.321Z" fill="#FFCB2D"/>
<path d="M136.451 207.971C136.3 207.952 136.147 207.989 136.021 208.075C135.772 208.246 135.521 208.414 135.268 208.579C135.158 208.65 135.027 208.681 134.897 208.669C134.767 208.657 134.645 208.601 134.55 208.511C134.456 208.421 134.394 208.301 134.375 208.172C134.357 208.043 134.382 207.911 134.447 207.798L134.922 206.978C134.99 206.878 135.028 206.762 135.031 206.641C135.034 206.521 135.003 206.403 134.94 206.3C134.877 206.197 134.787 206.115 134.678 206.062C134.57 206.01 134.449 205.99 134.33 206.005C133.803 206.071 133.313 206.311 132.938 206.687C132.795 206.83 132.36 207.265 132.126 208.923C132.059 209.399 132.017 209.879 132 210.359C131.998 210.441 132.012 210.523 132.042 210.599C132.071 210.676 132.115 210.746 132.172 210.806C132.228 210.865 132.296 210.913 132.371 210.946C132.446 210.979 132.527 210.998 132.609 211C132.614 211 132.62 211 132.625 211H132.641C133.122 210.983 133.602 210.941 134.079 210.875C135.738 210.641 136.173 210.206 136.316 210.063C136.693 209.687 136.933 209.195 136.995 208.667C137.015 208.502 136.969 208.337 136.867 208.206C136.765 208.076 136.616 207.991 136.451 207.971Z" fill="#FFCB2D"/>
<path d="M45.1 216H43.9C43.6613 216 43.4324 215.895 43.2636 215.707C43.0948 215.52 43 215.265 43 215V209C43 208.735 43.0948 208.48 43.2636 208.293C43.4324 208.105 43.6613 208 43.9 208H45.1C45.3387 208 45.5676 208.105 45.7364 208.293C45.9052 208.48 46 208.735 46 209V215C46 215.265 45.9052 215.52 45.7364 215.707C45.5676 215.895 45.3387 216 45.1 216Z" fill="#FFCB2D"/>
<path d="M54.8 216H53.2C52.8818 216 52.5765 215.895 52.3515 215.707C52.1264 215.52 52 215.265 52 215V205C52 204.735 52.1264 204.48 52.3515 204.293C52.5765 204.105 52.8818 204 53.2 204H54.8C55.1183 204 55.4235 204.105 55.6485 204.293C55.8736 204.48 56 204.735 56 205V215C56 215.265 55.8736 215.52 55.6485 215.707C55.4235 215.895 55.1183 216 54.8 216Z" fill="#FFCB2D"/>
<path d="M59.1 216H57.9C57.6613 216 57.4324 215.893 57.2636 215.701C57.0948 215.51 57 215.251 57 214.98V200.02C57 199.749 57.0948 199.49 57.2636 199.299C57.4324 199.107 57.6613 199 57.9 199H59.1C59.3387 199 59.5676 199.107 59.7364 199.299C59.9052 199.49 60 199.749 60 200.02V214.98C60 215.251 59.9052 215.51 59.7364 215.701C59.5676 215.893 59.3387 216 59.1 216Z" fill="#FFCB2D"/>
<path d="M50.1 216H48.9C48.6613 216 48.4324 215.895 48.2636 215.707C48.0948 215.52 48 215.265 48 215V197C48 196.735 48.0948 196.48 48.2636 196.293C48.4324 196.105 48.6613 196 48.9 196H50.1C50.3387 196 50.5676 196.105 50.7364 196.293C50.9052 196.48 51 196.735 51 197V215C51 215.131 50.9767 215.261 50.9315 215.383C50.8863 215.504 50.82 215.614 50.7364 215.707C50.6528 215.8 50.5536 215.874 50.4444 215.924C50.3352 215.974 50.2182 216 50.1 216Z" fill="#FFCB2D"/>
<path d="M162.658 124.302L161.703 123.344C161.485 123.124 161.188 123.001 160.879 123C160.57 122.999 160.273 123.121 160.053 123.339L153.416 129.483C153.172 129.699 153.023 130.003 153.001 130.328C152.994 130.49 153.02 130.651 153.078 130.802C153.136 130.953 153.225 131.091 153.338 131.206L154.764 132.652L154.766 132.655C154.987 132.875 155.285 132.999 155.596 133H155.639C155.8 132.991 155.958 132.95 156.103 132.88C156.249 132.809 156.379 132.711 156.486 132.59L162.654 125.964C162.874 125.745 162.999 125.447 163 125.136C163.001 124.825 162.879 124.526 162.661 124.305L162.658 124.302Z" fill="#FFCB2D"/>
<path d="M169.794 122.336L169.784 122.323L168.607 120.963C168.538 120.883 168.456 120.819 168.366 120.776C168.276 120.733 168.18 120.711 168.083 120.712C167.925 120.712 167.771 120.77 167.643 120.878C167.643 120.861 167.645 120.844 167.646 120.829C167.694 120.478 167.631 120.118 167.468 119.818C167.209 119.41 166.924 119.025 166.617 118.665L166.614 118.662C165.754 117.698 164.743 116.937 163.637 116.419C163.058 116.142 162.439 116 161.814 116C161.005 115.992 160.219 116.313 159.591 116.91C159.413 117.109 159.25 117.327 159.104 117.56C159.035 117.672 158.998 117.807 159 117.945C159.002 118.083 159.041 118.217 159.113 118.327C159.185 118.436 159.286 118.516 159.399 118.554C159.513 118.591 159.634 118.585 159.745 118.536C159.841 118.494 159.939 118.459 160.039 118.43C160.247 118.379 160.461 118.364 160.673 118.384C161.112 118.438 161.533 118.618 161.898 118.909C162.103 119.11 162.265 119.363 162.374 119.649C162.483 119.934 162.534 120.245 162.525 120.557C162.372 121.064 162.14 121.533 161.838 121.939C161.758 122.063 161.719 122.216 161.728 122.371C161.737 122.526 161.794 122.672 161.888 122.781L163.069 124.161C163.169 124.277 163.302 124.345 163.443 124.349C163.583 124.354 163.72 124.295 163.825 124.186C164.159 123.838 164.668 123.312 164.845 123.184C164.997 123.065 165.17 122.985 165.35 122.951C165.485 122.936 165.62 122.969 165.738 123.046C165.738 123.053 165.738 123.06 165.736 123.067C165.734 123.073 165.731 123.079 165.727 123.085L165.665 123.154L165.654 123.165C165.515 123.327 165.437 123.546 165.437 123.775C165.436 124.004 165.514 124.223 165.652 124.385L165.656 124.39L166.832 125.749C166.901 125.83 166.983 125.893 167.073 125.936C167.163 125.979 167.259 126.001 167.357 126C167.552 126 167.74 125.911 167.879 125.751L169.785 123.553C169.791 123.546 169.798 123.538 169.804 123.53C169.932 123.366 170.002 123.152 170 122.93C169.998 122.709 169.925 122.496 169.794 122.336Z" fill="#FFCB2D"/>
<path d="M27.8 124C27.6418 124 27.4871 123.956 27.3555 123.874C27.224 123.791 27.1214 123.674 27.0609 123.537C27.0003 123.4 26.9845 123.249 27.0154 123.104C27.0462 122.958 27.1224 122.825 27.2343 122.72L29.0686 121L27.2343 119.28C27.0843 119.14 27 118.949 27 118.75C27 118.551 27.0843 118.36 27.2343 118.22C27.3843 118.079 27.5878 118 27.8 118C28.0122 118 28.2156 118.079 28.3657 118.22L30.7657 120.47C30.84 120.539 30.8989 120.622 30.9391 120.713C30.9793 120.804 31 120.901 31 121C31 121.098 30.9793 121.196 30.9391 121.287C30.8989 121.378 30.84 121.461 30.7657 121.53L28.3657 123.78C28.2915 123.85 28.2033 123.905 28.1062 123.943C28.0091 123.981 27.9051 124 27.8 124Z" fill="#FFCB2D"/>
<path d="M16.7 126C16.6081 126 16.517 125.981 16.4321 125.943C16.3472 125.905 16.27 125.85 16.205 125.78C16.14 125.711 16.0885 125.628 16.0533 125.537C16.0181 125.446 16 125.348 16 125.25V124.5C16.0055 123.309 16.4495 122.168 17.2355 121.325C18.0215 120.483 19.0861 120.006 20.1979 120H29.3C29.4856 120 29.6637 120.079 29.795 120.22C29.9263 120.36 30 120.551 30 120.75C30 120.949 29.9263 121.14 29.795 121.28C29.6637 121.421 29.4856 121.5 29.3 121.5H20.2C19.4584 121.505 18.7484 121.823 18.2242 122.385C17.7 122.947 17.4038 123.708 17.4 124.502V125.25C17.4 125.348 17.3819 125.446 17.3467 125.537C17.3115 125.628 17.26 125.711 17.195 125.78C17.13 125.85 17.0528 125.905 16.9679 125.943C16.883 125.981 16.7919 126 16.7 126Z" fill="#FFCB2D"/>
<path d="M22.2 132C22.095 132 21.9909 131.981 21.8938 131.943C21.7967 131.905 21.7086 131.85 21.6343 131.78L19.2343 129.53C19.16 129.46 19.1011 129.378 19.0609 129.287C19.0207 129.196 19 129.098 19 129C19 128.901 19.0207 128.804 19.0609 128.713C19.1011 128.622 19.16 128.539 19.2343 128.469L21.6343 126.219C21.7844 126.079 21.9878 126 22.1999 126C22.4119 126 22.6152 126.079 22.7652 126.22C22.9151 126.36 22.9994 126.551 22.9995 126.75C22.9996 126.949 22.9155 127.139 22.7657 127.28L20.9314 129L22.7657 130.72C22.8776 130.824 22.9538 130.958 22.9846 131.104C23.0155 131.249 22.9997 131.4 22.9391 131.537C22.8786 131.674 22.776 131.791 22.6445 131.874C22.5129 131.956 22.3582 132 22.2 132Z" fill="#FFCB2D"/>
<path d="M20.75 130C20.5511 130 20.3603 129.921 20.2197 129.78C20.079 129.64 20 129.449 20 129.25C20 129.051 20.079 128.86 20.2197 128.72C20.3603 128.579 20.5511 128.5 20.75 128.5H30.5C31.2946 128.495 32.0552 128.177 32.6169 127.615C33.1786 127.053 33.4959 126.292 33.5 125.498V124.75C33.5 124.551 33.579 124.36 33.7197 124.22C33.8603 124.079 34.0511 124 34.25 124C34.4489 124 34.6397 124.079 34.7803 124.22C34.921 124.36 35 124.551 35 124.75V125.5C34.9941 126.691 34.5184 127.832 33.6763 128.675C32.8341 129.517 31.6935 129.994 30.5022 130L20.75 130Z" fill="#FFCB2D"/>
</g>
<defs>
<clipPath id="clip0_276_337">
<rect width="324" height="454" fill="white"/>
</clipPath>
</defs>
</svg>
