<svg width="1400" height="570" viewBox="0 0 1400 570" fill="none" xmlns="http://www.w3.org/2000/svg">
<g clip-path="url(#clip0_2_215)">
<rect width="1400" height="570" rx="15" fill="#252022"/>
<circle cx="1300" cy="34" r="251" fill="#FFCB2D"/>
<path d="M251 536C251 674.623 138.623 787 0 787C-138.623 787 -251 674.623 -251 536C-251 397.377 -138.623 285 0 285C138.623 285 251 397.377 251 536Z" fill="#D52529"/>
<path d="M0 285H1400V436H0V285Z" fill="#3C698A" fill-opacity="0.3"/>
<path d="M124.304 135.432C121.648 135.432 119.328 135.128 117.344 134.52C115.36 133.912 113.824 133.064 112.736 131.976C111.68 130.856 111.152 129.544 111.152 128.04C111.152 126.376 111.68 125.112 112.736 124.248C113.792 123.352 115.328 122.904 117.344 122.904C117.28 123.544 117.248 123.992 117.248 124.248C117.248 126.232 117.888 127.736 119.168 128.76C120.48 129.784 122.384 130.296 124.88 130.296C127.344 130.296 129.296 129.832 130.736 128.904C132.176 127.944 132.896 126.648 132.896 125.016C132.896 123.992 132.368 123.16 131.312 122.52C130.288 121.88 128.368 121.224 125.552 120.552C121.776 119.656 119.008 118.504 117.248 117.096C115.52 115.688 114.656 113.896 114.656 111.72C114.656 109.544 115.248 107.656 116.432 106.056C117.616 104.424 119.296 103.176 121.472 102.312C123.648 101.416 126.192 100.968 129.104 100.968C131.408 100.968 133.456 101.256 135.248 101.832C137.04 102.408 138.432 103.224 139.424 104.28C140.448 105.304 140.96 106.472 140.96 107.784C140.96 109.288 140.464 110.44 139.472 111.24C138.48 112.04 137.024 112.456 135.104 112.488C135.136 112.264 135.152 111.96 135.152 111.576C135.152 109.656 134.624 108.264 133.568 107.4C132.512 106.536 130.848 106.104 128.576 106.104C126.24 106.104 124.4 106.536 123.056 107.4C121.744 108.264 121.088 109.464 121.088 111C121.088 112.024 121.568 112.84 122.528 113.448C123.488 114.056 125.216 114.648 127.712 115.224C131.744 116.152 134.672 117.336 136.496 118.776C138.352 120.216 139.28 122.04 139.28 124.248C139.28 126.52 138.672 128.504 137.456 130.2C136.24 131.864 134.496 133.16 132.224 134.088C129.984 134.984 127.344 135.432 124.304 135.432ZM152.017 135.432C150.193 135.432 148.545 135.112 147.073 134.472C145.633 133.8 144.497 132.888 143.665 131.736C142.833 130.584 142.417 129.288 142.417 127.848C142.417 127.304 142.449 126.888 142.513 126.6L143.665 119.832C144.177 117.016 145.569 114.776 147.841 113.112C150.113 111.416 152.961 110.568 156.385 110.568C158.305 110.568 159.985 110.92 161.425 111.624C162.897 112.296 164.017 113.224 164.785 114.408C165.585 115.56 165.984 116.872 165.984 118.344C165.984 118.856 165.937 119.352 165.841 119.832L164.689 126.6C164.209 129.288 162.817 131.432 160.513 133.032C158.241 134.632 155.409 135.432 152.017 135.432ZM152.929 130.296C154.529 130.296 155.841 129.944 156.865 129.24C157.921 128.504 158.561 127.496 158.785 126.216L159.841 120.12C159.905 119.736 159.937 119.432 159.937 119.208C159.937 118.12 159.553 117.272 158.785 116.664C158.017 116.024 156.929 115.704 155.521 115.704C153.953 115.704 152.625 116.12 151.537 116.952C150.481 117.752 149.825 118.808 149.569 120.12L148.513 126.216C148.481 126.408 148.465 126.664 148.465 126.984C148.465 128.04 148.849 128.856 149.617 129.432C150.385 130.008 151.489 130.296 152.929 130.296ZM175.542 135.432C173.462 135.432 171.814 134.84 170.598 133.656C169.382 132.472 168.774 130.92 168.774 129C168.774 128.488 168.822 127.944 168.918 127.368L172.95 104.616C173.174 103.336 173.814 102.408 174.87 101.832C175.926 101.256 177.494 100.968 179.574 100.968L174.966 127.128C174.902 127.384 174.87 127.736 174.87 128.184C174.87 128.888 175.078 129.416 175.494 129.768C175.91 130.088 176.566 130.248 177.462 130.248C178.614 130.248 179.83 129.944 181.11 129.336C181.558 129.784 181.782 130.392 181.782 131.16C181.782 132.344 181.174 133.352 179.958 134.184C178.774 135.016 177.302 135.432 175.542 135.432ZM194.033 108.312C193.041 108.312 192.225 108.04 191.585 107.496C190.945 106.92 190.625 106.184 190.625 105.288C190.625 104.104 191.089 103.096 192.017 102.264C192.945 101.4 194.049 100.968 195.329 100.968C196.321 100.968 197.121 101.24 197.729 101.784C198.369 102.328 198.689 103.048 198.689 103.944C198.689 105.128 198.225 106.152 197.297 107.016C196.369 107.88 195.281 108.312 194.033 108.312ZM189.953 114.216C190.177 112.968 190.817 112.056 191.873 111.48C192.961 110.872 194.529 110.568 196.577 110.568L192.833 131.784C192.609 133.064 191.969 133.992 190.913 134.568C189.857 135.144 188.289 135.432 186.209 135.432L189.953 114.216ZM207.098 145.032C205.434 145.032 203.93 144.808 202.586 144.36C201.242 143.912 200.186 143.288 199.418 142.488C198.682 141.72 198.314 140.84 198.314 139.848C198.314 138.664 198.73 137.752 199.562 137.112C200.394 136.472 201.61 136.152 203.21 136.152C203.114 137.496 203.466 138.52 204.266 139.224C205.066 139.928 206.298 140.28 207.962 140.28C209.69 140.28 211.034 139.848 211.994 138.984C212.986 138.152 213.658 136.84 214.01 135.048L214.346 133.416C214.826 133.064 215.226 132.728 215.546 132.408L215.402 132.168C214.474 132.968 213.258 133.64 211.754 134.184C210.282 134.696 208.922 134.952 207.674 134.952C205.306 134.952 203.386 134.296 201.914 132.984C200.442 131.64 199.706 129.928 199.706 127.848C199.706 127.368 199.754 126.872 199.85 126.36L201.05 119.208C201.498 116.584 202.682 114.488 204.602 112.92C206.554 111.352 208.922 110.568 211.706 110.568C213.338 110.568 214.73 110.904 215.882 111.576C217.066 112.248 218.058 113.272 218.858 114.648L219.098 114.456C218.97 114.2 218.746 113.784 218.426 113.208C218.682 111.448 220.666 110.568 224.378 110.568L220.202 134.184C219.594 137.576 218.122 140.232 215.786 142.152C213.45 144.072 210.554 145.032 207.098 145.032ZM210.074 129.816C211.482 129.816 212.73 129.464 213.818 128.76C214.906 128.056 215.546 127.192 215.738 126.168L216.89 119.352C216.922 119.224 216.938 119.048 216.938 118.824C216.938 117.896 216.538 117.144 215.738 116.568C214.938 115.992 213.898 115.704 212.618 115.704C211.018 115.704 209.722 116.04 208.73 116.712C207.77 117.352 207.178 118.312 206.954 119.592L205.85 125.928C205.786 126.312 205.754 126.584 205.754 126.744C205.754 127.736 206.122 128.504 206.858 129.048C207.594 129.56 208.666 129.816 210.074 129.816ZM233.388 135.432C231.116 135.432 229.26 134.84 227.82 133.656C226.412 132.44 225.708 130.872 225.708 128.952C225.708 127.096 226.188 125.432 227.148 123.96C228.108 122.488 229.452 121.336 231.18 120.504C232.908 119.672 234.86 119.256 237.036 119.256C238.444 119.256 239.692 119.48 240.78 119.928C241.868 120.376 242.86 121.08 243.756 122.04L243.996 121.8C243.9 121.672 243.484 121.24 242.748 120.504L242.892 119.544C242.924 119.352 242.94 119.064 242.94 118.68C242.94 117.56 242.556 116.712 241.788 116.136C241.02 115.56 239.9 115.272 238.428 115.272C236.956 115.272 235.596 115.56 234.348 116.136C233.132 116.68 232.108 117.48 231.276 118.536C230.668 118.376 230.172 118.072 229.788 117.624C229.404 117.176 229.212 116.696 229.212 116.184C229.212 115.16 229.676 114.216 230.604 113.352C231.564 112.488 232.844 111.816 234.444 111.336C236.076 110.824 237.852 110.568 239.772 110.568C242.652 110.568 244.908 111.208 246.54 112.488C248.172 113.768 248.988 115.512 248.988 117.72C248.988 118.264 248.94 118.824 248.844 119.4L246.732 131.4C246.476 132.808 245.852 133.832 244.86 134.472C243.868 135.112 242.396 135.432 240.444 135.432L240.78 133.464C241.388 132.984 241.852 132.584 242.172 132.264L241.98 132.024C240.668 133.208 239.324 134.072 237.948 134.616C236.604 135.16 235.084 135.432 233.388 135.432ZM235.74 131.064C237.532 131.064 238.972 130.68 240.06 129.912C241.148 129.112 241.692 128.056 241.692 126.744C241.692 125.752 241.276 124.984 240.444 124.44C239.644 123.896 238.524 123.624 237.084 123.624C235.452 123.624 234.124 124.04 233.1 124.872C232.108 125.704 231.612 126.792 231.612 128.136C231.612 130.088 232.988 131.064 235.74 131.064Z" fill="white"/>
<path d="M176.818 355V331.727H184.682C186.508 331.727 188 332.057 189.159 332.716C190.326 333.367 191.189 334.25 191.75 335.364C192.311 336.477 192.591 337.72 192.591 339.091C192.591 340.462 192.311 341.708 191.75 342.83C191.197 343.951 190.341 344.845 189.182 345.511C188.023 346.17 186.538 346.5 184.727 346.5H179.091V344H184.636C185.886 344 186.89 343.784 187.648 343.352C188.405 342.92 188.955 342.337 189.295 341.602C189.644 340.86 189.818 340.023 189.818 339.091C189.818 338.159 189.644 337.326 189.295 336.591C188.955 335.856 188.402 335.28 187.636 334.864C186.871 334.439 185.856 334.227 184.591 334.227H179.636V355H176.818ZM196.767 355V337.545H199.358V340.182H199.54C199.858 339.318 200.434 338.617 201.267 338.08C202.1 337.542 203.04 337.273 204.085 337.273C204.282 337.273 204.528 337.277 204.824 337.284C205.119 337.292 205.343 337.303 205.494 337.318V340.045C205.403 340.023 205.195 339.989 204.869 339.943C204.551 339.89 204.214 339.864 203.858 339.864C203.009 339.864 202.252 340.042 201.585 340.398C200.926 340.746 200.403 341.231 200.017 341.852C199.638 342.466 199.449 343.167 199.449 343.955V355H196.767ZM215.233 355.364C213.657 355.364 212.275 354.989 211.085 354.239C209.903 353.489 208.979 352.439 208.312 351.091C207.653 349.742 207.324 348.167 207.324 346.364C207.324 344.545 207.653 342.958 208.312 341.602C208.979 340.246 209.903 339.193 211.085 338.443C212.275 337.693 213.657 337.318 215.233 337.318C216.809 337.318 218.188 337.693 219.369 338.443C220.559 339.193 221.483 340.246 222.142 341.602C222.809 342.958 223.142 344.545 223.142 346.364C223.142 348.167 222.809 349.742 222.142 351.091C221.483 352.439 220.559 353.489 219.369 354.239C218.188 354.989 216.809 355.364 215.233 355.364ZM215.233 352.955C216.43 352.955 217.415 352.648 218.188 352.034C218.96 351.42 219.532 350.614 219.903 349.614C220.275 348.614 220.46 347.53 220.46 346.364C220.46 345.197 220.275 344.11 219.903 343.102C219.532 342.095 218.96 341.28 218.188 340.659C217.415 340.038 216.43 339.727 215.233 339.727C214.036 339.727 213.051 340.038 212.278 340.659C211.506 341.28 210.934 342.095 210.562 343.102C210.191 344.11 210.006 345.197 210.006 346.364C210.006 347.53 210.191 348.614 210.562 349.614C210.934 350.614 211.506 351.42 212.278 352.034C213.051 352.648 214.036 352.955 215.233 352.955ZM227.236 337.545H229.918V356.273C229.918 357.348 229.732 358.28 229.361 359.068C228.997 359.856 228.444 360.466 227.702 360.898C226.967 361.33 226.039 361.545 224.918 361.545C224.827 361.545 224.736 361.545 224.645 361.545C224.554 361.545 224.463 361.545 224.372 361.545V359.045C224.463 359.045 224.546 359.045 224.622 359.045C224.698 359.045 224.781 359.045 224.872 359.045C225.69 359.045 226.289 358.803 226.668 358.318C227.046 357.841 227.236 357.159 227.236 356.273V337.545ZM228.554 334.636C228.031 334.636 227.58 334.458 227.202 334.102C226.83 333.746 226.645 333.318 226.645 332.818C226.645 332.318 226.83 331.89 227.202 331.534C227.58 331.178 228.031 331 228.554 331C229.077 331 229.524 331.178 229.895 331.534C230.274 331.89 230.463 332.318 230.463 332.818C230.463 333.318 230.274 333.746 229.895 334.102C229.524 334.458 229.077 334.636 228.554 334.636ZM242.148 355.364C240.466 355.364 239.015 354.992 237.795 354.25C236.583 353.5 235.648 352.455 234.989 351.114C234.337 349.765 234.011 348.197 234.011 346.409C234.011 344.621 234.337 343.045 234.989 341.682C235.648 340.311 236.564 339.242 237.739 338.477C238.92 337.705 240.299 337.318 241.875 337.318C242.784 337.318 243.682 337.47 244.568 337.773C245.455 338.076 246.261 338.568 246.989 339.25C247.716 339.924 248.295 340.818 248.727 341.932C249.159 343.045 249.375 344.417 249.375 346.045V347.182H235.92V344.864H246.648C246.648 343.879 246.451 343 246.057 342.227C245.67 341.455 245.117 340.845 244.398 340.398C243.686 339.951 242.845 339.727 241.875 339.727C240.807 339.727 239.883 339.992 239.102 340.523C238.33 341.045 237.735 341.727 237.318 342.568C236.902 343.409 236.693 344.311 236.693 345.273V346.818C236.693 348.136 236.92 349.254 237.375 350.17C237.837 351.08 238.477 351.773 239.295 352.25C240.114 352.72 241.064 352.955 242.148 352.955C242.852 352.955 243.489 352.856 244.057 352.659C244.633 352.455 245.129 352.152 245.545 351.75C245.962 351.341 246.284 350.833 246.511 350.227L249.102 350.955C248.83 351.833 248.371 352.606 247.727 353.273C247.083 353.932 246.288 354.447 245.341 354.818C244.394 355.182 243.33 355.364 242.148 355.364ZM256.136 331.727V355H253.455V331.727H256.136ZM268.366 355.364C266.685 355.364 265.234 354.992 264.014 354.25C262.802 353.5 261.866 352.455 261.207 351.114C260.556 349.765 260.23 348.197 260.23 346.409C260.23 344.621 260.556 343.045 261.207 341.682C261.866 340.311 262.783 339.242 263.957 338.477C265.139 337.705 266.518 337.318 268.094 337.318C269.003 337.318 269.901 337.47 270.787 337.773C271.673 338.076 272.48 338.568 273.207 339.25C273.935 339.924 274.514 340.818 274.946 341.932C275.378 343.045 275.594 344.417 275.594 346.045V347.182H262.139V344.864H272.866C272.866 343.879 272.67 343 272.276 342.227C271.889 341.455 271.336 340.845 270.616 340.398C269.904 339.951 269.063 339.727 268.094 339.727C267.026 339.727 266.101 339.992 265.321 340.523C264.548 341.045 263.954 341.727 263.537 342.568C263.12 343.409 262.912 344.311 262.912 345.273V346.818C262.912 348.136 263.139 349.254 263.594 350.17C264.056 351.08 264.696 351.773 265.514 352.25C266.332 352.72 267.283 352.955 268.366 352.955C269.071 352.955 269.707 352.856 270.276 352.659C270.851 352.455 271.348 352.152 271.764 351.75C272.181 351.341 272.503 350.833 272.73 350.227L275.321 350.955C275.048 351.833 274.59 352.606 273.946 353.273C273.302 353.932 272.507 354.447 271.56 354.818C270.613 355.182 269.548 355.364 268.366 355.364ZM279.673 355V337.545H282.264V340.182H282.446C282.764 339.318 283.34 338.617 284.173 338.08C285.007 337.542 285.946 337.273 286.991 337.273C287.188 337.273 287.435 337.277 287.73 337.284C288.026 337.292 288.249 337.303 288.401 337.318V340.045C288.31 340.023 288.101 339.989 287.776 339.943C287.457 339.89 287.12 339.864 286.764 339.864C285.916 339.864 285.158 340.042 284.491 340.398C283.832 340.746 283.31 341.231 282.923 341.852C282.545 342.466 282.355 343.167 282.355 343.955V355H279.673ZM291.58 355V337.545H294.261V355H291.58ZM292.943 334.636C292.42 334.636 291.97 334.458 291.591 334.102C291.22 333.746 291.034 333.318 291.034 332.818C291.034 332.318 291.22 331.89 291.591 331.534C291.97 331.178 292.42 331 292.943 331C293.466 331 293.913 331.178 294.284 331.534C294.663 331.89 294.852 332.318 294.852 332.818C294.852 333.318 294.663 333.746 294.284 334.102C293.913 334.458 293.466 334.636 292.943 334.636ZM301.855 344.5V355H299.173V337.545H301.764V340.273H301.991C302.401 339.386 303.022 338.674 303.855 338.136C304.688 337.591 305.764 337.318 307.082 337.318C308.264 337.318 309.298 337.561 310.185 338.045C311.071 338.523 311.76 339.25 312.253 340.227C312.745 341.197 312.991 342.424 312.991 343.909V355H310.31V344.091C310.31 342.72 309.954 341.652 309.241 340.886C308.529 340.114 307.552 339.727 306.31 339.727C305.454 339.727 304.688 339.913 304.014 340.284C303.348 340.655 302.821 341.197 302.435 341.909C302.048 342.621 301.855 343.485 301.855 344.5ZM317.892 355V337.545H320.574V355H317.892ZM319.256 334.636C318.733 334.636 318.282 334.458 317.903 334.102C317.532 333.746 317.347 333.318 317.347 332.818C317.347 332.318 317.532 331.89 317.903 331.534C318.282 331.178 318.733 331 319.256 331C319.778 331 320.225 331.178 320.597 331.534C320.975 331.89 321.165 332.318 321.165 332.818C321.165 333.318 320.975 333.746 320.597 334.102C320.225 334.458 319.778 334.636 319.256 334.636ZM324.986 355V352.955L334.895 340.227V340.045H325.304V337.545H338.349V339.682L328.713 352.318V352.5H338.668V355H324.986ZM342.798 355V337.545H345.48V355H342.798ZM344.162 334.636C343.639 334.636 343.188 334.458 342.81 334.102C342.438 333.746 342.253 333.318 342.253 332.818C342.253 332.318 342.438 331.89 342.81 331.534C343.188 331.178 343.639 331 344.162 331C344.685 331 345.132 331.178 345.503 331.534C345.882 331.89 346.071 332.318 346.071 332.818C346.071 333.318 345.882 333.746 345.503 334.102C345.132 334.458 344.685 334.636 344.162 334.636ZM362.074 344.5V355H359.392V331.727H362.074V340.273H362.301C362.71 339.371 363.324 338.655 364.142 338.125C364.968 337.587 366.066 337.318 367.438 337.318C368.627 337.318 369.669 337.557 370.562 338.034C371.456 338.504 372.15 339.227 372.642 340.205C373.142 341.174 373.392 342.409 373.392 343.909V355H370.71V344.091C370.71 342.705 370.35 341.633 369.631 340.875C368.919 340.11 367.93 339.727 366.665 339.727C365.786 339.727 364.998 339.913 364.301 340.284C363.612 340.655 363.066 341.197 362.665 341.909C362.271 342.621 362.074 343.485 362.074 344.5ZM383.435 355.409C382.329 355.409 381.325 355.201 380.423 354.784C379.522 354.36 378.806 353.75 378.276 352.955C377.745 352.152 377.48 351.182 377.48 350.045C377.48 349.045 377.677 348.235 378.071 347.614C378.465 346.985 378.991 346.492 379.651 346.136C380.31 345.78 381.037 345.515 381.832 345.341C382.635 345.159 383.442 345.015 384.253 344.909C385.313 344.773 386.173 344.67 386.832 344.602C387.499 344.527 387.984 344.402 388.287 344.227C388.598 344.053 388.753 343.75 388.753 343.318V343.227C388.753 342.106 388.446 341.235 387.832 340.614C387.226 339.992 386.306 339.682 385.071 339.682C383.791 339.682 382.787 339.962 382.06 340.523C381.332 341.083 380.821 341.682 380.526 342.318L377.98 341.409C378.435 340.348 379.041 339.523 379.798 338.932C380.563 338.333 381.397 337.917 382.298 337.682C383.207 337.439 384.101 337.318 384.98 337.318C385.541 337.318 386.185 337.386 386.912 337.523C387.647 337.652 388.355 337.92 389.037 338.33C389.726 338.739 390.298 339.356 390.753 340.182C391.207 341.008 391.435 342.114 391.435 343.5V355H388.753V352.636H388.616C388.435 353.015 388.132 353.42 387.707 353.852C387.283 354.284 386.719 354.652 386.014 354.955C385.31 355.258 384.45 355.409 383.435 355.409ZM383.844 353C384.904 353 385.798 352.792 386.526 352.375C387.26 351.958 387.813 351.42 388.185 350.761C388.563 350.102 388.753 349.409 388.753 348.682V346.227C388.639 346.364 388.389 346.489 388.003 346.602C387.624 346.708 387.185 346.803 386.685 346.886C386.192 346.962 385.711 347.03 385.241 347.091C384.779 347.144 384.404 347.189 384.116 347.227C383.42 347.318 382.768 347.466 382.162 347.67C381.563 347.867 381.079 348.167 380.707 348.568C380.344 348.962 380.162 349.5 380.162 350.182C380.162 351.114 380.507 351.818 381.196 352.295C381.893 352.765 382.776 353 383.844 353ZM397.432 361.545C396.977 361.545 396.572 361.508 396.216 361.432C395.86 361.364 395.614 361.295 395.477 361.227L396.159 358.864C396.811 359.03 397.386 359.091 397.886 359.045C398.386 359 398.83 358.777 399.216 358.375C399.61 357.981 399.97 357.341 400.295 356.455L400.795 355.091L394.341 337.545H397.25L402.068 351.455H402.25L407.068 337.545H409.977L402.568 357.545C402.235 358.447 401.822 359.193 401.33 359.784C400.837 360.383 400.265 360.826 399.614 361.114C398.97 361.402 398.242 361.545 397.432 361.545ZM418.122 355.409C417.016 355.409 416.012 355.201 415.111 354.784C414.209 354.36 413.493 353.75 412.963 352.955C412.433 352.152 412.168 351.182 412.168 350.045C412.168 349.045 412.365 348.235 412.759 347.614C413.152 346.985 413.679 346.492 414.338 346.136C414.997 345.78 415.724 345.515 416.52 345.341C417.323 345.159 418.13 345.015 418.94 344.909C420.001 344.773 420.861 344.67 421.52 344.602C422.187 344.527 422.671 344.402 422.974 344.227C423.285 344.053 423.44 343.75 423.44 343.318V343.227C423.44 342.106 423.134 341.235 422.52 340.614C421.914 339.992 420.993 339.682 419.759 339.682C418.478 339.682 417.474 339.962 416.747 340.523C416.02 341.083 415.509 341.682 415.213 342.318L412.668 341.409C413.122 340.348 413.728 339.523 414.486 338.932C415.251 338.333 416.084 337.917 416.986 337.682C417.895 337.439 418.789 337.318 419.668 337.318C420.228 337.318 420.872 337.386 421.599 337.523C422.334 337.652 423.043 337.92 423.724 338.33C424.414 338.739 424.986 339.356 425.44 340.182C425.895 341.008 426.122 342.114 426.122 343.5V355H423.44V352.636H423.304C423.122 353.015 422.819 353.42 422.395 353.852C421.971 354.284 421.406 354.652 420.702 354.955C419.997 355.258 419.137 355.409 418.122 355.409ZM418.531 353C419.592 353 420.486 352.792 421.213 352.375C421.948 351.958 422.501 351.42 422.872 350.761C423.251 350.102 423.44 349.409 423.44 348.682V346.227C423.327 346.364 423.077 346.489 422.69 346.602C422.312 346.708 421.872 346.803 421.372 346.886C420.88 346.962 420.399 347.03 419.929 347.091C419.467 347.144 419.092 347.189 418.804 347.227C418.107 347.318 417.455 347.466 416.849 347.67C416.251 347.867 415.766 348.167 415.395 348.568C415.031 348.962 414.849 349.5 414.849 350.182C414.849 351.114 415.194 351.818 415.884 352.295C416.58 352.765 417.463 353 418.531 353ZM433.699 331.727V355H431.017V331.727H433.699ZM454.929 355.364C453.247 355.364 451.796 354.992 450.577 354.25C449.365 353.5 448.429 352.455 447.77 351.114C447.118 349.765 446.793 348.197 446.793 346.409C446.793 344.621 447.118 343.045 447.77 341.682C448.429 340.311 449.346 339.242 450.52 338.477C451.702 337.705 453.08 337.318 454.656 337.318C455.565 337.318 456.463 337.47 457.349 337.773C458.236 338.076 459.043 338.568 459.77 339.25C460.497 339.924 461.077 340.818 461.509 341.932C461.94 343.045 462.156 344.417 462.156 346.045V347.182H448.702V344.864H459.429C459.429 343.879 459.232 343 458.838 342.227C458.452 341.455 457.899 340.845 457.179 340.398C456.467 339.951 455.626 339.727 454.656 339.727C453.588 339.727 452.664 339.992 451.884 340.523C451.111 341.045 450.516 341.727 450.099 342.568C449.683 343.409 449.474 344.311 449.474 345.273V346.818C449.474 348.136 449.702 349.254 450.156 350.17C450.618 351.08 451.259 351.773 452.077 352.25C452.895 352.72 453.846 352.955 454.929 352.955C455.634 352.955 456.27 352.856 456.838 352.659C457.414 352.455 457.91 352.152 458.327 351.75C458.743 351.341 459.065 350.833 459.293 350.227L461.884 350.955C461.611 351.833 461.152 352.606 460.509 353.273C459.865 353.932 459.069 354.447 458.122 354.818C457.175 355.182 456.111 355.364 454.929 355.364ZM473.827 337.545V339.818H464.781V337.545H473.827ZM467.418 333.364H470.099V350C470.099 350.758 470.209 351.326 470.429 351.705C470.656 352.076 470.944 352.326 471.293 352.455C471.649 352.576 472.024 352.636 472.418 352.636C472.713 352.636 472.955 352.621 473.145 352.591C473.334 352.553 473.486 352.523 473.599 352.5L474.145 354.909C473.963 354.977 473.709 355.045 473.384 355.114C473.058 355.189 472.645 355.227 472.145 355.227C471.387 355.227 470.645 355.064 469.918 354.739C469.198 354.413 468.599 353.917 468.122 353.25C467.652 352.583 467.418 351.742 467.418 350.727V333.364ZM477.861 355V337.545H480.452V340.273H480.679C481.043 339.341 481.63 338.617 482.44 338.102C483.251 337.58 484.224 337.318 485.361 337.318C486.512 337.318 487.471 337.58 488.236 338.102C489.009 338.617 489.611 339.341 490.043 340.273H490.224C490.671 339.371 491.342 338.655 492.236 338.125C493.13 337.587 494.202 337.318 495.452 337.318C497.012 337.318 498.289 337.807 499.281 338.784C500.274 339.754 500.77 341.265 500.77 343.318V355H498.088V343.318C498.088 342.03 497.736 341.11 497.031 340.557C496.327 340.004 495.497 339.727 494.543 339.727C493.315 339.727 492.365 340.098 491.69 340.841C491.016 341.576 490.679 342.508 490.679 343.636V355H487.952V343.045C487.952 342.053 487.63 341.254 486.986 340.648C486.342 340.034 485.512 339.727 484.497 339.727C483.8 339.727 483.149 339.913 482.543 340.284C481.944 340.655 481.459 341.17 481.088 341.83C480.724 342.481 480.543 343.235 480.543 344.091V355H477.861ZM512.991 355.364C511.31 355.364 509.859 354.992 508.639 354.25C507.427 353.5 506.491 352.455 505.832 351.114C505.181 349.765 504.855 348.197 504.855 346.409C504.855 344.621 505.181 343.045 505.832 341.682C506.491 340.311 507.408 339.242 508.582 338.477C509.764 337.705 511.143 337.318 512.719 337.318C513.628 337.318 514.526 337.47 515.412 337.773C516.298 338.076 517.105 338.568 517.832 339.25C518.56 339.924 519.139 340.818 519.571 341.932C520.003 343.045 520.219 344.417 520.219 346.045V347.182H506.764V344.864H517.491C517.491 343.879 517.295 343 516.901 342.227C516.514 341.455 515.961 340.845 515.241 340.398C514.529 339.951 513.688 339.727 512.719 339.727C511.651 339.727 510.726 339.992 509.946 340.523C509.173 341.045 508.579 341.727 508.162 342.568C507.745 343.409 507.537 344.311 507.537 345.273V346.818C507.537 348.136 507.764 349.254 508.219 350.17C508.681 351.08 509.321 351.773 510.139 352.25C510.957 352.72 511.908 352.955 512.991 352.955C513.696 352.955 514.332 352.856 514.901 352.659C515.476 352.455 515.973 352.152 516.389 351.75C516.806 351.341 517.128 350.833 517.355 350.227L519.946 350.955C519.673 351.833 519.215 352.606 518.571 353.273C517.927 353.932 517.132 354.447 516.185 354.818C515.238 355.182 514.173 355.364 512.991 355.364ZM526.798 348.636L526.753 345.318H527.298L534.935 337.545H538.253L530.116 345.773H529.889L526.798 348.636ZM524.298 355V331.727H526.98V355H524.298ZM535.389 355L528.571 346.364L530.48 344.5L538.798 355H535.389ZM551.068 355V331.727H553.75V340.318H553.977C554.174 340.015 554.447 339.629 554.795 339.159C555.152 338.682 555.659 338.258 556.318 337.886C556.985 337.508 557.886 337.318 559.023 337.318C560.492 337.318 561.788 337.686 562.909 338.42C564.03 339.155 564.905 340.197 565.534 341.545C566.163 342.894 566.477 344.485 566.477 346.318C566.477 348.167 566.163 349.769 565.534 351.125C564.905 352.473 564.034 353.519 562.92 354.261C561.807 354.996 560.523 355.364 559.068 355.364C557.947 355.364 557.049 355.178 556.375 354.807C555.701 354.428 555.182 354 554.818 353.523C554.455 353.038 554.174 352.636 553.977 352.318H553.659V355H551.068ZM553.705 346.273C553.705 347.591 553.898 348.754 554.284 349.761C554.67 350.761 555.235 351.545 555.977 352.114C556.72 352.674 557.629 352.955 558.705 352.955C559.826 352.955 560.761 352.659 561.511 352.068C562.269 351.47 562.837 350.667 563.216 349.659C563.602 348.644 563.795 347.515 563.795 346.273C563.795 345.045 563.606 343.939 563.227 342.955C562.856 341.962 562.292 341.178 561.534 340.602C560.784 340.019 559.841 339.727 558.705 339.727C557.614 339.727 556.697 340.004 555.955 340.557C555.212 341.102 554.652 341.867 554.273 342.852C553.894 343.83 553.705 344.97 553.705 346.273ZM570.58 355V337.545H573.261V355H570.58ZM571.943 334.636C571.42 334.636 570.97 334.458 570.591 334.102C570.22 333.746 570.034 333.318 570.034 332.818C570.034 332.318 570.22 331.89 570.591 331.534C570.97 331.178 571.42 331 571.943 331C572.466 331 572.913 331.178 573.284 331.534C573.663 331.89 573.852 332.318 573.852 332.818C573.852 333.318 573.663 333.746 573.284 334.102C572.913 334.458 572.466 334.636 571.943 334.636ZM577.673 355V352.955L587.582 340.227V340.045H577.991V337.545H591.037V339.682L581.401 352.318V352.5H591.355V355H577.673ZM595.486 355V337.545H598.168V355H595.486ZM596.849 334.636C596.327 334.636 595.876 334.458 595.497 334.102C595.126 333.746 594.94 333.318 594.94 332.818C594.94 332.318 595.126 331.89 595.497 331.534C595.876 331.178 596.327 331 596.849 331C597.372 331 597.819 331.178 598.19 331.534C598.569 331.89 598.759 332.318 598.759 332.818C598.759 333.318 598.569 333.746 598.19 334.102C597.819 334.458 597.372 334.636 596.849 334.636ZM603.08 355V337.545H605.67V340.273H605.898C606.261 339.341 606.848 338.617 607.659 338.102C608.47 337.58 609.443 337.318 610.58 337.318C611.731 337.318 612.689 337.58 613.455 338.102C614.227 338.617 614.83 339.341 615.261 340.273H615.443C615.89 339.371 616.561 338.655 617.455 338.125C618.348 337.587 619.42 337.318 620.67 337.318C622.231 337.318 623.508 337.807 624.5 338.784C625.492 339.754 625.989 341.265 625.989 343.318V355H623.307V343.318C623.307 342.03 622.955 341.11 622.25 340.557C621.545 340.004 620.716 339.727 619.761 339.727C618.534 339.727 617.583 340.098 616.909 340.841C616.235 341.576 615.898 342.508 615.898 343.636V355H613.17V343.045C613.17 342.053 612.848 341.254 612.205 340.648C611.561 340.034 610.731 339.727 609.716 339.727C609.019 339.727 608.367 339.913 607.761 340.284C607.163 340.655 606.678 341.17 606.307 341.83C605.943 342.481 605.761 343.235 605.761 344.091V355H603.08ZM633.574 331.727V355H630.892V331.727H633.574ZM645.804 355.364C644.122 355.364 642.671 354.992 641.452 354.25C640.24 353.5 639.304 352.455 638.645 351.114C637.993 349.765 637.668 348.197 637.668 346.409C637.668 344.621 637.993 343.045 638.645 341.682C639.304 340.311 640.221 339.242 641.395 338.477C642.577 337.705 643.955 337.318 645.531 337.318C646.44 337.318 647.338 337.47 648.224 337.773C649.111 338.076 649.918 338.568 650.645 339.25C651.372 339.924 651.952 340.818 652.384 341.932C652.815 343.045 653.031 344.417 653.031 346.045V347.182H639.577V344.864H650.304C650.304 343.879 650.107 343 649.713 342.227C649.327 341.455 648.774 340.845 648.054 340.398C647.342 339.951 646.501 339.727 645.531 339.727C644.463 339.727 643.539 339.992 642.759 340.523C641.986 341.045 641.391 341.727 640.974 342.568C640.558 343.409 640.349 344.311 640.349 345.273V346.818C640.349 348.136 640.577 349.254 641.031 350.17C641.493 351.08 642.134 351.773 642.952 352.25C643.77 352.72 644.721 352.955 645.804 352.955C646.509 352.955 647.145 352.856 647.713 352.659C648.289 352.455 648.785 352.152 649.202 351.75C649.618 351.341 649.94 350.833 650.168 350.227L652.759 350.955C652.486 351.833 652.027 352.606 651.384 353.273C650.74 353.932 649.944 354.447 648.997 354.818C648.05 355.182 646.986 355.364 645.804 355.364ZM666.474 355V331.727H669.156V340.318H669.384C669.58 340.015 669.853 339.629 670.202 339.159C670.558 338.682 671.065 338.258 671.724 337.886C672.391 337.508 673.293 337.318 674.429 337.318C675.899 337.318 677.194 337.686 678.315 338.42C679.437 339.155 680.312 340.197 680.94 341.545C681.569 342.894 681.884 344.485 681.884 346.318C681.884 348.167 681.569 349.769 680.94 351.125C680.312 352.473 679.44 353.519 678.327 354.261C677.213 354.996 675.929 355.364 674.474 355.364C673.353 355.364 672.455 355.178 671.781 354.807C671.107 354.428 670.588 354 670.224 353.523C669.861 353.038 669.58 352.636 669.384 352.318H669.065V355H666.474ZM669.111 346.273C669.111 347.591 669.304 348.754 669.69 349.761C670.077 350.761 670.641 351.545 671.384 352.114C672.126 352.674 673.035 352.955 674.111 352.955C675.232 352.955 676.168 352.659 676.918 352.068C677.675 351.47 678.243 350.667 678.622 349.659C679.009 348.644 679.202 347.515 679.202 346.273C679.202 345.045 679.012 343.939 678.634 342.955C678.262 341.962 677.698 341.178 676.94 340.602C676.19 340.019 675.247 339.727 674.111 339.727C673.02 339.727 672.103 340.004 671.361 340.557C670.618 341.102 670.058 341.867 669.679 342.852C669.3 343.83 669.111 344.97 669.111 346.273ZM691.122 355.409C690.016 355.409 689.012 355.201 688.111 354.784C687.209 354.36 686.493 353.75 685.963 352.955C685.433 352.152 685.168 351.182 685.168 350.045C685.168 349.045 685.365 348.235 685.759 347.614C686.152 346.985 686.679 346.492 687.338 346.136C687.997 345.78 688.724 345.515 689.52 345.341C690.323 345.159 691.13 345.015 691.94 344.909C693.001 344.773 693.861 344.67 694.52 344.602C695.187 344.527 695.671 344.402 695.974 344.227C696.285 344.053 696.44 343.75 696.44 343.318V343.227C696.44 342.106 696.134 341.235 695.52 340.614C694.914 339.992 693.993 339.682 692.759 339.682C691.478 339.682 690.474 339.962 689.747 340.523C689.02 341.083 688.509 341.682 688.213 342.318L685.668 341.409C686.122 340.348 686.728 339.523 687.486 338.932C688.251 338.333 689.084 337.917 689.986 337.682C690.895 337.439 691.789 337.318 692.668 337.318C693.228 337.318 693.872 337.386 694.599 337.523C695.334 337.652 696.043 337.92 696.724 338.33C697.414 338.739 697.986 339.356 698.44 340.182C698.895 341.008 699.122 342.114 699.122 343.5V355H696.44V352.636H696.304C696.122 353.015 695.819 353.42 695.395 353.852C694.971 354.284 694.406 354.652 693.702 354.955C692.997 355.258 692.137 355.409 691.122 355.409ZM691.531 353C692.592 353 693.486 352.792 694.213 352.375C694.948 351.958 695.501 351.42 695.872 350.761C696.251 350.102 696.44 349.409 696.44 348.682V346.227C696.327 346.364 696.077 346.489 695.69 346.602C695.312 346.708 694.872 346.803 694.372 346.886C693.88 346.962 693.399 347.03 692.929 347.091C692.467 347.144 692.092 347.189 691.804 347.227C691.107 347.318 690.455 347.466 689.849 347.67C689.251 347.867 688.766 348.167 688.395 348.568C688.031 348.962 687.849 349.5 687.849 350.182C687.849 351.114 688.194 351.818 688.884 352.295C689.58 352.765 690.463 353 691.531 353ZM716.381 341.455L713.972 342.136C713.82 341.735 713.597 341.345 713.301 340.966C713.013 340.58 712.619 340.261 712.119 340.011C711.619 339.761 710.979 339.636 710.199 339.636C709.131 339.636 708.241 339.883 707.528 340.375C706.824 340.86 706.472 341.477 706.472 342.227C706.472 342.894 706.714 343.42 707.199 343.807C707.684 344.193 708.441 344.515 709.472 344.773L712.062 345.409C713.623 345.788 714.786 346.367 715.551 347.148C716.316 347.92 716.699 348.917 716.699 350.136C716.699 351.136 716.411 352.03 715.835 352.818C715.267 353.606 714.472 354.227 713.449 354.682C712.426 355.136 711.237 355.364 709.881 355.364C708.1 355.364 706.627 354.977 705.46 354.205C704.294 353.432 703.555 352.303 703.244 350.818L705.79 350.182C706.032 351.121 706.491 351.826 707.165 352.295C707.847 352.765 708.737 353 709.835 353C711.085 353 712.078 352.735 712.812 352.205C713.555 351.667 713.926 351.023 713.926 350.273C713.926 349.667 713.714 349.159 713.29 348.75C712.866 348.333 712.214 348.023 711.335 347.818L708.426 347.136C706.828 346.758 705.653 346.17 704.903 345.375C704.161 344.572 703.79 343.568 703.79 342.364C703.79 341.379 704.066 340.508 704.619 339.75C705.18 338.992 705.941 338.398 706.903 337.966C707.873 337.534 708.972 337.318 710.199 337.318C711.926 337.318 713.282 337.697 714.267 338.455C715.259 339.212 715.964 340.212 716.381 341.455ZM708.881 354.909H711.108L710.926 355.818C711.517 355.909 712.059 356.155 712.551 356.557C713.044 356.966 713.29 357.614 713.29 358.5C713.29 359.477 712.884 360.273 712.074 360.886C711.271 361.508 710.085 361.818 708.517 361.818L708.426 360.045C709.131 360.045 709.714 359.932 710.176 359.705C710.646 359.485 710.881 359.114 710.881 358.591C710.881 358.068 710.688 357.712 710.301 357.523C709.915 357.333 709.29 357.205 708.426 357.136L708.881 354.909ZM723.418 331.727V355H720.736V331.727H723.418ZM733.466 355.409C732.36 355.409 731.356 355.201 730.455 354.784C729.553 354.36 728.837 353.75 728.307 352.955C727.777 352.152 727.511 351.182 727.511 350.045C727.511 349.045 727.708 348.235 728.102 347.614C728.496 346.985 729.023 346.492 729.682 346.136C730.341 345.78 731.068 345.515 731.864 345.341C732.667 345.159 733.473 345.015 734.284 344.909C735.345 344.773 736.205 344.67 736.864 344.602C737.53 344.527 738.015 344.402 738.318 344.227C738.629 344.053 738.784 343.75 738.784 343.318V343.227C738.784 342.106 738.477 341.235 737.864 340.614C737.258 339.992 736.337 339.682 735.102 339.682C733.822 339.682 732.818 339.962 732.091 340.523C731.364 341.083 730.852 341.682 730.557 342.318L728.011 341.409C728.466 340.348 729.072 339.523 729.83 338.932C730.595 338.333 731.428 337.917 732.33 337.682C733.239 337.439 734.133 337.318 735.011 337.318C735.572 337.318 736.216 337.386 736.943 337.523C737.678 337.652 738.386 337.92 739.068 338.33C739.758 338.739 740.33 339.356 740.784 340.182C741.239 341.008 741.466 342.114 741.466 343.5V355H738.784V352.636H738.648C738.466 353.015 738.163 353.42 737.739 353.852C737.314 354.284 736.75 354.652 736.045 354.955C735.341 355.258 734.481 355.409 733.466 355.409ZM733.875 353C734.936 353 735.83 352.792 736.557 352.375C737.292 351.958 737.845 351.42 738.216 350.761C738.595 350.102 738.784 349.409 738.784 348.682V346.227C738.67 346.364 738.42 346.489 738.034 346.602C737.655 346.708 737.216 346.803 736.716 346.886C736.223 346.962 735.742 347.03 735.273 347.091C734.811 347.144 734.436 347.189 734.148 347.227C733.451 347.318 732.799 347.466 732.193 347.67C731.595 347.867 731.11 348.167 730.739 348.568C730.375 348.962 730.193 349.5 730.193 350.182C730.193 351.114 730.538 351.818 731.227 352.295C731.924 352.765 732.807 353 733.875 353ZM746.361 355V337.545H748.952V340.182H749.134C749.452 339.318 750.027 338.617 750.861 338.08C751.694 337.542 752.634 337.273 753.679 337.273C753.876 337.273 754.122 337.277 754.418 337.284C754.713 337.292 754.937 337.303 755.088 337.318V340.045C754.997 340.023 754.789 339.989 754.463 339.943C754.145 339.89 753.808 339.864 753.452 339.864C752.603 339.864 751.846 340.042 751.179 340.398C750.52 340.746 749.997 341.231 749.611 341.852C749.232 342.466 749.043 343.167 749.043 343.955V355H746.361ZM761.812 331.727L761.585 348.455H758.949L758.722 331.727H761.812ZM760.267 355.182C759.706 355.182 759.225 354.981 758.824 354.58C758.422 354.178 758.222 353.697 758.222 353.136C758.222 352.576 758.422 352.095 758.824 351.693C759.225 351.292 759.706 351.091 760.267 351.091C760.828 351.091 761.309 351.292 761.71 351.693C762.112 352.095 762.312 352.576 762.312 353.136C762.312 353.508 762.218 353.848 762.028 354.159C761.847 354.47 761.6 354.72 761.29 354.909C760.987 355.091 760.646 355.182 760.267 355.182ZM776.537 331.727H779.901L787.81 351.045H788.082L795.991 331.727H799.355V355H796.719V337.318H796.491L789.219 355H786.673L779.401 337.318H779.173V355H776.537V331.727ZM815.642 347.864V337.545H818.324V355H815.642V352.045H815.46C815.051 352.932 814.415 353.686 813.551 354.307C812.688 354.92 811.597 355.227 810.278 355.227C809.188 355.227 808.218 354.989 807.369 354.511C806.521 354.027 805.854 353.299 805.369 352.33C804.884 351.352 804.642 350.121 804.642 348.636V337.545H807.324V348.455C807.324 349.727 807.68 350.742 808.392 351.5C809.112 352.258 810.028 352.636 811.142 352.636C811.809 352.636 812.487 352.466 813.176 352.125C813.873 351.784 814.456 351.261 814.926 350.557C815.403 349.852 815.642 348.955 815.642 347.864ZM808.233 334.636C807.756 334.636 807.331 334.455 806.96 334.091C806.597 333.72 806.415 333.295 806.415 332.818C806.415 332.295 806.597 331.864 806.96 331.523C807.331 331.174 807.756 331 808.233 331C808.756 331 809.188 331.174 809.528 331.523C809.877 331.864 810.051 332.295 810.051 332.818C810.051 333.295 809.877 333.72 809.528 334.091C809.188 334.455 808.756 334.636 808.233 334.636ZM814.778 334.636C814.301 334.636 813.877 334.455 813.506 334.091C813.142 333.72 812.96 333.295 812.96 332.818C812.96 332.295 813.142 331.864 813.506 331.523C813.877 331.174 814.301 331 814.778 331C815.301 331 815.733 331.174 816.074 331.523C816.422 331.864 816.597 332.295 816.597 332.818C816.597 333.295 816.422 333.72 816.074 334.091C815.733 334.455 815.301 334.636 814.778 334.636ZM825.918 344.5V355H823.236V331.727H825.918V340.273H826.145C826.554 339.371 827.168 338.655 827.986 338.125C828.812 337.587 829.91 337.318 831.281 337.318C832.471 337.318 833.512 337.557 834.406 338.034C835.3 338.504 835.993 339.227 836.486 340.205C836.986 341.174 837.236 342.409 837.236 343.909V355H834.554V344.091C834.554 342.705 834.194 341.633 833.474 340.875C832.762 340.11 831.774 339.727 830.509 339.727C829.63 339.727 828.842 339.913 828.145 340.284C827.455 340.655 826.91 341.197 826.509 341.909C826.115 342.621 825.918 343.485 825.918 344.5ZM849.46 355.364C847.778 355.364 846.328 354.992 845.108 354.25C843.896 353.5 842.96 352.455 842.301 351.114C841.65 349.765 841.324 348.197 841.324 346.409C841.324 344.621 841.65 343.045 842.301 341.682C842.96 340.311 843.877 339.242 845.051 338.477C846.233 337.705 847.612 337.318 849.188 337.318C850.097 337.318 850.994 337.47 851.881 337.773C852.767 338.076 853.574 338.568 854.301 339.25C855.028 339.924 855.608 340.818 856.04 341.932C856.472 343.045 856.688 344.417 856.688 346.045V347.182H843.233V344.864H853.96C853.96 343.879 853.763 343 853.369 342.227C852.983 341.455 852.43 340.845 851.71 340.398C850.998 339.951 850.157 339.727 849.188 339.727C848.119 339.727 847.195 339.992 846.415 340.523C845.642 341.045 845.047 341.727 844.631 342.568C844.214 343.409 844.006 344.311 844.006 345.273V346.818C844.006 348.136 844.233 349.254 844.688 350.17C845.15 351.08 845.79 351.773 846.608 352.25C847.426 352.72 848.377 352.955 849.46 352.955C850.165 352.955 850.801 352.856 851.369 352.659C851.945 352.455 852.441 352.152 852.858 351.75C853.275 351.341 853.597 350.833 853.824 350.227L856.415 350.955C856.142 351.833 855.684 352.606 855.04 353.273C854.396 353.932 853.6 354.447 852.653 354.818C851.706 355.182 850.642 355.364 849.46 355.364ZM863.449 344.5V355H860.767V337.545H863.358V340.273H863.585C863.994 339.386 864.616 338.674 865.449 338.136C866.282 337.591 867.358 337.318 868.676 337.318C869.858 337.318 870.892 337.561 871.778 338.045C872.665 338.523 873.354 339.25 873.847 340.227C874.339 341.197 874.585 342.424 874.585 343.909V355H871.903V344.091C871.903 342.72 871.547 341.652 870.835 340.886C870.123 340.114 869.146 339.727 867.903 339.727C867.047 339.727 866.282 339.913 865.608 340.284C864.941 340.655 864.415 341.197 864.028 341.909C863.642 342.621 863.449 343.485 863.449 344.5ZM886.077 355.364C884.622 355.364 883.338 354.996 882.224 354.261C881.111 353.519 880.24 352.473 879.611 351.125C878.982 349.769 878.668 348.167 878.668 346.318C878.668 344.485 878.982 342.894 879.611 341.545C880.24 340.197 881.115 339.155 882.236 338.42C883.357 337.686 884.652 337.318 886.122 337.318C887.259 337.318 888.156 337.508 888.815 337.886C889.482 338.258 889.99 338.682 890.338 339.159C890.694 339.629 890.971 340.015 891.168 340.318H891.395V331.727H894.077V355H891.486V352.318H891.168C890.971 352.636 890.69 353.038 890.327 353.523C889.963 354 889.444 354.428 888.77 354.807C888.096 355.178 887.198 355.364 886.077 355.364ZM886.44 352.955C887.516 352.955 888.425 352.674 889.168 352.114C889.91 351.545 890.474 350.761 890.861 349.761C891.247 348.754 891.44 347.591 891.44 346.273C891.44 344.97 891.251 343.83 890.872 342.852C890.493 341.867 889.933 341.102 889.19 340.557C888.448 340.004 887.531 339.727 886.44 339.727C885.304 339.727 884.357 340.019 883.599 340.602C882.849 341.178 882.285 341.962 881.906 342.955C881.535 343.939 881.349 345.045 881.349 346.273C881.349 347.515 881.539 348.644 881.918 349.659C882.304 350.667 882.872 351.47 883.622 352.068C884.38 352.659 885.319 352.955 886.44 352.955ZM899.361 355V337.545H902.043V355H899.361ZM900.724 334.636C900.202 334.636 899.751 334.458 899.372 334.102C899.001 333.746 898.815 333.318 898.815 332.818C898.815 332.318 899.001 331.89 899.372 331.534C899.751 331.178 900.202 331 900.724 331C901.247 331 901.694 331.178 902.065 331.534C902.444 331.89 902.634 332.318 902.634 332.818C902.634 333.318 902.444 333.746 902.065 334.102C901.694 334.458 901.247 334.636 900.724 334.636ZM919.318 341.455L916.909 342.136C916.758 341.735 916.534 341.345 916.239 340.966C915.951 340.58 915.557 340.261 915.057 340.011C914.557 339.761 913.917 339.636 913.136 339.636C912.068 339.636 911.178 339.883 910.466 340.375C909.761 340.86 909.409 341.477 909.409 342.227C909.409 342.894 909.652 343.42 910.136 343.807C910.621 344.193 911.379 344.515 912.409 344.773L915 345.409C916.561 345.788 917.723 346.367 918.489 347.148C919.254 347.92 919.636 348.917 919.636 350.136C919.636 351.136 919.348 352.03 918.773 352.818C918.205 353.606 917.409 354.227 916.386 354.682C915.364 355.136 914.174 355.364 912.818 355.364C911.038 355.364 909.564 354.977 908.398 354.205C907.231 353.432 906.492 352.303 906.182 350.818L908.727 350.182C908.97 351.121 909.428 351.826 910.102 352.295C910.784 352.765 911.674 353 912.773 353C914.023 353 915.015 352.735 915.75 352.205C916.492 351.667 916.864 351.023 916.864 350.273C916.864 349.667 916.652 349.159 916.227 348.75C915.803 348.333 915.152 348.023 914.273 347.818L911.364 347.136C909.765 346.758 908.591 346.17 907.841 345.375C907.098 344.572 906.727 343.568 906.727 342.364C906.727 341.379 907.004 340.508 907.557 339.75C908.117 338.992 908.879 338.398 909.841 337.966C910.811 337.534 911.909 337.318 913.136 337.318C914.864 337.318 916.22 337.697 917.205 338.455C918.197 339.212 918.902 340.212 919.318 341.455ZM926.355 331.727V355H923.673V331.727H926.355ZM931.267 355V337.545H933.949V355H931.267ZM932.631 334.636C932.108 334.636 931.657 334.458 931.278 334.102C930.907 333.746 930.722 333.318 930.722 332.818C930.722 332.318 930.907 331.89 931.278 331.534C931.657 331.178 932.108 331 932.631 331C933.153 331 933.6 331.178 933.972 331.534C934.35 331.89 934.54 332.318 934.54 332.818C934.54 333.318 934.35 333.746 933.972 334.102C933.6 334.458 933.153 334.636 932.631 334.636ZM941.361 348.636L941.315 345.318H941.861L949.497 337.545H952.815L944.679 345.773H944.452L941.361 348.636ZM938.861 355V331.727H941.543V355H938.861ZM949.952 355L943.134 346.364L945.043 344.5L953.361 355H949.952ZM979.54 337.545L973.085 355H970.358L963.903 337.545H966.812L971.631 351.455H971.812L976.631 337.545H979.54ZM989.773 355.364C988.091 355.364 986.64 354.992 985.42 354.25C984.208 353.5 983.273 352.455 982.614 351.114C981.962 349.765 981.636 348.197 981.636 346.409C981.636 344.621 981.962 343.045 982.614 341.682C983.273 340.311 984.189 339.242 985.364 338.477C986.545 337.705 987.924 337.318 989.5 337.318C990.409 337.318 991.307 337.47 992.193 337.773C993.08 338.076 993.886 338.568 994.614 339.25C995.341 339.924 995.92 340.818 996.352 341.932C996.784 343.045 997 344.417 997 346.045V347.182H983.545V344.864H994.273C994.273 343.879 994.076 343 993.682 342.227C993.295 341.455 992.742 340.845 992.023 340.398C991.311 339.951 990.47 339.727 989.5 339.727C988.432 339.727 987.508 339.992 986.727 340.523C985.955 341.045 985.36 341.727 984.943 342.568C984.527 343.409 984.318 344.311 984.318 345.273V346.818C984.318 348.136 984.545 349.254 985 350.17C985.462 351.08 986.102 351.773 986.92 352.25C987.739 352.72 988.689 352.955 989.773 352.955C990.477 352.955 991.114 352.856 991.682 352.659C992.258 352.455 992.754 352.152 993.17 351.75C993.587 351.341 993.909 350.833 994.136 350.227L996.727 350.955C996.455 351.833 995.996 352.606 995.352 353.273C994.708 353.932 993.913 354.447 992.966 354.818C992.019 355.182 990.955 355.364 989.773 355.364ZM1016.67 355.364C1015.22 355.364 1013.93 354.996 1012.82 354.261C1011.7 353.519 1010.83 352.473 1010.2 351.125C1009.58 349.769 1009.26 348.167 1009.26 346.318C1009.26 344.485 1009.58 342.894 1010.2 341.545C1010.83 340.197 1011.71 339.155 1012.83 338.42C1013.95 337.686 1015.25 337.318 1016.72 337.318C1017.85 337.318 1018.75 337.508 1019.41 337.886C1020.08 338.258 1020.58 338.682 1020.93 339.159C1021.29 339.629 1021.56 340.015 1021.76 340.318H1021.99V331.727H1024.67V355H1022.08V352.318H1021.76C1021.56 352.636 1021.28 353.038 1020.92 353.523C1020.56 354 1020.04 354.428 1019.36 354.807C1018.69 355.178 1017.79 355.364 1016.67 355.364ZM1017.03 352.955C1018.11 352.955 1019.02 352.674 1019.76 352.114C1020.5 351.545 1021.07 350.761 1021.45 349.761C1021.84 348.754 1022.03 347.591 1022.03 346.273C1022.03 344.97 1021.84 343.83 1021.47 342.852C1021.09 341.867 1020.53 341.102 1019.78 340.557C1019.04 340.004 1018.13 339.727 1017.03 339.727C1015.9 339.727 1014.95 340.019 1014.19 340.602C1013.44 341.178 1012.88 341.962 1012.5 342.955C1012.13 343.939 1011.94 345.045 1011.94 346.273C1011.94 347.515 1012.13 348.644 1012.51 349.659C1012.9 350.667 1013.47 351.47 1014.22 352.068C1014.97 352.659 1015.91 352.955 1017.03 352.955ZM1035.09 355.409C1033.98 355.409 1032.98 355.201 1032.08 354.784C1031.18 354.36 1030.46 353.75 1029.93 352.955C1029.4 352.152 1029.14 351.182 1029.14 350.045C1029.14 349.045 1029.33 348.235 1029.73 347.614C1030.12 346.985 1030.65 346.492 1031.31 346.136C1031.97 345.78 1032.69 345.515 1033.49 345.341C1034.29 345.159 1035.1 345.015 1035.91 344.909C1036.97 344.773 1037.83 344.67 1038.49 344.602C1039.16 344.527 1039.64 344.402 1039.94 344.227C1040.25 344.053 1040.41 343.75 1040.41 343.318V343.227C1040.41 342.106 1040.1 341.235 1039.49 340.614C1038.88 339.992 1037.96 339.682 1036.73 339.682C1035.45 339.682 1034.44 339.962 1033.72 340.523C1032.99 341.083 1032.48 341.682 1032.18 342.318L1029.64 341.409C1030.09 340.348 1030.7 339.523 1031.45 338.932C1032.22 338.333 1033.05 337.917 1033.95 337.682C1034.86 337.439 1035.76 337.318 1036.64 337.318C1037.2 337.318 1037.84 337.386 1038.57 337.523C1039.3 337.652 1040.01 337.92 1040.69 338.33C1041.38 338.739 1041.95 339.356 1042.41 340.182C1042.86 341.008 1043.09 342.114 1043.09 343.5V355H1040.41V352.636H1040.27C1040.09 353.015 1039.79 353.42 1039.36 353.852C1038.94 354.284 1038.38 354.652 1037.67 354.955C1036.97 355.258 1036.11 355.409 1035.09 355.409ZM1035.5 353C1036.56 353 1037.45 352.792 1038.18 352.375C1038.92 351.958 1039.47 351.42 1039.84 350.761C1040.22 350.102 1040.41 349.409 1040.41 348.682V346.227C1040.3 346.364 1040.05 346.489 1039.66 346.602C1039.28 346.708 1038.84 346.803 1038.34 346.886C1037.85 346.962 1037.37 347.03 1036.9 347.091C1036.44 347.144 1036.06 347.189 1035.77 347.227C1035.08 347.318 1034.42 347.466 1033.82 347.67C1033.22 347.867 1032.73 348.167 1032.36 348.568C1032 348.962 1031.82 349.5 1031.82 350.182C1031.82 351.114 1032.16 351.818 1032.85 352.295C1033.55 352.765 1034.43 353 1035.5 353ZM1050.67 344.5V355H1047.99V337.545H1050.58V340.273H1050.8C1051.21 339.386 1051.83 338.674 1052.67 338.136C1053.5 337.591 1054.58 337.318 1055.89 337.318C1057.08 337.318 1058.11 337.561 1059 338.045C1059.88 338.523 1060.57 339.25 1061.07 340.227C1061.56 341.197 1061.8 342.424 1061.8 343.909V355H1059.12V344.091C1059.12 342.72 1058.77 341.652 1058.05 340.886C1057.34 340.114 1056.36 339.727 1055.12 339.727C1054.27 339.727 1053.5 339.913 1052.83 340.284C1052.16 340.655 1051.63 341.197 1051.25 341.909C1050.86 342.621 1050.67 343.485 1050.67 344.5ZM1066.7 355V337.545H1069.39V355H1066.7ZM1086.66 341.455L1084.25 342.136C1084.1 341.735 1083.88 341.345 1083.58 340.966C1083.29 340.58 1082.9 340.261 1082.4 340.011C1081.9 339.761 1081.26 339.636 1080.48 339.636C1079.41 339.636 1078.52 339.883 1077.81 340.375C1077.11 340.86 1076.75 341.477 1076.75 342.227C1076.75 342.894 1077 343.42 1077.48 343.807C1077.96 344.193 1078.72 344.515 1079.75 344.773L1082.34 345.409C1083.9 345.788 1085.07 346.367 1085.83 347.148C1086.6 347.92 1086.98 348.917 1086.98 350.136C1086.98 351.136 1086.69 352.03 1086.12 352.818C1085.55 353.606 1084.75 354.227 1083.73 354.682C1082.71 355.136 1081.52 355.364 1080.16 355.364C1078.38 355.364 1076.91 354.977 1075.74 354.205C1074.57 353.432 1073.84 352.303 1073.53 350.818L1076.07 350.182C1076.31 351.121 1076.77 351.826 1077.45 352.295C1078.13 352.765 1079.02 353 1080.12 353C1081.37 353 1082.36 352.735 1083.09 352.205C1083.84 351.667 1084.21 351.023 1084.21 350.273C1084.21 349.667 1084 349.159 1083.57 348.75C1083.15 348.333 1082.5 348.023 1081.62 347.818L1078.71 347.136C1077.11 346.758 1075.93 346.17 1075.18 345.375C1074.44 344.572 1074.07 343.568 1074.07 342.364C1074.07 341.379 1074.35 340.508 1074.9 339.75C1075.46 338.992 1076.22 338.398 1077.18 337.966C1078.15 337.534 1079.25 337.318 1080.48 337.318C1082.21 337.318 1083.56 337.697 1084.55 338.455C1085.54 339.212 1086.25 340.212 1086.66 341.455ZM1079.16 354.909H1081.39L1081.21 355.818C1081.8 355.909 1082.34 356.155 1082.83 356.557C1083.32 356.966 1083.57 357.614 1083.57 358.5C1083.57 359.477 1083.17 360.273 1082.36 360.886C1081.55 361.508 1080.37 361.818 1078.8 361.818L1078.71 360.045C1079.41 360.045 1080 359.932 1080.46 359.705C1080.93 359.485 1081.16 359.114 1081.16 358.591C1081.16 358.068 1080.97 357.712 1080.58 357.523C1080.2 357.333 1079.57 357.205 1078.71 357.136L1079.16 354.909ZM1091.02 355V337.545H1093.61V340.273H1093.84C1094.2 339.341 1094.79 338.617 1095.6 338.102C1096.41 337.58 1097.38 337.318 1098.52 337.318C1099.67 337.318 1100.63 337.58 1101.39 338.102C1102.16 338.617 1102.77 339.341 1103.2 340.273H1103.38C1103.83 339.371 1104.5 338.655 1105.39 338.125C1106.29 337.587 1107.36 337.318 1108.61 337.318C1110.17 337.318 1111.45 337.807 1112.44 338.784C1113.43 339.754 1113.93 341.265 1113.93 343.318V355H1111.24V343.318C1111.24 342.03 1110.89 341.11 1110.19 340.557C1109.48 340.004 1108.65 339.727 1107.7 339.727C1106.47 339.727 1105.52 340.098 1104.85 340.841C1104.17 341.576 1103.84 342.508 1103.84 343.636V355H1101.11V343.045C1101.11 342.053 1100.79 341.254 1100.14 340.648C1099.5 340.034 1098.67 339.727 1097.65 339.727C1096.96 339.727 1096.3 339.913 1095.7 340.284C1095.1 340.655 1094.62 341.17 1094.24 341.83C1093.88 342.481 1093.7 343.235 1093.7 344.091V355H1091.02ZM1123.97 355.409C1122.86 355.409 1121.86 355.201 1120.95 354.784C1120.05 354.36 1119.34 353.75 1118.81 352.955C1118.28 352.152 1118.01 351.182 1118.01 350.045C1118.01 349.045 1118.21 348.235 1118.6 347.614C1119 346.985 1119.52 346.492 1120.18 346.136C1120.84 345.78 1121.57 345.515 1122.36 345.341C1123.17 345.159 1123.97 345.015 1124.78 344.909C1125.84 344.773 1126.7 344.67 1127.36 344.602C1128.03 344.527 1128.52 344.402 1128.82 344.227C1129.13 344.053 1129.28 343.75 1129.28 343.318V343.227C1129.28 342.106 1128.98 341.235 1128.36 340.614C1127.76 339.992 1126.84 339.682 1125.6 339.682C1124.32 339.682 1123.32 339.962 1122.59 340.523C1121.86 341.083 1121.35 341.682 1121.06 342.318L1118.51 341.409C1118.97 340.348 1119.57 339.523 1120.33 338.932C1121.09 338.333 1121.93 337.917 1122.83 337.682C1123.74 337.439 1124.63 337.318 1125.51 337.318C1126.07 337.318 1126.72 337.386 1127.44 337.523C1128.18 337.652 1128.89 337.92 1129.57 338.33C1130.26 338.739 1130.83 339.356 1131.28 340.182C1131.74 341.008 1131.97 342.114 1131.97 343.5V355H1129.28V352.636H1129.15C1128.97 353.015 1128.66 353.42 1128.24 353.852C1127.81 354.284 1127.25 354.652 1126.55 354.955C1125.84 355.258 1124.98 355.409 1123.97 355.409ZM1124.38 353C1125.44 353 1126.33 352.792 1127.06 352.375C1127.79 351.958 1128.34 351.42 1128.72 350.761C1129.09 350.102 1129.28 349.409 1129.28 348.682V346.227C1129.17 346.364 1128.92 346.489 1128.53 346.602C1128.16 346.708 1127.72 346.803 1127.22 346.886C1126.72 346.962 1126.24 347.03 1125.77 347.091C1125.31 347.144 1124.94 347.189 1124.65 347.227C1123.95 347.318 1123.3 347.466 1122.69 347.67C1122.09 347.867 1121.61 348.167 1121.24 348.568C1120.88 348.962 1120.69 349.5 1120.69 350.182C1120.69 351.114 1121.04 351.818 1121.73 352.295C1122.42 352.765 1123.31 353 1124.38 353ZM1139.54 344.5V355H1136.86V337.545H1139.45V340.273H1139.68C1140.09 339.386 1140.71 338.674 1141.54 338.136C1142.38 337.591 1143.45 337.318 1144.77 337.318C1145.95 337.318 1146.99 337.561 1147.87 338.045C1148.76 338.523 1149.45 339.25 1149.94 340.227C1150.43 341.197 1150.68 342.424 1150.68 343.909V355H1148V344.091C1148 342.72 1147.64 341.652 1146.93 340.886C1146.22 340.114 1145.24 339.727 1144 339.727C1143.14 339.727 1142.38 339.913 1141.7 340.284C1141.04 340.655 1140.51 341.197 1140.12 341.909C1139.74 342.621 1139.54 343.485 1139.54 344.5ZM1158.26 331.727V355H1155.58V331.727H1158.26ZM1163.17 355V337.545H1165.86V355H1163.17ZM1173.27 348.636L1173.22 345.318H1173.77L1181.4 337.545H1184.72L1176.59 345.773H1176.36L1173.27 348.636ZM1170.77 355V331.727H1173.45V355H1170.77ZM1181.86 355L1175.04 346.364L1176.95 344.5L1185.27 355H1181.86ZM233.136 383.5V394H230.455V370.727H233.136V379.273H233.364C233.773 378.371 234.386 377.655 235.205 377.125C236.03 376.587 237.129 376.318 238.5 376.318C239.689 376.318 240.731 376.557 241.625 377.034C242.519 377.504 243.212 378.227 243.705 379.205C244.205 380.174 244.455 381.409 244.455 382.909V394H241.773V383.091C241.773 381.705 241.413 380.633 240.693 379.875C239.981 379.11 238.992 378.727 237.727 378.727C236.848 378.727 236.061 378.913 235.364 379.284C234.674 379.655 234.129 380.197 233.727 380.909C233.333 381.621 233.136 382.485 233.136 383.5ZM249.361 394V376.545H252.043V394H249.361ZM250.724 373.636C250.202 373.636 249.751 373.458 249.372 373.102C249.001 372.746 248.815 372.318 248.815 371.818C248.815 371.318 249.001 370.89 249.372 370.534C249.751 370.178 250.202 370 250.724 370C251.247 370 251.694 370.178 252.065 370.534C252.444 370.89 252.634 371.318 252.634 371.818C252.634 372.318 252.444 372.746 252.065 373.102C251.694 373.458 251.247 373.636 250.724 373.636ZM256.455 394V391.955L266.364 379.227V379.045H256.773V376.545H269.818V378.682L260.182 391.318V391.5H270.136V394H256.455ZM274.267 394V376.545H276.858V379.273H277.085C277.449 378.341 278.036 377.617 278.847 377.102C279.657 376.58 280.631 376.318 281.767 376.318C282.919 376.318 283.877 376.58 284.642 377.102C285.415 377.617 286.017 378.341 286.449 379.273H286.631C287.078 378.371 287.748 377.655 288.642 377.125C289.536 376.587 290.608 376.318 291.858 376.318C293.419 376.318 294.695 376.807 295.688 377.784C296.68 378.754 297.176 380.265 297.176 382.318V394H294.494V382.318C294.494 381.03 294.142 380.11 293.438 379.557C292.733 379.004 291.903 378.727 290.949 378.727C289.722 378.727 288.771 379.098 288.097 379.841C287.422 380.576 287.085 381.508 287.085 382.636V394H284.358V382.045C284.358 381.053 284.036 380.254 283.392 379.648C282.748 379.034 281.919 378.727 280.903 378.727C280.206 378.727 279.555 378.913 278.949 379.284C278.35 379.655 277.866 380.17 277.494 380.83C277.131 381.481 276.949 382.235 276.949 383.091V394H274.267ZM309.398 394.364C307.716 394.364 306.265 393.992 305.045 393.25C303.833 392.5 302.898 391.455 302.239 390.114C301.587 388.765 301.261 387.197 301.261 385.409C301.261 383.621 301.587 382.045 302.239 380.682C302.898 379.311 303.814 378.242 304.989 377.477C306.17 376.705 307.549 376.318 309.125 376.318C310.034 376.318 310.932 376.47 311.818 376.773C312.705 377.076 313.511 377.568 314.239 378.25C314.966 378.924 315.545 379.818 315.977 380.932C316.409 382.045 316.625 383.417 316.625 385.045V386.182H303.17V383.864H313.898C313.898 382.879 313.701 382 313.307 381.227C312.92 380.455 312.367 379.845 311.648 379.398C310.936 378.951 310.095 378.727 309.125 378.727C308.057 378.727 307.133 378.992 306.352 379.523C305.58 380.045 304.985 380.727 304.568 381.568C304.152 382.409 303.943 383.311 303.943 384.273V385.818C303.943 387.136 304.17 388.254 304.625 389.17C305.087 390.08 305.727 390.773 306.545 391.25C307.364 391.72 308.314 391.955 309.398 391.955C310.102 391.955 310.739 391.856 311.307 391.659C311.883 391.455 312.379 391.152 312.795 390.75C313.212 390.341 313.534 389.833 313.761 389.227L316.352 389.955C316.08 390.833 315.621 391.606 314.977 392.273C314.333 392.932 313.538 393.447 312.591 393.818C311.644 394.182 310.58 394.364 309.398 394.364ZM328.295 376.545V378.818H319.25V376.545H328.295ZM321.886 372.364H324.568V389C324.568 389.758 324.678 390.326 324.898 390.705C325.125 391.076 325.413 391.326 325.761 391.455C326.117 391.576 326.492 391.636 326.886 391.636C327.182 391.636 327.424 391.621 327.614 391.591C327.803 391.553 327.955 391.523 328.068 391.5L328.614 393.909C328.432 393.977 328.178 394.045 327.852 394.114C327.527 394.189 327.114 394.227 326.614 394.227C325.856 394.227 325.114 394.064 324.386 393.739C323.667 393.413 323.068 392.917 322.591 392.25C322.121 391.583 321.886 390.742 321.886 389.727V372.364ZM335.386 370.727V394H332.705V370.727H335.386ZM347.616 394.364C345.935 394.364 344.484 393.992 343.264 393.25C342.052 392.5 341.116 391.455 340.457 390.114C339.806 388.765 339.48 387.197 339.48 385.409C339.48 383.621 339.806 382.045 340.457 380.682C341.116 379.311 342.033 378.242 343.207 377.477C344.389 376.705 345.768 376.318 347.344 376.318C348.253 376.318 349.151 376.47 350.037 376.773C350.923 377.076 351.73 377.568 352.457 378.25C353.185 378.924 353.764 379.818 354.196 380.932C354.628 382.045 354.844 383.417 354.844 385.045V386.182H341.389V383.864H352.116C352.116 382.879 351.92 382 351.526 381.227C351.139 380.455 350.586 379.845 349.866 379.398C349.154 378.951 348.313 378.727 347.344 378.727C346.276 378.727 345.351 378.992 344.571 379.523C343.798 380.045 343.204 380.727 342.787 381.568C342.37 382.409 342.162 383.311 342.162 384.273V385.818C342.162 387.136 342.389 388.254 342.844 389.17C343.306 390.08 343.946 390.773 344.764 391.25C345.582 391.72 346.533 391.955 347.616 391.955C348.321 391.955 348.957 391.856 349.526 391.659C350.101 391.455 350.598 391.152 351.014 390.75C351.431 390.341 351.753 389.833 351.98 389.227L354.571 389.955C354.298 390.833 353.84 391.606 353.196 392.273C352.552 392.932 351.757 393.447 350.81 393.818C349.863 394.182 348.798 394.364 347.616 394.364ZM358.923 394V376.545H361.514V379.182H361.696C362.014 378.318 362.59 377.617 363.423 377.08C364.257 376.542 365.196 376.273 366.241 376.273C366.438 376.273 366.685 376.277 366.98 376.284C367.276 376.292 367.499 376.303 367.651 376.318V379.045C367.56 379.023 367.351 378.989 367.026 378.943C366.707 378.89 366.37 378.864 366.014 378.864C365.166 378.864 364.408 379.042 363.741 379.398C363.082 379.746 362.56 380.231 362.173 380.852C361.795 381.466 361.605 382.167 361.605 382.955V394H358.923ZM370.83 394V376.545H373.511V394H370.83ZM372.193 373.636C371.67 373.636 371.22 373.458 370.841 373.102C370.47 372.746 370.284 372.318 370.284 371.818C370.284 371.318 370.47 370.89 370.841 370.534C371.22 370.178 371.67 370 372.193 370C372.716 370 373.163 370.178 373.534 370.534C373.913 370.89 374.102 371.318 374.102 371.818C374.102 372.318 373.913 372.746 373.534 373.102C373.163 373.458 372.716 373.636 372.193 373.636ZM378.423 394V376.545H381.014V379.273H381.241C381.605 378.341 382.192 377.617 383.003 377.102C383.813 376.58 384.787 376.318 385.923 376.318C387.075 376.318 388.033 376.58 388.798 377.102C389.571 377.617 390.173 378.341 390.605 379.273H390.787C391.234 378.371 391.904 377.655 392.798 377.125C393.692 376.587 394.764 376.318 396.014 376.318C397.575 376.318 398.851 376.807 399.844 377.784C400.836 378.754 401.332 380.265 401.332 382.318V394H398.651V382.318C398.651 381.03 398.298 380.11 397.594 379.557C396.889 379.004 396.06 378.727 395.105 378.727C393.878 378.727 392.927 379.098 392.253 379.841C391.579 380.576 391.241 381.508 391.241 382.636V394H388.514V382.045C388.514 381.053 388.192 380.254 387.548 379.648C386.904 379.034 386.075 378.727 385.06 378.727C384.363 378.727 383.711 378.913 383.105 379.284C382.507 379.655 382.022 380.17 381.651 380.83C381.287 381.481 381.105 382.235 381.105 383.091V394H378.423ZM406.236 394V376.545H408.918V394H406.236ZM407.599 373.636C407.077 373.636 406.626 373.458 406.247 373.102C405.876 372.746 405.69 372.318 405.69 371.818C405.69 371.318 405.876 370.89 406.247 370.534C406.626 370.178 407.077 370 407.599 370C408.122 370 408.569 370.178 408.94 370.534C409.319 370.89 409.509 371.318 409.509 371.818C409.509 372.318 409.319 372.746 408.94 373.102C408.569 373.458 408.122 373.636 407.599 373.636ZM413.33 394V391.955L423.239 379.227V379.045H413.648V376.545H426.693V378.682L417.057 391.318V391.5H427.011V394H413.33ZM433.824 370.727V394H431.142V370.727H433.824ZM446.054 394.364C444.372 394.364 442.921 393.992 441.702 393.25C440.49 392.5 439.554 391.455 438.895 390.114C438.243 388.765 437.918 387.197 437.918 385.409C437.918 383.621 438.243 382.045 438.895 380.682C439.554 379.311 440.471 378.242 441.645 377.477C442.827 376.705 444.205 376.318 445.781 376.318C446.69 376.318 447.588 376.47 448.474 376.773C449.361 377.076 450.168 377.568 450.895 378.25C451.622 378.924 452.202 379.818 452.634 380.932C453.065 382.045 453.281 383.417 453.281 385.045V386.182H439.827V383.864H450.554C450.554 382.879 450.357 382 449.963 381.227C449.577 380.455 449.024 379.845 448.304 379.398C447.592 378.951 446.751 378.727 445.781 378.727C444.713 378.727 443.789 378.992 443.009 379.523C442.236 380.045 441.641 380.727 441.224 381.568C440.808 382.409 440.599 383.311 440.599 384.273V385.818C440.599 387.136 440.827 388.254 441.281 389.17C441.743 390.08 442.384 390.773 443.202 391.25C444.02 391.72 444.971 391.955 446.054 391.955C446.759 391.955 447.395 391.856 447.963 391.659C448.539 391.455 449.035 391.152 449.452 390.75C449.868 390.341 450.19 389.833 450.418 389.227L453.009 389.955C452.736 390.833 452.277 391.606 451.634 392.273C450.99 392.932 450.194 393.447 449.247 393.818C448.3 394.182 447.236 394.364 446.054 394.364ZM478.724 380.455L476.315 381.136C476.164 380.735 475.94 380.345 475.645 379.966C475.357 379.58 474.963 379.261 474.463 379.011C473.963 378.761 473.323 378.636 472.543 378.636C471.474 378.636 470.584 378.883 469.872 379.375C469.168 379.86 468.815 380.477 468.815 381.227C468.815 381.894 469.058 382.42 469.543 382.807C470.027 383.193 470.785 383.515 471.815 383.773L474.406 384.409C475.967 384.788 477.13 385.367 477.895 386.148C478.66 386.92 479.043 387.917 479.043 389.136C479.043 390.136 478.755 391.03 478.179 391.818C477.611 392.606 476.815 393.227 475.793 393.682C474.77 394.136 473.58 394.364 472.224 394.364C470.444 394.364 468.971 393.977 467.804 393.205C466.637 392.432 465.899 391.303 465.588 389.818L468.134 389.182C468.376 390.121 468.834 390.826 469.509 391.295C470.19 391.765 471.08 392 472.179 392C473.429 392 474.421 391.735 475.156 391.205C475.899 390.667 476.27 390.023 476.27 389.273C476.27 388.667 476.058 388.159 475.634 387.75C475.209 387.333 474.558 387.023 473.679 386.818L470.77 386.136C469.171 385.758 467.997 385.17 467.247 384.375C466.505 383.572 466.134 382.568 466.134 381.364C466.134 380.379 466.41 379.508 466.963 378.75C467.524 377.992 468.285 377.398 469.247 376.966C470.217 376.534 471.315 376.318 472.543 376.318C474.27 376.318 475.626 376.697 476.611 377.455C477.603 378.212 478.308 379.212 478.724 380.455ZM483.08 394V376.545H485.761V394H483.08ZM484.443 373.636C483.92 373.636 483.47 373.458 483.091 373.102C482.72 372.746 482.534 372.318 482.534 371.818C482.534 371.318 482.72 370.89 483.091 370.534C483.47 370.178 483.92 370 484.443 370C484.966 370 485.413 370.178 485.784 370.534C486.163 370.89 486.352 371.318 486.352 371.818C486.352 372.318 486.163 372.746 485.784 373.102C485.413 373.458 484.966 373.636 484.443 373.636ZM490.173 394V391.955L500.082 379.227V379.045H490.491V376.545H503.537V378.682L493.901 391.318V391.5H503.855V394H490.173ZM514.804 394.364C513.122 394.364 511.671 393.992 510.452 393.25C509.24 392.5 508.304 391.455 507.645 390.114C506.993 388.765 506.668 387.197 506.668 385.409C506.668 383.621 506.993 382.045 507.645 380.682C508.304 379.311 509.221 378.242 510.395 377.477C511.577 376.705 512.955 376.318 514.531 376.318C515.44 376.318 516.338 376.47 517.224 376.773C518.111 377.076 518.918 377.568 519.645 378.25C520.372 378.924 520.952 379.818 521.384 380.932C521.815 382.045 522.031 383.417 522.031 385.045V386.182H508.577V383.864H519.304C519.304 382.879 519.107 382 518.713 381.227C518.327 380.455 517.774 379.845 517.054 379.398C516.342 378.951 515.501 378.727 514.531 378.727C513.463 378.727 512.539 378.992 511.759 379.523C510.986 380.045 510.391 380.727 509.974 381.568C509.558 382.409 509.349 383.311 509.349 384.273V385.818C509.349 387.136 509.577 388.254 510.031 389.17C510.493 390.08 511.134 390.773 511.952 391.25C512.77 391.72 513.721 391.955 514.804 391.955C515.509 391.955 516.145 391.856 516.713 391.659C517.289 391.455 517.785 391.152 518.202 390.75C518.618 390.341 518.94 389.833 519.168 389.227L521.759 389.955C521.486 390.833 521.027 391.606 520.384 392.273C519.74 392.932 518.944 393.447 517.997 393.818C517.05 394.182 515.986 394.364 514.804 394.364ZM542.429 394.364C540.747 394.364 539.296 393.992 538.077 393.25C536.865 392.5 535.929 391.455 535.27 390.114C534.618 388.765 534.293 387.197 534.293 385.409C534.293 383.621 534.618 382.045 535.27 380.682C535.929 379.311 536.846 378.242 538.02 377.477C539.202 376.705 540.58 376.318 542.156 376.318C543.065 376.318 543.963 376.47 544.849 376.773C545.736 377.076 546.543 377.568 547.27 378.25C547.997 378.924 548.577 379.818 549.009 380.932C549.44 382.045 549.656 383.417 549.656 385.045V386.182H536.202V383.864H546.929C546.929 382.879 546.732 382 546.338 381.227C545.952 380.455 545.399 379.845 544.679 379.398C543.967 378.951 543.126 378.727 542.156 378.727C541.088 378.727 540.164 378.992 539.384 379.523C538.611 380.045 538.016 380.727 537.599 381.568C537.183 382.409 536.974 383.311 536.974 384.273V385.818C536.974 387.136 537.202 388.254 537.656 389.17C538.118 390.08 538.759 390.773 539.577 391.25C540.395 391.72 541.346 391.955 542.429 391.955C543.134 391.955 543.77 391.856 544.338 391.659C544.914 391.455 545.41 391.152 545.827 390.75C546.243 390.341 546.565 389.833 546.793 389.227L549.384 389.955C549.111 390.833 548.652 391.606 548.009 392.273C547.365 392.932 546.569 393.447 545.622 393.818C544.675 394.182 543.611 394.364 542.429 394.364ZM556.418 383.5V394H553.736V376.545H556.327V379.273H556.554C556.963 378.386 557.584 377.674 558.418 377.136C559.251 376.591 560.327 376.318 561.645 376.318C562.827 376.318 563.861 376.561 564.747 377.045C565.634 377.523 566.323 378.25 566.815 379.227C567.308 380.197 567.554 381.424 567.554 382.909V394H564.872V383.091C564.872 381.72 564.516 380.652 563.804 379.886C563.092 379.114 562.115 378.727 560.872 378.727C560.016 378.727 559.251 378.913 558.577 379.284C557.91 379.655 557.384 380.197 556.997 380.909C556.611 381.621 556.418 382.485 556.418 383.5ZM581.455 394V376.545H584.136V394H581.455ZM582.818 373.636C582.295 373.636 581.845 373.458 581.466 373.102C581.095 372.746 580.909 372.318 580.909 371.818C580.909 371.318 581.095 370.89 581.466 370.534C581.845 370.178 582.295 370 582.818 370C583.341 370 583.788 370.178 584.159 370.534C584.538 370.89 584.727 371.318 584.727 371.818C584.727 372.318 584.538 372.746 584.159 373.102C583.788 373.458 583.341 373.636 582.818 373.636ZM590.776 400.545C590.321 400.545 589.916 400.508 589.56 400.432C589.204 400.364 588.957 400.295 588.821 400.227L589.503 397.864C590.154 398.03 590.73 398.091 591.23 398.045C591.73 398 592.173 397.777 592.56 397.375C592.954 396.981 593.313 396.341 593.639 395.455L594.139 394.091L587.685 376.545H590.594L595.412 390.455H595.594L600.412 376.545H603.321L595.912 396.545C595.579 397.447 595.166 398.193 594.673 398.784C594.181 399.383 593.609 399.826 592.957 400.114C592.313 400.402 591.586 400.545 590.776 400.545ZM606.861 394V376.545H609.543V394H606.861ZM608.224 373.636C607.702 373.636 607.251 373.458 606.872 373.102C606.501 372.746 606.315 372.318 606.315 371.818C606.315 371.318 606.501 370.89 606.872 370.534C607.251 370.178 607.702 370 608.224 370C608.747 370 609.194 370.178 609.565 370.534C609.944 370.89 610.134 371.318 610.134 371.818C610.134 372.318 609.944 372.746 609.565 373.102C609.194 373.458 608.747 373.636 608.224 373.636ZM630.045 394.364C628.591 394.364 627.307 393.996 626.193 393.261C625.08 392.519 624.208 391.473 623.58 390.125C622.951 388.769 622.636 387.167 622.636 385.318C622.636 383.485 622.951 381.894 623.58 380.545C624.208 379.197 625.083 378.155 626.205 377.42C627.326 376.686 628.621 376.318 630.091 376.318C631.227 376.318 632.125 376.508 632.784 376.886C633.451 377.258 633.958 377.682 634.307 378.159C634.663 378.629 634.939 379.015 635.136 379.318H635.364V370.727H638.045V394H635.455V391.318H635.136C634.939 391.636 634.659 392.038 634.295 392.523C633.932 393 633.413 393.428 632.739 393.807C632.064 394.178 631.167 394.364 630.045 394.364ZM630.409 391.955C631.485 391.955 632.394 391.674 633.136 391.114C633.879 390.545 634.443 389.761 634.83 388.761C635.216 387.754 635.409 386.591 635.409 385.273C635.409 383.97 635.22 382.83 634.841 381.852C634.462 380.867 633.902 380.102 633.159 379.557C632.417 379.004 631.5 378.727 630.409 378.727C629.273 378.727 628.326 379.019 627.568 379.602C626.818 380.178 626.254 380.962 625.875 381.955C625.504 382.939 625.318 384.045 625.318 385.273C625.318 386.515 625.508 387.644 625.886 388.659C626.273 389.667 626.841 390.47 627.591 391.068C628.348 391.659 629.288 391.955 630.409 391.955ZM650.648 394.364C648.966 394.364 647.515 393.992 646.295 393.25C645.083 392.5 644.148 391.455 643.489 390.114C642.837 388.765 642.511 387.197 642.511 385.409C642.511 383.621 642.837 382.045 643.489 380.682C644.148 379.311 645.064 378.242 646.239 377.477C647.42 376.705 648.799 376.318 650.375 376.318C651.284 376.318 652.182 376.47 653.068 376.773C653.955 377.076 654.761 377.568 655.489 378.25C656.216 378.924 656.795 379.818 657.227 380.932C657.659 382.045 657.875 383.417 657.875 385.045V386.182H644.42V383.864H655.148C655.148 382.879 654.951 382 654.557 381.227C654.17 380.455 653.617 379.845 652.898 379.398C652.186 378.951 651.345 378.727 650.375 378.727C649.307 378.727 648.383 378.992 647.602 379.523C646.83 380.045 646.235 380.727 645.818 381.568C645.402 382.409 645.193 383.311 645.193 384.273V385.818C645.193 387.136 645.42 388.254 645.875 389.17C646.337 390.08 646.977 390.773 647.795 391.25C648.614 391.72 649.564 391.955 650.648 391.955C651.352 391.955 651.989 391.856 652.557 391.659C653.133 391.455 653.629 391.152 654.045 390.75C654.462 390.341 654.784 389.833 655.011 389.227L657.602 389.955C657.33 390.833 656.871 391.606 656.227 392.273C655.583 392.932 654.788 393.447 653.841 393.818C652.894 394.182 651.83 394.364 650.648 394.364ZM674.318 380.455L671.909 381.136C671.758 380.735 671.534 380.345 671.239 379.966C670.951 379.58 670.557 379.261 670.057 379.011C669.557 378.761 668.917 378.636 668.136 378.636C667.068 378.636 666.178 378.883 665.466 379.375C664.761 379.86 664.409 380.477 664.409 381.227C664.409 381.894 664.652 382.42 665.136 382.807C665.621 383.193 666.379 383.515 667.409 383.773L670 384.409C671.561 384.788 672.723 385.367 673.489 386.148C674.254 386.92 674.636 387.917 674.636 389.136C674.636 390.136 674.348 391.03 673.773 391.818C673.205 392.606 672.409 393.227 671.386 393.682C670.364 394.136 669.174 394.364 667.818 394.364C666.038 394.364 664.564 393.977 663.398 393.205C662.231 392.432 661.492 391.303 661.182 389.818L663.727 389.182C663.97 390.121 664.428 390.826 665.102 391.295C665.784 391.765 666.674 392 667.773 392C669.023 392 670.015 391.735 670.75 391.205C671.492 390.667 671.864 390.023 671.864 389.273C671.864 388.667 671.652 388.159 671.227 387.75C670.803 387.333 670.152 387.023 669.273 386.818L666.364 386.136C664.765 385.758 663.591 385.17 662.841 384.375C662.098 383.572 661.727 382.568 661.727 381.364C661.727 380.379 662.004 379.508 662.557 378.75C663.117 377.992 663.879 377.398 664.841 376.966C665.811 376.534 666.909 376.318 668.136 376.318C669.864 376.318 671.22 376.697 672.205 377.455C673.197 378.212 673.902 379.212 674.318 380.455ZM686.264 376.545V378.818H677.219V376.545H686.264ZM679.855 372.364H682.537V389C682.537 389.758 682.647 390.326 682.866 390.705C683.094 391.076 683.382 391.326 683.73 391.455C684.086 391.576 684.461 391.636 684.855 391.636C685.151 391.636 685.393 391.621 685.582 391.591C685.772 391.553 685.923 391.523 686.037 391.5L686.582 393.909C686.401 393.977 686.147 394.045 685.821 394.114C685.495 394.189 685.082 394.227 684.582 394.227C683.825 394.227 683.082 394.064 682.355 393.739C681.635 393.413 681.037 392.917 680.56 392.25C680.09 391.583 679.855 390.742 679.855 389.727V372.364ZM697.429 394.364C695.747 394.364 694.296 393.992 693.077 393.25C691.865 392.5 690.929 391.455 690.27 390.114C689.618 388.765 689.293 387.197 689.293 385.409C689.293 383.621 689.618 382.045 690.27 380.682C690.929 379.311 691.846 378.242 693.02 377.477C694.202 376.705 695.58 376.318 697.156 376.318C698.065 376.318 698.963 376.47 699.849 376.773C700.736 377.076 701.543 377.568 702.27 378.25C702.997 378.924 703.577 379.818 704.009 380.932C704.44 382.045 704.656 383.417 704.656 385.045V386.182H691.202V383.864H701.929C701.929 382.879 701.732 382 701.338 381.227C700.952 380.455 700.399 379.845 699.679 379.398C698.967 378.951 698.126 378.727 697.156 378.727C696.088 378.727 695.164 378.992 694.384 379.523C693.611 380.045 693.016 380.727 692.599 381.568C692.183 382.409 691.974 383.311 691.974 384.273V385.818C691.974 387.136 692.202 388.254 692.656 389.17C693.118 390.08 693.759 390.773 694.577 391.25C695.395 391.72 696.346 391.955 697.429 391.955C698.134 391.955 698.77 391.856 699.338 391.659C699.914 391.455 700.41 391.152 700.827 390.75C701.243 390.341 701.565 389.833 701.793 389.227L704.384 389.955C704.111 390.833 703.652 391.606 703.009 392.273C702.365 392.932 701.569 393.447 700.622 393.818C699.675 394.182 698.611 394.364 697.429 394.364ZM715.781 400.909C714.486 400.909 713.372 400.742 712.44 400.409C711.509 400.083 710.732 399.652 710.111 399.114C709.497 398.583 709.009 398.015 708.645 397.409L710.781 395.909C711.024 396.227 711.33 396.591 711.702 397C712.073 397.417 712.58 397.777 713.224 398.08C713.876 398.39 714.728 398.545 715.781 398.545C717.19 398.545 718.353 398.205 719.27 397.523C720.187 396.841 720.645 395.773 720.645 394.318V390.773H720.418C720.221 391.091 719.94 391.485 719.577 391.955C719.221 392.417 718.705 392.83 718.031 393.193C717.365 393.549 716.463 393.727 715.327 393.727C713.918 393.727 712.652 393.394 711.531 392.727C710.418 392.061 709.535 391.091 708.884 389.818C708.24 388.545 707.918 387 707.918 385.182C707.918 383.394 708.232 381.837 708.861 380.511C709.49 379.178 710.365 378.148 711.486 377.42C712.607 376.686 713.902 376.318 715.372 376.318C716.509 376.318 717.41 376.508 718.077 376.886C718.751 377.258 719.266 377.682 719.622 378.159C719.986 378.629 720.266 379.015 720.463 379.318H720.736V376.545H723.327V394.5C723.327 396 722.986 397.22 722.304 398.159C721.63 399.106 720.721 399.799 719.577 400.239C718.44 400.686 717.175 400.909 715.781 400.909ZM715.69 391.318C716.766 391.318 717.675 391.072 718.418 390.58C719.16 390.087 719.724 389.379 720.111 388.455C720.497 387.53 720.69 386.424 720.69 385.136C720.69 383.879 720.501 382.769 720.122 381.807C719.743 380.845 719.183 380.091 718.44 379.545C717.698 379 716.781 378.727 715.69 378.727C714.554 378.727 713.607 379.015 712.849 379.591C712.099 380.167 711.535 380.939 711.156 381.909C710.785 382.879 710.599 383.955 710.599 385.136C710.599 386.348 710.789 387.42 711.168 388.352C711.554 389.277 712.122 390.004 712.872 390.534C713.63 391.057 714.569 391.318 715.69 391.318ZM718.281 370.727H720.781C720.781 371.955 720.357 372.958 719.509 373.739C718.66 374.519 717.509 374.909 716.054 374.909C714.622 374.909 713.482 374.519 712.634 373.739C711.793 372.958 711.372 371.955 711.372 370.727H713.872C713.872 371.318 714.035 371.837 714.361 372.284C714.694 372.731 715.259 372.955 716.054 372.955C716.849 372.955 717.418 372.731 717.759 372.284C718.107 371.837 718.281 371.318 718.281 370.727ZM728.236 394V376.545H730.918V394H728.236ZM729.599 373.636C729.077 373.636 728.626 373.458 728.247 373.102C727.876 372.746 727.69 372.318 727.69 371.818C727.69 371.318 727.876 370.89 728.247 370.534C728.626 370.178 729.077 370 729.599 370C730.122 370 730.569 370.178 730.94 370.534C731.319 370.89 731.509 371.318 731.509 371.818C731.509 372.318 731.319 372.746 730.94 373.102C730.569 373.458 730.122 373.636 729.599 373.636ZM757.193 380.455L754.784 381.136C754.633 380.735 754.409 380.345 754.114 379.966C753.826 379.58 753.432 379.261 752.932 379.011C752.432 378.761 751.792 378.636 751.011 378.636C749.943 378.636 749.053 378.883 748.341 379.375C747.636 379.86 747.284 380.477 747.284 381.227C747.284 381.894 747.527 382.42 748.011 382.807C748.496 383.193 749.254 383.515 750.284 383.773L752.875 384.409C754.436 384.788 755.598 385.367 756.364 386.148C757.129 386.92 757.511 387.917 757.511 389.136C757.511 390.136 757.223 391.03 756.648 391.818C756.08 392.606 755.284 393.227 754.261 393.682C753.239 394.136 752.049 394.364 750.693 394.364C748.913 394.364 747.439 393.977 746.273 393.205C745.106 392.432 744.367 391.303 744.057 389.818L746.602 389.182C746.845 390.121 747.303 390.826 747.977 391.295C748.659 391.765 749.549 392 750.648 392C751.898 392 752.89 391.735 753.625 391.205C754.367 390.667 754.739 390.023 754.739 389.273C754.739 388.667 754.527 388.159 754.102 387.75C753.678 387.333 753.027 387.023 752.148 386.818L749.239 386.136C747.64 385.758 746.466 385.17 745.716 384.375C744.973 383.572 744.602 382.568 744.602 381.364C744.602 380.379 744.879 379.508 745.432 378.75C745.992 377.992 746.754 377.398 747.716 376.966C748.686 376.534 749.784 376.318 751.011 376.318C752.739 376.318 754.095 376.697 755.08 377.455C756.072 378.212 756.777 379.212 757.193 380.455ZM766.685 394.409C765.579 394.409 764.575 394.201 763.673 393.784C762.772 393.36 762.056 392.75 761.526 391.955C760.995 391.152 760.73 390.182 760.73 389.045C760.73 388.045 760.927 387.235 761.321 386.614C761.715 385.985 762.241 385.492 762.901 385.136C763.56 384.78 764.287 384.515 765.082 384.341C765.885 384.159 766.692 384.015 767.503 383.909C768.563 383.773 769.423 383.67 770.082 383.602C770.749 383.527 771.234 383.402 771.537 383.227C771.848 383.053 772.003 382.75 772.003 382.318V382.227C772.003 381.106 771.696 380.235 771.082 379.614C770.476 378.992 769.556 378.682 768.321 378.682C767.041 378.682 766.037 378.962 765.31 379.523C764.582 380.083 764.071 380.682 763.776 381.318L761.23 380.409C761.685 379.348 762.291 378.523 763.048 377.932C763.813 377.333 764.647 376.917 765.548 376.682C766.457 376.439 767.351 376.318 768.23 376.318C768.791 376.318 769.435 376.386 770.162 376.523C770.897 376.652 771.605 376.92 772.287 377.33C772.976 377.739 773.548 378.356 774.003 379.182C774.457 380.008 774.685 381.114 774.685 382.5V394H772.003V391.636H771.866C771.685 392.015 771.382 392.42 770.957 392.852C770.533 393.284 769.969 393.652 769.264 393.955C768.56 394.258 767.7 394.409 766.685 394.409ZM767.094 392C768.154 392 769.048 391.792 769.776 391.375C770.51 390.958 771.063 390.42 771.435 389.761C771.813 389.102 772.003 388.409 772.003 387.682V385.227C771.889 385.364 771.639 385.489 771.253 385.602C770.874 385.708 770.435 385.803 769.935 385.886C769.442 385.962 768.961 386.03 768.491 386.091C768.029 386.144 767.654 386.189 767.366 386.227C766.67 386.318 766.018 386.466 765.412 386.67C764.813 386.867 764.329 387.167 763.957 387.568C763.594 387.962 763.412 388.5 763.412 389.182C763.412 390.114 763.757 390.818 764.446 391.295C765.143 391.765 766.026 392 767.094 392ZM786.625 400.909C785.33 400.909 784.216 400.742 783.284 400.409C782.352 400.083 781.576 399.652 780.955 399.114C780.341 398.583 779.852 398.015 779.489 397.409L781.625 395.909C781.867 396.227 782.174 396.591 782.545 397C782.917 397.417 783.424 397.777 784.068 398.08C784.72 398.39 785.572 398.545 786.625 398.545C788.034 398.545 789.197 398.205 790.114 397.523C791.03 396.841 791.489 395.773 791.489 394.318V390.773H791.261C791.064 391.091 790.784 391.485 790.42 391.955C790.064 392.417 789.549 392.83 788.875 393.193C788.208 393.549 787.307 393.727 786.17 393.727C784.761 393.727 783.496 393.394 782.375 392.727C781.261 392.061 780.379 391.091 779.727 389.818C779.083 388.545 778.761 387 778.761 385.182C778.761 383.394 779.076 381.837 779.705 380.511C780.333 379.178 781.208 378.148 782.33 377.42C783.451 376.686 784.746 376.318 786.216 376.318C787.352 376.318 788.254 376.508 788.92 376.886C789.595 377.258 790.11 377.682 790.466 378.159C790.83 378.629 791.11 379.015 791.307 379.318H791.58V376.545H794.17V394.5C794.17 396 793.83 397.22 793.148 398.159C792.473 399.106 791.564 399.799 790.42 400.239C789.284 400.686 788.019 400.909 786.625 400.909ZM786.534 391.318C787.61 391.318 788.519 391.072 789.261 390.58C790.004 390.087 790.568 389.379 790.955 388.455C791.341 387.53 791.534 386.424 791.534 385.136C791.534 383.879 791.345 382.769 790.966 381.807C790.587 380.845 790.027 380.091 789.284 379.545C788.542 379 787.625 378.727 786.534 378.727C785.398 378.727 784.451 379.015 783.693 379.591C782.943 380.167 782.379 380.939 782 381.909C781.629 382.879 781.443 383.955 781.443 385.136C781.443 386.348 781.633 387.42 782.011 388.352C782.398 389.277 782.966 390.004 783.716 390.534C784.473 391.057 785.413 391.318 786.534 391.318ZM789.125 370.727H791.625C791.625 371.955 791.201 372.958 790.352 373.739C789.504 374.519 788.352 374.909 786.898 374.909C785.466 374.909 784.326 374.519 783.477 373.739C782.636 372.958 782.216 371.955 782.216 370.727H784.716C784.716 371.318 784.879 371.837 785.205 372.284C785.538 372.731 786.102 372.955 786.898 372.955C787.693 372.955 788.261 372.731 788.602 372.284C788.951 371.837 789.125 371.318 789.125 370.727ZM801.761 370.727V394H799.08V370.727H801.761ZM806.673 394V376.545H809.355V394H806.673ZM815.994 400.545C815.54 400.545 815.134 400.508 814.778 400.432C814.422 400.364 814.176 400.295 814.04 400.227L814.722 397.864C815.373 398.03 815.949 398.091 816.449 398.045C816.949 398 817.392 397.777 817.778 397.375C818.172 396.981 818.532 396.341 818.858 395.455L819.358 394.091L812.903 376.545H815.812L820.631 390.455H820.812L825.631 376.545H828.54L821.131 396.545C820.797 397.447 820.384 398.193 819.892 398.784C819.4 399.383 818.828 399.826 818.176 400.114C817.532 400.402 816.805 400.545 815.994 400.545ZM838.545 394.364C836.97 394.364 835.587 393.989 834.398 393.239C833.216 392.489 832.292 391.439 831.625 390.091C830.966 388.742 830.636 387.167 830.636 385.364C830.636 383.545 830.966 381.958 831.625 380.602C832.292 379.246 833.216 378.193 834.398 377.443C835.587 376.693 836.97 376.318 838.545 376.318C840.121 376.318 841.5 376.693 842.682 377.443C843.871 378.193 844.795 379.246 845.455 380.602C846.121 381.958 846.455 383.545 846.455 385.364C846.455 387.167 846.121 388.742 845.455 390.091C844.795 391.439 843.871 392.489 842.682 393.239C841.5 393.989 840.121 394.364 838.545 394.364ZM838.545 391.955C839.742 391.955 840.727 391.648 841.5 391.034C842.273 390.42 842.845 389.614 843.216 388.614C843.587 387.614 843.773 386.53 843.773 385.364C843.773 384.197 843.587 383.11 843.216 382.102C842.845 381.095 842.273 380.28 841.5 379.659C840.727 379.038 839.742 378.727 838.545 378.727C837.348 378.727 836.364 379.038 835.591 379.659C834.818 380.28 834.246 381.095 833.875 382.102C833.504 383.11 833.318 384.197 833.318 385.364C833.318 386.53 833.504 387.614 833.875 388.614C834.246 389.614 834.818 390.42 835.591 391.034C836.364 391.648 837.348 391.955 838.545 391.955ZM850.548 394V376.545H853.139V379.182H853.321C853.639 378.318 854.215 377.617 855.048 377.08C855.882 376.542 856.821 376.273 857.866 376.273C858.063 376.273 858.31 376.277 858.605 376.284C858.901 376.292 859.124 376.303 859.276 376.318V379.045C859.185 379.023 858.976 378.989 858.651 378.943C858.332 378.89 857.995 378.864 857.639 378.864C856.791 378.864 856.033 379.042 855.366 379.398C854.707 379.746 854.185 380.231 853.798 380.852C853.42 381.466 853.23 382.167 853.23 382.955V394H850.548ZM873.455 386.864V376.545H876.136V394H873.455V391.045H873.273C872.864 391.932 872.227 392.686 871.364 393.307C870.5 393.92 869.409 394.227 868.091 394.227C867 394.227 866.03 393.989 865.182 393.511C864.333 393.027 863.667 392.299 863.182 391.33C862.697 390.352 862.455 389.121 862.455 387.636V376.545H865.136V387.455C865.136 388.727 865.492 389.742 866.205 390.5C866.924 391.258 867.841 391.636 868.955 391.636C869.621 391.636 870.299 391.466 870.989 391.125C871.686 390.784 872.269 390.261 872.739 389.557C873.216 388.852 873.455 387.955 873.455 386.864ZM880.548 394V391.955L890.457 379.227V379.045H880.866V376.545H893.912V378.682L884.276 391.318V391.5H894.23V394H880.548ZM900.315 394.182C899.755 394.182 899.274 393.981 898.872 393.58C898.471 393.178 898.27 392.697 898.27 392.136C898.27 391.576 898.471 391.095 898.872 390.693C899.274 390.292 899.755 390.091 900.315 390.091C900.876 390.091 901.357 390.292 901.759 390.693C902.16 391.095 902.361 391.576 902.361 392.136C902.361 392.508 902.266 392.848 902.077 393.159C901.895 393.47 901.649 393.72 901.338 393.909C901.035 394.091 900.694 394.182 900.315 394.182Z" fill="white"/>
<line x1="1.31134e-07" y1="434.5" x2="1400" y2="434.5" stroke="#FFA800" stroke-width="3"/>
<line x1="1.31134e-07" y1="283.5" x2="1400" y2="283.5" stroke="#D52529" stroke-width="3"/>
</g>
<defs>
<clipPath id="clip0_2_215">
<rect width="1400" height="570" rx="15" fill="white"/>
</clipPath>
</defs>
</svg>
