<svg width="400" height="300" viewBox="0 0 400 300" fill="none" xmlns="http://www.w3.org/2000/svg">
<g clip-path="url(#clip0_86_3)">
<rect width="400" height="300" fill="white"/>
<path d="M71 268C71 308.317 39.4361 341 0.499998 341C-38.4361 341 -70 308.317 -70 268C-70 227.683 -38.4361 195 0.499998 195C39.4361 195 71 227.683 71 268Z" fill="#D52529"/>
<circle cx="400.5" cy="73.5" r="78.5" fill="#FFCB2D"/>
<path d="M45.728 74.324C43.736 74.324 41.996 74.096 40.508 73.64C39.02 73.184 37.868 72.548 37.052 71.732C36.26 70.892 35.864 69.908 35.864 68.78C35.864 67.532 36.26 66.584 37.052 65.936C37.844 65.264 38.996 64.928 40.508 64.928C40.46 65.408 40.436 65.744 40.436 65.936C40.436 67.424 40.916 68.552 41.876 69.32C42.86 70.088 44.288 70.472 46.16 70.472C48.008 70.472 49.472 70.124 50.552 69.428C51.632 68.708 52.172 67.736 52.172 66.512C52.172 65.744 51.776 65.12 50.984 64.64C50.216 64.16 48.776 63.668 46.664 63.164C43.832 62.492 41.756 61.628 40.436 60.572C39.14 59.516 38.492 58.172 38.492 56.54C38.492 54.908 38.936 53.492 39.824 52.292C40.712 51.068 41.972 50.132 43.604 49.484C45.236 48.812 47.144 48.476 49.328 48.476C51.056 48.476 52.592 48.692 53.936 49.124C55.28 49.556 56.324 50.168 57.068 50.96C57.836 51.728 58.22 52.604 58.22 53.588C58.22 54.716 57.848 55.58 57.104 56.18C56.36 56.78 55.268 57.092 53.828 57.116C53.852 56.948 53.864 56.72 53.864 56.432C53.864 54.992 53.468 53.948 52.676 53.3C51.884 52.652 50.636 52.328 48.932 52.328C47.18 52.328 45.8 52.652 44.792 53.3C43.808 53.948 43.316 54.848 43.316 56C43.316 56.768 43.676 57.38 44.396 57.836C45.116 58.292 46.412 58.736 48.284 59.168C51.308 59.864 53.504 60.752 54.872 61.832C56.264 62.912 56.96 64.28 56.96 65.936C56.96 67.64 56.504 69.128 55.592 70.4C54.68 71.648 53.372 72.62 51.668 73.316C49.988 73.988 48.008 74.324 45.728 74.324ZM66.5124 74.324C65.1444 74.324 63.9084 74.084 62.8044 73.604C61.7244 73.1 60.8724 72.416 60.2484 71.552C59.6244 70.688 59.3124 69.716 59.3124 68.636C59.3124 68.228 59.3364 67.916 59.3844 67.7L60.2484 62.624C60.6324 60.512 61.6764 58.832 63.3804 57.584C65.0844 56.312 67.2204 55.676 69.7884 55.676C71.2284 55.676 72.4884 55.94 73.5684 56.468C74.6724 56.972 75.5124 57.668 76.0884 58.556C76.6884 59.42 76.9884 60.404 76.9884 61.508C76.9884 61.892 76.9524 62.264 76.8804 62.624L76.0164 67.7C75.6564 69.716 74.6124 71.324 72.8844 72.524C71.1804 73.724 69.0564 74.324 66.5124 74.324ZM67.1964 70.472C68.3964 70.472 69.3804 70.208 70.1484 69.68C70.9404 69.128 71.4204 68.372 71.5884 67.412L72.3804 62.84C72.4284 62.552 72.4524 62.324 72.4524 62.156C72.4524 61.34 72.1644 60.704 71.5884 60.248C71.0124 59.768 70.1964 59.528 69.1404 59.528C67.9644 59.528 66.9684 59.84 66.1524 60.464C65.3604 61.064 64.8684 61.856 64.6764 62.84L63.8844 67.412C63.8604 67.556 63.8484 67.748 63.8484 67.988C63.8484 68.78 64.1364 69.392 64.7124 69.824C65.2884 70.256 66.1164 70.472 67.1964 70.472ZM84.1563 74.324C82.5963 74.324 81.3603 73.88 80.4483 72.992C79.5363 72.104 79.0803 70.94 79.0803 69.5C79.0803 69.116 79.1163 68.708 79.1883 68.276L82.2123 51.212C82.3803 50.252 82.8603 49.556 83.6523 49.124C84.4443 48.692 85.6203 48.476 87.1803 48.476L83.7243 68.096C83.6763 68.288 83.6523 68.552 83.6523 68.888C83.6523 69.416 83.8083 69.812 84.1203 70.076C84.4323 70.316 84.9243 70.436 85.5963 70.436C86.4603 70.436 87.3723 70.208 88.3323 69.752C88.6683 70.088 88.8363 70.544 88.8363 71.12C88.8363 72.008 88.3803 72.764 87.4683 73.388C86.5803 74.012 85.4763 74.324 84.1563 74.324ZM98.0248 53.984C97.2808 53.984 96.6688 53.78 96.1888 53.372C95.7088 52.94 95.4688 52.388 95.4688 51.716C95.4688 50.828 95.8168 50.072 96.5128 49.448C97.2088 48.8 98.0368 48.476 98.9968 48.476C99.7408 48.476 100.341 48.68 100.797 49.088C101.277 49.496 101.517 50.036 101.517 50.708C101.517 51.596 101.169 52.364 100.473 53.012C99.7768 53.66 98.9608 53.984 98.0248 53.984ZM94.9648 58.412C95.1328 57.476 95.6128 56.792 96.4048 56.36C97.2208 55.904 98.3968 55.676 99.9328 55.676L97.1248 71.588C96.9568 72.548 96.4768 73.244 95.6848 73.676C94.8928 74.108 93.7168 74.324 92.1567 74.324L94.9648 58.412ZM107.823 81.524C106.575 81.524 105.447 81.356 104.439 81.02C103.431 80.684 102.639 80.216 102.063 79.616C101.511 79.04 101.235 78.38 101.235 77.636C101.235 76.748 101.547 76.064 102.171 75.584C102.795 75.104 103.707 74.864 104.907 74.864C104.835 75.872 105.099 76.64 105.699 77.168C106.299 77.696 107.223 77.96 108.471 77.96C109.767 77.96 110.775 77.636 111.495 76.988C112.239 76.364 112.743 75.38 113.007 74.036L113.259 72.812C113.619 72.548 113.919 72.296 114.159 72.056L114.051 71.876C113.355 72.476 112.443 72.98 111.315 73.388C110.211 73.772 109.191 73.964 108.255 73.964C106.479 73.964 105.039 73.472 103.935 72.488C102.831 71.48 102.279 70.196 102.279 68.636C102.279 68.276 102.315 67.904 102.387 67.52L103.287 62.156C103.623 60.188 104.511 58.616 105.951 57.44C107.415 56.264 109.191 55.676 111.279 55.676C112.503 55.676 113.547 55.928 114.411 56.432C115.299 56.936 116.043 57.704 116.643 58.736L116.823 58.592C116.727 58.4 116.559 58.088 116.319 57.656C116.511 56.336 117.999 55.676 120.783 55.676L117.651 73.388C117.195 75.932 116.091 77.924 114.339 79.364C112.587 80.804 110.415 81.524 107.823 81.524ZM110.055 70.112C111.111 70.112 112.047 69.848 112.863 69.32C113.679 68.792 114.159 68.144 114.303 67.376L115.167 62.264C115.191 62.168 115.203 62.036 115.203 61.868C115.203 61.172 114.903 60.608 114.303 60.176C113.703 59.744 112.923 59.528 111.963 59.528C110.763 59.528 109.791 59.78 109.047 60.284C108.327 60.764 107.883 61.484 107.715 62.444L106.887 67.196C106.839 67.484 106.815 67.688 106.815 67.808C106.815 68.552 107.091 69.128 107.643 69.536C108.195 69.92 108.999 70.112 110.055 70.112ZM127.541 74.324C125.837 74.324 124.445 73.88 123.365 72.992C122.309 72.08 121.781 70.904 121.781 69.464C121.781 68.072 122.141 66.824 122.861 65.72C123.581 64.616 124.589 63.752 125.885 63.128C127.181 62.504 128.645 62.192 130.277 62.192C131.333 62.192 132.269 62.36 133.085 62.696C133.901 63.032 134.645 63.56 135.317 64.28L135.497 64.1C135.425 64.004 135.113 63.68 134.561 63.128L134.669 62.408C134.693 62.264 134.705 62.048 134.705 61.76C134.705 60.92 134.417 60.284 133.841 59.852C133.265 59.42 132.425 59.204 131.321 59.204C130.217 59.204 129.197 59.42 128.261 59.852C127.349 60.26 126.581 60.86 125.957 61.652C125.501 61.532 125.129 61.304 124.841 60.968C124.553 60.632 124.409 60.272 124.409 59.888C124.409 59.12 124.757 58.412 125.453 57.764C126.173 57.116 127.133 56.612 128.333 56.252C129.557 55.868 130.889 55.676 132.329 55.676C134.489 55.676 136.181 56.156 137.405 57.116C138.629 58.076 139.241 59.384 139.241 61.04C139.241 61.448 139.205 61.868 139.133 62.3L137.549 71.3C137.357 72.356 136.889 73.124 136.145 73.604C135.401 74.084 134.297 74.324 132.833 74.324L133.085 72.848C133.541 72.488 133.889 72.188 134.129 71.948L133.985 71.768C133.001 72.656 131.993 73.304 130.961 73.712C129.953 74.12 128.813 74.324 127.541 74.324ZM129.305 71.048C130.649 71.048 131.729 70.76 132.545 70.184C133.361 69.584 133.769 68.792 133.769 67.808C133.769 67.064 133.457 66.488 132.833 66.08C132.233 65.672 131.393 65.468 130.313 65.468C129.089 65.468 128.093 65.78 127.325 66.404C126.581 67.028 126.209 67.844 126.209 68.852C126.209 70.316 127.241 71.048 129.305 71.048Z" fill="black"/>
<path d="M0 130H400V218H0V130Z" fill="#B5BFC6" fill-opacity="0.3"/>
<path d="M21.4091 157V145.364H25.3409C26.2538 145.364 27 145.528 27.5795 145.858C28.1629 146.184 28.5947 146.625 28.875 147.182C29.1553 147.739 29.2955 148.36 29.2955 149.045C29.2955 149.731 29.1553 150.354 28.875 150.915C28.5985 151.475 28.1705 151.922 27.5909 152.256C27.0114 152.585 26.2689 152.75 25.3636 152.75H22.5455V151.5H25.3182C25.9432 151.5 26.4451 151.392 26.8239 151.176C27.2027 150.96 27.4773 150.669 27.6477 150.301C27.822 149.93 27.9091 149.511 27.9091 149.045C27.9091 148.58 27.822 148.163 27.6477 147.795C27.4773 147.428 27.2008 147.14 26.8182 146.932C26.4356 146.72 25.928 146.614 25.2955 146.614H22.8182V157H21.4091ZM31.3835 157V148.273H32.679V149.591H32.7699C32.929 149.159 33.2169 148.809 33.6335 148.54C34.0502 148.271 34.5199 148.136 35.0426 148.136C35.1411 148.136 35.2642 148.138 35.4119 148.142C35.5597 148.146 35.6714 148.152 35.7472 148.159V149.523C35.7017 149.511 35.5975 149.494 35.4347 149.472C35.2756 149.445 35.107 149.432 34.929 149.432C34.5047 149.432 34.1259 149.521 33.7926 149.699C33.4631 149.873 33.2017 150.116 33.0085 150.426C32.8191 150.733 32.7244 151.083 32.7244 151.477V157H31.3835ZM40.6165 157.182C39.8286 157.182 39.1373 156.994 38.5426 156.619C37.9517 156.244 37.4896 155.72 37.1562 155.045C36.8267 154.371 36.6619 153.583 36.6619 152.682C36.6619 151.773 36.8267 150.979 37.1562 150.301C37.4896 149.623 37.9517 149.097 38.5426 148.722C39.1373 148.347 39.8286 148.159 40.6165 148.159C41.4044 148.159 42.0938 148.347 42.6847 148.722C43.2794 149.097 43.7415 149.623 44.071 150.301C44.4044 150.979 44.571 151.773 44.571 152.682C44.571 153.583 44.4044 154.371 44.071 155.045C43.7415 155.72 43.2794 156.244 42.6847 156.619C42.0938 156.994 41.4044 157.182 40.6165 157.182ZM40.6165 155.977C41.215 155.977 41.7074 155.824 42.0938 155.517C42.4801 155.21 42.7661 154.807 42.9517 154.307C43.1373 153.807 43.2301 153.265 43.2301 152.682C43.2301 152.098 43.1373 151.555 42.9517 151.051C42.7661 150.547 42.4801 150.14 42.0938 149.83C41.7074 149.519 41.215 149.364 40.6165 149.364C40.018 149.364 39.5256 149.519 39.1392 149.83C38.7528 150.14 38.4669 150.547 38.2812 151.051C38.0956 151.555 38.0028 152.098 38.0028 152.682C38.0028 153.265 38.0956 153.807 38.2812 154.307C38.4669 154.807 38.7528 155.21 39.1392 155.517C39.5256 155.824 40.018 155.977 40.6165 155.977ZM46.6179 148.273H47.9588V157.636C47.9588 158.174 47.866 158.64 47.6804 159.034C47.4986 159.428 47.2221 159.733 46.8509 159.949C46.4834 160.165 46.0194 160.273 45.4588 160.273C45.4134 160.273 45.3679 160.273 45.3224 160.273C45.277 160.273 45.2315 160.273 45.1861 160.273V159.023C45.2315 159.023 45.2732 159.023 45.3111 159.023C45.349 159.023 45.3906 159.023 45.4361 159.023C45.8452 159.023 46.1444 158.902 46.3338 158.659C46.5232 158.42 46.6179 158.08 46.6179 157.636V148.273ZM47.277 146.818C47.0156 146.818 46.7902 146.729 46.6009 146.551C46.4152 146.373 46.3224 146.159 46.3224 145.909C46.3224 145.659 46.4152 145.445 46.6009 145.267C46.7902 145.089 47.0156 145 47.277 145C47.5384 145 47.7618 145.089 47.9474 145.267C48.1368 145.445 48.2315 145.659 48.2315 145.909C48.2315 146.159 48.1368 146.373 47.9474 146.551C47.7618 146.729 47.5384 146.818 47.277 146.818ZM54.0739 157.182C53.233 157.182 52.5076 156.996 51.8977 156.625C51.2917 156.25 50.8239 155.727 50.4943 155.057C50.1686 154.383 50.0057 153.598 50.0057 152.705C50.0057 151.811 50.1686 151.023 50.4943 150.341C50.8239 149.655 51.2822 149.121 51.8693 148.739C52.4602 148.352 53.1496 148.159 53.9375 148.159C54.392 148.159 54.8409 148.235 55.2841 148.386C55.7273 148.538 56.1307 148.784 56.4943 149.125C56.858 149.462 57.1477 149.909 57.3636 150.466C57.5795 151.023 57.6875 151.708 57.6875 152.523V153.091H50.9602V151.932H56.3239C56.3239 151.439 56.2254 151 56.0284 150.614C55.8352 150.227 55.5587 149.922 55.1989 149.699C54.8428 149.475 54.4223 149.364 53.9375 149.364C53.4034 149.364 52.9413 149.496 52.5511 149.761C52.1648 150.023 51.8674 150.364 51.6591 150.784C51.4508 151.205 51.3466 151.655 51.3466 152.136V152.909C51.3466 153.568 51.4602 154.127 51.6875 154.585C51.9186 155.04 52.2386 155.386 52.6477 155.625C53.0568 155.86 53.5322 155.977 54.0739 155.977C54.4261 155.977 54.7443 155.928 55.0284 155.83C55.3163 155.727 55.5644 155.576 55.7727 155.375C55.9811 155.17 56.142 154.917 56.2557 154.614L57.5511 154.977C57.4148 155.417 57.1856 155.803 56.8636 156.136C56.5417 156.466 56.1439 156.723 55.6705 156.909C55.197 157.091 54.6648 157.182 54.0739 157.182ZM61.0682 145.364V157H59.7273V145.364H61.0682ZM67.1832 157.182C66.3423 157.182 65.617 156.996 65.0071 156.625C64.401 156.25 63.9332 155.727 63.6037 155.057C63.2779 154.383 63.1151 153.598 63.1151 152.705C63.1151 151.811 63.2779 151.023 63.6037 150.341C63.9332 149.655 64.3916 149.121 64.9787 148.739C65.5696 148.352 66.259 148.159 67.0469 148.159C67.5014 148.159 67.9503 148.235 68.3935 148.386C68.8366 148.538 69.2401 148.784 69.6037 149.125C69.9673 149.462 70.2571 149.909 70.473 150.466C70.6889 151.023 70.7969 151.708 70.7969 152.523V153.091H64.0696V151.932H69.4332C69.4332 151.439 69.3348 151 69.1378 150.614C68.9446 150.227 68.6681 149.922 68.3082 149.699C67.9522 149.475 67.5317 149.364 67.0469 149.364C66.5128 149.364 66.0507 149.496 65.6605 149.761C65.2741 150.023 64.9768 150.364 64.7685 150.784C64.5601 151.205 64.456 151.655 64.456 152.136V152.909C64.456 153.568 64.5696 154.127 64.7969 154.585C65.0279 155.04 65.348 155.386 65.7571 155.625C66.1662 155.86 66.6416 155.977 67.1832 155.977C67.5355 155.977 67.8537 155.928 68.1378 155.83C68.4257 155.727 68.6738 155.576 68.8821 155.375C69.0904 155.17 69.2514 154.917 69.3651 154.614L70.6605 154.977C70.5241 155.417 70.295 155.803 69.973 156.136C69.651 156.466 69.2533 156.723 68.7798 156.909C68.3063 157.091 67.7741 157.182 67.1832 157.182ZM72.8366 157V148.273H74.1321V149.591H74.223C74.3821 149.159 74.67 148.809 75.0866 148.54C75.5033 148.271 75.973 148.136 76.4957 148.136C76.5942 148.136 76.7173 148.138 76.8651 148.142C77.0128 148.146 77.1245 148.152 77.2003 148.159V149.523C77.1548 149.511 77.0507 149.494 76.8878 149.472C76.7287 149.445 76.5601 149.432 76.3821 149.432C75.9579 149.432 75.5791 149.521 75.2457 149.699C74.9162 149.873 74.6548 150.116 74.4616 150.426C74.2723 150.733 74.1776 151.083 74.1776 151.477V157H72.8366ZM78.7898 157V148.273H80.1307V157H78.7898ZM79.4716 146.818C79.2102 146.818 78.9848 146.729 78.7955 146.551C78.6098 146.373 78.517 146.159 78.517 145.909C78.517 145.659 78.6098 145.445 78.7955 145.267C78.9848 145.089 79.2102 145 79.4716 145C79.733 145 79.9564 145.089 80.142 145.267C80.3314 145.445 80.4261 145.659 80.4261 145.909C80.4261 146.159 80.3314 146.373 80.142 146.551C79.9564 146.729 79.733 146.818 79.4716 146.818ZM83.9276 151.75V157H82.5866V148.273H83.8821V149.636H83.9957C84.2003 149.193 84.5109 148.837 84.9276 148.568C85.3442 148.295 85.8821 148.159 86.5412 148.159C87.1321 148.159 87.6491 148.28 88.0923 148.523C88.5355 148.761 88.8802 149.125 89.1264 149.614C89.3726 150.098 89.4957 150.712 89.4957 151.455V157H88.1548V151.545C88.1548 150.86 87.9768 150.326 87.6207 149.943C87.2647 149.557 86.776 149.364 86.1548 149.364C85.7268 149.364 85.3442 149.456 85.0071 149.642C84.6738 149.828 84.4105 150.098 84.2173 150.455C84.0241 150.811 83.9276 151.242 83.9276 151.75ZM91.946 157V148.273H93.2869V157H91.946ZM92.6278 146.818C92.3665 146.818 92.1411 146.729 91.9517 146.551C91.7661 146.373 91.6733 146.159 91.6733 145.909C91.6733 145.659 91.7661 145.445 91.9517 145.267C92.1411 145.089 92.3665 145 92.6278 145C92.8892 145 93.1127 145.089 93.2983 145.267C93.4877 145.445 93.5824 145.659 93.5824 145.909C93.5824 146.159 93.4877 146.373 93.2983 146.551C93.1127 146.729 92.8892 146.818 92.6278 146.818ZM95.4929 157V155.977L100.447 149.614V149.523H95.652V148.273H102.175V149.341L97.3565 155.659V155.75H102.334V157H95.4929ZM104.399 157V148.273H105.74V157H104.399ZM105.081 146.818C104.82 146.818 104.594 146.729 104.405 146.551C104.219 146.373 104.126 146.159 104.126 145.909C104.126 145.659 104.219 145.445 104.405 145.267C104.594 145.089 104.82 145 105.081 145C105.342 145 105.566 145.089 105.751 145.267C105.941 145.445 106.036 145.659 106.036 145.909C106.036 146.159 105.941 146.373 105.751 146.551C105.566 146.729 105.342 146.818 105.081 146.818ZM114.037 151.75V157H112.696V145.364H114.037V149.636H114.151C114.355 149.186 114.662 148.828 115.071 148.562C115.484 148.294 116.033 148.159 116.719 148.159C117.313 148.159 117.834 148.278 118.281 148.517C118.728 148.752 119.075 149.114 119.321 149.602C119.571 150.087 119.696 150.705 119.696 151.455V157H118.355V151.545C118.355 150.852 118.175 150.316 117.815 149.938C117.459 149.555 116.965 149.364 116.332 149.364C115.893 149.364 115.499 149.456 115.151 149.642C114.806 149.828 114.533 150.098 114.332 150.455C114.135 150.811 114.037 151.242 114.037 151.75ZM124.717 157.205C124.164 157.205 123.662 157.1 123.212 156.892C122.761 156.68 122.403 156.375 122.138 155.977C121.873 155.576 121.74 155.091 121.74 154.523C121.74 154.023 121.839 153.617 122.036 153.307C122.232 152.992 122.496 152.746 122.825 152.568C123.155 152.39 123.518 152.258 123.916 152.17C124.318 152.08 124.721 152.008 125.126 151.955C125.657 151.886 126.087 151.835 126.416 151.801C126.75 151.763 126.992 151.701 127.143 151.614C127.299 151.527 127.376 151.375 127.376 151.159V151.114C127.376 150.553 127.223 150.117 126.916 149.807C126.613 149.496 126.153 149.341 125.536 149.341C124.895 149.341 124.393 149.481 124.03 149.761C123.666 150.042 123.411 150.341 123.263 150.659L121.99 150.205C122.217 149.674 122.52 149.261 122.899 148.966C123.282 148.667 123.698 148.458 124.149 148.341C124.604 148.22 125.051 148.159 125.49 148.159C125.77 148.159 126.092 148.193 126.456 148.261C126.823 148.326 127.178 148.46 127.518 148.665C127.863 148.869 128.149 149.178 128.376 149.591C128.604 150.004 128.717 150.557 128.717 151.25V157H127.376V155.818H127.308C127.217 156.008 127.066 156.21 126.854 156.426C126.642 156.642 126.359 156.826 126.007 156.977C125.655 157.129 125.225 157.205 124.717 157.205ZM124.922 156C125.452 156 125.899 155.896 126.263 155.688C126.63 155.479 126.907 155.21 127.092 154.881C127.282 154.551 127.376 154.205 127.376 153.841V152.614C127.32 152.682 127.195 152.744 127.001 152.801C126.812 152.854 126.592 152.902 126.342 152.943C126.096 152.981 125.856 153.015 125.621 153.045C125.39 153.072 125.202 153.095 125.058 153.114C124.71 153.159 124.384 153.233 124.081 153.335C123.782 153.434 123.539 153.583 123.354 153.784C123.172 153.981 123.081 154.25 123.081 154.591C123.081 155.057 123.253 155.409 123.598 155.648C123.946 155.883 124.388 156 124.922 156ZM131.716 160.273C131.489 160.273 131.286 160.254 131.108 160.216C130.93 160.182 130.807 160.148 130.739 160.114L131.08 158.932C131.405 159.015 131.693 159.045 131.943 159.023C132.193 159 132.415 158.888 132.608 158.688C132.805 158.491 132.985 158.17 133.148 157.727L133.398 157.045L130.17 148.273H131.625L134.034 155.227H134.125L136.534 148.273H137.989L134.284 158.273C134.117 158.723 133.911 159.097 133.665 159.392C133.419 159.691 133.133 159.913 132.807 160.057C132.485 160.201 132.121 160.273 131.716 160.273ZM142.061 157.205C141.508 157.205 141.006 157.1 140.555 156.892C140.105 156.68 139.747 156.375 139.482 155.977C139.216 155.576 139.084 155.091 139.084 154.523C139.084 154.023 139.182 153.617 139.379 153.307C139.576 152.992 139.839 152.746 140.169 152.568C140.499 152.39 140.862 152.258 141.26 152.17C141.661 152.08 142.065 152.008 142.47 151.955C143 151.886 143.43 151.835 143.76 151.801C144.093 151.763 144.336 151.701 144.487 151.614C144.643 151.527 144.72 151.375 144.72 151.159V151.114C144.72 150.553 144.567 150.117 144.26 149.807C143.957 149.496 143.497 149.341 142.879 149.341C142.239 149.341 141.737 149.481 141.374 149.761C141.01 150.042 140.754 150.341 140.607 150.659L139.334 150.205C139.561 149.674 139.864 149.261 140.243 148.966C140.625 148.667 141.042 148.458 141.493 148.341C141.947 148.22 142.394 148.159 142.834 148.159C143.114 148.159 143.436 148.193 143.8 148.261C144.167 148.326 144.521 148.46 144.862 148.665C145.207 148.869 145.493 149.178 145.72 149.591C145.947 150.004 146.061 150.557 146.061 151.25V157H144.72V155.818H144.652C144.561 156.008 144.41 156.21 144.197 156.426C143.985 156.642 143.703 156.826 143.351 156.977C142.999 157.129 142.569 157.205 142.061 157.205ZM142.266 156C142.796 156 143.243 155.896 143.607 155.688C143.974 155.479 144.25 155.21 144.436 154.881C144.625 154.551 144.72 154.205 144.72 153.841V152.614C144.663 152.682 144.538 152.744 144.345 152.801C144.156 152.854 143.936 152.902 143.686 152.943C143.44 152.981 143.199 153.015 142.964 153.045C142.733 153.072 142.546 153.095 142.402 153.114C142.054 153.159 141.728 153.233 141.425 153.335C141.125 153.434 140.883 153.583 140.697 153.784C140.516 153.981 140.425 154.25 140.425 154.591C140.425 155.057 140.597 155.409 140.942 155.648C141.29 155.883 141.732 156 142.266 156ZM149.849 145.364V157H148.509V145.364H149.849ZM160.464 157.182C159.624 157.182 158.898 156.996 158.288 156.625C157.682 156.25 157.214 155.727 156.885 155.057C156.559 154.383 156.396 153.598 156.396 152.705C156.396 151.811 156.559 151.023 156.885 150.341C157.214 149.655 157.673 149.121 158.26 148.739C158.851 148.352 159.54 148.159 160.328 148.159C160.783 148.159 161.232 148.235 161.675 148.386C162.118 148.538 162.521 148.784 162.885 149.125C163.249 149.462 163.538 149.909 163.754 150.466C163.97 151.023 164.078 151.708 164.078 152.523V153.091H157.351V151.932H162.714C162.714 151.439 162.616 151 162.419 150.614C162.226 150.227 161.949 149.922 161.589 149.699C161.233 149.475 160.813 149.364 160.328 149.364C159.794 149.364 159.332 149.496 158.942 149.761C158.555 150.023 158.258 150.364 158.05 150.784C157.841 151.205 157.737 151.655 157.737 152.136V152.909C157.737 153.568 157.851 154.127 158.078 154.585C158.309 155.04 158.629 155.386 159.038 155.625C159.447 155.86 159.923 155.977 160.464 155.977C160.817 155.977 161.135 155.928 161.419 155.83C161.707 155.727 161.955 155.576 162.163 155.375C162.372 155.17 162.533 154.917 162.646 154.614L163.942 154.977C163.805 155.417 163.576 155.803 163.254 156.136C162.932 156.466 162.535 156.723 162.061 156.909C161.588 157.091 161.055 157.182 160.464 157.182ZM169.913 148.273V149.409H165.391V148.273H169.913ZM166.709 146.182H168.05V154.5C168.05 154.879 168.105 155.163 168.214 155.352C168.328 155.538 168.472 155.663 168.646 155.727C168.824 155.788 169.012 155.818 169.209 155.818C169.357 155.818 169.478 155.811 169.572 155.795C169.667 155.777 169.743 155.761 169.8 155.75L170.072 156.955C169.982 156.989 169.855 157.023 169.692 157.057C169.529 157.095 169.322 157.114 169.072 157.114C168.694 157.114 168.322 157.032 167.959 156.869C167.599 156.706 167.3 156.458 167.061 156.125C166.826 155.792 166.709 155.371 166.709 154.864V146.182ZM171.93 157V148.273H173.226V149.636H173.339C173.521 149.17 173.815 148.809 174.22 148.551C174.625 148.29 175.112 148.159 175.68 148.159C176.256 148.159 176.735 148.29 177.118 148.551C177.504 148.809 177.805 149.17 178.021 149.636H178.112C178.336 149.186 178.671 148.828 179.118 148.562C179.565 148.294 180.101 148.159 180.726 148.159C181.506 148.159 182.144 148.403 182.641 148.892C183.137 149.377 183.385 150.133 183.385 151.159V157H182.044V151.159C182.044 150.515 181.868 150.055 181.516 149.778C181.163 149.502 180.749 149.364 180.271 149.364C179.658 149.364 179.182 149.549 178.845 149.92C178.508 150.288 178.339 150.754 178.339 151.318V157H176.976V151.023C176.976 150.527 176.815 150.127 176.493 149.824C176.171 149.517 175.756 149.364 175.249 149.364C174.9 149.364 174.574 149.456 174.271 149.642C173.972 149.828 173.73 150.085 173.544 150.415C173.362 150.741 173.271 151.117 173.271 151.545V157H171.93ZM189.496 157.182C188.655 157.182 187.929 156.996 187.32 156.625C186.714 156.25 186.246 155.727 185.916 155.057C185.59 154.383 185.428 153.598 185.428 152.705C185.428 151.811 185.59 151.023 185.916 150.341C186.246 149.655 186.704 149.121 187.291 148.739C187.882 148.352 188.571 148.159 189.359 148.159C189.814 148.159 190.263 148.235 190.706 148.386C191.149 148.538 191.553 148.784 191.916 149.125C192.28 149.462 192.57 149.909 192.786 150.466C193.001 151.023 193.109 151.708 193.109 152.523V153.091H186.382V151.932H191.746C191.746 151.439 191.647 151 191.45 150.614C191.257 150.227 190.981 149.922 190.621 149.699C190.265 149.475 189.844 149.364 189.359 149.364C188.825 149.364 188.363 149.496 187.973 149.761C187.587 150.023 187.289 150.364 187.081 150.784C186.873 151.205 186.768 151.655 186.768 152.136V152.909C186.768 153.568 186.882 154.127 187.109 154.585C187.34 155.04 187.661 155.386 188.07 155.625C188.479 155.86 188.954 155.977 189.496 155.977C189.848 155.977 190.166 155.928 190.45 155.83C190.738 155.727 190.986 155.576 191.195 155.375C191.403 155.17 191.564 154.917 191.678 154.614L192.973 154.977C192.837 155.417 192.607 155.803 192.286 156.136C191.964 156.466 191.566 156.723 191.092 156.909C190.619 157.091 190.087 157.182 189.496 157.182ZM196.399 153.818L196.376 152.159H196.649L200.467 148.273H202.126L198.058 152.386H197.945L196.399 153.818ZM195.149 157V145.364H196.49V157H195.149ZM200.695 157L197.286 152.682L198.24 151.75L202.399 157H200.695ZM208.534 157V145.364H209.875V149.659H209.989C210.087 149.508 210.223 149.314 210.398 149.08C210.576 148.841 210.83 148.629 211.159 148.443C211.492 148.254 211.943 148.159 212.511 148.159C213.246 148.159 213.894 148.343 214.455 148.71C215.015 149.078 215.453 149.598 215.767 150.273C216.081 150.947 216.239 151.742 216.239 152.659C216.239 153.583 216.081 154.384 215.767 155.062C215.453 155.737 215.017 156.259 214.46 156.631C213.903 156.998 213.261 157.182 212.534 157.182C211.973 157.182 211.525 157.089 211.188 156.903C210.85 156.714 210.591 156.5 210.409 156.261C210.227 156.019 210.087 155.818 209.989 155.659H209.83V157H208.534ZM209.852 152.636C209.852 153.295 209.949 153.877 210.142 154.381C210.335 154.881 210.617 155.273 210.989 155.557C211.36 155.837 211.814 155.977 212.352 155.977C212.913 155.977 213.381 155.83 213.756 155.534C214.134 155.235 214.419 154.833 214.608 154.33C214.801 153.822 214.898 153.258 214.898 152.636C214.898 152.023 214.803 151.47 214.614 150.977C214.428 150.481 214.146 150.089 213.767 149.801C213.392 149.509 212.92 149.364 212.352 149.364C211.807 149.364 211.348 149.502 210.977 149.778C210.606 150.051 210.326 150.434 210.136 150.926C209.947 151.415 209.852 151.985 209.852 152.636ZM218.29 157V148.273H219.631V157H218.29ZM218.972 146.818C218.71 146.818 218.485 146.729 218.295 146.551C218.11 146.373 218.017 146.159 218.017 145.909C218.017 145.659 218.11 145.445 218.295 145.267C218.485 145.089 218.71 145 218.972 145C219.233 145 219.456 145.089 219.642 145.267C219.831 145.445 219.926 145.659 219.926 145.909C219.926 146.159 219.831 146.373 219.642 146.551C219.456 146.729 219.233 146.818 218.972 146.818ZM221.837 157V155.977L226.791 149.614V149.523H221.996V148.273H228.518V149.341L223.7 155.659V155.75H228.678V157H221.837ZM230.743 157V148.273H232.084V157H230.743ZM231.425 146.818C231.163 146.818 230.938 146.729 230.749 146.551C230.563 146.373 230.47 146.159 230.47 145.909C230.47 145.659 230.563 145.445 230.749 145.267C230.938 145.089 231.163 145 231.425 145C231.686 145 231.91 145.089 232.095 145.267C232.285 145.445 232.379 145.659 232.379 145.909C232.379 146.159 232.285 146.373 232.095 146.551C231.91 146.729 231.686 146.818 231.425 146.818ZM234.54 157V148.273H235.835V149.636H235.949C236.131 149.17 236.424 148.809 236.83 148.551C237.235 148.29 237.722 148.159 238.29 148.159C238.866 148.159 239.345 148.29 239.727 148.551C240.114 148.809 240.415 149.17 240.631 149.636H240.722C240.945 149.186 241.28 148.828 241.727 148.562C242.174 148.294 242.71 148.159 243.335 148.159C244.116 148.159 244.754 148.403 245.25 148.892C245.746 149.377 245.994 150.133 245.994 151.159V157H244.653V151.159C244.653 150.515 244.477 150.055 244.125 149.778C243.773 149.502 243.358 149.364 242.881 149.364C242.267 149.364 241.792 149.549 241.455 149.92C241.117 150.288 240.949 150.754 240.949 151.318V157H239.585V151.023C239.585 150.527 239.424 150.127 239.102 149.824C238.78 149.517 238.366 149.364 237.858 149.364C237.509 149.364 237.184 149.456 236.881 149.642C236.581 149.828 236.339 150.085 236.153 150.415C235.972 150.741 235.881 151.117 235.881 151.545V157H234.54ZM249.787 145.364V157H248.446V145.364H249.787ZM255.902 157.182C255.061 157.182 254.336 156.996 253.726 156.625C253.12 156.25 252.652 155.727 252.322 155.057C251.997 154.383 251.834 153.598 251.834 152.705C251.834 151.811 251.997 151.023 252.322 150.341C252.652 149.655 253.11 149.121 253.697 148.739C254.288 148.352 254.978 148.159 255.766 148.159C256.22 148.159 256.669 148.235 257.112 148.386C257.555 148.538 257.959 148.784 258.322 149.125C258.686 149.462 258.976 149.909 259.192 150.466C259.408 151.023 259.516 151.708 259.516 152.523V153.091H252.788V151.932H258.152C258.152 151.439 258.054 151 257.857 150.614C257.663 150.227 257.387 149.922 257.027 149.699C256.671 149.475 256.25 149.364 255.766 149.364C255.232 149.364 254.769 149.496 254.379 149.761C253.993 150.023 253.696 150.364 253.487 150.784C253.279 151.205 253.175 151.655 253.175 152.136V152.909C253.175 153.568 253.288 154.127 253.516 154.585C253.747 155.04 254.067 155.386 254.476 155.625C254.885 155.86 255.36 155.977 255.902 155.977C256.254 155.977 256.572 155.928 256.857 155.83C257.144 155.727 257.393 155.576 257.601 155.375C257.809 155.17 257.97 154.917 258.084 154.614L259.379 154.977C259.243 155.417 259.014 155.803 258.692 156.136C258.37 156.466 257.972 156.723 257.499 156.909C257.025 157.091 256.493 157.182 255.902 157.182ZM266.237 157V145.364H267.578V149.659H267.692C267.79 149.508 267.927 149.314 268.101 149.08C268.279 148.841 268.533 148.629 268.862 148.443C269.196 148.254 269.646 148.159 270.214 148.159C270.949 148.159 271.597 148.343 272.158 148.71C272.718 149.078 273.156 149.598 273.47 150.273C273.785 150.947 273.942 151.742 273.942 152.659C273.942 153.583 273.785 154.384 273.47 155.062C273.156 155.737 272.72 156.259 272.163 156.631C271.607 156.998 270.964 157.182 270.237 157.182C269.677 157.182 269.228 157.089 268.891 156.903C268.554 156.714 268.294 156.5 268.112 156.261C267.93 156.019 267.79 155.818 267.692 155.659H267.533V157H266.237ZM267.555 152.636C267.555 153.295 267.652 153.877 267.845 154.381C268.038 154.881 268.321 155.273 268.692 155.557C269.063 155.837 269.518 155.977 270.055 155.977C270.616 155.977 271.084 155.83 271.459 155.534C271.838 155.235 272.122 154.833 272.311 154.33C272.504 153.822 272.601 153.258 272.601 152.636C272.601 152.023 272.506 151.47 272.317 150.977C272.131 150.481 271.849 150.089 271.47 149.801C271.095 149.509 270.624 149.364 270.055 149.364C269.51 149.364 269.052 149.502 268.68 149.778C268.309 150.051 268.029 150.434 267.839 150.926C267.65 151.415 267.555 151.985 267.555 152.636ZM278.561 157.205C278.008 157.205 277.506 157.1 277.055 156.892C276.605 156.68 276.247 156.375 275.982 155.977C275.716 155.576 275.584 155.091 275.584 154.523C275.584 154.023 275.682 153.617 275.879 153.307C276.076 152.992 276.339 152.746 276.669 152.568C276.999 152.39 277.362 152.258 277.76 152.17C278.161 152.08 278.565 152.008 278.97 151.955C279.5 151.886 279.93 151.835 280.26 151.801C280.593 151.763 280.836 151.701 280.987 151.614C281.143 151.527 281.22 151.375 281.22 151.159V151.114C281.22 150.553 281.067 150.117 280.76 149.807C280.457 149.496 279.997 149.341 279.379 149.341C278.739 149.341 278.237 149.481 277.874 149.761C277.51 150.042 277.254 150.341 277.107 150.659L275.834 150.205C276.061 149.674 276.364 149.261 276.743 148.966C277.125 148.667 277.542 148.458 277.993 148.341C278.447 148.22 278.894 148.159 279.334 148.159C279.614 148.159 279.936 148.193 280.3 148.261C280.667 148.326 281.021 148.46 281.362 148.665C281.707 148.869 281.993 149.178 282.22 149.591C282.447 150.004 282.561 150.557 282.561 151.25V157H281.22V155.818H281.152C281.061 156.008 280.91 156.21 280.697 156.426C280.485 156.642 280.203 156.826 279.851 156.977C279.499 157.129 279.069 157.205 278.561 157.205ZM278.766 156C279.296 156 279.743 155.896 280.107 155.688C280.474 155.479 280.75 155.21 280.936 154.881C281.125 154.551 281.22 154.205 281.22 153.841V152.614C281.163 152.682 281.038 152.744 280.845 152.801C280.656 152.854 280.436 152.902 280.186 152.943C279.94 152.981 279.699 153.015 279.464 153.045C279.233 153.072 279.046 153.095 278.902 153.114C278.554 153.159 278.228 153.233 277.925 153.335C277.625 153.434 277.383 153.583 277.197 153.784C277.016 153.981 276.925 154.25 276.925 154.591C276.925 155.057 277.097 155.409 277.442 155.648C277.79 155.883 278.232 156 278.766 156ZM291.19 150.227L289.986 150.568C289.91 150.367 289.798 150.172 289.651 149.983C289.507 149.79 289.31 149.631 289.06 149.506C288.81 149.381 288.49 149.318 288.099 149.318C287.565 149.318 287.12 149.441 286.764 149.688C286.412 149.93 286.236 150.239 286.236 150.614C286.236 150.947 286.357 151.21 286.599 151.403C286.842 151.597 287.221 151.758 287.736 151.886L289.031 152.205C289.812 152.394 290.393 152.684 290.776 153.074C291.158 153.46 291.349 153.958 291.349 154.568C291.349 155.068 291.205 155.515 290.918 155.909C290.634 156.303 290.236 156.614 289.724 156.841C289.213 157.068 288.618 157.182 287.94 157.182C287.05 157.182 286.313 156.989 285.73 156.602C285.147 156.216 284.777 155.652 284.622 154.909L285.895 154.591C286.016 155.061 286.245 155.413 286.582 155.648C286.923 155.883 287.368 156 287.918 156C288.543 156 289.039 155.867 289.406 155.602C289.777 155.333 289.963 155.011 289.963 154.636C289.963 154.333 289.857 154.08 289.645 153.875C289.433 153.667 289.107 153.511 288.668 153.409L287.213 153.068C286.414 152.879 285.827 152.585 285.452 152.188C285.08 151.786 284.895 151.284 284.895 150.682C284.895 150.189 285.033 149.754 285.31 149.375C285.59 148.996 285.971 148.699 286.452 148.483C286.937 148.267 287.486 148.159 288.099 148.159C288.963 148.159 289.641 148.348 290.134 148.727C290.63 149.106 290.982 149.606 291.19 150.227ZM287.44 156.955H288.554L288.463 157.409C288.759 157.455 289.029 157.578 289.276 157.778C289.522 157.983 289.645 158.307 289.645 158.75C289.645 159.239 289.442 159.636 289.037 159.943C288.635 160.254 288.043 160.409 287.259 160.409L287.213 159.523C287.565 159.523 287.857 159.466 288.088 159.352C288.323 159.242 288.44 159.057 288.44 158.795C288.44 158.534 288.344 158.356 288.151 158.261C287.957 158.167 287.645 158.102 287.213 158.068L287.44 156.955ZM294.709 145.364V157H293.368V145.364H294.709ZM299.733 157.205C299.18 157.205 298.678 157.1 298.227 156.892C297.777 156.68 297.419 156.375 297.153 155.977C296.888 155.576 296.756 155.091 296.756 154.523C296.756 154.023 296.854 153.617 297.051 153.307C297.248 152.992 297.511 152.746 297.841 152.568C298.17 152.39 298.534 152.258 298.932 152.17C299.333 152.08 299.737 152.008 300.142 151.955C300.672 151.886 301.102 151.835 301.432 151.801C301.765 151.763 302.008 151.701 302.159 151.614C302.314 151.527 302.392 151.375 302.392 151.159V151.114C302.392 150.553 302.239 150.117 301.932 149.807C301.629 149.496 301.169 149.341 300.551 149.341C299.911 149.341 299.409 149.481 299.045 149.761C298.682 150.042 298.426 150.341 298.278 150.659L297.006 150.205C297.233 149.674 297.536 149.261 297.915 148.966C298.297 148.667 298.714 148.458 299.165 148.341C299.619 148.22 300.066 148.159 300.506 148.159C300.786 148.159 301.108 148.193 301.472 148.261C301.839 148.326 302.193 148.46 302.534 148.665C302.879 148.869 303.165 149.178 303.392 149.591C303.619 150.004 303.733 150.557 303.733 151.25V157H302.392V155.818H302.324C302.233 156.008 302.081 156.21 301.869 156.426C301.657 156.642 301.375 156.826 301.023 156.977C300.67 157.129 300.241 157.205 299.733 157.205ZM299.938 156C300.468 156 300.915 155.896 301.278 155.688C301.646 155.479 301.922 155.21 302.108 154.881C302.297 154.551 302.392 154.205 302.392 153.841V152.614C302.335 152.682 302.21 152.744 302.017 152.801C301.828 152.854 301.608 152.902 301.358 152.943C301.112 152.981 300.871 153.015 300.636 153.045C300.405 153.072 300.218 153.095 300.074 153.114C299.725 153.159 299.4 153.233 299.097 153.335C298.797 153.434 298.555 153.583 298.369 153.784C298.188 153.981 298.097 154.25 298.097 154.591C298.097 155.057 298.269 155.409 298.614 155.648C298.962 155.883 299.403 156 299.938 156ZM306.18 157V148.273H307.476V149.591H307.567C307.726 149.159 308.014 148.809 308.43 148.54C308.847 148.271 309.317 148.136 309.839 148.136C309.938 148.136 310.061 148.138 310.209 148.142C310.357 148.146 310.468 148.152 310.544 148.159V149.523C310.499 149.511 310.394 149.494 310.232 149.472C310.072 149.445 309.904 149.432 309.726 149.432C309.302 149.432 308.923 149.521 308.589 149.699C308.26 149.873 307.999 150.116 307.805 150.426C307.616 150.733 307.521 151.083 307.521 151.477V157H306.18ZM313.906 145.364L313.793 153.727H312.474L312.361 145.364H313.906ZM313.134 157.091C312.853 157.091 312.613 156.991 312.412 156.79C312.211 156.589 312.111 156.348 312.111 156.068C312.111 155.788 312.211 155.547 312.412 155.347C312.613 155.146 312.853 155.045 313.134 155.045C313.414 155.045 313.654 155.146 313.855 155.347C314.056 155.547 314.156 155.788 314.156 156.068C314.156 156.254 314.109 156.424 314.014 156.58C313.923 156.735 313.8 156.86 313.645 156.955C313.493 157.045 313.323 157.091 313.134 157.091ZM21.4091 164.364H23.0909L27.0455 174.023H27.1818L31.1364 164.364H32.8182V176H31.5V167.159H31.3864L27.75 176H26.4773L22.8409 167.159H22.7273V176H21.4091V164.364ZM40.9616 172.432V167.273H42.3026V176H40.9616V174.523H40.8707C40.6662 174.966 40.348 175.343 39.9162 175.653C39.4844 175.96 38.9389 176.114 38.2798 176.114C37.7344 176.114 37.2495 175.994 36.8253 175.756C36.401 175.513 36.0677 175.15 35.8253 174.665C35.5829 174.176 35.4616 173.561 35.4616 172.818V167.273H36.8026V172.727C36.8026 173.364 36.9806 173.871 37.3366 174.25C37.6965 174.629 38.1548 174.818 38.7116 174.818C39.045 174.818 39.384 174.733 39.7287 174.562C40.0772 174.392 40.3688 174.131 40.6037 173.778C40.8423 173.426 40.9616 172.977 40.9616 172.432ZM37.2571 165.818C37.0185 165.818 36.8063 165.727 36.6207 165.545C36.4389 165.36 36.348 165.148 36.348 164.909C36.348 164.648 36.4389 164.432 36.6207 164.261C36.8063 164.087 37.0185 164 37.2571 164C37.5185 164 37.7344 164.087 37.9048 164.261C38.0791 164.432 38.1662 164.648 38.1662 164.909C38.1662 165.148 38.0791 165.36 37.9048 165.545C37.7344 165.727 37.5185 165.818 37.2571 165.818ZM40.5298 165.818C40.2912 165.818 40.0791 165.727 39.8935 165.545C39.7116 165.36 39.6207 165.148 39.6207 164.909C39.6207 164.648 39.7116 164.432 39.8935 164.261C40.0791 164.087 40.2912 164 40.5298 164C40.7912 164 41.0071 164.087 41.1776 164.261C41.3518 164.432 41.4389 164.648 41.4389 164.909C41.4389 165.148 41.3518 165.36 41.1776 165.545C41.0071 165.727 40.7912 165.818 40.5298 165.818ZM46.0994 170.75V176H44.7585V164.364H46.0994V168.636H46.2131C46.4176 168.186 46.7244 167.828 47.1335 167.562C47.5464 167.294 48.0956 167.159 48.7812 167.159C49.3759 167.159 49.8968 167.278 50.3438 167.517C50.7907 167.752 51.1373 168.114 51.3835 168.602C51.6335 169.087 51.7585 169.705 51.7585 170.455V176H50.4176V170.545C50.4176 169.852 50.2377 169.316 49.8778 168.938C49.5218 168.555 49.0275 168.364 48.3949 168.364C47.9555 168.364 47.5616 168.456 47.2131 168.642C46.8684 168.828 46.5956 169.098 46.3949 169.455C46.1979 169.811 46.0994 170.242 46.0994 170.75ZM57.8707 176.182C57.0298 176.182 56.3045 175.996 55.6946 175.625C55.0885 175.25 54.6207 174.727 54.2912 174.057C53.9654 173.383 53.8026 172.598 53.8026 171.705C53.8026 170.811 53.9654 170.023 54.2912 169.341C54.6207 168.655 55.0791 168.121 55.6662 167.739C56.2571 167.352 56.9465 167.159 57.7344 167.159C58.1889 167.159 58.6378 167.235 59.081 167.386C59.5241 167.538 59.9276 167.784 60.2912 168.125C60.6548 168.462 60.9446 168.909 61.1605 169.466C61.3764 170.023 61.4844 170.708 61.4844 171.523V172.091H54.7571V170.932H60.1207C60.1207 170.439 60.0223 170 59.8253 169.614C59.6321 169.227 59.3556 168.922 58.9957 168.699C58.6397 168.475 58.2192 168.364 57.7344 168.364C57.2003 168.364 56.7382 168.496 56.348 168.761C55.9616 169.023 55.6643 169.364 55.456 169.784C55.2476 170.205 55.1435 170.655 55.1435 171.136V171.909C55.1435 172.568 55.2571 173.127 55.4844 173.585C55.7154 174.04 56.0355 174.386 56.4446 174.625C56.8537 174.86 57.3291 174.977 57.8707 174.977C58.223 174.977 58.5412 174.928 58.8253 174.83C59.1132 174.727 59.3613 174.576 59.5696 174.375C59.7779 174.17 59.9389 173.917 60.0526 173.614L61.348 173.977C61.2116 174.417 60.9825 174.803 60.6605 175.136C60.3385 175.466 59.9408 175.723 59.4673 175.909C58.9938 176.091 58.4616 176.182 57.8707 176.182ZM64.8651 170.75V176H63.5241V167.273H64.8196V168.636H64.9332C65.1378 168.193 65.4484 167.837 65.8651 167.568C66.2817 167.295 66.8196 167.159 67.4787 167.159C68.0696 167.159 68.5866 167.28 69.0298 167.523C69.473 167.761 69.8177 168.125 70.0639 168.614C70.3101 169.098 70.4332 169.712 70.4332 170.455V176H69.0923V170.545C69.0923 169.86 68.9143 169.326 68.5582 168.943C68.2022 168.557 67.7135 168.364 67.0923 168.364C66.6643 168.364 66.2817 168.456 65.9446 168.642C65.6113 168.828 65.348 169.098 65.1548 169.455C64.9616 169.811 64.8651 170.242 64.8651 170.75ZM76.179 176.182C75.4517 176.182 74.8097 175.998 74.2528 175.631C73.696 175.259 73.2604 174.737 72.946 174.062C72.6316 173.384 72.4744 172.583 72.4744 171.659C72.4744 170.742 72.6316 169.947 72.946 169.273C73.2604 168.598 73.6979 168.078 74.2585 167.71C74.8191 167.343 75.4669 167.159 76.2017 167.159C76.7699 167.159 77.2188 167.254 77.5483 167.443C77.8816 167.629 78.1354 167.841 78.3097 168.08C78.4877 168.314 78.6259 168.508 78.7244 168.659H78.8381V164.364H80.179V176H78.8835V174.659H78.7244C78.6259 174.818 78.4858 175.019 78.304 175.261C78.1222 175.5 77.8627 175.714 77.5256 175.903C77.1884 176.089 76.7396 176.182 76.179 176.182ZM76.3608 174.977C76.8987 174.977 77.3532 174.837 77.7244 174.557C78.0956 174.273 78.3778 173.881 78.571 173.381C78.7642 172.877 78.8608 172.295 78.8608 171.636C78.8608 170.985 78.7661 170.415 78.5767 169.926C78.3873 169.434 78.107 169.051 77.7358 168.778C77.3646 168.502 76.9063 168.364 76.3608 168.364C75.7926 168.364 75.3191 168.509 74.9403 168.801C74.5653 169.089 74.2831 169.481 74.0938 169.977C73.9081 170.47 73.8153 171.023 73.8153 171.636C73.8153 172.258 73.91 172.822 74.0994 173.33C74.2926 173.833 74.5767 174.235 74.9517 174.534C75.3305 174.83 75.8002 174.977 76.3608 174.977ZM82.821 176V167.273H84.1619V176H82.821ZM83.5028 165.818C83.2415 165.818 83.0161 165.729 82.8267 165.551C82.6411 165.373 82.5483 165.159 82.5483 164.909C82.5483 164.659 82.6411 164.445 82.8267 164.267C83.0161 164.089 83.2415 164 83.5028 164C83.7642 164 83.9877 164.089 84.1733 164.267C84.3627 164.445 84.4574 164.659 84.4574 164.909C84.4574 165.159 84.3627 165.373 84.1733 165.551C83.9877 165.729 83.7642 165.818 83.5028 165.818ZM92.7997 169.227L91.5952 169.568C91.5194 169.367 91.4077 169.172 91.2599 168.983C91.116 168.79 90.919 168.631 90.669 168.506C90.419 168.381 90.099 168.318 89.7088 168.318C89.1747 168.318 88.7296 168.441 88.3736 168.688C88.0213 168.93 87.8452 169.239 87.8452 169.614C87.8452 169.947 87.9664 170.21 88.2088 170.403C88.4512 170.597 88.83 170.758 89.3452 170.886L90.6406 171.205C91.4209 171.394 92.0024 171.684 92.3849 172.074C92.7675 172.46 92.9588 172.958 92.9588 173.568C92.9588 174.068 92.8149 174.515 92.527 174.909C92.2429 175.303 91.8452 175.614 91.3338 175.841C90.8224 176.068 90.2277 176.182 89.5497 176.182C88.6596 176.182 87.9228 175.989 87.3395 175.602C86.7562 175.216 86.3868 174.652 86.2315 173.909L87.5043 173.591C87.6255 174.061 87.8546 174.413 88.1918 174.648C88.5327 174.883 88.9777 175 89.527 175C90.152 175 90.6482 174.867 91.0156 174.602C91.3868 174.333 91.5724 174.011 91.5724 173.636C91.5724 173.333 91.4664 173.08 91.2543 172.875C91.0421 172.667 90.7164 172.511 90.277 172.409L88.8224 172.068C88.0232 171.879 87.4361 171.585 87.0611 171.188C86.6899 170.786 86.5043 170.284 86.5043 169.682C86.5043 169.189 86.6425 168.754 86.919 168.375C87.1993 167.996 87.58 167.699 88.0611 167.483C88.5459 167.267 89.0952 167.159 89.7088 167.159C90.5724 167.159 91.2505 167.348 91.7429 167.727C92.2391 168.106 92.5914 168.606 92.7997 169.227ZM96.3182 164.364V176H94.9773V164.364H96.3182ZM98.7741 176V167.273H100.115V176H98.7741ZM99.456 165.818C99.1946 165.818 98.9692 165.729 98.7798 165.551C98.5942 165.373 98.5014 165.159 98.5014 164.909C98.5014 164.659 98.5942 164.445 98.7798 164.267C98.9692 164.089 99.1946 164 99.456 164C99.7173 164 99.9408 164.089 100.126 164.267C100.316 164.445 100.411 164.659 100.411 164.909C100.411 165.159 100.316 165.373 100.126 165.551C99.9408 165.729 99.7173 165.818 99.456 165.818ZM103.821 172.818L103.798 171.159H104.071L107.889 167.273H109.548L105.48 171.386H105.366L103.821 172.818ZM102.571 176V164.364H103.912V176H102.571ZM108.116 176L104.707 171.682L105.662 170.75L109.821 176H108.116ZM122.911 167.273L119.683 176H118.32L115.092 167.273H116.547L118.956 174.227H119.047L121.456 167.273H122.911ZM128.027 176.182C127.186 176.182 126.461 175.996 125.851 175.625C125.245 175.25 124.777 174.727 124.447 174.057C124.122 173.383 123.959 172.598 123.959 171.705C123.959 170.811 124.122 170.023 124.447 169.341C124.777 168.655 125.235 168.121 125.822 167.739C126.413 167.352 127.103 167.159 127.891 167.159C128.345 167.159 128.794 167.235 129.237 167.386C129.68 167.538 130.084 167.784 130.447 168.125C130.811 168.462 131.101 168.909 131.317 169.466C131.533 170.023 131.641 170.708 131.641 171.523V172.091H124.913V170.932H130.277C130.277 170.439 130.179 170 129.982 169.614C129.788 169.227 129.512 168.922 129.152 168.699C128.796 168.475 128.375 168.364 127.891 168.364C127.357 168.364 126.894 168.496 126.504 168.761C126.118 169.023 125.821 169.364 125.612 169.784C125.404 170.205 125.3 170.655 125.3 171.136V171.909C125.3 172.568 125.413 173.127 125.641 173.585C125.872 174.04 126.192 174.386 126.601 174.625C127.01 174.86 127.485 174.977 128.027 174.977C128.379 174.977 128.697 174.928 128.982 174.83C129.269 174.727 129.518 174.576 129.726 174.375C129.934 174.17 130.095 173.917 130.209 173.614L131.504 173.977C131.368 174.417 131.139 174.803 130.817 175.136C130.495 175.466 130.097 175.723 129.624 175.909C129.15 176.091 128.618 176.182 128.027 176.182ZM141.476 176.182C140.749 176.182 140.107 175.998 139.55 175.631C138.993 175.259 138.557 174.737 138.243 174.062C137.929 173.384 137.771 172.583 137.771 171.659C137.771 170.742 137.929 169.947 138.243 169.273C138.557 168.598 138.995 168.078 139.555 167.71C140.116 167.343 140.764 167.159 141.499 167.159C142.067 167.159 142.516 167.254 142.845 167.443C143.179 167.629 143.432 167.841 143.607 168.08C143.785 168.314 143.923 168.508 144.021 168.659H144.135V164.364H145.476V176H144.18V174.659H144.021C143.923 174.818 143.783 175.019 143.601 175.261C143.419 175.5 143.16 175.714 142.822 175.903C142.485 176.089 142.036 176.182 141.476 176.182ZM141.658 174.977C142.196 174.977 142.65 174.837 143.021 174.557C143.393 174.273 143.675 173.881 143.868 173.381C144.061 172.877 144.158 172.295 144.158 171.636C144.158 170.985 144.063 170.415 143.874 169.926C143.684 169.434 143.404 169.051 143.033 168.778C142.661 168.502 142.203 168.364 141.658 168.364C141.089 168.364 140.616 168.509 140.237 168.801C139.862 169.089 139.58 169.481 139.391 169.977C139.205 170.47 139.112 171.023 139.112 171.636C139.112 172.258 139.207 172.822 139.396 173.33C139.589 173.833 139.874 174.235 140.249 174.534C140.627 174.83 141.097 174.977 141.658 174.977ZM150.686 176.205C150.133 176.205 149.631 176.1 149.18 175.892C148.73 175.68 148.372 175.375 148.107 174.977C147.841 174.576 147.709 174.091 147.709 173.523C147.709 173.023 147.807 172.617 148.004 172.307C148.201 171.992 148.464 171.746 148.794 171.568C149.124 171.39 149.487 171.258 149.885 171.17C150.286 171.08 150.69 171.008 151.095 170.955C151.625 170.886 152.055 170.835 152.385 170.801C152.718 170.763 152.961 170.701 153.112 170.614C153.268 170.527 153.345 170.375 153.345 170.159V170.114C153.345 169.553 153.192 169.117 152.885 168.807C152.582 168.496 152.122 168.341 151.504 168.341C150.864 168.341 150.362 168.481 149.999 168.761C149.635 169.042 149.379 169.341 149.232 169.659L147.959 169.205C148.186 168.674 148.489 168.261 148.868 167.966C149.25 167.667 149.667 167.458 150.118 167.341C150.572 167.22 151.019 167.159 151.459 167.159C151.739 167.159 152.061 167.193 152.425 167.261C152.792 167.326 153.146 167.46 153.487 167.665C153.832 167.869 154.118 168.178 154.345 168.591C154.572 169.004 154.686 169.557 154.686 170.25V176H153.345V174.818H153.277C153.186 175.008 153.035 175.21 152.822 175.426C152.61 175.642 152.328 175.826 151.976 175.977C151.624 176.129 151.194 176.205 150.686 176.205ZM150.891 175C151.421 175 151.868 174.896 152.232 174.688C152.599 174.479 152.875 174.21 153.061 173.881C153.25 173.551 153.345 173.205 153.345 172.841V171.614C153.288 171.682 153.163 171.744 152.97 171.801C152.781 171.854 152.561 171.902 152.311 171.943C152.065 171.981 151.824 172.015 151.589 172.045C151.358 172.072 151.171 172.095 151.027 172.114C150.679 172.159 150.353 172.233 150.05 172.335C149.75 172.434 149.508 172.583 149.322 172.784C149.141 172.981 149.05 173.25 149.05 173.591C149.05 174.057 149.222 174.409 149.567 174.648C149.915 174.883 150.357 175 150.891 175ZM158.474 170.75V176H157.134V167.273H158.429V168.636H158.543C158.747 168.193 159.058 167.837 159.474 167.568C159.891 167.295 160.429 167.159 161.088 167.159C161.679 167.159 162.196 167.28 162.639 167.523C163.082 167.761 163.427 168.125 163.673 168.614C163.92 169.098 164.043 169.712 164.043 170.455V176H162.702V170.545C162.702 169.86 162.524 169.326 162.168 168.943C161.812 168.557 161.323 168.364 160.702 168.364C160.274 168.364 159.891 168.456 159.554 168.642C159.221 168.828 158.957 169.098 158.764 169.455C158.571 169.811 158.474 170.242 158.474 170.75ZM166.493 176V167.273H167.834V176H166.493ZM176.472 169.227L175.267 169.568C175.191 169.367 175.08 169.172 174.932 168.983C174.788 168.79 174.591 168.631 174.341 168.506C174.091 168.381 173.771 168.318 173.381 168.318C172.847 168.318 172.402 168.441 172.045 168.688C171.693 168.93 171.517 169.239 171.517 169.614C171.517 169.947 171.638 170.21 171.881 170.403C172.123 170.597 172.502 170.758 173.017 170.886L174.312 171.205C175.093 171.394 175.674 171.684 176.057 172.074C176.439 172.46 176.631 172.958 176.631 173.568C176.631 174.068 176.487 174.515 176.199 174.909C175.915 175.303 175.517 175.614 175.006 175.841C174.494 176.068 173.9 176.182 173.222 176.182C172.331 176.182 171.595 175.989 171.011 175.602C170.428 175.216 170.059 174.652 169.903 173.909L171.176 173.591C171.297 174.061 171.527 174.413 171.864 174.648C172.205 174.883 172.65 175 173.199 175C173.824 175 174.32 174.867 174.688 174.602C175.059 174.333 175.244 174.011 175.244 173.636C175.244 173.333 175.138 173.08 174.926 172.875C174.714 172.667 174.388 172.511 173.949 172.409L172.494 172.068C171.695 171.879 171.108 171.585 170.733 171.188C170.362 170.786 170.176 170.284 170.176 169.682C170.176 169.189 170.314 168.754 170.591 168.375C170.871 167.996 171.252 167.699 171.733 167.483C172.218 167.267 172.767 167.159 173.381 167.159C174.244 167.159 174.922 167.348 175.415 167.727C175.911 168.106 176.263 168.606 176.472 169.227ZM172.722 175.955H173.835L173.744 176.409C174.04 176.455 174.311 176.578 174.557 176.778C174.803 176.983 174.926 177.307 174.926 177.75C174.926 178.239 174.723 178.636 174.318 178.943C173.917 179.254 173.324 179.409 172.54 179.409L172.494 178.523C172.847 178.523 173.138 178.466 173.369 178.352C173.604 178.242 173.722 178.057 173.722 177.795C173.722 177.534 173.625 177.356 173.432 177.261C173.239 177.167 172.926 177.102 172.494 177.068L172.722 175.955ZM178.649 176V167.273H179.945V168.636H180.058C180.24 168.17 180.534 167.809 180.939 167.551C181.344 167.29 181.831 167.159 182.399 167.159C182.975 167.159 183.454 167.29 183.837 167.551C184.223 167.809 184.524 168.17 184.74 168.636H184.831C185.054 168.186 185.39 167.828 185.837 167.562C186.284 167.294 186.82 167.159 187.445 167.159C188.225 167.159 188.863 167.403 189.359 167.892C189.856 168.377 190.104 169.133 190.104 170.159V176H188.763V170.159C188.763 169.515 188.587 169.055 188.234 168.778C187.882 168.502 187.467 168.364 186.99 168.364C186.376 168.364 185.901 168.549 185.564 168.92C185.227 169.288 185.058 169.754 185.058 170.318V176H183.695V170.023C183.695 169.527 183.534 169.127 183.212 168.824C182.89 168.517 182.475 168.364 181.967 168.364C181.619 168.364 181.293 168.456 180.99 168.642C180.691 168.828 180.448 169.085 180.263 169.415C180.081 169.741 179.99 170.117 179.99 170.545V176H178.649ZM195.124 176.205C194.571 176.205 194.069 176.1 193.618 175.892C193.167 175.68 192.809 175.375 192.544 174.977C192.279 174.576 192.146 174.091 192.146 173.523C192.146 173.023 192.245 172.617 192.442 172.307C192.639 171.992 192.902 171.746 193.232 171.568C193.561 171.39 193.925 171.258 194.322 171.17C194.724 171.08 195.127 171.008 195.533 170.955C196.063 170.886 196.493 170.835 196.822 170.801C197.156 170.763 197.398 170.701 197.55 170.614C197.705 170.527 197.783 170.375 197.783 170.159V170.114C197.783 169.553 197.629 169.117 197.322 168.807C197.019 168.496 196.559 168.341 195.942 168.341C195.302 168.341 194.8 168.481 194.436 168.761C194.072 169.042 193.817 169.341 193.669 169.659L192.396 169.205C192.624 168.674 192.927 168.261 193.305 167.966C193.688 167.667 194.105 167.458 194.555 167.341C195.01 167.22 195.457 167.159 195.896 167.159C196.177 167.159 196.499 167.193 196.862 167.261C197.23 167.326 197.584 167.46 197.925 167.665C198.269 167.869 198.555 168.178 198.783 168.591C199.01 169.004 199.124 169.557 199.124 170.25V176H197.783V174.818H197.714C197.624 175.008 197.472 175.21 197.26 175.426C197.048 175.642 196.766 175.826 196.413 175.977C196.061 176.129 195.631 176.205 195.124 176.205ZM195.328 175C195.858 175 196.305 174.896 196.669 174.688C197.036 174.479 197.313 174.21 197.499 173.881C197.688 173.551 197.783 173.205 197.783 172.841V171.614C197.726 171.682 197.601 171.744 197.408 171.801C197.218 171.854 196.999 171.902 196.749 171.943C196.502 171.981 196.262 172.015 196.027 172.045C195.796 172.072 195.608 172.095 195.464 172.114C195.116 172.159 194.79 172.233 194.487 172.335C194.188 172.434 193.946 172.583 193.76 172.784C193.578 172.981 193.487 173.25 193.487 173.591C193.487 174.057 193.66 174.409 194.004 174.648C194.353 174.883 194.794 175 195.328 175ZM202.912 170.75V176H201.571V167.273H202.866V168.636H202.98C203.185 168.193 203.495 167.837 203.912 167.568C204.329 167.295 204.866 167.159 205.526 167.159C206.116 167.159 206.634 167.28 207.077 167.523C207.52 167.761 207.865 168.125 208.111 168.614C208.357 169.098 208.48 169.712 208.48 170.455V176H207.139V170.545C207.139 169.86 206.961 169.326 206.605 168.943C206.249 168.557 205.76 168.364 205.139 168.364C204.711 168.364 204.329 168.456 203.991 168.642C203.658 168.828 203.395 169.098 203.202 169.455C203.009 169.811 202.912 170.242 202.912 170.75ZM212.271 164.364V176H210.93V164.364H212.271ZM214.727 176V167.273H216.068V176H214.727ZM219.774 172.818L219.751 171.159H220.024L223.842 167.273H225.501L221.433 171.386H221.32L219.774 172.818ZM218.524 176V164.364H219.865V176H218.524ZM224.07 176L220.661 171.682L221.615 170.75L225.774 176H224.07ZM22.5682 189.75V195H21.2273V183.364H22.5682V187.636H22.6818C22.8864 187.186 23.1932 186.828 23.6023 186.562C24.0152 186.294 24.5644 186.159 25.25 186.159C25.8447 186.159 26.3655 186.278 26.8125 186.517C27.2595 186.752 27.6061 187.114 27.8523 187.602C28.1023 188.087 28.2273 188.705 28.2273 189.455V195H26.8864V189.545C26.8864 188.852 26.7064 188.316 26.3466 187.938C25.9905 187.555 25.4962 187.364 24.8636 187.364C24.4242 187.364 24.0303 187.456 23.6818 187.642C23.3371 187.828 23.0644 188.098 22.8636 188.455C22.6667 188.811 22.5682 189.242 22.5682 189.75ZM30.6804 195V186.273H32.0213V195H30.6804ZM31.3622 184.818C31.1009 184.818 30.8755 184.729 30.6861 184.551C30.5005 184.373 30.4077 184.159 30.4077 183.909C30.4077 183.659 30.5005 183.445 30.6861 183.267C30.8755 183.089 31.1009 183 31.3622 183C31.6236 183 31.8471 183.089 32.0327 183.267C32.2221 183.445 32.3168 183.659 32.3168 183.909C32.3168 184.159 32.2221 184.373 32.0327 184.551C31.8471 184.729 31.6236 184.818 31.3622 184.818ZM34.2273 195V193.977L39.1818 187.614V187.523H34.3864V186.273H40.9091V187.341L36.0909 193.659V193.75H41.0682V195H34.2273ZM43.1335 195V186.273H44.429V187.636H44.5426C44.7244 187.17 45.018 186.809 45.4233 186.551C45.8286 186.29 46.3153 186.159 46.8835 186.159C47.4593 186.159 47.9384 186.29 48.321 186.551C48.7074 186.809 49.0085 187.17 49.2244 187.636H49.3153C49.5388 187.186 49.8741 186.828 50.321 186.562C50.768 186.294 51.304 186.159 51.929 186.159C52.7093 186.159 53.3475 186.403 53.8438 186.892C54.34 187.377 54.5881 188.133 54.5881 189.159V195H53.2472V189.159C53.2472 188.515 53.071 188.055 52.7188 187.778C52.3665 187.502 51.9517 187.364 51.4744 187.364C50.8608 187.364 50.3854 187.549 50.0483 187.92C49.7112 188.288 49.5426 188.754 49.5426 189.318V195H48.179V189.023C48.179 188.527 48.018 188.127 47.696 187.824C47.3741 187.517 46.9593 187.364 46.4517 187.364C46.1032 187.364 45.7775 187.456 45.4744 187.642C45.1752 187.828 44.9328 188.085 44.7472 188.415C44.5653 188.741 44.4744 189.117 44.4744 189.545V195H43.1335ZM60.6989 195.182C59.858 195.182 59.1326 194.996 58.5227 194.625C57.9167 194.25 57.4489 193.727 57.1193 193.057C56.7936 192.383 56.6307 191.598 56.6307 190.705C56.6307 189.811 56.7936 189.023 57.1193 188.341C57.4489 187.655 57.9072 187.121 58.4943 186.739C59.0852 186.352 59.7746 186.159 60.5625 186.159C61.017 186.159 61.4659 186.235 61.9091 186.386C62.3523 186.538 62.7557 186.784 63.1193 187.125C63.483 187.462 63.7727 187.909 63.9886 188.466C64.2045 189.023 64.3125 189.708 64.3125 190.523V191.091H57.5852V189.932H62.9489C62.9489 189.439 62.8504 189 62.6534 188.614C62.4602 188.227 62.1837 187.922 61.8239 187.699C61.4678 187.475 61.0473 187.364 60.5625 187.364C60.0284 187.364 59.5663 187.496 59.1761 187.761C58.7898 188.023 58.4924 188.364 58.2841 188.784C58.0758 189.205 57.9716 189.655 57.9716 190.136V190.909C57.9716 191.568 58.0852 192.127 58.3125 192.585C58.5436 193.04 58.8636 193.386 59.2727 193.625C59.6818 193.86 60.1572 193.977 60.6989 193.977C61.0511 193.977 61.3693 193.928 61.6534 193.83C61.9413 193.727 62.1894 193.576 62.3977 193.375C62.6061 193.17 62.767 192.917 62.8807 192.614L64.1761 192.977C64.0398 193.417 63.8106 193.803 63.4886 194.136C63.1667 194.466 62.7689 194.723 62.2955 194.909C61.822 195.091 61.2898 195.182 60.6989 195.182ZM70.1477 186.273V187.409H65.625V186.273H70.1477ZM66.9432 184.182H68.2841V192.5C68.2841 192.879 68.339 193.163 68.4489 193.352C68.5625 193.538 68.7064 193.663 68.8807 193.727C69.0587 193.788 69.2462 193.818 69.4432 193.818C69.5909 193.818 69.7121 193.811 69.8068 193.795C69.9015 193.777 69.9773 193.761 70.0341 193.75L70.3068 194.955C70.2159 194.989 70.089 195.023 69.9261 195.057C69.7633 195.095 69.5568 195.114 69.3068 195.114C68.928 195.114 68.5568 195.032 68.1932 194.869C67.8333 194.706 67.5341 194.458 67.2955 194.125C67.0606 193.792 66.9432 193.371 66.9432 192.864V184.182ZM73.6932 183.364V195H72.3523V183.364H73.6932ZM79.8082 195.182C78.9673 195.182 78.242 194.996 77.6321 194.625C77.026 194.25 76.5582 193.727 76.2287 193.057C75.9029 192.383 75.7401 191.598 75.7401 190.705C75.7401 189.811 75.9029 189.023 76.2287 188.341C76.5582 187.655 77.0166 187.121 77.6037 186.739C78.1946 186.352 78.884 186.159 79.6719 186.159C80.1264 186.159 80.5753 186.235 81.0185 186.386C81.4616 186.538 81.8651 186.784 82.2287 187.125C82.5923 187.462 82.8821 187.909 83.098 188.466C83.3139 189.023 83.4219 189.708 83.4219 190.523V191.091H76.6946V189.932H82.0582C82.0582 189.439 81.9598 189 81.7628 188.614C81.5696 188.227 81.2931 187.922 80.9332 187.699C80.5772 187.475 80.1567 187.364 79.6719 187.364C79.1378 187.364 78.6757 187.496 78.2855 187.761C77.8991 188.023 77.6018 188.364 77.3935 188.784C77.1851 189.205 77.081 189.655 77.081 190.136V190.909C77.081 191.568 77.1946 192.127 77.4219 192.585C77.6529 193.04 77.973 193.386 78.3821 193.625C78.7912 193.86 79.2666 193.977 79.8082 193.977C80.1605 193.977 80.4787 193.928 80.7628 193.83C81.0507 193.727 81.2988 193.576 81.5071 193.375C81.7154 193.17 81.8764 192.917 81.9901 192.614L83.2855 192.977C83.1491 193.417 82.92 193.803 82.598 194.136C82.276 194.466 81.8783 194.723 81.4048 194.909C80.9313 195.091 80.3991 195.182 79.8082 195.182ZM85.4616 195V186.273H86.7571V187.591H86.848C87.0071 187.159 87.295 186.809 87.7116 186.54C88.1283 186.271 88.598 186.136 89.1207 186.136C89.2192 186.136 89.3423 186.138 89.4901 186.142C89.6378 186.146 89.7495 186.152 89.8253 186.159V187.523C89.7798 187.511 89.6757 187.494 89.5128 187.472C89.3537 187.445 89.1851 187.432 89.0071 187.432C88.5829 187.432 88.2041 187.521 87.8707 187.699C87.5412 187.873 87.2798 188.116 87.0866 188.426C86.8973 188.733 86.8026 189.083 86.8026 189.477V195H85.4616ZM91.4148 195V186.273H92.7557V195H91.4148ZM92.0966 184.818C91.8352 184.818 91.6098 184.729 91.4205 184.551C91.2348 184.373 91.142 184.159 91.142 183.909C91.142 183.659 91.2348 183.445 91.4205 183.267C91.6098 183.089 91.8352 183 92.0966 183C92.358 183 92.5814 183.089 92.767 183.267C92.9564 183.445 93.0511 183.659 93.0511 183.909C93.0511 184.159 92.9564 184.373 92.767 184.551C92.5814 184.729 92.358 184.818 92.0966 184.818ZM95.2116 195V186.273H96.5071V187.636H96.6207C96.8026 187.17 97.0961 186.809 97.5014 186.551C97.9067 186.29 98.3935 186.159 98.9616 186.159C99.5374 186.159 100.017 186.29 100.399 186.551C100.786 186.809 101.087 187.17 101.303 187.636H101.393C101.617 187.186 101.952 186.828 102.399 186.562C102.846 186.294 103.382 186.159 104.007 186.159C104.787 186.159 105.426 186.403 105.922 186.892C106.418 187.377 106.666 188.133 106.666 189.159V195H105.325V189.159C105.325 188.515 105.149 188.055 104.797 187.778C104.445 187.502 104.03 187.364 103.553 187.364C102.939 187.364 102.464 187.549 102.126 187.92C101.789 188.288 101.621 188.754 101.621 189.318V195H100.257V189.023C100.257 188.527 100.096 188.127 99.7741 187.824C99.4522 187.517 99.0374 187.364 98.5298 187.364C98.1813 187.364 97.8556 187.456 97.5526 187.642C97.2533 187.828 97.0109 188.085 96.8253 188.415C96.6435 188.741 96.5526 189.117 96.5526 189.545V195H95.2116ZM109.118 195V186.273H110.459V195H109.118ZM109.8 184.818C109.538 184.818 109.313 184.729 109.124 184.551C108.938 184.373 108.845 184.159 108.845 183.909C108.845 183.659 108.938 183.445 109.124 183.267C109.313 183.089 109.538 183 109.8 183C110.061 183 110.285 183.089 110.47 183.267C110.66 183.445 110.754 183.659 110.754 183.909C110.754 184.159 110.66 184.373 110.47 184.551C110.285 184.729 110.061 184.818 109.8 184.818ZM112.665 195V193.977L117.619 187.614V187.523H112.824V186.273H119.347V187.341L114.528 193.659V193.75H119.506V195H112.665ZM122.912 183.364V195H121.571V183.364H122.912ZM129.027 195.182C128.186 195.182 127.461 194.996 126.851 194.625C126.245 194.25 125.777 193.727 125.447 193.057C125.122 192.383 124.959 191.598 124.959 190.705C124.959 189.811 125.122 189.023 125.447 188.341C125.777 187.655 126.235 187.121 126.822 186.739C127.413 186.352 128.103 186.159 128.891 186.159C129.345 186.159 129.794 186.235 130.237 186.386C130.68 186.538 131.084 186.784 131.447 187.125C131.811 187.462 132.101 187.909 132.317 188.466C132.533 189.023 132.641 189.708 132.641 190.523V191.091H125.913V189.932H131.277C131.277 189.439 131.179 189 130.982 188.614C130.788 188.227 130.512 187.922 130.152 187.699C129.796 187.475 129.375 187.364 128.891 187.364C128.357 187.364 127.894 187.496 127.504 187.761C127.118 188.023 126.821 188.364 126.612 188.784C126.404 189.205 126.3 189.655 126.3 190.136V190.909C126.3 191.568 126.413 192.127 126.641 192.585C126.872 193.04 127.192 193.386 127.601 193.625C128.01 193.86 128.485 193.977 129.027 193.977C129.379 193.977 129.697 193.928 129.982 193.83C130.269 193.727 130.518 193.576 130.726 193.375C130.934 193.17 131.095 192.917 131.209 192.614L132.504 192.977C132.368 193.417 132.139 193.803 131.817 194.136C131.495 194.466 131.097 194.723 130.624 194.909C130.15 195.091 129.618 195.182 129.027 195.182ZM145.362 188.227L144.158 188.568C144.082 188.367 143.97 188.172 143.822 187.983C143.679 187.79 143.482 187.631 143.232 187.506C142.982 187.381 142.661 187.318 142.271 187.318C141.737 187.318 141.292 187.441 140.936 187.688C140.584 187.93 140.408 188.239 140.408 188.614C140.408 188.947 140.529 189.21 140.771 189.403C141.014 189.597 141.393 189.758 141.908 189.886L143.203 190.205C143.983 190.394 144.565 190.684 144.947 191.074C145.33 191.46 145.521 191.958 145.521 192.568C145.521 193.068 145.377 193.515 145.089 193.909C144.805 194.303 144.408 194.614 143.896 194.841C143.385 195.068 142.79 195.182 142.112 195.182C141.222 195.182 140.485 194.989 139.902 194.602C139.319 194.216 138.949 193.652 138.794 192.909L140.067 192.591C140.188 193.061 140.417 193.413 140.754 193.648C141.095 193.883 141.54 194 142.089 194C142.714 194 143.211 193.867 143.578 193.602C143.949 193.333 144.135 193.011 144.135 192.636C144.135 192.333 144.029 192.08 143.817 191.875C143.605 191.667 143.279 191.511 142.839 191.409L141.385 191.068C140.586 190.879 139.999 190.585 139.624 190.188C139.252 189.786 139.067 189.284 139.067 188.682C139.067 188.189 139.205 187.754 139.482 187.375C139.762 186.996 140.143 186.699 140.624 186.483C141.108 186.267 141.658 186.159 142.271 186.159C143.135 186.159 143.813 186.348 144.305 186.727C144.802 187.106 145.154 187.606 145.362 188.227ZM147.54 195V186.273H148.881V195H147.54ZM148.222 184.818C147.96 184.818 147.735 184.729 147.545 184.551C147.36 184.373 147.267 184.159 147.267 183.909C147.267 183.659 147.36 183.445 147.545 183.267C147.735 183.089 147.96 183 148.222 183C148.483 183 148.706 183.089 148.892 183.267C149.081 183.445 149.176 183.659 149.176 183.909C149.176 184.159 149.081 184.373 148.892 184.551C148.706 184.729 148.483 184.818 148.222 184.818ZM151.087 195V193.977L156.041 187.614V187.523H151.246V186.273H157.768V187.341L152.95 193.659V193.75H157.928V195H151.087ZM163.402 195.182C162.561 195.182 161.836 194.996 161.226 194.625C160.62 194.25 160.152 193.727 159.822 193.057C159.497 192.383 159.334 191.598 159.334 190.705C159.334 189.811 159.497 189.023 159.822 188.341C160.152 187.655 160.61 187.121 161.197 186.739C161.788 186.352 162.478 186.159 163.266 186.159C163.72 186.159 164.169 186.235 164.612 186.386C165.055 186.538 165.459 186.784 165.822 187.125C166.186 187.462 166.476 187.909 166.692 188.466C166.908 189.023 167.016 189.708 167.016 190.523V191.091H160.288V189.932H165.652C165.652 189.439 165.554 189 165.357 188.614C165.163 188.227 164.887 187.922 164.527 187.699C164.171 187.475 163.75 187.364 163.266 187.364C162.732 187.364 162.269 187.496 161.879 187.761C161.493 188.023 161.196 188.364 160.987 188.784C160.779 189.205 160.675 189.655 160.675 190.136V190.909C160.675 191.568 160.788 192.127 161.016 192.585C161.247 193.04 161.567 193.386 161.976 193.625C162.385 193.86 162.86 193.977 163.402 193.977C163.754 193.977 164.072 193.928 164.357 193.83C164.644 193.727 164.893 193.576 165.101 193.375C165.309 193.17 165.47 192.917 165.584 192.614L166.879 192.977C166.743 193.417 166.514 193.803 166.192 194.136C165.87 194.466 165.472 194.723 164.999 194.909C164.525 195.091 163.993 195.182 163.402 195.182ZM177.214 195.182C176.374 195.182 175.648 194.996 175.038 194.625C174.432 194.25 173.964 193.727 173.635 193.057C173.309 192.383 173.146 191.598 173.146 190.705C173.146 189.811 173.309 189.023 173.635 188.341C173.964 187.655 174.423 187.121 175.01 186.739C175.601 186.352 176.29 186.159 177.078 186.159C177.533 186.159 177.982 186.235 178.425 186.386C178.868 186.538 179.271 186.784 179.635 187.125C179.999 187.462 180.288 187.909 180.504 188.466C180.72 189.023 180.828 189.708 180.828 190.523V191.091H174.101V189.932H179.464C179.464 189.439 179.366 189 179.169 188.614C178.976 188.227 178.699 187.922 178.339 187.699C177.983 187.475 177.563 187.364 177.078 187.364C176.544 187.364 176.082 187.496 175.692 187.761C175.305 188.023 175.008 188.364 174.8 188.784C174.591 189.205 174.487 189.655 174.487 190.136V190.909C174.487 191.568 174.601 192.127 174.828 192.585C175.059 193.04 175.379 193.386 175.788 193.625C176.197 193.86 176.673 193.977 177.214 193.977C177.567 193.977 177.885 193.928 178.169 193.83C178.457 193.727 178.705 193.576 178.913 193.375C179.122 193.17 179.283 192.917 179.396 192.614L180.692 192.977C180.555 193.417 180.326 193.803 180.004 194.136C179.682 194.466 179.285 194.723 178.811 194.909C178.338 195.091 177.805 195.182 177.214 195.182ZM184.209 189.75V195H182.868V186.273H184.163V187.636H184.277C184.482 187.193 184.792 186.837 185.209 186.568C185.625 186.295 186.163 186.159 186.822 186.159C187.413 186.159 187.93 186.28 188.374 186.523C188.817 186.761 189.161 187.125 189.408 187.614C189.654 188.098 189.777 188.712 189.777 189.455V195H188.436V189.545C188.436 188.86 188.258 188.326 187.902 187.943C187.546 187.557 187.057 187.364 186.436 187.364C186.008 187.364 185.625 187.456 185.288 187.642C184.955 187.828 184.692 188.098 184.499 188.455C184.305 188.811 184.209 189.242 184.209 189.75ZM196.727 195V186.273H198.068V195H196.727ZM197.409 184.818C197.148 184.818 196.922 184.729 196.733 184.551C196.547 184.373 196.455 184.159 196.455 183.909C196.455 183.659 196.547 183.445 196.733 183.267C196.922 183.089 197.148 183 197.409 183C197.67 183 197.894 183.089 198.08 183.267C198.269 183.445 198.364 183.659 198.364 183.909C198.364 184.159 198.269 184.373 198.08 184.551C197.894 184.729 197.67 184.818 197.409 184.818ZM201.388 198.273C201.161 198.273 200.958 198.254 200.78 198.216C200.602 198.182 200.479 198.148 200.411 198.114L200.751 196.932C201.077 197.015 201.365 197.045 201.615 197.023C201.865 197 202.087 196.888 202.28 196.688C202.477 196.491 202.657 196.17 202.82 195.727L203.07 195.045L199.842 186.273H201.297L203.706 193.227H203.797L206.206 186.273H207.661L203.956 196.273C203.789 196.723 203.583 197.097 203.337 197.392C203.09 197.691 202.804 197.913 202.479 198.057C202.157 198.201 201.793 198.273 201.388 198.273ZM209.43 195V186.273H210.771V195H209.43ZM210.112 184.818C209.851 184.818 209.625 184.729 209.436 184.551C209.25 184.373 209.158 184.159 209.158 183.909C209.158 183.659 209.25 183.445 209.436 183.267C209.625 183.089 209.851 183 210.112 183C210.374 183 210.597 183.089 210.783 183.267C210.972 183.445 211.067 183.659 211.067 183.909C211.067 184.159 210.972 184.373 210.783 184.551C210.597 184.729 210.374 184.818 210.112 184.818ZM221.023 195.182C220.295 195.182 219.653 194.998 219.097 194.631C218.54 194.259 218.104 193.737 217.79 193.062C217.475 192.384 217.318 191.583 217.318 190.659C217.318 189.742 217.475 188.947 217.79 188.273C218.104 187.598 218.542 187.078 219.102 186.71C219.663 186.343 220.311 186.159 221.045 186.159C221.614 186.159 222.063 186.254 222.392 186.443C222.725 186.629 222.979 186.841 223.153 187.08C223.331 187.314 223.47 187.508 223.568 187.659H223.682V183.364H225.023V195H223.727V193.659H223.568C223.47 193.818 223.33 194.019 223.148 194.261C222.966 194.5 222.706 194.714 222.369 194.903C222.032 195.089 221.583 195.182 221.023 195.182ZM221.205 193.977C221.742 193.977 222.197 193.837 222.568 193.557C222.939 193.273 223.222 192.881 223.415 192.381C223.608 191.877 223.705 191.295 223.705 190.636C223.705 189.985 223.61 189.415 223.42 188.926C223.231 188.434 222.951 188.051 222.58 187.778C222.208 187.502 221.75 187.364 221.205 187.364C220.636 187.364 220.163 187.509 219.784 187.801C219.409 188.089 219.127 188.481 218.938 188.977C218.752 189.47 218.659 190.023 218.659 190.636C218.659 191.258 218.754 191.822 218.943 192.33C219.136 192.833 219.42 193.235 219.795 193.534C220.174 193.83 220.644 193.977 221.205 193.977ZM231.324 195.182C230.483 195.182 229.758 194.996 229.148 194.625C228.542 194.25 228.074 193.727 227.744 193.057C227.419 192.383 227.256 191.598 227.256 190.705C227.256 189.811 227.419 189.023 227.744 188.341C228.074 187.655 228.532 187.121 229.119 186.739C229.71 186.352 230.4 186.159 231.188 186.159C231.642 186.159 232.091 186.235 232.534 186.386C232.977 186.538 233.381 186.784 233.744 187.125C234.108 187.462 234.398 187.909 234.614 188.466C234.83 189.023 234.938 189.708 234.938 190.523V191.091H228.21V189.932H233.574C233.574 189.439 233.475 189 233.278 188.614C233.085 188.227 232.809 187.922 232.449 187.699C232.093 187.475 231.672 187.364 231.188 187.364C230.653 187.364 230.191 187.496 229.801 187.761C229.415 188.023 229.117 188.364 228.909 188.784C228.701 189.205 228.597 189.655 228.597 190.136V190.909C228.597 191.568 228.71 192.127 228.938 192.585C229.169 193.04 229.489 193.386 229.898 193.625C230.307 193.86 230.782 193.977 231.324 193.977C231.676 193.977 231.994 193.928 232.278 193.83C232.566 193.727 232.814 193.576 233.023 193.375C233.231 193.17 233.392 192.917 233.506 192.614L234.801 192.977C234.665 193.417 234.436 193.803 234.114 194.136C233.792 194.466 233.394 194.723 232.92 194.909C232.447 195.091 231.915 195.182 231.324 195.182ZM243.159 188.227L241.955 188.568C241.879 188.367 241.767 188.172 241.619 187.983C241.475 187.79 241.278 187.631 241.028 187.506C240.778 187.381 240.458 187.318 240.068 187.318C239.534 187.318 239.089 187.441 238.733 187.688C238.381 187.93 238.205 188.239 238.205 188.614C238.205 188.947 238.326 189.21 238.568 189.403C238.811 189.597 239.189 189.758 239.705 189.886L241 190.205C241.78 190.394 242.362 190.684 242.744 191.074C243.127 191.46 243.318 191.958 243.318 192.568C243.318 193.068 243.174 193.515 242.886 193.909C242.602 194.303 242.205 194.614 241.693 194.841C241.182 195.068 240.587 195.182 239.909 195.182C239.019 195.182 238.282 194.989 237.699 194.602C237.116 194.216 236.746 193.652 236.591 192.909L237.864 192.591C237.985 193.061 238.214 193.413 238.551 193.648C238.892 193.883 239.337 194 239.886 194C240.511 194 241.008 193.867 241.375 193.602C241.746 193.333 241.932 193.011 241.932 192.636C241.932 192.333 241.826 192.08 241.614 191.875C241.402 191.667 241.076 191.511 240.636 191.409L239.182 191.068C238.383 190.879 237.795 190.585 237.42 190.188C237.049 189.786 236.864 189.284 236.864 188.682C236.864 188.189 237.002 187.754 237.278 187.375C237.559 186.996 237.939 186.699 238.42 186.483C238.905 186.267 239.455 186.159 240.068 186.159C240.932 186.159 241.61 186.348 242.102 186.727C242.598 187.106 242.951 187.606 243.159 188.227ZM249.132 186.273V187.409H244.609V186.273H249.132ZM245.928 184.182H247.268V192.5C247.268 192.879 247.323 193.163 247.433 193.352C247.547 193.538 247.691 193.663 247.865 193.727C248.043 193.788 248.231 193.818 248.428 193.818C248.575 193.818 248.696 193.811 248.791 193.795C248.886 193.777 248.962 193.761 249.018 193.75L249.291 194.955C249.2 194.989 249.073 195.023 248.911 195.057C248.748 195.095 248.541 195.114 248.291 195.114C247.912 195.114 247.541 195.032 247.178 194.869C246.818 194.706 246.518 194.458 246.28 194.125C246.045 193.792 245.928 193.371 245.928 192.864V184.182ZM254.714 195.182C253.874 195.182 253.148 194.996 252.538 194.625C251.932 194.25 251.464 193.727 251.135 193.057C250.809 192.383 250.646 191.598 250.646 190.705C250.646 189.811 250.809 189.023 251.135 188.341C251.464 187.655 251.923 187.121 252.51 186.739C253.101 186.352 253.79 186.159 254.578 186.159C255.033 186.159 255.482 186.235 255.925 186.386C256.368 186.538 256.771 186.784 257.135 187.125C257.499 187.462 257.788 187.909 258.004 188.466C258.22 189.023 258.328 189.708 258.328 190.523V191.091H251.601V189.932H256.964C256.964 189.439 256.866 189 256.669 188.614C256.476 188.227 256.199 187.922 255.839 187.699C255.483 187.475 255.063 187.364 254.578 187.364C254.044 187.364 253.582 187.496 253.192 187.761C252.805 188.023 252.508 188.364 252.3 188.784C252.091 189.205 251.987 189.655 251.987 190.136V190.909C251.987 191.568 252.101 192.127 252.328 192.585C252.559 193.04 252.879 193.386 253.288 193.625C253.697 193.86 254.173 193.977 254.714 193.977C255.067 193.977 255.385 193.928 255.669 193.83C255.957 193.727 256.205 193.576 256.413 193.375C256.622 193.17 256.783 192.917 256.896 192.614L258.192 192.977C258.055 193.417 257.826 193.803 257.504 194.136C257.182 194.466 256.785 194.723 256.311 194.909C255.838 195.091 255.305 195.182 254.714 195.182ZM263.891 198.455C263.243 198.455 262.686 198.371 262.22 198.205C261.754 198.042 261.366 197.826 261.055 197.557C260.749 197.292 260.504 197.008 260.322 196.705L261.391 195.955C261.512 196.114 261.665 196.295 261.851 196.5C262.036 196.708 262.29 196.888 262.612 197.04C262.938 197.195 263.364 197.273 263.891 197.273C264.595 197.273 265.177 197.102 265.635 196.761C266.093 196.42 266.322 195.886 266.322 195.159V193.386H266.209C266.11 193.545 265.97 193.742 265.788 193.977C265.61 194.208 265.353 194.415 265.016 194.597C264.682 194.775 264.232 194.864 263.663 194.864C262.959 194.864 262.326 194.697 261.766 194.364C261.209 194.03 260.768 193.545 260.442 192.909C260.12 192.273 259.959 191.5 259.959 190.591C259.959 189.697 260.116 188.919 260.43 188.256C260.745 187.589 261.182 187.074 261.743 186.71C262.304 186.343 262.951 186.159 263.686 186.159C264.254 186.159 264.705 186.254 265.038 186.443C265.375 186.629 265.633 186.841 265.811 187.08C265.993 187.314 266.133 187.508 266.232 187.659H266.368V186.273H267.663V195.25C267.663 196 267.493 196.61 267.152 197.08C266.815 197.553 266.36 197.9 265.788 198.119C265.22 198.343 264.588 198.455 263.891 198.455ZM263.845 193.659C264.383 193.659 264.838 193.536 265.209 193.29C265.58 193.044 265.862 192.689 266.055 192.227C266.249 191.765 266.345 191.212 266.345 190.568C266.345 189.939 266.25 189.384 266.061 188.903C265.872 188.422 265.591 188.045 265.22 187.773C264.849 187.5 264.391 187.364 263.845 187.364C263.277 187.364 262.804 187.508 262.425 187.795C262.05 188.083 261.768 188.47 261.578 188.955C261.393 189.439 261.3 189.977 261.3 190.568C261.3 191.174 261.394 191.71 261.584 192.176C261.777 192.638 262.061 193.002 262.436 193.267C262.815 193.528 263.285 193.659 263.845 193.659ZM265.141 183.364H266.391C266.391 183.977 266.179 184.479 265.754 184.869C265.33 185.259 264.754 185.455 264.027 185.455C263.311 185.455 262.741 185.259 262.317 184.869C261.896 184.479 261.686 183.977 261.686 183.364H262.936C262.936 183.659 263.018 183.919 263.18 184.142C263.347 184.366 263.629 184.477 264.027 184.477C264.425 184.477 264.709 184.366 264.879 184.142C265.054 183.919 265.141 183.659 265.141 183.364ZM270.118 195V186.273H271.459V195H270.118ZM270.8 184.818C270.538 184.818 270.313 184.729 270.124 184.551C269.938 184.373 269.845 184.159 269.845 183.909C269.845 183.659 269.938 183.445 270.124 183.267C270.313 183.089 270.538 183 270.8 183C271.061 183 271.285 183.089 271.47 183.267C271.66 183.445 271.754 183.659 271.754 183.909C271.754 184.159 271.66 184.373 271.47 184.551C271.285 184.729 271.061 184.818 270.8 184.818ZM284.597 188.227L283.392 188.568C283.316 188.367 283.205 188.172 283.057 187.983C282.913 187.79 282.716 187.631 282.466 187.506C282.216 187.381 281.896 187.318 281.506 187.318C280.972 187.318 280.527 187.441 280.17 187.688C279.818 187.93 279.642 188.239 279.642 188.614C279.642 188.947 279.763 189.21 280.006 189.403C280.248 189.597 280.627 189.758 281.142 189.886L282.438 190.205C283.218 190.394 283.799 190.684 284.182 191.074C284.564 191.46 284.756 191.958 284.756 192.568C284.756 193.068 284.612 193.515 284.324 193.909C284.04 194.303 283.642 194.614 283.131 194.841C282.619 195.068 282.025 195.182 281.347 195.182C280.456 195.182 279.72 194.989 279.136 194.602C278.553 194.216 278.184 193.652 278.028 192.909L279.301 192.591C279.422 193.061 279.652 193.413 279.989 193.648C280.33 193.883 280.775 194 281.324 194C281.949 194 282.445 193.867 282.812 193.602C283.184 193.333 283.369 193.011 283.369 192.636C283.369 192.333 283.263 192.08 283.051 191.875C282.839 191.667 282.513 191.511 282.074 191.409L280.619 191.068C279.82 190.879 279.233 190.585 278.858 190.188C278.487 189.786 278.301 189.284 278.301 188.682C278.301 188.189 278.439 187.754 278.716 187.375C278.996 186.996 279.377 186.699 279.858 186.483C280.343 186.267 280.892 186.159 281.506 186.159C282.369 186.159 283.047 186.348 283.54 186.727C284.036 187.106 284.388 187.606 284.597 188.227ZM289.342 195.205C288.789 195.205 288.287 195.1 287.837 194.892C287.386 194.68 287.028 194.375 286.763 193.977C286.498 193.576 286.365 193.091 286.365 192.523C286.365 192.023 286.464 191.617 286.661 191.307C286.857 190.992 287.121 190.746 287.45 190.568C287.78 190.39 288.143 190.258 288.541 190.17C288.943 190.08 289.346 190.008 289.751 189.955C290.282 189.886 290.712 189.835 291.041 189.801C291.375 189.763 291.617 189.701 291.768 189.614C291.924 189.527 292.001 189.375 292.001 189.159V189.114C292.001 188.553 291.848 188.117 291.541 187.807C291.238 187.496 290.778 187.341 290.161 187.341C289.52 187.341 289.018 187.481 288.655 187.761C288.291 188.042 288.036 188.341 287.888 188.659L286.615 188.205C286.842 187.674 287.145 187.261 287.524 186.966C287.907 186.667 288.323 186.458 288.774 186.341C289.229 186.22 289.676 186.159 290.115 186.159C290.395 186.159 290.717 186.193 291.081 186.261C291.448 186.326 291.803 186.46 292.143 186.665C292.488 186.869 292.774 187.178 293.001 187.591C293.229 188.004 293.342 188.557 293.342 189.25V195H292.001V193.818H291.933C291.842 194.008 291.691 194.21 291.479 194.426C291.267 194.642 290.984 194.826 290.632 194.977C290.28 195.129 289.85 195.205 289.342 195.205ZM289.547 194C290.077 194 290.524 193.896 290.888 193.688C291.255 193.479 291.532 193.21 291.717 192.881C291.907 192.551 292.001 192.205 292.001 191.841V190.614C291.945 190.682 291.82 190.744 291.626 190.801C291.437 190.854 291.217 190.902 290.967 190.943C290.721 190.981 290.481 191.015 290.246 191.045C290.015 191.072 289.827 191.095 289.683 191.114C289.335 191.159 289.009 191.233 288.706 191.335C288.407 191.434 288.164 191.583 287.979 191.784C287.797 191.981 287.706 192.25 287.706 192.591C287.706 193.057 287.878 193.409 288.223 193.648C288.571 193.883 289.013 194 289.547 194ZM299.312 198.455C298.665 198.455 298.108 198.371 297.642 198.205C297.176 198.042 296.788 197.826 296.477 197.557C296.17 197.292 295.926 197.008 295.744 196.705L296.812 195.955C296.934 196.114 297.087 196.295 297.273 196.5C297.458 196.708 297.712 196.888 298.034 197.04C298.36 197.195 298.786 197.273 299.312 197.273C300.017 197.273 300.598 197.102 301.057 196.761C301.515 196.42 301.744 195.886 301.744 195.159V193.386H301.631C301.532 193.545 301.392 193.742 301.21 193.977C301.032 194.208 300.775 194.415 300.438 194.597C300.104 194.775 299.653 194.864 299.085 194.864C298.381 194.864 297.748 194.697 297.188 194.364C296.631 194.03 296.189 193.545 295.864 192.909C295.542 192.273 295.381 191.5 295.381 190.591C295.381 189.697 295.538 188.919 295.852 188.256C296.167 187.589 296.604 187.074 297.165 186.71C297.725 186.343 298.373 186.159 299.108 186.159C299.676 186.159 300.127 186.254 300.46 186.443C300.797 186.629 301.055 186.841 301.233 187.08C301.415 187.314 301.555 187.508 301.653 187.659H301.79V186.273H303.085V195.25C303.085 196 302.915 196.61 302.574 197.08C302.237 197.553 301.782 197.9 301.21 198.119C300.642 198.343 300.009 198.455 299.312 198.455ZM299.267 193.659C299.805 193.659 300.259 193.536 300.631 193.29C301.002 193.044 301.284 192.689 301.477 192.227C301.67 191.765 301.767 191.212 301.767 190.568C301.767 189.939 301.672 189.384 301.483 188.903C301.294 188.422 301.013 188.045 300.642 187.773C300.271 187.5 299.813 187.364 299.267 187.364C298.699 187.364 298.225 187.508 297.847 187.795C297.472 188.083 297.189 188.47 297 188.955C296.814 189.439 296.722 189.977 296.722 190.568C296.722 191.174 296.816 191.71 297.006 192.176C297.199 192.638 297.483 193.002 297.858 193.267C298.237 193.528 298.706 193.659 299.267 193.659ZM300.562 183.364H301.812C301.812 183.977 301.6 184.479 301.176 184.869C300.752 185.259 300.176 185.455 299.449 185.455C298.733 185.455 298.163 185.259 297.739 184.869C297.318 184.479 297.108 183.977 297.108 183.364H298.358C298.358 183.659 298.439 183.919 298.602 184.142C298.769 184.366 299.051 184.477 299.449 184.477C299.847 184.477 300.131 184.366 300.301 184.142C300.475 183.919 300.562 183.659 300.562 183.364ZM306.881 183.364V195H305.54V183.364H306.881ZM309.337 195V186.273H310.678V195H309.337ZM313.997 198.273C313.77 198.273 313.567 198.254 313.389 198.216C313.211 198.182 313.088 198.148 313.02 198.114L313.361 196.932C313.687 197.015 313.974 197.045 314.224 197.023C314.474 197 314.696 196.888 314.889 196.688C315.086 196.491 315.266 196.17 315.429 195.727L315.679 195.045L312.452 186.273H313.906L316.315 193.227H316.406L318.815 186.273H320.27L316.565 196.273C316.399 196.723 316.192 197.097 315.946 197.392C315.7 197.691 315.414 197.913 315.088 198.057C314.766 198.201 314.402 198.273 313.997 198.273ZM325.273 195.182C324.485 195.182 323.794 194.994 323.199 194.619C322.608 194.244 322.146 193.72 321.812 193.045C321.483 192.371 321.318 191.583 321.318 190.682C321.318 189.773 321.483 188.979 321.812 188.301C322.146 187.623 322.608 187.097 323.199 186.722C323.794 186.347 324.485 186.159 325.273 186.159C326.061 186.159 326.75 186.347 327.341 186.722C327.936 187.097 328.398 187.623 328.727 188.301C329.061 188.979 329.227 189.773 329.227 190.682C329.227 191.583 329.061 192.371 328.727 193.045C328.398 193.72 327.936 194.244 327.341 194.619C326.75 194.994 326.061 195.182 325.273 195.182ZM325.273 193.977C325.871 193.977 326.364 193.824 326.75 193.517C327.136 193.21 327.422 192.807 327.608 192.307C327.794 191.807 327.886 191.265 327.886 190.682C327.886 190.098 327.794 189.555 327.608 189.051C327.422 188.547 327.136 188.14 326.75 187.83C326.364 187.519 325.871 187.364 325.273 187.364C324.674 187.364 324.182 187.519 323.795 187.83C323.409 188.14 323.123 188.547 322.938 189.051C322.752 189.555 322.659 190.098 322.659 190.682C322.659 191.265 322.752 191.807 322.938 192.307C323.123 192.807 323.409 193.21 323.795 193.517C324.182 193.824 324.674 193.977 325.273 193.977ZM331.274 195V186.273H332.57V187.591H332.661C332.82 187.159 333.107 186.809 333.524 186.54C333.941 186.271 334.411 186.136 334.933 186.136C335.032 186.136 335.155 186.138 335.303 186.142C335.45 186.146 335.562 186.152 335.638 186.159V187.523C335.592 187.511 335.488 187.494 335.325 187.472C335.166 187.445 334.998 187.432 334.82 187.432C334.395 187.432 334.017 187.521 333.683 187.699C333.354 187.873 333.092 188.116 332.899 188.426C332.71 188.733 332.615 189.083 332.615 189.477V195H331.274ZM342.727 191.432V186.273H344.068V195H342.727V193.523H342.636C342.432 193.966 342.114 194.343 341.682 194.653C341.25 194.96 340.705 195.114 340.045 195.114C339.5 195.114 339.015 194.994 338.591 194.756C338.167 194.513 337.833 194.15 337.591 193.665C337.348 193.176 337.227 192.561 337.227 191.818V186.273H338.568V191.727C338.568 192.364 338.746 192.871 339.102 193.25C339.462 193.629 339.92 193.818 340.477 193.818C340.811 193.818 341.15 193.733 341.494 193.562C341.843 193.392 342.134 193.131 342.369 192.778C342.608 192.426 342.727 191.977 342.727 191.432ZM346.274 195V193.977L351.229 187.614V187.523H346.433V186.273H352.956V187.341L348.138 193.659V193.75H353.115V195H346.274ZM356.158 195.091C355.877 195.091 355.637 194.991 355.436 194.79C355.235 194.589 355.135 194.348 355.135 194.068C355.135 193.788 355.235 193.547 355.436 193.347C355.637 193.146 355.877 193.045 356.158 193.045C356.438 193.045 356.679 193.146 356.879 193.347C357.08 193.547 357.18 193.788 357.18 194.068C357.18 194.254 357.133 194.424 357.038 194.58C356.947 194.735 356.824 194.86 356.669 194.955C356.518 195.045 356.347 195.091 356.158 195.091Z" fill="black"/>
<line y1="128.5" x2="400" y2="128.5" stroke="#FFA800" stroke-width="3"/>
<line x1="-1.31134e-07" y1="216.5" x2="400" y2="216.5" stroke="#D52529" stroke-width="3"/>
</g>
<defs>
<clipPath id="clip0_86_3">
<rect width="400" height="300" fill="white"/>
</clipPath>
</defs>
</svg>
